<?xml version="1.0" encoding="utf-8"?>
<!-- Generator: Adobe Illustrator 23.0.3, SVG Export Plug-In . SVG Version: 6.00 Build 0)  -->
<svg version="1.1" id="Ebene_1" xmlns="http://www.w3.org/2000/svg" xmlns:xlink="http://www.w3.org/1999/xlink" x="0px" y="0px"
	 viewBox="0 0 22.4 13.4" style="enable-background:new 0 0 22.4 13.4;" xml:space="preserve">
<style type="text/css">
	.st0{fill:#7F7674;}
</style>
<path class="st0" d="M2.4,0.1c1.5,1.7,2,2.2,3.5,3.9c0.7,0.7,1.3,1.6,2.1,2.2c0.8,0.7,1.8,1.4,2.7,2c1.1,0.8,1.8-0.1,2.5-0.7
	C14.4,6.4,15.8,5.3,17,4c0.9-1,2.1-1.7,2.3-3.3c0.1-0.4,1.6-0.9,2-0.7c0.6,0.4,1.1,1.4,1,2.1c0,0.8-0.4,1.6-1.5,2.1
	c-1.1,0.5-2,1.5-2.6,2.6c-0.5,1-1.2,1.3-2,1.8c-0.8,0.6-2,1.3-2.2,2.1c-0.2,0.9-0.5,1.4-1.1,1.8c-1.7,1.2-1.9,1.1-3.2-0.2
	C8.6,11.1,7.3,10,6,8.8C4.5,7.2,2.9,5.6,1.4,4c-1.2-1.3-1.8-2.5-1-3.4S2.4,0.1,2.4,0.1z"/>
</svg>
