<?xml version="1.0" encoding="utf-8"?>
<!-- Generator: Adobe Illustrator 23.0.3, SVG Export Plug-In . SVG Version: 6.00 Build 0)  -->
<svg version="1.1" id="Ebene_1" xmlns="http://www.w3.org/2000/svg" xmlns:xlink="http://www.w3.org/1999/xlink" x="0px" y="0px"
	 viewBox="0 0 112 84" style="enable-background:new 0 0 112 84;" xml:space="preserve">
<style type="text/css">
	.st0{fill-rule:evenodd;clip-rule:evenodd;fill:#7F7674;}
</style>
<path class="st0" d="M40.8,38.6c2.5-0.3,3.5-2.3,5.5-3.4c7.3-3.9,15.5,1.2,20.8,7.3c1.8,2.1,2.7,4.6,4.6,4.3
	c1.4-0.2,1.4-3.3,2.3-4.5c2.2-2.9,6.1-5.1,8.6-6.3c5.7-2.8,10.8-1.8,16-2.8c-5.7-4.6-17-5.1-25.1,1.5c-0.5,0.4-1.7,2.5-2.8,2.8
	c-1.3,0.3-2.1-1.4-3.8-2.8C59.9,29.2,44,25.9,40.8,38.6z"/>
<path class="st0" d="M7.1,52.5c5.9-1.6,12.8-1.1,16.1,3.1c1.7,2.2,2.3,5.7,3.6,6c1.9,0.4,4.6-3.6,6.5-4.2c5-1.5,8.7,0.4,11.4,2.3
	c1.4,1,2.8,2.7,4.7,2.6c-1.7-5.3-6.4-9.9-14-9.3c-2.4,0.2-4.7,2.1-6.8,1.8c-1.6-0.2-2.9-3-4.1-3.9C19.5,47.2,9.7,45.8,7.1,52.5z"/>
</svg>
