<?xml version="1.0" encoding="utf-8"?>
<!-- Generator: Adobe Illustrator 23.0.3, SVG Export Plug-In . SVG Version: 6.00 Build 0)  -->
<svg version="1.1" id="Ebene_1" xmlns="http://www.w3.org/2000/svg" xmlns:xlink="http://www.w3.org/1999/xlink" x="0px" y="0px"
	 viewBox="0 0 120 101" style="enable-background:new 0 0 120 101;" xml:space="preserve">
<style type="text/css">
	.st0{fill-rule:evenodd;clip-rule:evenodd;fill:#7F7674;}
</style>
<path class="st0" d="M100.9,13.9C97.7,14,94,17,92.1,16.5c-1-0.2-1.8-1.9-2.9-2.7c-6.3-4.2-15-2.8-17.3,2c3.9-1.4,11.4-2.4,16.5,1.9
	c1.3,1.1,2.3,5.4,4,5.7c1.2,0.2,2.7-2.5,4-3.5c1.2-0.9,3.8-2,5-2.1c5.2-0.5,8.2,2.8,10.8,4.3C111.9,17.3,106.5,13.5,100.9,13.9z"/>
<path class="st0" d="M59.2,51.6c-2.2,1.2-4.1,0.2-6.4,0.6C44.5,53.3,41,62.3,40.4,70.4c-0.2,2.8,0.5,5.3-1.1,6.2
	c-1.3,0.7-3.1-1.8-4.5-2.2c-3.4-1-8-0.5-10.6,0c-6.3,1.1-9.8,5-14.6,7.3c1.8-7.1,10.7-14.2,21-13.7c0.6,0,2.9,1,3.9,0.6
	c1.2-0.5,0.8-2.4,1.4-4.5C38.2,55.5,49,43.3,59.2,51.6z"/>
<path class="st0" d="M95,82.9c-5.9-1.6-12.8-1.1-16.1,3.1c-1.7,2.2-2.3,5.7-3.6,6c-1.9,0.4-4.6-3.6-6.5-4.2c-5-1.5-8.7,0.4-11.4,2.3
	c-1.4,1-2.8,2.7-4.7,2.6c1.7-5.3,6.4-9.9,14-9.3c2.4,0.2,4.7,2.1,6.8,1.8c1.6-0.2,2.9-3,4.2-3.9C82.6,77.7,92.5,76.2,95,82.9z"/>
</svg>
