<?xml version="1.0" encoding="utf-8"?>
<!-- Generator: Adobe Illustrator 23.0.3, SVG Export Plug-In . SVG Version: 6.00 Build 0)  -->
<svg version="1.1" id="Ebene_1" xmlns="http://www.w3.org/2000/svg" xmlns:xlink="http://www.w3.org/1999/xlink" x="0px" y="0px"
	 viewBox="0 0 578 268.9" style="enable-background:new 0 0 578 268.9;" xml:space="preserve">
<style type="text/css">
	.st0{fill-rule:evenodd;clip-rule:evenodd;fill:#F1DDD5;}
</style>
<g>
	<path class="st0" d="M472.3,239.3c1.4,1,2.8-2,2.7-1.9c5.2-8.1,9.8-17.4,16.9-21.7c0.3-0.2,4.6-2.3,6.3-4.2
		c1.3-1.6-5.6,0.9-7.2,1.4c-5.6,1.5-8.8,2.8-13,6.1c-0.5,0.4-4.6,4.7-5.7,3.8c-0.9-0.7,0.8-5.1,1.5-7c2.7-7,7.2-12.9,10.6-16.9
		c1.9-2.3,4-2.7,4.8-5.7c-7.9,2.7-15.2,10.9-19.9,18.8c-1.2,2-5.4,8-3.9,9.6c1.2,1.3,2.5-2,3.3-1c0.5,3.3-4.7,11.4-0.9,12.1
		c1.8,0.3,4-3.5,5.4-5.1c2-2.1,3.4-4.2,6-4.5c-0.4,3.4-2.6,4.4-3.9,6.7C474.7,230.9,470.6,238,472.3,239.3z"/>
	<path class="st0" d="M141.9,113.3c4.3-0.5,8.7-1.1,12.9-2.5c0.1-0.9,0.3-1.9,0.4-2.8c-4.4,1.8-9.1,2.8-13.3,5.1
		C141.8,113.1,141.8,113.3,141.9,113.3z"/>
	<path class="st0" d="M136.3,122.9c-0.1,0,0,0.2,0,0.2c5.4-0.5,12.1-1.2,17.4-3.4c0.1-1,0.2-1.9,0.3-2.9c-2.8,0.7-5.6,1.8-8.3,2.6
		C142.5,120.4,139.4,121.3,136.3,122.9z"/>
	<path class="st0" d="M514.7,226.4c0.8-0.9-2.2-4.1-2.8-4.5c-2.2-1.7-4.6-2.1-7.1-1.6c-1.9,0.3-3.2,0.9-2,1.8
		c2.8,2.1,6.3,4.7,8.1,7.1c0.7,1,1.5,3.5,2.6,2.8c1.4-0.8-0.4-3.9-1-4.7c-0.5-0.7-1.1-1.3-1.8-1.9c-0.1-0.1-1.7-1.7-1.3-1.6
		C510.6,224,514.1,227.1,514.7,226.4z"/>
	<path class="st0" d="M540.2,233.7c2.1,0.5,5.2-7.2,6.1-8.5c2.8-4.6,6.6-7.8,11-9.7c1.3-0.5,3.3-0.6,4.1-2.3c-4.2-2-8-1.1-12.1,0.9
		c-1.1,0.5-5.2,3.5-6.1,2.8c-1.4-1.1,1.3-4.2,1.9-5.1c3.3-5,6.7-9,11-12c-4.7-1.8-13.7,4.2-16.8,7.7c-1.1,1.3-2.1,3.7-3.3,6
		c-0.8,1.5-3.3,5.3-1.4,6.3c2.3,1.1,3.9-8.5,6.3-8c0.4,2.4-7.1,12.4-3.6,13.4c1.2,0.3,6.1-6.2,7.4-4.3c0.7,1-2.7,5.5-3.3,6.5
		C540.5,229.2,537.5,233.1,540.2,233.7z"/>
	<path class="st0" d="M0,250.1c3.6,2,7.9,4,11,4.9c10.7,3,20.9,1.1,29.4-3.1c2.5-1.3,6-5.7,9.1-5.8c1.6,0,4.7,2.1,7.1,3.4
		c6.8,3.6,15.9,8,24.3,8c8.3,0.1,16.4-3.6,22.3-7.5c2-1.3,4.6-4,6.1-4.1c1.5,0,3.6,2.2,5.4,3c5.1,2.4,14.3,5.8,21.6,6
		c6.4,0.2,13.2-2.1,17.5-4.8c1.2-0.8,5.2-5.5,7.1-5.4c1.2,0.1,3.9,3.4,5.4,4.4c2.3,1.5,6.3,3.9,8.4,4.7c7.7,2.8,17,1.6,24-1.4
		c3.1-1.4,8.3-7.9,10.8-7.8c1.5,0.1,5.5,3.7,7.1,4.7c2.7,1.7,5.5,3.6,7.4,4.4c12.5,4.9,24.1,4.3,34.1-1.8c2.5-1.5,6.1-7,8.8-7.1
		c2.8-0.1,10.7,5.7,13.2,6.7c10.8,4.3,20,3.2,29-1.1c2-0.9,8.9-5.8,10.5-5.8c2,0,6.6,4.1,9.1,5.4c3.2,1.7,7.1,3.9,9.8,4.7
		c12.8,3.8,25.8,0.8,35.8-5.1c2.3-1.4,4-4.4,6.1-4.4c1.8,0,4.7,3,7.1,4.4c15.2,8.9,33.9,10.6,48.3,0.9c2.5-1.7,4.9-5.1,6.7-5.1
		c1.7,0,7.2,4.8,9.5,6.4c3.3,2.2,7.2,4.6,10.1,5.7c12.2,4.7,27.4-1.5,35.4-7.2c1.9-1.4,4.9-4.8,6.4-4.7c1.5,0,5.7,3.9,7.4,5
		c2.7,1.9,5.5,4.1,7.4,5c16.2,7.9,34.9,3.1,45.9-5.8c1.5-1.2,4.5-4.3,5.7-4.4c1.3-0.1,4.7,1.7,7.7,3.5v-3.9
		c-2.6-1.3-7.2-4.5-8.8-4.4c-2,0.2-4.2,4.6-6.7,6.8c-3.8,3.3-8.8,6-13.5,7.1c-15.3,3.8-28.8-1.9-37.8-8.4c-2.3-1.6-5.9-5.8-7.8-5.7
		c-2.9,0.1-7.9,7.1-9.4,8.1c-4.5,2.8-10.6,5.5-16.2,6.1c-13.8,1.6-25.2-5.5-31.1-11.1c-1.4-1.3-2.4-3.9-3.7-4
		c-1.9-0.2-2.4,1.8-4,3.4c-3.1,3-7,5.8-10.4,7.4c-13.6,6.4-32.3,0.7-41.5-5.3c-2.3-1.5-5.6-5.6-7.4-5.4c-1.4,0.2-3.8,4.3-5.7,5.7
		c-12.1,9.4-34.3,7.8-47.3-0.6c-2.1-1.3-5-5.5-7.1-5.4c-1.7,0.1-4.7,4.3-7.7,6.1c-2.5,1.5-6.1,3.1-8.4,3.7c-11,3.2-20.6-0.7-28-4.7
		c-2.5-1.3-8.8-5.3-10.1-5c-1.3,0.3-4.1,5.2-4.7,5.7c-11.8,11-33,7.9-44.9-0.9c-2.2-1.6-4.6-5.6-6.8-5.4c-1.1,0.1-3.3,3-4.4,4.1
		c-8.9,8.7-24.6,10.9-36.4,2.8c-1.5-1-5.4-6.7-7.1-6.7c-0.9,0-4.4,3.2-5.7,4.4c-2.3,2-3.9,3.6-5.7,4.4c-10.2,4.4-25.7,1.3-34.4-3.3
		c-2-1-3.7-3.8-5.7-3.7c-1.6,0.1-5,3.6-7.1,5.1c-2.7,1.9-5.8,3.8-8.4,4.7c-13.4,4.8-28.9-0.6-38.5-6c-2.4-1.4-5.4-4.3-7.1-4
		c-1.1,0.2-2.1,2.3-3.4,3.4c-3.5,3.1-8.5,5.7-13.5,6.8c-12,2.6-23.4-0.4-31.2-5.3V250.1z"/>
	<path class="st0" d="M158.1,205c0.3-2.6-2.3-4.2-4-4c-2.2,0.3-4,1.4-3.4,4.3C151.4,208.6,157.6,208.8,158.1,205z"/>
	<path class="st0" d="M230.8,224.7c-2.1,1.9-4.2,3.7-6.6,5.2c-1,0.7-4.8,2.4-4.6,4c0.6,3.6,10.9-4.7,11.6-5.3
		c4.5-4.2,8.6-8.9,13.1-13.1c4.9-4.5,9.6-10.1,14.7-14.1c0.6-0.4,5.7-3.5,4.3-4.9c-1.3-1.3-6.3,3.4-7.4,3.4c-1.7-0.1-5.9-4.8-8-7.1
		c-7.6-8.2-14.7-16.6-20.6-24.8c-4.1-5.8-8.3-12.2-12-18.4c-4-6.7-8.2-12.6-11.4-19c-11.3-23.2-23.7-47.9-31.6-74.2
		c-1.2-4-2.7-8.3-3.1-12.3c-0.4-4.2,0.1-3.9,0-6.4c-0.1-3.2-0.3-5.9-2.5-4.6c-1.5,0.8-0.4,3.7-1.5,4.6c-1.1,0.9-5.3,0.4-7.1,0.9
		c-4.7,1.5-11.2,6.1-16.9,8.3c-1.2,0.5-6.1,1.3-6.1,2.5c0,1.7,9.9,2.8,11.7,2.8c3.1-0.1,15.4-5.7,17.8-1.8c1.7,2.6-0.4,14-1.2,16
		c-2.3,5.3-6.7,10.7-10.4,16.3c-3.6,5.4-6.7,11.5-10.1,16.6c-3.7,5.5-7.7,10.2-11.7,15c-3.8,4.7-7.5,9.9-12,15
		c-4.4,5.1-8.6,9.5-12.6,14.1c-8.4,9.6-15.9,18.9-24.8,28.5c-3.2,3.5-10.4,11.7-14.1,12.9c-4.4,1.4-9.4-0.3-9.2,2.8
		c0.2,1.9,5.6,2.1,8,2.1c29.9,0.7,55-0.3,82.5-0.3c3.3,0,11.9-0.8,12.9,0.6c1,1.5-0.2,4.2-0.6,4.6c-1.1,0.9-5.5,0-6.1,0
		c-2.3,0-4.8,0.2-6.7,0.3c-9.4,0.5-12.3,2.5-12.9,11c0,0.5-0.2,5-0.9,5.5c-0.9,0.6-4-0.3-5.2-0.3c-4.9,0-12.8,0.9-19.6,0.6
		c-4-0.1-17.2-1.8-18.4,0.6c-1.5,2.9,7.1,8.6,8.6,10.1c3.6,3.6,6.2,8.7,10.9,10.7c0.9,0.4,8.2,3.2,8,1.2c-0.2-1.5-4.2-2.7-5.3-3.2
		c-2.6-1.3-4-3-6-5c-0.6-0.6-5.1-3.8-3.7-5.2c0.9-0.9,3.3-0.1,6.7,0c28.9,0.6,59.8-1.3,91.4-3.4c3.3-0.2,7-0.8,10.7-0.9
		c9.8-0.4,16.1,0.1,25.2,0C236.3,219.9,233.4,222.3,230.8,224.7z M247,196.8c1.2,1.3,5,3.8,4.6,5.5c-0.6,2.4-10.6,2-13.2,2.1
		c-5.5,0.3-10.9,1.9-14.1,1.2c-2.4-0.5-4.6-3.9-6.1-5.2c-4.4-3.8-8.3-7.9-17.2-7.7c-6.2,0.2-14.2,1.2-21.5,1.5
		c-2.1,0.1-6.6,0.4-7.1,0c-0.9-0.8-1.5-7-0.3-8.9c1.2-1.8,10.8-3,14.4-3.4c7-0.8,11.3-0.8,17.2-1.2c6.6-0.5,15.4-0.1,22.1,2.5
		c6,2.3,12.5,4.9,16.3,8C244.1,192.9,244.8,194.5,247,196.8z M178.9,85.4c1.9,0.5,2.5,4.1,3.7,7.1c2.6,6.1,5.4,12.4,8.4,18.6
		c0.4-0.1,0.8-0.2,1.2-0.3c1.3-0.3,1.5,1.7,0.2,1.7c-0.2,0-0.5,0-0.7,0c1,2.1,2,4.1,3,6.2c0.3-0.1,0.6-0.2,0.9-0.3
		c1.6-0.7,2.5,2.2,0.7,2.7c-0.1,0-0.3,0.1-0.4,0.1c1.2,2.3,2.4,4.6,3.6,6.9c0.2,0,0.4-0.1,0.7-0.1c1.4-0.1,1.6,1.8,0.6,2.4
		c1.1,2,2.2,4,3.2,6c0.3,0.6,0.6,1.1,0.9,1.6c0.4-0.1,0.8-0.1,1.2-0.2c1.6-0.2,1.9,2.4,0.4,2.8c0,0-0.1,0-0.1,0
		c1.4,2.4,2.8,4.8,4.3,7.1c0.7-0.1,1.4-0.2,2.1-0.2c1.6-0.1,2,2.5,0.4,2.8c-0.3,0.1-0.5,0.1-0.8,0.2c2,3.2,4.1,6.3,6.2,9.5
		c0.7,0,1.4,0,2.1,0c1.5,0.1,1.9,2.3,0.4,2.7c-0.2,0-0.4,0.1-0.5,0.1c1.7,2.6,3.5,5.2,5.3,7.9c1.2,1.9,2.3,4.1,3.7,5.8
		c1.3,1.7,3.7,3,3.7,5.5c-6.4-1.1-11-4.6-19.3-5.2c-10.5-0.8-19.2,0.5-28.8,1.8c-2.4,0.3-8.1,1.4-8.6,0.9c-1.5-1.5,1.7-5.3,2.1-6.4
		c8.3-23.3,4.1-63.6,0-86.5C178.5,86,178.8,85.8,178.9,85.4z M171.3,67.3c5.8,27.2,12.9,65.2,5.8,97.5c-0.8,3.8-1.1,8.7-4.6,10.7
		c-1.1-34.9-0.4-73.3-2.1-108.3H171.3z M165.8,185.1c0-6.8,0.9-19.4,0.9-27.9c0-2.8-0.9-6.3,0.3-8.3c0.4,0,0.5,0.1,0.6,0.3
		c1.8,10.6,0.7,25.3,0.3,35.3c-0.1,2.5,0.8,9.5-0.9,9.8C165.3,194.6,165.7,186.7,165.8,185.1z M147.3,181.4
		c-20.2,0.9-47.8,1.7-69.3,2.1c1.5-2.4,6.2-3.9,9.5-4.6c9.1-2,20.1-1.9,31.6-2.5c8.9-0.4,25.7,0.5,32.5,2.8c0.5,0.2,2.2,0.7,2.1,1.2
		C153.6,181.9,148.6,181.4,147.3,181.4z M156.2,176.5c-0.7,0.7-9-1.9-10.7-2.1c-20.3-3.4-45.3-2-62.9,2.8c-0.1-2.8,2.8-4.3,4.3-6.1
		c8.2-9.8,16.9-19.7,25.8-29.4c10.3-11.3,19.9-24.1,29.4-36.5c6.6-8.6,10.9-18.6,17.2-26.7c2.5-3.2,1.2,4,0.6,6.1
		c-1.1,4.3-2.2,9.1-3.2,14.1c1.5,0,2.1,2.7,0.3,3c-0.3,0.1-0.6,0.1-0.9,0.2c-0.4,2-0.7,4.1-1,6.1c0.2-0.1,0.4-0.1,0.6-0.2
		c1.5-0.6,2.2,1.9,0.7,2.5c-0.5,0.2-1.1,0.4-1.6,0.6c-0.3,2-0.5,4-0.7,6c0.4-0.1,0.9-0.2,1.3-0.3c1.2-0.2,2,1.4,0.8,2
		c-0.8,0.4-1.6,0.8-2.5,1.1c-0.2,1.7-0.3,3.4-0.4,5.2c0.2-0.1,0.4-0.1,0.6-0.2c1.7-0.6,2.5,2.2,0.8,2.7c-0.5,0.2-1,0.3-1.5,0.5
		c-0.1,2.4-0.1,4.7-0.1,7c0,0.6,0,1.2,0,1.8c0.9,0.3,1,1.9,0.1,2.4c-0.1,0-0.1,0.1-0.2,0.1c0,2.2-0.1,4.6-0.1,7.1
		c0.8,0.7,1,2.2,0,2.8c0,3.4,0.1,6.9,0.3,10.3c1,0.4,1.1,1.9,0.2,2.5c0.2,1.9,0.5,3.8,0.8,5.5C154.5,168,157.5,175.3,156.2,176.5z
		 M162.1,177.7c-2.6-0.9-2.7-4.6-3.4-7.4c-3.5-14.8-3.1-37.6-0.9-55.5c1.6-12.9,3.2-25.2,5.8-32.8c0.2-0.6,0.3-1.4,1.5-1.2
		C163.6,111.1,164.3,146.8,162.1,177.7z M141.2,199.5c2.5-2.5,13.7-1.2,19-1.2c10.4,0,26.9-0.8,37.7-1.5c3.2-0.2,8.4-0.6,11,0.3
		c1.5,0.5,3.7,2.6,5.2,4c1.8,1.5,4.1,3,4.3,4.9c-6.7,1.8-14.4,1.2-22.4,1.8c-7.9,0.6-18.6,1.8-28.5,1.8c-4.4,0-9.6,0.1-14.4,0.6
		c-2.9,0.3-12,1.5-13.2,0C139,209.1,140.1,200.7,141.2,199.5z M236.6,213c-7.9,0.6-13.7,0-21.2,0c-10.8,0-21.8,2.1-31,2.8
		c-2.2,0.2-4.5-0.4-6.7-0.3c-3,0.1-9.3,1-12.9,1.2c-12.6,0.9-28.7,0.7-42.3,0.6c-7.7-0.1-10.9-0.1-19.3-0.3c-1.4,0-5.1,0-5.2-1.2
		c-0.1-1.7,7.1-1.2,8-1.2c36.2,0.2,82.6-2.2,121.5-5.2c5.8-0.4,11-0.7,15.9-0.9c0.2,0,0.4,0,0.6,0c1,0.1,1.2-0.6,1.8,0
		c1.3,1.3-1.8,3.7-2.8,4C241.2,213,238.3,212.9,236.6,213z"/>
	<path class="st0" d="M578,264.8c-5.3-0.8-10.1-2.3-13.8-3.9c-2.5-1.1-5.1-2.9-6.8-2.9c-2.7,0-6.5,3-9.1,4c-4.6,1.9-10.1,3-15.5,3.2
		c-11.4,0.4-19.9-3.3-27.4-7.1c-1.8-0.9-4.7-2.8-5.7-2.9c-2.7-0.1-6.5,3.7-8.4,4.6c-11.5,5.2-29.4,5.1-40.8-0.5
		c-2.2-1.1-3.4-3.4-5.4-3.4c-1.8,0-2.3,1.3-4.4,2.6c-9.5,6.2-28,5.9-40.5,2.7c-3.6-0.9-7.7-1.7-10.5-3.1c-1.5-0.8-2.7-3.4-4.4-3.4
		c-0.8,0-3.9,2.1-5.4,2.9c-5.6,2.9-13.2,5.5-20.2,6.1c-11.4,0.9-18.8-1.9-25.7-4.8c-2.9-1.2-8.2-4.9-10.1-4.9
		c-2,0.1-5.6,3.9-8.1,5.2c-11.7,6.1-30.4,4.5-40.5-1.1c-2.2-1.2-4.9-4.1-6.8-4c-2,0.1-5.8,3.5-7.7,4.3c-13.5,5.6-29.1,3-40.2-1.9
		c-2-0.9-4.8-2.7-6.1-2.6c-1.6,0.2-6.9,4.7-8.1,5.2c-8.2,3.8-19.8,3.8-29.4,1.2c-2-0.5-8.2-3.5-9.5-3.4c-2.2,0.1-5.5,3.8-6.4,4.3
		c-11.4,6-26.6,3.7-38.8-1.6c-1.5-0.6-4.2-3.4-6.1-3.4c-2.8-0.1-7.1,4.2-10.1,5.5c-4.7,2.1-11,3.3-16.5,3.5
		c-9.3,0.3-13.6-1.7-19.6-4.3c-2.6-1.2-5.9-3.9-8.1-4c-2.1-0.1-6.2,2.2-8.4,3.2c-2.9,1.3-5.8,2.6-8.4,3.5
		c-10.7,3.3-27.5,1.6-37.1-3.4c-2.6-1.4-4.8-4.6-7.1-4.6c-0.2,0-0.5,0-0.8,0.1v3.9c0.2,0,0.3,0,0.5,0c2.4,0.1,6.2,3.9,8.5,4.9
		c7.2,3.1,18.8,4.9,27,4.3c7-0.5,11.9-3.1,16.9-5.2c2.6-1.1,5.7-3.3,8.1-3.2c2.2,0.1,6.7,2.8,9.5,4c3.3,1.5,6.9,3,10.1,3.7
		c10,2.1,22.2-1.1,28.7-4.4c2-1,4.6-3.4,6.4-3.5c1.9,0,4.6,2.3,6.8,3.1c5.1,2.1,13.3,4.7,19.6,5.1c8.4,0.5,13.8-1.5,19.2-4.1
		c2-0.9,5.6-3.7,7.1-3.8c0.9,0,4.3,1.5,6.1,2c2.2,0.7,4.4,1.6,6.1,2c9,1.9,17.7,1.3,25-1.5c2.4-0.9,7.4-5.4,9.8-5.5
		c1.8,0,4.9,2.2,7.1,3.1c2.6,1.1,5.3,2.2,7.8,2.9c9.3,2.4,19.2,1.7,27.7-0.9c3.4-1,7.7-4.7,10.5-4.6c3.1,0,6.7,4,9.8,5.2
		c5.5,2.1,13.6,3.9,20.3,3.7c7-0.2,14.7-3.1,19.6-5.5c2.5-1.3,4.4-3.5,6.4-3.5c1.9,0,7.1,3,9.5,4c6.5,2.7,12.9,5.8,22,5.4
		c4.6-0.2,14-2.1,17.9-3.5c3.4-1.3,7.5-5,10.8-4.9c1.2,0,4,1.5,6.1,2.3c11.9,4.8,29.1,8.3,43.9,3.3c3.3-1.1,7.7-4.4,10.5-4.3
		c2.8,0,7.5,3.1,10.8,4.3c10.6,3.7,25.1,2.9,34.4-0.9c2.7-1.1,7.1-4.3,9.4-4.3c2.8,0,8.8,4.2,12.2,5.4c11,4,25.2,5.6,36.8,0.8
		c2.9-1.2,5.5-4,8.4-4c1.6,0,4.7,1.7,6.8,2.6c2.5,1.1,4.9,1.9,7.1,2.6c2.5,0.7,4.9,1.2,7.4,1.5V264.8z"/>
	<path class="st0" d="M174.3,207.2c4.3-0.4,3.7-8.2-1.8-6.4C167.7,202.3,171.6,207.4,174.3,207.2z"/>
	<path class="st0" d="M568.1,72.6c-1.1,1.2-2.3,5.3-4.1,5.1c-1-0.1-2-3.5-3.3-5.7c-3-5-8.4-9.6-12.4-11.4c-2.8-1.2-1.7,5-2.8,5.7
		c-0.9,0.6-4.2-1.3-4.7-1.4c-3.2-1.1-14.6-2-15.4,1.7c-0.3,1.2,2.2,1.9,1.4,3.4c-0.2,0.5-3.4,0.8-3.9,0.9c-3.6,0.7-10.5,2.8-10.5,6
		c0,1.7,2.2,1.1,1.6,3.4c-0.3,1.2-4,2.4-5.5,3.4c-2.2,1.5-4,2.7-5,4c0,0-1.8,1.7-1.4,3.1c0.6,2.2,3.3,0.5,3.9,2.6
		c0.7,2.4-3.5,5-0.3,5.7c1.3,0.3,4.7-6.8,4.7-7.1c-0.4-2.4-3-1.4-3-3.1c-0.1-2.2,6.5-4.7,8-5.1c1.6-0.4,4-0.4,4.4-1.7
		c0.8-2.8-3.5-2.5-2.8-5.4c1-4.1,13.4-1.3,14.6-4c1.2-2.8-2.1-2.8-1.1-4.6c0.6-1,5.8-0.8,7.4-0.6c2.6,0.3,8.8,4.4,10.2,3.4
		c1.3-0.9-0.1-4,1.4-5.1c1.1-0.9,5.2,2.7,6.3,4c1.3,1.6,3.8,5.1,4.4,7.7c0.1,0.3,0.6,2.9,0,3.4c-1.1,0.8-3.1-3.1-4.4-4.3
		c-0.6-0.5-3.5-2.9-4.4-2c-1.4,1.5,2.6,3.2,1.4,4c-0.7,0.5-4.8-1.4-5.8-1.7c-2.1-0.7-4-1.5-6.1-1.7c-4-0.4-10.7,0.2-11,3.1
		c-0.1,1,3.4,3.5,2.5,5.1c-0.6,1-4.5,0-5,0c-4,0.1-14.4,3.8-14.3,7.1c0,1.8,4.6,3.3,4.1,5.1c-0.2,1-2.8,1.3-3,1.4
		c-2.9,1.4-6.9,3.8-8.5,5.7c-1.1,1.3-4.4,6.6-3,8c0.6,0.6,4.9-0.7,5.5,1.1c0.3,0.8-2.1,2.7-1.7,2.3c-2.9,3-3.4,5.2-5.5,10
		c-1,2.3-3.8,7.2-2.2,8.8c0.3,0.3,7.3-2.4,8.3-1.1c0.5,0.7-1.4,5.9-1.7,7.7c-0.6,3.3-1.1,6.8-1.1,8.5c0,1.6,0.6,8.5,1.4,8.8
		c0.9,0.4,2.4-2.6,2.8-3.1c1-1.8,1.5-2.8,2.2-4c0.8-1.4,3.9-7.1,5.8-6.6c0.9,0.3,0.8,3.4,1.9,3.7c0.9,0.3,2.8-2.2,3.6-3.4
		c2.4-3.5,3.1-5.5,4.4-9.7c0.3-0.9,0.9-4.9,2.2-4.8c1.6,0,1.4,5.5,3.9,5.1c1.1-0.1,2.4-4,2.8-4.8c1.7-4.2,2.8-6.8,4.1-11.7
		c0.5-1.7,2.7-8.5,3.9-4.3c0.8,3-5.1,6.5-3.3,8.8c1.8,2.3,5.9-3,7.2-0.3c0.4,0.8-1.9,2.7-2.8,3.7c-2.2,2.7-2.6,4-6.3,4.3
		c0.5,2.5,1.4,1.9,1.4,3.4c0,2.4-4.6,7.3-1.9,8.5c2,1,4.2-3.5,5.8-2.3c1.4,1.1-1.9,5.7-3,6c-1.6,0.3-4.4-0.6-5-2.3
		c-0.9-2.7,2.1-6.3,0-7.4c-2.6-1.4-2.1,4.1-3,5.4c-1.4,1.8-1.9-0.2-3,1.4c-1.7,2.4,0.2,8.7-1.1,11.4c-0.4,0.8-2.6,1-3,1.7
		c-1.8,2.8,0.4,10.3-0.6,13.7c-0.3,1-2,1.9-2.2,3.1c-0.6,3,1.1,6.5,0,8.8c-0.3,0.7-1.8,1.1-2.2,1.7c-2.8,4.4,0.7,11.5-0.8,15.9
		c-0.4,1-2.2,1.7-2.5,2.6c-1.1,3.7,2.4,8.8,1.1,11.1c-0.6,1-2.3,0.7-2.8,1.7c-1.1,2.2,0.4,5.5,1.1,8.3c0.3,1,1.3,7.1,3.3,6.5
		c3.1-0.8-1.1-4.5,0.8-6.5c1.1-1.2,6,0.7,5.8-2c-0.3-2.7-8.5,0.3-7.4-3.4c0.4-1.4,2.3-0.6,2.8-1.1c0.4-0.5,0.2-1.7,0.3-2
		c0.3-2.2,2.9-2.9,5.2-1.7c4.6,2.3-1.9,17.1,2.2,16.8c1.2-0.1,1.8-3,1.9-3.7c0.8-3.5,1.9-9.3,1.7-12c-0.1-1.4-1.1-2-1.1-3.4
		c0-2.3,1.7-4.3,1.7-6.8c0-1-0.6-2.2-0.6-3.1c0.2-4.2,2.9-6.5,2.8-10c0-1.4-0.9-2.3-0.8-3.1c0.1-3.5,3.9-7.9,3.9-12
		c0-0.9-0.6-1.7-0.6-2.6c0.3-3.1,2.9-5.4,3-8c0-0.9-0.7-2.4-0.6-2.8c0.2-0.8,4.7-5.7,6.1-4.6c0.6,0.5,0.1,2.4,0,3.7
		c-0.2,3.2-0.8,5.7-1.1,9.4c0,0.7-0.8,7.7,0.8,8.3c0.8,0.3,2.7-2.6,3-3.1c1.3-1.8,5.9-11,8.3-10.3c1.4,0.4,1.3,5.9,2.8,6.3
		c1.7,0.5,3.5-5,4.4-6.8c2.3-5.1,3.9-13.1,3.6-19.9c-0.1-1.7-1.1-3.4,0-4c1.7-0.9,3.3,5.1,5.5,4.3c2.3-0.8,1.5-10.4,1.4-13.4
		c-0.2-4.2-2.6-11.1-0.8-11.7c1.4-0.5,2.2,2.5,3.6,3.1v-14.8c-0.7-2-4-7.4-2.8-8.2c0.7-0.5,1.8,0.9,2.8,2.6v-4.5
		c-2-1.6-4.4-2.6-5.5-5.5c2.1-0.2,3.9-0.3,5.5-0.2v-2.9c-2-0.3-4.2-0.3-6.6,0c-0.7,0.1-4.2,0.9-4.7,0.3c-1.7-2.4,5.7-3.7,8.3-4.6
		c0.8-0.3,1-1.1,3-1.7v-2.5c-1.5,0.3-2.9,0.7-3.8,0.8c-0.7,0.1-1.6-0.1-1.9,0c-1.6,0.4-5.8,3.8-6.9,2.3c-1-1.3,2.7-6.6,3.9-8
		c1.5-1.8,3.3-3.2,6.3-4.8c0.6-0.3,1.5-0.8,2.5-1.3v-3.3c-0.6,0.2-1,0.4-1.4,0.6C572.8,68.8,569.5,71.1,568.1,72.6z M531.7,155.5
		c2.5-1.5,7.5,2.8,4.4,5.4c-0.7,0.6-4.3,0-5-0.9C530.2,158.8,531.1,155.9,531.7,155.5z M528.7,209c-1.4,1-6.9,0.1-7.4-0.6
		c-0.5-0.5-1.3-3.3-0.3-4.3c0.6-0.6,4.6-0.5,6.6-0.3c1.5,0.1,1.4-0.5,1.9,0C530.9,205.3,528.9,208.9,528.7,209z M523.4,200.8
		c-1.1-0.9-1.3-4,0-5.1c0.8-0.7,5.8-0.3,6.6,0.9C532.2,199.5,526.2,203.2,523.4,200.8z M532,192.8c-0.5,0.9-7.9,0.4-9.1-1.4
		c-0.8-1.3-0.5-3.6,0.3-4.3c0,0,6.7,0.6,7.2,0.9C531.2,188.5,532.2,192.3,532,192.8z M532,184.5c-1.3,0.7-5.2,0.4-5.8-0.3
		c-0.9-1.1-1-4.6,0.3-5.7c0.9-0.8,1.3,0.1,3.3,0.3c1.5,0.1,3.6-0.6,4.1,0C534.7,179.7,533.5,183.7,532,184.5z M533.6,175.7
		c-1.5,0.8-6.2,0-6.6-0.9c-0.1-0.3,0.8-4.4,1.4-4.8c0.5-0.3,6.3,0.6,6.6,1.1C535.5,172.1,534.2,175.4,533.6,175.7z M536.7,168
		c-1.1,0.6-8.3-1.1-8.5-1.4c-0.9-1-0.2-2.9,0-4.8c0.9-0.7,1.3,0.8,3.6,1.7c2.1,0.8,5.6,0.4,6.1,1.1
		C538.3,165.4,537.4,167.7,536.7,168z M537.8,153.5c-0.7,0.3-5.6-0.5-6.3-2.3c-0.5-1.3-0.3-4.6,0.8-5.4c0.1-0.1,0-0.4,0.3-0.3
		c-0.1,0,6.8,2.8,6.9,3.1C540.2,150.3,538.3,153.3,537.8,153.5z M541.6,104.8c-2.3,0.5-3.8,8.2-4.7,11.4c-0.4,1.6-3,11.2-4.4,11.4
		c-2.4,0.4-1.8-6.2-4.1-6.3c-2.2-0.1-3.4,7.7-4.1,10c-0.3,1.1-2.6,10.1-4.7,9.4c-1.9-0.6-0.3-5.1-2.8-4.8c-1.3,0.1-1,1.9-1.6,3.1
		c-1.4,2.5-5,6.6-7.2,8.3c0-3.3,0.1-7.1,1.1-11.4c0.6-2.5,3.5-5.3,3-7.1c-0.9-3.5-6.6,1-9.4-0.3c1-3.6,2.3-8.6,5-11.7
		c1.8-2.1,7.4-5,7.4-6.5c0.1-3.3-5.2-1.7-8.5-2.6c1.2-3.6,3.7-5.4,7.4-7.1c2-0.9,9.9-2.4,9.9-4.6c0-2.3-6.9-2.5-6.6-5.4
		c0.2-1.5,4.4-2.9,6.9-3.4c2.9-0.6,12.8,1.3,13.5-0.8c0.7-2.1-4.1-4.1-3.6-6.3c0.5-2.1,6.5-1.7,8.8-1.4c3.7,0.4,8.3,2.5,11.3,4.6
		c1.2,0.8,2.9,1.7,2.8,2.6c-0.2,1.8-6,2.3-7.4,2.8c-15.1,5.6-25.7,16.9-32.2,31.6c-0.5,1.2-3.1,7.7-1.1,8.3c1.3,0.4,3.3-5.5,3.6-6.3
		c2.8-6.7,6.3-13.8,10.8-18.2c3.3-3.3,8.9-7.6,13.5-9.7c5-2.3,10.8-5.8,17.4-4.3c-1.7,2.3-4.4,2.6-6.6,4c-1.9,1.2-8.6,5.1-8.3,8
		c0.3,2.8,3.6,0.6,4.7,2.8c0.7,1.3-2.9,3.8-4.1,4c-1-1.4,1.1-2.6,0-3.7c-1.3-1.3-1.9,0.9-2.8,0.9
		C543.3,105.9,542.6,104.6,541.6,104.8z M565.9,102.5c0.3-3.8-1.5-10.7,2.8-6.3c1.4,1.5,3.7,6,4.4,7.7c1.6,3.6,3.2,6.9,3,12.8
		c-2.1,0.8-4.2-2.3-5.8-1.7c-2.6,1,0.8,6.7,1.4,10.8c0.3,2,1,12,0,12.5c-1.4,0.8-4.5-5.1-6.9-4.3c-1.6,0.6-0.6,2.3-0.3,4.3
		c0.8,5.9,0.7,14.5-0.3,19.9c-0.1,0.6-1.7,5.6-2.5,5.7c-2.2,0.2-1.4-7-3.9-7.1c-1.8-0.1-1.5,2.4-2.5,4.6c-0.6,1.3-1.9,2.7-3,4.3
		c-1.1,1.6-1.9,3.7-3.3,4c-0.9-2.5,0.5-5.1,0.8-8.3c0.3-2.3,1.1-8.1-1.4-8.8c-2.9-0.8-5.1,4.2-6.9,3.1c-2-1.2,2.4-9.6,3-10.8
		c1.3-2.6,6-10.2,3.6-11.4c-1.4-0.7-5.1,3.1-6.1,1.7c-0.8-1.2,1.9-4.4,2.2-4.8c1.2-1.7,2.3-2.8,3-3.7c1.1-1.3,6.2-6.2,5.2-8.3
		c-1-2.2-6.5,0.9-7.4-0.9c-0.6-1.1,4.9-6.8,5.5-7.4c1.2-1.3,1.5-1.6,3.3-3.1c2.4-2,5.2-3.6,0.8-5.1c-1-0.3-2.9,0-3.3-0.9
		c-0.7-1.6,7-6.5,8.5-6.8c2.2-0.5,2.6,1.2,2.8,3.4c0.5,5-0.9,10.3-1.7,15.1c-0.7,4.6-1.4,9.4-2.2,14.5c-0.8,5.4-3.1,14.3-4.7,20.2
		c-0.4,1.4-2.1,5.5,0,6c1.7,0.3,3-4.9,3.3-6.3c1.7-7.2,3-14,4.1-20.8C563.2,117.8,565.2,110.8,565.9,102.5z"/>
	<path class="st0" d="M149.2,102.4c-0.5,0.3-0.1,1,0.4,0.9c2.2-0.4,4.4-1,6.6-1.5c0.2-1.1,0.4-2.2,0.6-3.2c-0.2,0-0.3,0-0.5,0.1
		C153.7,99.7,151.5,101.1,149.2,102.4z"/>
	<path class="st0" d="M195.2,206.3c4.8,0.2,5-7.7-0.6-6.4C190.2,200.8,191.6,206.1,195.2,206.3z"/>
	<path class="st0" d="M430.7,86.8C436.7,89.5,433.4,80.2,430.7,86.8L430.7,86.8z"/>
	<path class="st0" d="M130.1,132.3c3.4,0.2,6.8-0.7,10.2-1.3c4.4-0.8,8.8-1.8,13-3.1c0-1,0.1-2,0.1-3c-7.7,2.7-15.6,4.6-23.4,7.2
		C129.9,132,129.9,132.3,130.1,132.3z"/>
	<path class="st0" d="M444.2,23.9c-2.4,1.7,4.2,5.2,4.5,2.1C448.9,24.7,445.3,23.2,444.2,23.9z"/>
	<path class="st0" d="M186.5,113c1.7-0.3,3.5-0.4,5.2-0.5c-0.2-0.5-0.5-1-0.7-1.5C189.4,111.5,187.9,112,186.5,113
		C186.4,113,186.5,113,186.5,113z"/>
	<path class="st0" d="M451.8,28.9c-0.1,2.2,5.7,3.7,7.5,4.7c3,1.7,5.8,3.5,8.4,3.5c-2.8-3.3-10-8.5-14.2-9.7
		C452.5,27.1,451.8,28.4,451.8,28.9z"/>
	<path class="st0" d="M354.3,23.9c0.4-1.8-1.5-1.8-2.4-1.8c-2,0.1-3.4,1-3.3,2.1C348.7,26.6,354.1,25.2,354.3,23.9z"/>
	<path class="st0" d="M189.7,131.5c-0.1,0-0.1,0.2,0.1,0.2c3.5-0.2,7-1,10.5-1.1c0.2,0,0.4-0.1,0.6-0.1c-0.4-0.8-0.8-1.5-1.2-2.3
		c-1.4,0.1-2.7,0.5-4,1.1C193.7,130,191.6,130.4,189.7,131.5z"/>
	<path class="st0" d="M191.9,142.3c4.6,0.2,10.1-0.5,14.6-1.7c-0.5-0.9-1-1.8-1.5-2.6c-4.5,0.7-8.7,2.8-13.2,3.5
		C191.3,141.6,191.4,142.3,191.9,142.3z"/>
	<path class="st0" d="M191.9,153.8c6.8-0.3,14-1.7,20.7-3.3c-0.6-0.9-1.2-1.9-1.8-2.8c-6.5,0.8-12.8,3.5-19,5.2
		C191.3,153,191.4,153.8,191.9,153.8z"/>
	<path class="st0" d="M193.6,164.9c8.8-0.9,18.3-0.1,27-2c-0.6-1-1.3-1.9-1.9-2.9C210.3,159.9,201.1,161.4,193.6,164.9
		C193.6,164.8,193.6,164.9,193.6,164.9z"/>
	<path class="st0" d="M151.6,146c-3.8,1.5-8.4,1.8-12.4,3c-5.2,1.6-10.6,2.3-15.7,4.3c-0.1,0-0.1,0.2,0,0.2c5.5-0.5,10.9-1,16.3-2
		c4.1-0.7,9.3-0.3,13.1-2.4c0,0,0.1-0.1,0.1-0.1c0-1,0-1.9,0-2.8C152.7,145.9,152.2,145.7,151.6,146z"/>
	<path class="st0" d="M145.2,138.4c-2.7,0.5-5.2,1.6-7.9,2.2c-0.2,0-0.1,0.3,0,0.3c2.7,0.2,5.4-0.3,8.2-0.4c2.5-0.1,5.4,0,7.6-1.3
		c0-0.9,0-1.7,0-2.5c-0.2-0.1-0.3-0.1-0.5-0.1C150.1,136.7,147.8,137.9,145.2,138.4z"/>
	<path class="st0" d="M138.5,161.3c-6.8,1.1-13.6,2.2-20.4,3.3c-0.4,0.1-0.3,0.7,0.1,0.7c11.2-0.6,24.2,0,35-3.4
		c0.1,0,0.3-0.1,0.4-0.2c-0.1-0.8-0.2-1.6-0.2-2.5c-0.2-0.1-0.3-0.1-0.5-0.1C148.1,159.2,143.2,160.6,138.5,161.3z"/>
	<path class="st0" d="M187.7,122.2c2.8-0.3,5.6-0.4,8.4-1.1c-0.4-0.8-0.8-1.6-1.2-2.4c-2.5,0.9-5.1,1.4-7.4,2.7
		C187.1,121.6,187.2,122.3,187.7,122.2z"/>
	<path class="st0" d="M416.8,46.6c-2.8,0.8,0.2,3.1,0.9,3C419.9,49.1,417.6,46.4,416.8,46.6z"/>
	<path class="st0" d="M446.3,95.9c3.2,0.8,5-7.4,7.2-6.5c0.9,0.4,1.3,5.7,1.5,6.8c1.2,5.4,2.5,8.1,4.5,12.1c0.4,0.8,1.9,4.8,3.9,4.4
		c2.2-0.4,2.5-8,5.1-8c1,0,3.7,4.2,4.8,5.9c1.4,2.1,3.3,4.9,4.5,6.2c0.9,0.9,6.5,6.2,7.8,5.6c1.8-0.8,0.5-6.6-0.6-10.6
		c-1-3.5-2.1-8.4-3-10.3c-0.7-1.5-3.6-4.6-4.5-7.1c-2.2-5.8,4.9-1.3,7.2,0c2.2,1.2,5.1,4.4,6.9,3.5c2.6-1.2-2.9-12.1-3.6-13.6
		c-2.2-4.1-5.6-9.3-7.5-11.5c-2.2-2.6-5.5-4.2-7.5-7.4c3.7-1.3,8.7,1.9,10-0.6c0.8-1.7-4.8-7.7-6.3-9.1c-4-4-8.9-6.3-14.8-8.9
		c0.9,0.4-2.5-0.2-2.1-1.5c0.4-1.1,3.1-0.6,4.5-0.9c6.5-1.3,1.9-3.8-1.5-5.9c-5.9-3.6-13.9-7.3-20.8-8c-1.7-0.2-6,0.6-6.6-0.6
		c-1-1.9,5.7-3.7,5.4-5.6c-0.3-1.7-7-3.3-11.5-3.5c-8-0.5-13.6,1.5-18.4,3.8c-0.4,0.2-3.1,2.4-3.9,1.2c-0.9-1.4,5.3-5.1,6.9-5.9
		c1.6-0.8,9-2.9,9-3.8c0.2-2.8-5.3-0.7-7.2,0c-2.7,1-5.5,1.9-7.2,3.2c-0.5,0.4-5,5.9-5.7,4.7c-0.6-0.9,1.5-4.2,3.3-6.2
		c5.8-6.3,10.4-9.8,19.9-12.7c2.2-0.7,8.3-2.4,9.4-0.9c1.7,2.5-4.1,7.4-3.3,9.4c1,2.5,8.9-1.1,12.4-1.2c3.5-0.1,8.6,0.1,13,1.2
		c1.9,0.5,9.7,2.4,9.7,4.4c-0.1,2.5-9.1,3.4-8.8,6.5c0.2,1.6,4.1,2,6.3,2.4c1.9,0.3,4.7,1,6.9,1.8c1.8,0.6,11.6,3.8,10.9,6.5
		c-0.6,2.2-6.3,1-6.6,3.5c-0.2,1.9,2.8,2.3,4.2,3.2c2,1.3,3.5,3.2,5.7,5.6c1,1.1,5.5,5.5,4.5,6.8c-1.5,2-11.3-6.2-12.7-2.4
		c-0.5,1.5,4.9,3.4,6,3.8c4.7,1.9,6.5,2.6,9.7,4.4c6.5,3.9,1.2-6.4-0.3-8.6c-2.3-3.4-4.5-6.4-6-8c-1-1-4.5-3-3.9-4.4
		c0.5-1.3,5.9-0.7,6.3-2.7c0.5-2-5.8-5.7-7.5-6.8c-3.3-1.9-7-3.8-9.7-4.7c-1-0.3-4.9-0.5-4.8-2.4c0.1-2.8,6.9-1.7,6.6-5
		c-0.1-1.8-5.4-3.4-7.8-4.4c-6.1-2.6-12.7-4.7-21.1-4.4c-2,0.1-6.3,2.1-7.2,0.9c-0.7-0.8,0.7-3.4,0.9-4.1c1.3-3.9,1.4-5.7-3-5.9
		c-4-0.2-9.1,1.6-12.7,3c-9.7,3.5-16.9,9.2-22,16.8c-0.7,1-2.3,4.9-3.3,4.7c-1-0.1-1.9-4.3-2.4-5.6c-0.8-1.9-2-4-2.7-5.3
		c-1.4-2.5-6-9-7.5-8.6c-0.9,0.2-1.1,2.4-1.8,4.4c-1.3,4-1.7,5.2-4.8,3c-5.2-3.7-14.7-9.2-22.9-8c-0.9,0.1-2.8,0.9-3,2.1
		c-0.2,1.4,4.1,4.1,3,5.9c-0.7,1.2-9.1,0.1-10.9,0.3c-2.9,0.4-13.7,3-14.2,5.3c-0.5,2.5,4.8,3.7,4.2,5.9c-0.3,1.2-3,1.2-4.5,1.8
		c-1.8,0.7-4.9,2.4-6.9,4.1c-2,1.6-5.4,4.4-4.5,6.5c0.8,2.1,5.6,0,6.3,2.7c0.4,1.4-2.5,3.5-3.6,5c-2.7,3.9-4.1,7.2-5.4,11.8
		c-0.3,1.2-2,6,0.3,6.8c1.5,0.5,4.7-3.2,4.8-4.1c0.1-0.9-1.4-1.6-1.5-3.2c-0.1-2.8,3.4-7.8,4.8-9.7c1-1.3,7-6.8,6.9-8
		c-0.3-3.3-6-1.3-6.6-3.5c-0.4-1.4,3.3-3.7,5.4-4.7c2.3-1.1,6.1-1.9,8.1-2.4c2.3-0.5,3.8-0.1,3.9-1.8c0.1-1.6-4.3-3.7-4.8-4.1
		c-4.5-3.3,4.3-4.5,7.2-4.7c2.8-0.2,9.4-0.2,12.4,0.3c1,0.2,3.9,1.5,4.8,0.6c2.7-2.7-5.3-6.4-3.6-8.6c0.5-0.6,4.3-0.3,5.7,0
		c5.1,1.1,12.7,5.4,16,9.1c0.5,0.6,2.2,4.3,3.9,3.8c2.4-0.7,0.5-9.4,2.7-10c0.9-0.3,3,2.9,3.6,4.1c2.5,4.5,2.8,6.6,4.2,11.8
		c0.6,2.2,2.7,8.3-1.2,5.3c-5.7-4.4-11.3-9.3-19.3-11.2c-2.8-0.7-13.2-2.8-13.3,0.3c-0.1,2.7,4.8,1.5,7.2,1.8
		c6.2,0.6,10.7,2.5,16,5.6c1.7,1,8.9,6.2,7.8,7.7c-0.9,1.2-3.4-0.8-3.6-0.9c-7.7-3.5-19.4-8.2-30.2-7.7c-2.6,0.1-11.3,1.6-11.8,3.5
		c-0.8,3.3,6.1,3,5.7,5.3c-0.2,1.4-4.4,1.6-6.6,2.4c-4.8,1.6-8.7,3.9-12.1,5.9c-1.2,0.7-5.2,2.2-4.8,4.4c0.6,3.3,8.2,0.1,8.4,3.2
		c0.1,0.9-5.5,3.8-6,4.1c-5.2,3.5-7,5.4-10.9,9.7c-1,1.1-4.9,3.9-4.2,6.2c0.9,3,8.2,0,9.3,2.1c0.4,0.8-3.3,4.3-3.6,4.7
		c-3,4-3.8,7-5.7,11.2c-0.3,0.6-2.9,4.9-1.2,6.2c1.8,1.4,8.6-4.4,10-2.1c0.6,1-1,4-1.2,4.4c-1.6,4.1-3.4,9.3-3.6,13.3
		c-0.2,2.9,0.1,12.2,2.7,12.7c2.4,0.4,3.9-5.5,6.3-4.1c1.5,0.8,0.2,3.6,0.3,5.6c0.3,5.7,3.2,15.2,6,20.1c0.8,1.4,3.2,5.1,3.9,5
		c0.6-0.1,1.4-2.7,1.8-3.8c1.5-3.7,3.5-9.9,3.9-13.3c0.4-2.9-0.3-9.8,1.2-10.3c2.7-1,5,6.6,7.8,5.6c4.1-1.4-2.8-14.6-0.3-15.9
		c0.8-0.4,2.4,1.1,3,1.5c3.3,2.1,3.6,1.7,3.6-4.1c0-4.3-0.1-7.6-1.2-13c-0.6-3-3.3-8-1.8-8.9c1.9-1.1,5,3.7,6.6,3
		c2.4-1.1-0.2-6-0.3-6.8c-0.6-3.8-0.8-7.4-0.6-12.1c0.1-2.7,0.2-8.3,2.1-8.6c1.6-0.2,2.7,4.5,4.2,4.4c1.6-0.1,1.6-2.4,2.1-4.1
		c2.9-9.4,8-17,16.6-21.5c7.9-4.2,3.7,2.4,2.1,4.4c-3.9,4.9-6.7,9.6-9.7,14.5c-1.7,2.8-3.5,5.6-5.4,10.3c-0.9,2.1-4.2,11.1-2.1,12.1
		c1.7,0.8,3.2-1.3,4.2-2.1c0.1-0.1,3-3,4.2-2.1c1,0.8-0.7,4.7-1.2,7.1c-0.9,4.5-2,10.7-2.1,15.3c-0.1,3.1,0,8.6,1.8,9.1
		c2.4,0.7,6.2-6.4,7.8-5.3c0.4,0.3-1.7,12.9-1.5,15c0.1,1.2,0.6,9.8,3,9.7c1.3,0,2.7-3,3.9-4.7c0.5-0.7,2.8-5.3,4.2-4.4
		c0.9,0.5,0.6,5.5,0.9,8.3c0.1,1.4,0.5,5,1.2,8c0.7,2.9,3.1,12.5,5.4,13c3.5,0.7,4.7-6.3,6.9-6.2c2,0.1,5.4,9.5,6,10.9
		c0.5,1.1,4.3,11.5,5.7,11.2c0.9-0.2,1.6-4.3,1.8-6.2c0.3-3.1,0.7-6,0.9-8.9c0.3-3.7-1.8-12.6,0-13.3c1.8-0.7,7.5,6,7.5,7.1
		c0,2.4-1.3,0.6-1.5,3.2c-0.3,3.7,4.4,6.5,4.2,10c0,0.9-1.4,1.9-1.5,3.2c-0.3,4.6,5.1,9.8,4.5,14.8c-0.1,1.1-1.4,1.9-1.5,3.5
		c-0.3,5,4.8,9,4.2,13.9c-0.1,1.1-1.6,2-1.8,3.2c-0.8,4.9,4.2,12.2,3.6,17.1c-0.2,1.3-1.5,2.4-1.5,3.5c-0.2,2.9,2.3,6.9,2.7,8.6
		c0.7,2.7,1.2,8.4,3.3,8.3c4.3-0.2-0.8-5.3,0.6-7.7c1-1.7,6.7-0.1,6-3c-0.4-1.9-7.1-1.1-7.8-2.1c-1.7-2.1,0.6-5.2,2.4-5.9
		c2.6-1,9.3-0.5,10,0.6c1.3,2.1-0.7,12.3-1.2,13.6c0.4-1.1-2.1,2.2-1.8,3c0.4,1.1,3.5,1.3,4.2,0.9c1.7-1,4-17,2.4-20.9
		c-0.5-1.4-2.2-1.9-2.4-3.2c-0.6-3.4,2.8-11,1.8-14.8c-0.3-1.3-2.4-2.4-2.7-3.5c-0.5-1.9,0.6-4.2,0.6-6.5c0.1-2.7-0.1-6.5-0.9-8.3
		c-0.8-1.7-2.4-2-2.7-3.2c-0.8-3.4,2-8.7,0-11.8c-0.5-0.8-2.4-1.4-2.7-2.1c-1.4-2.9,1.1-10.8-0.9-13.6c-0.7-1-2.6-0.9-3-1.8
		c-1.6-3.4,1.5-9.5-1.2-12.4c-0.7-0.7-2.8-0.5-3.3-1.5c-1.3-2.1,0.8-7.5-0.9-11.2c-0.5-1.2-2.3-2-2.7-2.9c-1.5-3.8,0.1-8.7-2.1-11.2
		c-0.8-0.9-2.6-0.9-3-1.8c-0.5-1.2,0.5-2.8,0-5c-0.2-0.8-1.6-2.7-2.1-4.1c-0.8-2.3-0.1-3.5-1.8-3.5c-2.5,0-1.7,5.1-1.2,6.5
		c0.5,1.4,4.3,7,1.2,7.7c-1,0.2-1.6-2.7-2.4-4.4c-2-4.2-2.8-5.4-5.1-8.8c-0.5-0.8-3.7-3.5-2.4-4.7c1.6-1.6,4.4,3.1,6.6,2.1
		c2.6-1.2-1.1-7.6-1.8-9.1c-2.3-5.2-6.1-10.7-8.5-14.8c7.9,1.3,3-4.8,0.9-8.3c-2.9-4.8-5.9-8.9-10.3-12.7c-1.5-1.3-6.8-4-6.3-5.3
		c0.5-1.3,5.3-1.2,8.8-0.9c14.5,1.4,30.9,17,38.3,26.3c3.2,4.1,6.9,10.7,10.3,14.8c0.5,0.6,3,4.7,3.9,4.4c3.3-0.8-3.4-9-3.3-8.9
		c-2.4-3.2-3.5-5.2-5.7-8.6c-3.5-5.2-9.5-11.5-13.3-15c-5.2-4.9-11.4-8.7-17.8-12.1c-4.8-2.6-8.7-4.6-15.1-4.7
		c-1.8,0-4.8,0.9-5.4-0.6c-0.6-1.5,3-3.7,3.9-4.4c2-1.7,3-3,4.8-3.8c4.5-2.2,9.9-2.8,14.5-2.7c2.2,0.1,6,0.3,6.3,1.5
		c0.2,0.8-2.4,2.5-3,3.2c-6.4,7.4,4.5,4.7,12.1,5.3c2.1,0.2,5.8,1.2,9.1,2.4c1,0.4,7.6,2.3,6.9,4.4c-0.8,2.6-9.4,0.8-9,4.7
		c0.2,2,5.1,2.4,7.2,3c6.6,1.6,10.2,3.6,14.2,6.8c1,0.8,6,4.1,4.8,5.6c-0.6,0.8-3.3,0.1-5.1,0c-3.3-0.1-6.7-0.2-7.2,1.5
		c-0.8,2.7,4.2,3.7,7.2,5.6c5.9,3.8,10.7,10.5,14.2,16.8c0.6,1.1,3.2,5.1,1.8,6.2c-0.9,0.7-6.3-2.3-7.8-3c-0.9-0.4-6.1-3.7-8.1-2.1
		c-1.4,1.1,0.4,3,1.5,4.7c1.3,1.9,1.6,3.8,2.4,5.3c2,3.6,3.6,4.6,4.5,7.1c0.6,1.6,3.4,10.4,1.8,10.9c-1.1,0.3-3.3-3.1-3.9-3.8
		c-1.3-1.7-2.2-2.9-3.3-4.4c-1.3-1.8-4.5-9-6.6-8.9c-3.2,0.2-1.3,8.7-4.5,8.9c-2.6,0.1-4.2-9.8-4.5-11.8c-0.5-3.2-1.3-12.3-3.6-12.7
		c-2.2-0.4-3.6,7.3-5.7,6.2c-0.8-0.4-0.9-5-1.2-6.5c-0.4-2.1-1.1-4.2-1.8-6.2c-0.8-2.3-3-10.7-5.7-10c-2.1,0.5-2.3,9-5.1,8.9
		c-1.9-0.1-2.3-4-3-5.6c-2-4.6-3.7-7.3-6.3-11.2c-1.4-1.9-3.6-4.6-4.8-2.9c-1.2,1.6,3,5.5,2.7,5c1.4,2,3.5,6.3,5.1,10
		c0.8,1.8,3.4,10.3,4.8,10.6c3.3,0.7,5.2-7.2,7.5-6.8c1.6,0.3,3.5,9,3.6,10.6C445.2,87,444,95.3,446.3,95.9z M383.9,39.8
		c-3.5,1-9.5,1.8-12.4,3c-12.8,5-21.9,14.5-27.5,26.9c-4.3,9.8-7.5,22.1-8.4,33.6c-0.3,3.6,0,7.2,1.2,7.4c1.9,0.2,1.3-3.1,1.5-4.4
		c0.8-4.4,1.7-6,2.4-11.2c3.3-25.5,14.6-45.9,39.8-51c-0.3,3.2-2.1,2.8-3.6,4.4c-0.6,0.6-2.7,3.4-3.9,5.3c-1.3,2.1-3.3,9.5-4.8,9.7
		c-1.8,0.3-2.5-3.6-4.2-3.5c-3.7,0.1-5.2,13.1-5.1,18.9c0,1.2,1.8,7,0.6,8c-1.3,1-5.4-2.5-6.9-1.5c-2.7,1.7,1.7,9.1,2.4,12.1
		c0.4,1.4,3,12.6,0.9,13.9c-1.6,0.9-7.3-5.7-9.1-2.4c-1.2,2.4,6.1,11.5,3.6,13.9c-1.7,1.6-6.2-4.8-8.8-3.5c-2.1,1-0.5,4-0.3,6.2
		c0.3,3.2,0,7.5-0.3,10.3c-0.1,1.2-1.3,8.5-2.4,8.9c-1.6,0.6-3-3.8-3.6-5.9c-1.1-3.8-2.5-11.5-2.1-17.4c0.2-2.9,1.3-5.8-0.6-6.5
		c-2.4-0.9-6,5.7-8.2,4.4c-1.1-0.7-0.8-6.1-0.6-8.6c0.2-2.7,1.5-6.7,2.7-10.3c0.9-2.6,4.6-7.8,4.2-8.9c-1.2-3.6-7.5,1.9-11.2,0.3
		c1.1-5.6,5.1-10.6,9.1-15c1.4-1.6,3.7-3.2,3.6-4.1c-0.3-4.4-9.6,0-10.6-1.8c-0.7-1.2,4-5.1,4.5-5.6c4.1-3.9,7.3-5.9,12.1-8.8
		c1.5-0.9,6.4-3.5,6.3-4.7c0-2.9-7.2-1.5-7.8-3.5c-0.8-2.4,9.7-5.4,11.5-5.9c3.5-1,13.4-1.3,13.9-3.5c0.8-4-7.7-2.2-7.8-6.2
		c8.1-1.1,19.6,0.9,26.6,3.5C382.6,36.8,387.8,38.7,383.9,39.8z M458.1,204.5c-0.3,2.7-0.2,8.4-1.5,9.4c0.2-0.2-6.5,1.5-8.7,0.3
		c-0.2-0.1-2.6-3.4-0.9-5c0.7-0.7,9.2,0.3,8.7-2.7c-0.5-3.1-6.7,0.5-10-1.2c-0.6-0.3-1.9-2.6-1.2-3.8c0.5-0.9,8.9-2.2,10.3-2.4
		C459.3,198.6,458.6,200,458.1,204.5z M453.3,169.4c0.9,3.6-1.8,7.3-0.3,10.6c0.5,1,2.7,0.7,3.3,1.8c0.8,1.3,0.5,12.8-0.6,14.2
		c-0.6,0.7-6.8,2.2-9.1,1.2c-1.6-0.8-2.3-5.4-1.8-6.2c0.9-1.5,8.5,0,9.1-2.4c1-4.2-7.3-0.3-10.6-1.8c-1.3-0.6-2.1-3-1.2-4.1
		c0.9-1.1,8.7-0.7,8.8-3.2c0-3.2-4.4,0.5-7.2-0.9c-0.7-0.3-2.9-5.5-1.8-6.8c0.3-0.3,3.1-0.3,5.1-0.9
		C450.5,169.9,450.4,168.4,453.3,169.4z M450.3,166.1c-1.2,2.3-10.7,2.9-11.2,0.3c-0.5-3.2,6.4-5.1,9.4-4.7c0.4,0.1,1-0.5,1.5,0
		C450.4,162.1,450.8,165,450.3,166.1z M449.4,151.4c1.3,0.5,1.3,5.2,0.6,6.2c-0.5,0.7-6.9,2.6-9.1,2.1c-1.2-0.3-3.5-2.4-2.4-4.4
		c0.4-0.8,3.8-1.2,4.5-1.5c1.6-0.6,2.8-2,4.8-2.1C448.4,151.6,448.6,151.1,449.4,151.4z M437,145.2c0.6-1,5.4-1.9,7.2-1.8
		c0.8,0,1.4-0.7,2.1,0c0.5,0.5,0.4,4.5,0,5.3c-0.5,1-6.1,3.6-7.8,2.7C437.9,151,436.3,146.3,437,145.2z M443,136.9
		c1.5,1.1,4.8,0.3,3.3,2.9c-0.3,0.5-9.5,2.3-10.6,1.8c-0.5-0.2-2.6-3.7-1.8-5c0.1-0.2,5-1.8,6.3-1.8
		C442.6,134.8,440.7,135.3,443,136.9z M440.9,126.3c0.7,0.3,1.4,3.2,0.9,4.4c-0.6,1.5-6.9,3.2-8.8,2.1c-0.3-0.2-2.4-2.3-1.2-4.4
		c0.5-0.8,5.4-1.7,6.9-1.8C440.2,126.6,440,125.9,440.9,126.3z M428.5,119.8c3.2,0.4,6.1-1,9.7-1.2
		C441.7,126,426.8,127.3,428.5,119.8z M434.3,113.9c0.7-1.7-1.5-3.3-0.6-5c4,0.2,5.7,3.8,3.9,6.2c-0.9,1.3-4.7,0.8-6.9,1.5
		c-0.9,0.3-2.2,1.8-3,1.8c-2-0.1-2.8-3.1-3-5C427.6,112.2,432.8,117.3,434.3,113.9z M414.1,55.5c1.2,1.4,3,2.9,2.7,5.3
		c-3.8,0.4-7.7-3.5-8.8-0.3c-0.7,2.3,3.8,4.2,5.1,5.3c2,1.7,5,5.2,7.2,8.6c1.2,1.8,5.9,9.2,4.8,10.3c-1.6,1.6-10.6-5.5-11.8-0.9
		c-0.6,2.5,5.2,6,6.6,7.7c2,2.3,3.9,5.7,5.7,8.9c1.8,3.2,4.1,6.4,3.6,10.3c-2.8,0.2-10.9-4.7-12.1-1.5c-0.6,1.7,3.1,4.8,4.2,6.5
		c3.3,4.9,4.8,7.6,6.9,14.2c0.7,2.1,2.7,7.1,1.8,8c-1.4,1.4-3.9-2.4-4.5-3c-1.7-1.5-3.9-3.1-5.1-2.4c-2.2,1.3,1.1,4.4,1.5,7.1
		c0.7,4.3,0.5,12.9-0.3,16.5c-2.4-1.2-3.2-4.5-4.8-8c-0.7-1.4-2.2-8.5-3.6-8.8c-3.6-0.9-5,8-7.8,7.4c-1.8-0.4-2.6-6.6-3-8.6
		c-0.9-4.1-1.3-7.3-1.5-9.7c-0.3-3.5,0.9-11.1-1.5-11.8c-1.3-0.4-3.7,2.5-4.8,3.5c-1.1,1.1-3.3,4.2-4.2,3.8
		c-1.4-0.5-0.9-7.3-0.6-10.3c0.1-1.1,1.1-3.9,2.1-6.8c1-2.7,4-7.4,0.6-8c-1.5-0.3-3.4,1.6-5.4,3.2c-1.4,1.1-4,4.3-4.8,3.8
		c-1.5-0.8-0.3-9.9,0-12.7c0.2-1.8,0.5-2.9,1.2-6.2c1-4.5,6.3-12.5,3.9-13.6c-1.4-0.6-5,2.3-5.1,2.4c-1.7,1.1-2.9,2.7-4.8,2.7
		c0-6.8,4.8-11.9,7.8-17.1c3-5.2,5.6-11.3,10.9-14.5c1,3.5-0.1,8.2-0.3,11.5c-0.7,14,3.2,29.1,6.3,41c2.7,10.1,5.4,22,10.3,31.3
		c1.6,3.1,3.9,4.5,2.7,0c-1.2-4.4-2.1-6.8-3.6-11.5c-1.7-5.3-3.4-10.7-4.8-15.3c-4.5-15.2-6.8-27.2-7.2-42.5
		c-0.1-5.3,0.3-11.3,0.6-16.5c0-0.5,0-1,0.9-0.9C405.6,44.7,411.2,52,414.1,55.5z"/>
	<path class="st0" d="M441.4,212.7c0.1-1.2-2.7-4.8-3.9-6.2c-5-5.8-14.8-11.4-21.7-10.9c1.5,2.7,5.4,3.4,8.1,5.3
		c1.5,1.1,4.5,4.4,6.6,7.1c1.2,1.5,7.8,11.4,1.8,7.7c-6.8-4.2-16.1-9.5-25.6-9.4c-1.6,0-6,0.5-6,1.8c0,1.4,4.7,1.9,6,2.4
		c9.6,3.1,15.6,6.7,20.8,12.4c0.4,0.4,4.2,4,2.7,5c-0.7,0.5-3.4-1.6-4.5-2.1c-2.6-1-7.9-2.3-10.3-2.4c-3.5-0.1-7.2,0.4-8.1,2.4
		c8.7,1,14.2,4.9,19.3,9.1c0.8,0.7,6.2,6.9,7.5,5.6c0.9-0.9-1.3-3.3-2.4-4.7c-0.7-0.9-3.7-3.8-2.7-4.4c0.8-0.5,3.9,1.4,4.5,1.8
		c1.7,0.9,2.9,2.5,4.2,1.5c1.8-1.4-2.4-7.3-2.7-7.7c-1.5-2.2-3.9-5.5-5.1-6.8c-1.3-1.4-3.5-1.8-3.9-4.4c3.2,0.8,4.8,2.1,7.5,4.1
		c1.4,1.1,5.2,5.5,6.6,4.7c2.9-1.7-1.5-5.9-0.9-8.9C439.6,214,441.3,214.7,441.4,212.7z"/>
</g>
</svg>
