<?xml version="1.0" encoding="utf-8"?>
<!-- Generator: Adobe Illustrator 23.0.3, SVG Export Plug-In . SVG Version: 6.00 Build 0)  -->
<svg version="1.1" id="Ebene_1" xmlns="http://www.w3.org/2000/svg" xmlns:xlink="http://www.w3.org/1999/xlink" x="0px" y="0px"
	 viewBox="0 0 1818.5 338.1" style="enable-background:new 0 0 1818.5 338.1;" xml:space="preserve">
<style type="text/css">
	.st0{fill-rule:evenodd;clip-rule:evenodd;fill:#F1DDD5;}
</style>
<g>
	<path class="st0" d="M268.1,20.9c1.3,1.1,2.3,5.4,4,5.7c1.2,0.2,2.7-2.5,4-3.5c1.2-0.9,3.8-2,5-2.1c5.2-0.5,8.2,2.8,10.8,4.3
		c-0.4-4.8-5.8-8.6-11.4-8.3c-3.2,0.2-6.9,3.1-8.8,2.7c-1-0.2-1.8-1.9-2.9-2.7c-6.3-4.2-15-2.8-17.3,2
		C255.5,17.6,263,16.6,268.1,20.9z"/>
	<path class="st0" d="M244.5,87.5c1.4,0.4,3.2,2.9,4.5,2.2c1.7-0.9,0.9-3.4,1.1-6.2c0.6-8.1,4.1-17,12.3-18.2
		c2.3-0.3,4.3,0.7,6.4-0.6c-10.2-8.3-21,3.8-23.3,12.3c-0.6,2.1-0.2,3.9-1.4,4.5c-1,0.5-3.3-0.5-3.9-0.6c-10.4-0.5-19.2,6.6-21,13.7
		c4.8-2.3,8.3-6.2,14.6-7.3C236.5,87,241.1,86.5,244.5,87.5z"/>
	<path class="st0" d="M283.2,98.5c-2.1,0.3-4.3-1.6-6.7-1.8c-7.6-0.6-12.3,4.1-14,9.3c1.9,0.1,3.3-1.6,4.7-2.6
		c2.7-1.9,6.4-3.8,11.4-2.3c1.9,0.6,4.6,4.6,6.5,4.2c1.3-0.3,1.9-3.8,3.6-6c3.3-4.2,10.2-4.7,16.1-3.1c-2.5-6.7-12.4-5.3-17.4-1.6
		C286.1,95.5,284.8,98.2,283.2,98.5z"/>
	<path class="st0" d="M1434.7,112.5c-0.3,0.7-3.6,6-1.5,7.6c2.2,1.7,10.6-5.4,12.3-2.5c0.7,1.2-1.3,4.9-1.5,5.5
		c-1.9,5.1-4.2,11.4-4.5,16.4c-0.2,3.5,0.1,15.1,3.3,15.7c3,0.5,4.8-6.8,7.8-5.1c1.8,1,0.2,4.5,0.4,6.9c0.4,7,3.9,18.8,7.4,24.7
		c1,1.7,3.9,6.3,4.8,6.2c0.7-0.1,1.7-3.4,2.2-4.7c1.8-4.5,4.3-12.2,4.8-16.4c0.5-3.6-0.3-12,1.5-12.7c3.3-1.3,6.1,8.1,9.7,6.9
		c5.1-1.7-3.4-18-0.4-19.7c0.9-0.5,3,1.4,3.7,1.8c4,2.6,4.5,2.1,4.5-5.1c0-5.3-0.1-9.4-1.5-16c-0.8-3.7-4.1-9.9-2.2-10.9
		c2.4-1.3,6.1,4.6,8.2,3.6c3-1.3-0.2-7.4-0.4-8.4c-0.8-4.7-1-9.2-0.7-14.9c0.2-3.3,0.2-10.2,2.6-10.6c2-0.3,3.3,5.6,5.2,5.5
		c2-0.1,1.9-2.9,2.6-5.1c3.6-11.6,9.9-21,20.5-26.6c9.7-5.1,4.6,2.9,2.6,5.5c-4.8,6-8.2,11.9-11.9,17.8c-2.2,3.5-4.3,6.9-6.7,12.7
		c-1.1,2.6-5.2,13.7-2.6,14.9c2.1,0.9,3.9-1.6,5.2-2.5c0.1-0.1,3.7-3.6,5.2-2.5c1.3,0.9-0.9,5.8-1.5,8.7c-1.1,5.6-2.4,13.2-2.6,18.9
		c-0.1,3.8,0,10.7,2.2,11.3c3,0.8,7.7-7.9,9.7-6.6c0.5,0.4-2.1,15.9-1.9,18.6c0.1,1.5,0.7,12.1,3.7,12c1.6,0,3.4-3.8,4.8-5.8
		c0.6-0.8,3.5-6.5,5.2-5.5c1.1,0.7,0.8,6.8,1.1,10.2c0.2,1.8,0.7,6.2,1.5,9.8c0.8,3.6,3.8,15.5,6.7,16c4.3,0.8,5.8-7.8,8.6-7.6
		c2.5,0.2,6.7,11.7,7.4,13.5c0.6,1.4,5.3,14.2,7.1,13.8c1.1-0.2,2-5.3,2.2-7.6c0.4-3.8,0.9-7.4,1.1-10.9c0.3-4.6-2.2-15.6,0-16.4
		c2.2-0.8,9.3,7.4,9.3,8.7c0,2.9-1.6,0.7-1.9,4c-0.3,4.5,5.4,8.1,5.2,12.4c0,1.1-1.8,2.3-1.9,4c-0.3,5.7,6.3,12.1,5.6,18.2
		c-0.2,1.3-1.7,2.4-1.9,4.4c-0.4,6.2,5.9,11.1,5.2,17.1c-0.2,1.4-2,2.5-2.2,4c-1,6.1,5.2,15.1,4.5,21.1c-0.2,1.6-1.8,3-1.9,4.4
		c-0.2,3.6,2.8,8.5,3.4,10.6c0.9,3.3,1.5,10.3,4.1,10.2c5.3-0.2-0.9-6.5,0.7-9.5c1.2-2.1,8.2-0.1,7.4-3.6c-0.5-2.4-8.8-1.4-9.7-2.5
		c-2.1-2.6,0.8-6.4,3-7.3c3.3-1.3,11.5-0.6,12.3,0.7c1.6,2.6-0.9,15.2-1.5,16.7c0.5-1.3-2.6,2.7-2.2,3.6c0.5,1.4,4.4,1.6,5.2,1.1
		c2.1-1.3,4.9-21,3-25.8c-0.7-1.7-2.7-2.3-3-4c-0.8-4.2,3.5-13.5,2.2-18.2c-0.4-1.6-3-3-3.3-4.4c-0.6-2.3,0.7-5.2,0.7-8
		c0.1-3.3-0.1-8.1-1.1-10.2c-1-2.1-3-2.4-3.4-4c-1-4.2,2.4-10.8,0-14.6c-0.6-1-2.9-1.7-3.3-2.5c-1.7-3.6,1.4-13.3-1.1-16.7
		c-0.9-1.2-3.2-1.1-3.7-2.2c-2-4.2,1.8-11.7-1.5-15.3c-0.8-0.9-3.4-0.6-4.1-1.8c-1.6-2.6,0.9-9.3-1.1-13.8c-0.7-1.5-2.9-2.5-3.3-3.6
		c-1.9-4.7,0.2-10.7-2.6-13.8c-1-1.1-3.3-1.1-3.7-2.2c-0.7-1.5,0.6-3.4,0-6.2c-0.2-1-2-3.3-2.6-5.1c-1-2.9-0.1-4.4-2.2-4.4
		c-3.1,0-2.1,6.3-1.5,8c0.6,1.8,5.3,8.6,1.5,9.5c-1.3,0.3-2-3.3-3-5.5c-2.4-5.2-3.5-6.7-6.3-10.9c-0.7-1-4.5-4.3-3-5.8
		c2-1.9,5.5,3.8,8.2,2.5c3.2-1.5-1.4-9.4-2.2-11.3c-2.8-6.4-7.5-13.2-10.4-18.2c9.8,1.6,3.7-5.9,1.1-10.2c-3.5-5.9-7.2-11-12.7-15.6
		c-1.9-1.6-8.4-5-7.8-6.6c0.6-1.6,6.5-1.5,10.8-1.1c17.9,1.7,38.1,20.9,47.3,32.4c4,5,8.5,13.3,12.6,18.2c0.6,0.7,3.7,5.7,4.8,5.5
		c4-1-4.2-11.1-4.1-10.9c-3-4-4.3-6.5-7.1-10.6c-4.3-6.4-11.7-14.2-16.4-18.6c-6.5-6-14.1-10.7-22-14.9c-5.9-3.2-10.7-5.6-18.6-5.8
		c-2.2,0-5.9,1.2-6.7-0.7c-0.8-1.9,3.7-4.5,4.8-5.5c2.5-2.1,3.7-3.6,6-4.7c5.5-2.7,12.2-3.4,17.9-3.3c2.7,0.1,7.4,0.4,7.8,1.8
		c0.3,1-3,3.1-3.7,4c-7.9,9.1,5.6,5.8,14.9,6.6c2.6,0.2,7.2,1.4,11.2,2.9c1.2,0.4,9.4,2.9,8.6,5.5c-1,3.2-11.6,1-11.2,5.8
		c0.2,2.4,6.3,3,8.9,3.6c8.1,2,12.6,4.4,17.5,8.4c1.2,1,7.4,5.1,6,6.9c-0.8,1-4.1,0.1-6.3,0c-4.1-0.2-8.3-0.2-8.9,1.8
		c-1,3.3,5.2,4.6,8.9,6.9c7.3,4.6,13.2,13,17.5,20.7c0.7,1.3,4,6.3,2.2,7.6c-1.1,0.8-7.8-2.8-9.7-3.6c-1.1-0.5-7.5-4.6-10.1-2.5
		c-1.7,1.3,0.5,3.8,1.9,5.8c1.5,2.4,2,4.7,3,6.5c2.4,4.4,4.4,5.7,5.6,8.7c0.8,2,4.2,12.9,2.2,13.5c-1.4,0.4-4.1-3.8-4.8-4.7
		c-1.6-2.1-2.8-3.6-4.1-5.5c-1.6-2.2-5.6-11.1-8.2-10.9c-3.9,0.3-1.6,10.8-5.6,10.9c-3.2,0.1-5.2-12-5.6-14.6
		c-0.6-3.9-1.7-15.2-4.5-15.6c-2.8-0.4-4.4,9-7.1,7.6c-0.9-0.5-1.1-6.2-1.5-8c-0.5-2.6-1.3-5.2-2.2-7.6c-1-2.8-3.7-13.2-7.1-12.4
		c-2.6,0.6-2.8,11.2-6.3,10.9c-2.3-0.2-2.8-4.9-3.7-6.9c-2.5-5.6-4.5-9.1-7.8-13.8c-1.7-2.4-4.4-5.7-6-3.6c-1.5,2,3.7,6.8,3.4,6.2
		c1.7,2.5,4.3,7.7,6.3,12.4c1,2.2,4.1,12.7,6,13.1c4.1,0.8,6.4-8.9,9.3-8.4c1.9,0.4,4.3,11.2,4.5,13.1c0.4,4-1,14.2,1.9,14.9
		c3.9,1,6.2-9.1,8.9-8c1.1,0.5,1.6,7,1.9,8.4c1.5,6.7,3,9.9,5.6,14.9c0.5,1,2.3,5.9,4.8,5.5c2.7-0.5,3.1-9.9,6.3-9.8
		c1.2,0,4.5,5.2,6,7.3c1.8,2.6,4,6.1,5.6,7.6c1.1,1.1,8,7.7,9.7,6.9c2.2-1,0.6-8.1-0.8-13.1c-1.2-4.4-2.6-10.4-3.7-12.7
		c-0.9-1.9-4.4-5.7-5.6-8.7c-2.7-7.2,6.1-1.6,8.9,0c2.7,1.5,6.3,5.4,8.6,4.4c3.2-1.4-3.5-15-4.5-16.7c-2.7-5.1-6.9-11.4-9.3-14.2
		c-2.7-3.2-6.8-5.2-9.3-9.1c4.5-1.6,10.8,2.3,12.3-0.7c1-2.1-6-9.5-7.8-11.3c-5-4.9-11-7.7-18.2-10.9c1.1,0.5-3.1-0.2-2.6-1.8
		c0.4-1.4,3.8-0.7,5.6-1.1c8-1.6,2.4-4.7-1.9-7.3c-7.3-4.4-17.2-9.1-25.7-9.8c-2.1-0.2-7.4,0.8-8.2-0.7c-1.2-2.3,7.1-4.5,6.7-6.9
		c-0.3-2.1-8.6-4-14.1-4.4c-9.9-0.6-16.7,1.8-22.7,4.7c-0.5,0.3-3.9,2.9-4.8,1.5c-1.2-1.8,6.6-6.3,8.6-7.3c2-1,11.1-3.6,11.2-4.7
		c0.3-3.4-6.6-0.9-8.9,0c-3.3,1.2-6.8,2.4-8.9,4c-0.6,0.5-6.1,7.2-7.1,5.8c-0.8-1.2,1.8-5.2,4.1-7.6c7.2-7.8,12.9-12.1,24.6-15.7
		c2.7-0.8,10.3-3,11.5-1.1c2,3.1-5.1,9.1-4.1,11.6c1.2,3.1,11-1.3,15.3-1.5c4.3-0.1,10.6,0.2,16,1.5c2.4,0.6,12,2.9,11.9,5.5
		c-0.1,3.1-11.2,4.2-10.8,8c0.2,2,5.1,2.5,7.8,2.9c2.3,0.4,5.8,1.2,8.6,2.2c2.2,0.8,14.3,4.7,13.4,8c-0.7,2.7-7.8,1.2-8.2,4.4
		c-0.3,2.4,3.4,2.8,5.2,4c2.4,1.6,4.4,4,7.1,6.9c1.2,1.3,6.8,6.8,5.6,8.4c-1.8,2.5-14-7.6-15.6-2.9c-0.7,1.9,6.1,4.2,7.4,4.7
		c5.9,2.4,8.1,3.2,11.9,5.5c8,4.8,1.4-7.8-0.4-10.6c-2.8-4.2-5.6-7.8-7.4-9.8c-1.2-1.3-5.6-3.7-4.8-5.5c0.7-1.6,7.3-0.9,7.8-3.3
		c0.6-2.5-7.1-7.1-9.3-8.4c-4-2.4-8.6-4.7-11.9-5.8c-1.2-0.4-6-0.7-6-2.9c0.1-3.5,8.5-2.1,8.2-6.2c-0.2-2.2-6.7-4.2-9.7-5.5
		c-7.5-3.2-15.7-5.8-26.1-5.5c-2.5,0.1-7.7,2.6-8.9,1.1c-0.8-1,0.8-4.2,1.1-5.1c1.6-4.9,1.7-7.1-3.7-7.3c-4.9-0.2-11.2,2-15.6,3.6
		c-12,4.3-20.9,11.4-27.2,20.7c-0.8,1.3-2.8,6-4.1,5.8c-1.2-0.2-2.3-5.3-3-6.9c-0.9-2.3-2.4-5-3.3-6.5c-1.8-3.1-7.4-11.1-9.3-10.6
		c-1.1,0.3-1.4,3-2.2,5.5c-1.7,5-2.1,6.4-6,3.6c-6.4-4.6-18.1-11.3-28.3-9.8c-1.2,0.2-3.5,1.1-3.7,2.5c-0.3,1.7,5.1,5,3.7,7.3
		c-0.9,1.5-11.2,0.1-13.4,0.4c-3.6,0.4-17,3.7-17.5,6.6c-0.6,3.1,5.9,4.5,5.2,7.3c-0.4,1.4-3.7,1.4-5.6,2.2c-2.2,0.9-6.1,3-8.6,5.1
		c-2.4,2-6.6,5.4-5.6,8c1,2.6,6.9,0,7.8,3.3c0.5,1.7-3.1,4.3-4.5,6.2c-3.3,4.8-5.1,8.9-6.7,14.6c-0.4,1.5-2.4,7.4,0.4,8.4
		c1.8,0.6,5.8-3.9,6-5.1c0.1-1.1-1.8-1.9-1.9-4c-0.2-3.5,4.2-9.6,5.9-12c1.2-1.7,8.7-8.3,8.6-9.8c-0.3-4.1-7.3-1.6-8.2-4.4
		c-0.5-1.7,4.1-4.6,6.7-5.8c2.9-1.4,7.6-2.4,10-2.9c2.8-0.6,4.7-0.2,4.8-2.2c0.2-2-5.3-4.6-5.9-5.1c-5.6-4.1,5.3-5.6,8.9-5.8
		c3.4-0.2,11.6-0.2,15.3,0.4c1.3,0.2,4.8,1.8,5.9,0.7c3.4-3.3-6.5-7.9-4.5-10.6c0.6-0.7,5.3-0.4,7.1,0c6.3,1.4,15.7,6.7,19.7,11.3
		c0.6,0.7,2.7,5.3,4.8,4.7c3-0.8,0.6-11.6,3.3-12.4c1.1-0.3,3.7,3.6,4.5,5.1c3,5.5,3.5,8.2,5.2,14.6c0.8,2.8,3.3,10.3-1.5,6.6
		c-7-5.4-13.9-11.5-23.8-13.8c-3.4-0.8-16.3-3.4-16.4,0.4c-0.1,3.3,5.9,1.9,8.9,2.2c7.7,0.7,13.2,3.1,19.7,6.9
		c2.1,1.3,11,7.7,9.7,9.5c-1.1,1.5-4.2-1-4.5-1.1c-9.5-4.3-23.9-10.1-37.2-9.5c-3.2,0.2-13.9,1.9-14.5,4.4c-1,4.1,7.5,3.7,7.1,6.6
		c-0.3,1.8-5.4,2-8.2,2.9c-5.9,2-10.7,4.8-14.9,7.3c-1.5,0.9-6.4,2.8-6,5.5c0.7,4.1,10.1,0.1,10.4,4c0.1,1.1-6.8,4.6-7.4,5.1
		c-6.4,4.3-8.6,6.7-13.4,12c-1.2,1.3-6.1,4.8-5.2,7.6c1.2,3.7,10.1,0.1,11.5,2.5c0.5,0.9-4,5.3-4.5,5.8
		C1438.1,103.6,1437.1,107.3,1434.7,112.5z M1610.4,252.2c-0.4,3.4-0.3,10.4-1.9,11.6c0.2-0.2-8,1.8-10.8,0.4
		c-0.2-0.1-3.2-4.1-1.1-6.2c0.9-0.8,11.4,0.3,10.8-3.3c-0.6-3.8-8.3,0.6-12.3-1.5c-0.8-0.4-2.3-3.2-1.5-4.7c0.6-1.1,11-2.7,12.6-2.9
		C1611.8,245,1611,246.7,1610.4,252.2z M1604.4,208.9c1.1,4.4-2.2,9-0.4,13.1c0.6,1.2,3.3,0.9,4.1,2.2c1,1.6,0.6,15.8-0.7,17.5
		c-0.7,0.9-8.4,2.8-11.2,1.5c-2-0.9-2.8-6.6-2.2-7.6c1.1-1.9,10.4,0.1,11.2-2.9c1.3-5.2-9-0.4-13-2.2c-1.6-0.7-2.6-3.7-1.5-5.1
		c1.1-1.4,10.8-0.9,10.8-4c0-4-5.4,0.6-8.9-1.1c-0.8-0.4-3.6-6.8-2.2-8.4c0.3-0.4,3.8-0.4,6.3-1.1
		C1600.9,209.6,1600.9,207.8,1604.4,208.9z M1600.7,204.9c-1.4,2.9-13.2,3.6-13.8,0.4c-0.7-4,7.9-6.3,11.5-5.8
		c0.5,0.1,1.2-0.6,1.9,0C1600.8,200,1601.4,203.5,1600.7,204.9z M1599.6,186.7c1.6,0.7,1.5,6.4,0.7,7.6c-0.6,0.9-8.5,3.2-11.2,2.5
		c-1.5-0.4-4.3-2.9-3-5.5c0.5-0.9,4.7-1.5,5.6-1.8c1.9-0.7,3.4-2.5,6-2.5C1598.3,187.1,1598.7,186.3,1599.6,186.7z M1584.3,179.1
		c0.7-1.3,6.6-2.3,8.9-2.2c1,0,1.7-0.8,2.6,0c0.7,0.7,0.5,5.5,0,6.6c-0.6,1.3-7.5,4.5-9.7,3.3
		C1585.4,186.3,1583.5,180.5,1584.3,179.1z M1591.7,168.9c1.9,1.3,5.9,0.4,4.1,3.6c-0.4,0.6-11.7,2.8-13,2.2
		c-0.6-0.3-3.2-4.6-2.2-6.2c0.1-0.2,6.1-2.2,7.8-2.2C1591.3,166.3,1588.9,166.9,1591.7,168.9z M1589.1,155.8c0.9,0.4,1.7,4,1.1,5.5
		c-0.8,1.8-8.5,3.9-10.8,2.5c-0.4-0.2-3-2.9-1.5-5.5c0.6-1,6.7-2.1,8.6-2.2C1588.3,156.1,1588,155.3,1589.1,155.8z M1573.9,147.8
		c4,0.5,7.5-1.3,11.9-1.5C1590.1,155.5,1571.8,157,1573.9,147.8z M1580.9,140.5c0.9-2.1-1.9-4.1-0.7-6.2c4.9,0.3,7,4.7,4.8,7.6
		c-1.2,1.6-5.8,1-8.6,1.8c-1.2,0.3-2.7,2.2-3.7,2.2c-2.4-0.1-3.5-3.9-3.7-6.2C1572.7,138.4,1579.1,144.7,1580.9,140.5z M1534.1,57.9
		c1.2,4.3-0.2,10.1-0.4,14.2c-0.9,17.3,3.9,35.9,7.8,50.6c3.3,12.5,6.7,27.1,12.7,38.6c2,3.9,4.8,5.5,3.3,0
		c-1.4-5.4-2.6-8.4-4.5-14.2c-2.1-6.5-4.3-13.2-6-18.9c-5.5-18.7-8.4-33.6-8.9-52.4c-0.2-6.5,0.4-13.9,0.7-20.4
		c0-0.6,0.1-1.3,1.1-1.1c5.6,1,12.5,9.9,16,14.2c1.4,1.7,3.8,3.6,3.3,6.6c-4.6,0.5-9.5-4.3-10.8-0.4c-0.9,2.8,4.6,5.1,6.3,6.6
		c2.5,2.1,6.2,6.5,8.9,10.6c1.5,2.2,7.3,11.4,6,12.7c-2,2-13.1-6.7-14.5-1.1c-0.8,3.1,6.4,7.4,8.2,9.5c2.5,2.8,4.8,7,7.1,10.9
		c2.2,3.9,5.1,7.9,4.5,12.7c-3.5,0.2-13.4-5.9-14.9-1.8c-0.8,2.1,3.8,5.9,5.2,8c4.1,6.1,6,9.4,8.6,17.5c0.8,2.6,3.3,8.8,2.2,9.8
		c-1.7,1.7-4.8-3-5.6-3.6c-2.1-1.8-4.8-3.8-6.3-2.9c-2.7,1.6,1.3,5.4,1.9,8.7c0.8,5.3,0.6,15.9-0.4,20.4c-3-1.5-3.9-5.5-6-9.8
		c-0.8-1.8-2.8-10.5-4.5-10.9c-4.4-1.2-6.2,9.8-9.7,9.1c-2.2-0.4-3.2-8.1-3.7-10.6c-1.1-5.1-1.6-9-1.9-12
		c-0.4-4.3,1.2-13.7-1.9-14.6c-1.6-0.5-4.6,3.1-6,4.4c-1.4,1.3-4.1,5.2-5.2,4.7c-1.8-0.7-1.2-9-0.7-12.7c0.2-1.4,1.3-4.8,2.6-8.4
		c1.2-3.4,4.9-9.1,0.7-9.8c-1.8-0.3-4.2,1.9-6.7,4c-1.7,1.4-4.9,5.3-6,4.7c-1.8-1-0.4-12.2,0-15.6c0.3-2.2,0.6-3.6,1.5-7.6
		c1.2-5.5,7.8-15.5,4.8-16.7c-1.7-0.7-6.2,2.8-6.3,2.9c-2.1,1.4-3.6,3.3-6,3.3c0-8.3,5.9-14.7,9.7-21.1
		C1524.4,69.3,1527.5,61.7,1534.1,57.9z M1441.8,87.4c-0.8-1.5,5-6.3,5.6-6.9c5.1-4.8,9-7.2,14.9-10.9c1.8-1.1,7.8-4.3,7.8-5.8
		c0-3.6-8.8-1.9-9.7-4.4c-1-2.9,12-6.7,14.1-7.3c4.3-1.2,16.6-1.7,17.1-4.4c1-4.9-9.5-2.8-9.7-7.6c10-1.4,24.2,1.1,32.8,4.4
		c2.5,1,9,3.3,4.1,4.7c-4.4,1.3-11.7,2.3-15.3,3.6c-15.8,6.2-27.1,17.8-33.9,33.1c-5.4,12.1-9.3,27.2-10.4,41.5
		c-0.3,4.4,0,8.9,1.5,9.1c2.4,0.3,1.6-3.9,1.9-5.5c1-5.4,2.1-7.3,3-13.8c4.1-31.4,18-56.6,49.1-63c-0.4,4-2.6,3.5-4.5,5.5
		c-0.7,0.8-3.4,4.2-4.8,6.6c-1.6,2.6-4,11.7-6,12c-2.3,0.4-3.1-4.4-5.2-4.4c-4.5,0.1-6.4,16.1-6.3,23.3c0,1.5,2.2,8.7,0.8,9.8
		c-1.6,1.2-6.6-3.1-8.6-1.8c-3.4,2.1,2.1,11.2,3,14.9c0.4,1.8,3.7,15.6,1.1,17.1c-1.9,1.1-9-7.1-11.2-2.9c-1.5,3,7.5,14.1,4.5,17.1
		c-2.1,2-7.7-5.9-10.8-4.4c-2.5,1.2-0.7,4.9-0.4,7.6c0.4,3.9,0,9.2-0.4,12.7c-0.2,1.5-1.7,10.5-3,10.9c-2,0.7-3.7-4.7-4.5-7.3
		c-1.4-4.7-3.1-14.2-2.6-21.5c0.3-3.6,1.6-7.2-0.7-8c-3-1.1-7.4,7.1-10.1,5.5c-1.3-0.8-1-7.5-0.7-10.6c0.3-3.4,1.8-8.3,3.4-12.7
		c1.1-3.2,5.6-9.6,5.2-10.9c-1.5-4.4-9.3,2.3-13.8,0.4c1.4-6.9,6.3-13,11.2-18.6c1.7-1.9,4.5-3.9,4.5-5.1
		C1454.5,84.1,1443,89.5,1441.8,87.4z"/>
	<path class="st0" d="M1482.3,29.5c0.4-2.2-1.8-2.2-3-2.2c-2.5,0.1-4.2,1.3-4.1,2.5C1475.4,32.8,1482,31.1,1482.3,29.5z"/>
	<path class="st0" d="M1593.2,29.5c-3,2.2,5.2,6.4,5.6,2.5C1599,30.5,1594.5,28.6,1593.2,29.5z"/>
	<path class="st0" d="M1602.5,35.7c-0.1,2.7,7,4.6,9.3,5.8c3.7,2,7.1,4.3,10.4,4.4c-3.5-4.1-12.3-10.4-17.5-12
		C1603.4,33.5,1602.6,35,1602.5,35.7z"/>
	<path class="st0" d="M1559.4,57.5c-3.5,1,0.3,3.8,1.1,3.6C1563.2,60.5,1560.4,57.2,1559.4,57.5z"/>
	<path class="st0" d="M1576.5,107C1583.9,110.4,1579.8,98.9,1576.5,107L1576.5,107z"/>
	<path class="st0" d="M1635,270.1c-0.6,0.5-5.6,5.8-7.1,4.7c-1.1-0.9,0.9-6.2,1.9-8.6c3.3-8.7,8.9-15.9,13-20.8
		c2.3-2.8,4.9-3.4,6-7.1c-9.8,3.3-18.8,13.4-24.6,23.2c-1.4,2.4-6.6,9.9-4.8,11.8c1.5,1.6,3.1-2.5,4.1-1.2
		c0.6,4.1-5.8,14.1-1.1,14.9c2.2,0.4,4.9-4.4,6.7-6.3c2.4-2.5,4.2-5.2,7.4-5.5c-0.5,4.1-3.2,5.4-4.8,8.3c-0.8,1.4-5.9,10.1-3.7,11.8
		c1.7,1.3,3.5-2.5,3.4-2.4c6.4-10,12.1-21.5,20.8-26.7c0.3-0.2,5.7-2.8,7.7-5.2c1.6-1.9-6.9,1.2-8.8,1.7
		C1644.1,264.5,1640.2,266,1635,270.1z"/>
	<path class="st0" d="M1589.7,262.4c0.1-1.5-3.4-6-4.8-7.6c-6.2-7.2-18.3-14.1-26.8-13.5c1.9,3.4,6.7,4.2,10.1,6.6
		c1.9,1.3,5.6,5.5,8.2,8.7c1.5,1.9,9.7,14,2.2,9.5c-8.4-5.2-19.8-11.7-31.6-11.6c-2,0-7.5,0.6-7.4,2.2c0,1.7,5.8,2.4,7.4,2.9
		c11.8,3.8,19.3,8.3,25.7,15.3c0.5,0.5,5.2,4.9,3.3,6.2c-0.9,0.6-4.2-2-5.6-2.6c-3.2-1.2-9.8-2.8-12.7-2.9c-4.3-0.1-8.8,0.5-10,2.9
		c10.7,1.3,17.5,6.1,23.8,11.3c1,0.8,7.7,8.5,9.3,6.9c1.1-1.1-1.6-4-3-5.8c-0.9-1.2-4.5-4.7-3.4-5.5c0.9-0.6,4.8,1.8,5.6,2.2
		c2.1,1.1,3.6,3,5.2,1.8c2.2-1.7-3-9-3.4-9.5c-1.9-2.7-4.9-6.8-6.3-8.4c-1.6-1.7-4.3-2.3-4.8-5.5c3.9,0.9,5.9,2.6,9.3,5.1
		c1.8,1.3,6.4,6.8,8.2,5.8c3.6-2.1-1.8-7.3-1.1-10.9C1587.5,264,1589.6,264.8,1589.7,262.4z"/>
	<path class="st0" d="M1818.4,119.4c-0.8-7.6-7.4-17.4-10.5-21.1c-5.4-6.2,4.6-1.9,5.8-4.9c0.8-2.1-4.9-8.3-6.5-9.8
		c-1.4-1.3-12-6.8-11.2-9.5c0.5-1.6,4.8-1.3,5.1-3.2c0.4-2.1-3.1-3.4-4.8-4.2c-5.8-3-13.1-6.9-19.7-7.4c-2.5-0.2-6.8,1-7.8,0
		c-1.7-1.7,2.6-5.4,0.7-7.4c-1.8-1.9-10.5,2.1-12.9,3.2c-4.7,2-8.7,4.8-10.5,6.7c-1.4,1.4-2.9,6.6-5.1,6.3c-1.2-0.1-2.5-4.3-4.1-7
		c-3.7-6.2-10.4-11.8-15.3-14c-3.4-1.5-2.1,6.2-3.4,7c-1.1,0.7-5.2-1.6-5.8-1.8c-4-1.3-18-2.5-19,2.1c-0.4,1.5,2.7,2.4,1.7,4.2
		c-0.3,0.6-4.2,0.9-4.8,1.1c-4.4,0.9-12.9,3.4-12.9,7.4c0,2.1,2.7,1.4,2,4.2c-0.3,1.4-4.9,3-6.8,4.2c-2.8,1.8-5,3.3-6.1,4.9
		c0,0-2.2,2.1-1.7,3.9c0.8,2.8,4,0.7,4.8,3.2c0.8,2.9-4.3,6.2-0.3,7c1.6,0.3,5.8-8.4,5.8-8.8c-0.4-2.9-3.7-1.8-3.7-3.9
		c-0.1-2.7,8-5.8,9.9-6.3c2-0.5,5-0.5,5.4-2.1c0.9-3.4-4.3-3-3.4-6.7c1.2-5,16.6-1.6,18-4.9c1.5-3.4-2.6-3.5-1.4-5.6
		c0.7-1.2,7.2-0.9,9.2-0.7c3.2,0.4,10.9,5.4,12.6,4.2c1.7-1.1-0.1-4.9,1.7-6.3c1.4-1.1,6.5,3.3,7.8,4.9c1.6,1.9,4.6,6.3,5.4,9.5
		c0.1,0.3,0.8,3.6,0,4.2c-1.4,1-3.9-3.8-5.4-5.3c-0.7-0.6-4.4-3.6-5.4-2.5c-1.8,1.8,3.2,3.9,1.7,4.9c-0.9,0.6-5.9-1.7-7.1-2.1
		c-2.6-0.8-5-1.8-7.5-2.1c-5-0.5-13.2,0.3-13.6,3.9c-0.1,1.3,4.2,4.3,3.1,6.3c-0.7,1.3-5.6,0-6.1,0c-5,0.2-17.7,4.7-17.7,8.8
		c0,2.3,5.7,4,5.1,6.3c-0.3,1.2-3.4,1.6-3.7,1.8c-3.6,1.7-8.5,4.7-10.5,7c-1.4,1.6-5.4,8.1-3.7,9.8c0.7,0.7,6-0.9,6.8,1.4
		c0.3,0.9-2.5,3.3-2,2.8c-3.6,3.6-4.2,6.4-6.8,12.3c-1.2,2.8-4.7,8.8-2.7,10.9c0.4,0.4,9-3,10.2-1.4c0.7,0.9-1.7,7.3-2,9.5
		c-0.7,4-1.4,8.4-1.4,10.5c0.1,2,0.7,10.5,1.7,10.9c1.1,0.5,3-3.2,3.4-3.9c1.3-2.2,1.9-3.5,2.7-4.9c1-1.7,4.9-8.8,7.1-8.1
		c1.2,0.3,0.9,4.1,2.4,4.6c1.1,0.3,3.4-2.8,4.4-4.2c3-4.3,3.8-6.7,5.4-11.9c0.3-1.1,1.1-6,2.7-6c2,0,1.7,6.7,4.8,6.3
		c1.4-0.2,3-5,3.4-6c2.1-5.1,3.4-8.4,5.1-14.4c0.6-2.1,3.3-10.5,4.8-5.3c1,3.7-6.3,8-4.1,10.9c2.2,2.9,7.3-3.7,8.8-0.3
		c0.5,0.9-2.4,3.3-3.4,4.6c-2.8,3.3-3.2,4.9-7.8,5.3c0.7,3,1.7,2.4,1.7,4.2c0,2.9-5.6,9-2.4,10.5c2.5,1.2,5.1-4.3,7.1-2.8
		c1.8,1.3-2.3,7.1-3.7,7.4c-1.9,0.4-5.4-0.7-6.1-2.8c-1.1-3.3,2.6-7.7,0-9.1c-3.2-1.7-2.5,5.1-3.7,6.7c-1.7,2.2-2.4-0.2-3.7,1.8
		c-2,3,0.2,10.7-1.4,14.1c-0.5,1-3.2,1.3-3.7,2.1c-2.2,3.4,0.4,12.7-0.7,16.9c-0.3,1.3-2.4,2.3-2.7,3.9c-0.7,3.7,1.3,8,0,10.9
		c-0.4,0.9-2.2,1.3-2.7,2.1c-3.5,5.4,0.9,14.2-1,19.7c-0.4,1.3-2.7,2.1-3.1,3.2c-1.3,4.6,3,10.9,1.4,13.7c-0.7,1.2-2.8,0.9-3.4,2.1
		c-1.3,2.7,0.5,6.7,1.4,10.2c0.3,1.3,1.6,8.7,4.1,8.1c3.9-1-1.4-5.6,1-8.1c1.4-1.5,7.4,0.8,7.1-2.5c-0.3-3.4-10.5,0.3-9.2-4.2
		c0.5-1.7,2.9-0.7,3.4-1.4c0.4-0.6,0.3-2.1,0.3-2.5c0.4-2.7,3.6-3.5,6.5-2.1c5.7,2.8-2.3,21,2.7,20.7c1.4-0.1,2.2-3.7,2.4-4.6
		c1-4.4,2.3-11.4,2-14.8c-0.1-1.7-1.3-2.5-1.4-4.2c0-2.8,2.1-5.3,2-8.4c0-1.2-0.7-2.7-0.7-3.9c0.2-5.2,3.5-8,3.4-12.3
		c0-1.7-1.1-2.8-1-3.9c0.1-4.3,4.9-9.8,4.8-14.8c0-1.2-0.8-2-0.7-3.2c0.4-3.8,3.6-6.7,3.7-9.8c0-1.2-0.8-3-0.7-3.5
		c0.2-1,5.8-7,7.5-5.6c0.8,0.6,0.1,3,0,4.6c-0.2,4-1,7-1.4,11.6c-0.1,0.9-1,9.4,1,10.2c0.9,0.4,3.3-3.3,3.7-3.9
		c1.6-2.2,7.2-13.5,10.2-12.6c1.7,0.5,1.6,7.2,3.4,7.7c2.1,0.6,4.4-6.1,5.4-8.4c2.9-6.2,4.8-16.1,4.4-24.6c-0.1-2.1-1.3-4.2,0-4.9
		c2.1-1.1,4.1,6.2,6.8,5.3c2.9-1,1.9-12.8,1.7-16.5c-0.2-5.2-3.1-13.7-1-14.4c2.1-0.7,3.1,4.7,5.4,3.9c3.5-1.2-0.5-16.6-1-18.3
		c-0.8-2.5-4.9-9.2-3.4-10.2c1.8-1.3,5.4,7.1,5.8,8.4c0.8,3.1-0.1,6.3,2,7c2.6,0.8,2.9-2.8,5.1-1.8c2.1,0.9,2.1,13.1,0.7,17.9
		c-0.3,1-2.6,3.8-2,4.9c1.7,3.7,6.4-2.3,8.2,0.7c0.9,1.5-1.7,6-2.4,8.4c-1.2,4.4-2.8,15.2,0.3,16.9c2.8,1.5,4.2-3.8,6.5-2.5
		c1,0.6,0.4,2.8,0.7,4.6c0.3,2,1.1,5.2,1.7,8.8c0.2,1.4,1.5,8,3.1,7.7c1-0.1,3.1-7.6,3.4-8.4c1.8-4.4,2.1-9.3,5.4-7.4
		c3.6,2,5.3-7.1,5.4-11.9c0.1-2.9-2.1-9.6-0.3-10.5c1.3-0.7,2.4,2,3.1,2.8c4.8,5.8,5.5-0.2,5.1-7c-0.7-10.7-5.2-16.7-9.2-23.2
		c2.3-1.3,4.5,1.4,5.8-0.4c1.3-1.7-1.5-6.2-2.7-8.4c-3.8-7.1-7.8-10.6-14.3-14.4c-1.2-0.7-5.7-2-5.1-4.2c0.5-2,4.3-0.8,4.8-2.8
		c1-4.1-13.2-8.8-16.7-9.5c-5.4-1.1-12.4,1.3-15.6,1.8c-0.8,0.1-2-0.1-2.4,0c-1.9,0.5-7.2,4.7-8.5,2.8c-1.2-1.6,3.3-8.1,4.8-9.8
		c1.8-2.2,4.1-4,7.8-6c2.6-1.4,8.5-4.9,9.5-2.5c0.9,2-2.1,3.8-1.7,5.3c0.9,3.3,11.1,0.3,15.6,0.7c3.7,0.4,14.5,3.7,14.6,6.3
		c0.1,2.2-5.2,2.4-4.8,5.6c0.3,2.4,4.1,2.1,5.4,2.8c2.4,1.2,4,2.7,7.1,4.9c1.4,1,6.4,4.7,5.8,6.7c-0.5,1.4-2,0.7-3.7,1.4
		c-6.3,2.6-0.8,6,2,9.1c1.9,2.1,3.8,4.2,5.1,6.7c0.6,1.1,5.5,10.4,3.1,11.9c-1.6,1-7-4.7-8.2-1.4c-1.2,3.3,4.3,3.7,5.4,4.2
		c1.4,0.6,5.2,5.1,6.1,4.9C1818.2,126.4,1818.7,122.1,1818.4,119.4z M1701.1,164c3-1.8,9.2,3.4,5.4,6.7c-0.9,0.8-5.3,0-6.1-1.1
		C1699.2,168,1700.3,164.5,1701.1,164z M1697.4,230.1c-1.7,1.3-8.5,0.1-9.2-0.7c-0.6-0.7-1.5-4-0.3-5.3c0.8-0.8,5.7-0.6,8.2-0.4
		c1.9,0.2,1.8-0.6,2.4,0C1700.1,225.4,1697.6,229.9,1697.4,230.1z M1690.9,219.9c-1.3-1.1-1.6-5,0-6.3c1-0.8,7.1-0.4,8.2,1.1
		C1701.7,218.3,1694.3,222.8,1690.9,219.9z M1701.5,210c-0.7,1.1-9.8,0.5-11.2-1.8c-1-1.6-0.6-4.5,0.3-5.3c0,0,8.3,0.7,8.8,1.1
		C1700.5,204.8,1701.8,209.5,1701.5,210z M1701.5,199.8c-1.7,0.9-6.4,0.5-7.1-0.4c-1.1-1.3-1.2-5.7,0.3-7c1.1-1,1.5,0.2,4.1,0.4
		c1.9,0.1,4.4-0.7,5.1,0C1704.9,193.9,1703.4,198.8,1701.5,199.8z M1703.5,189c-1.9,1-7.6,0-8.2-1.1c-0.2-0.3,1-5.5,1.7-6
		c0.6-0.4,7.8,0.7,8.2,1.4C1705.9,184.5,1704.2,188.6,1703.5,189z M1707.2,179.5c-1.4,0.7-10.2-1.4-10.5-1.8c-1.1-1.2-0.3-3.6,0-6
		c1.1-0.9,1.6,1,4.4,2.1c2.5,1,6.9,0.5,7.5,1.4C1709.2,176.2,1708.1,179,1707.2,179.5z M1708.6,161.6c-0.8,0.4-6.9-0.6-7.8-2.8
		c-0.7-1.6-0.3-5.7,1-6.7c0.1-0.1,0-0.5,0.3-0.3c-0.1,0,8.3,3.5,8.5,3.9C1711.6,157.7,1709.2,161.3,1708.6,161.6z M1713.4,101.5
		c-2.8,0.6-4.7,10.1-5.8,14c-0.5,2-3.7,13.8-5.4,14.1c-3,0.5-2.2-7.6-5.1-7.7c-2.7-0.1-4.2,9.6-5.1,12.3c-0.4,1.3-3.2,12.5-5.8,11.6
		c-2.3-0.8-0.3-6.2-3.4-6c-1.6,0.1-1.2,2.3-2,3.9c-1.7,3.1-6.1,8.1-8.8,10.2c0-4.1,0.1-8.8,1.4-14.1c0.7-3.1,4.4-6.6,3.7-8.8
		c-1.2-4.3-8.1,1.2-11.6-0.4c1.2-4.5,2.8-10.6,6.1-14.4c2.2-2.5,9.1-6.1,9.2-8.1c0.1-4.1-6.4-2.1-10.5-3.2c1.4-4.4,4.6-6.6,9.2-8.8
		c2.4-1.1,12.2-3,12.2-5.6c0-2.9-8.6-3.1-8.2-6.7c0.2-1.8,5.4-3.6,8.5-4.2c3.5-0.7,15.8,1.6,16.7-1c0.9-2.6-5-5-4.4-7.7
		c0.6-2.6,8.1-2.1,10.9-1.8c4.5,0.5,10.2,3.1,13.9,5.6c1.4,1,3.5,2.1,3.4,3.2c-0.3,2.2-7.5,2.9-9.2,3.5c-18.6,6.9-31.7,20.9-39.8,39
		c-0.7,1.5-3.9,9.4-1.4,10.2c1.7,0.5,4-6.8,4.4-7.7c3.5-8.2,7.8-17.1,13.3-22.5c4.1-4,11-9.4,16.7-11.9c6.2-2.8,13.4-7.1,21.4-5.3
		c-2.1,2.8-5.5,3.3-8.2,4.9c-2.3,1.4-10.6,6.3-10.2,9.8c0.4,3.5,4.4,0.8,5.8,3.5c0.8,1.6-3.6,4.7-5.1,4.9c-1.3-1.8,1.4-3.2,0-4.6
		c-1.5-1.5-2.3,1.1-3.4,1C1715.5,102.9,1714.6,101.2,1713.4,101.5z M1754.5,77.3c1-0.3,1.2-1.4,3.7-2.1c2.8-0.8,8.6-0.7,12.2,0
		c2.2,0.4,8.2,2.5,8.5,4.2c0.4,2.5-4.8,3.2-4.4,6c0.2,1.7,8.1,4.5,9.9,5.6c3.3,2.1,7,4.9,8.5,6.7c0.7,0.8,5.5,6.3,4.4,8.1
		c-1.3,2.1-7.2-1.1-8.2,2.1c-0.9,3,5.6,6.6,6.8,8.1c1.9,2.3,3.6,5.4,4.8,8.8c0.3,0.9,3.3,9.5,1.4,10.5c-1.9,1-5.3-5.3-7.5-4.9
		c-4,0.6-0.7,7.7-0.3,11.9c0.3,2.8,0.7,10.2-0.3,11.2c-1.2,1.2-3.1-1.9-4.1-1.8c-2.1,0.3-1.9,3.3-2.4,6c-0.2,1.5-0.2,5.9-2,6
		c-3.7,0,0.2-13.2-3.1-14.4c-3-1.1-3.1,4.2-7.1,3.2c0-4-0.6-7.5,0.3-11.2c0.9-3.4,4.6-9.3,3.7-11.6c-1.2-3.3-5.4,0.8-7.1-1.1
		c-1.1-1.2,1.1-7.7,1-10.9c-0.1-3.6-1.3-14.6-3.7-15.1c-1.3-0.3-2.2,2.8-4.1,2.5c-1.7-0.3-4.5-9.1-5.8-10.5
		c-2.5-2.9-6.5-3.8-8.2-8.1c7.1-0.7,11-0.4,15,2.5c10.5,7.4,17.6,27.3,18.7,43.2c0.2,2.5-0.1,6.4,0,9.8c0,0.8,0,7.5,1.7,7.7
		c2.6,0.3,2.4-13.9,2.4-16.2c-0.1-5.5-1.9-12.7-3.7-19.3c-4.6-16.5-14.4-34.4-35.4-31.6c-0.8,0.1-5.2,1.1-5.8,0.4
		C1742.2,79.9,1751.4,78.3,1754.5,77.3z M1743.3,98.7c0.4-4.7-1.9-13.2,3.4-7.7c1.8,1.8,4.5,7.4,5.4,9.5c1.9,4.5,3.9,8.5,3.7,15.8
		c-2.6,1-5.2-2.8-7.1-2.1c-3.2,1.2,1,8.3,1.7,13.3c0.3,2.4,1.2,14.8,0,15.5c-1.7,1-5.5-6.3-8.5-5.3c-2,0.7-0.7,2.8-0.3,5.3
		c1,7.2,0.9,17.8-0.3,24.6c-0.1,0.7-2,6.9-3.1,7c-2.7,0.2-1.7-8.6-4.8-8.8c-2.2-0.1-1.9,3-3.1,5.6c-0.7,1.6-2.3,3.3-3.7,5.3
		c-1.4,1.9-2.4,4.6-4.1,4.9c-1.1-3.1,0.6-6.2,1-10.2c0.3-2.8,1.4-10-1.7-10.9c-3.6-1-6.3,5.2-8.5,3.9c-2.5-1.5,3-11.8,3.7-13.3
		c1.6-3.2,7.4-12.6,4.4-14.1c-1.8-0.9-6.2,3.8-7.5,2.1c-1-1.5,2.4-5.5,2.7-6c1.4-2.1,2.8-3.5,3.7-4.6c1.3-1.6,7.6-7.7,6.5-10.2
		c-1.3-2.7-8.1,1.1-9.2-1.1c-0.8-1.4,6.1-8.4,6.8-9.1c1.5-1.6,1.9-2,4.1-3.9c2.9-2.5,6.4-4.4,1-6.3c-1.2-0.4-3.6,0-4.1-1.1
		c-0.9-1.9,8.7-8,10.5-8.4c2.8-0.6,3.2,1.5,3.4,4.2c0.6,6.2-1.1,12.7-2,18.6c-0.9,5.7-1.8,11.6-2.7,17.9c-1,6.6-3.8,17.6-5.8,24.9
		c-0.5,1.7-2.6,6.8,0,7.4c2.1,0.4,3.7-6,4.1-7.7c2.2-8.9,3.7-17.3,5.1-25.6C1740,117.5,1742.4,108.9,1743.3,98.7z"/>
	<path class="st0" d="M1731.3,218.7c-5.7-2.2-16.9,5.1-20.7,9.5c-1.4,1.5-2.6,4.6-4.1,7.4c-1,1.8-4,6.5-1.7,7.7
		c2.8,1.4,4.8-10.5,7.8-9.8c0.4,2.9-8.8,15.3-4.4,16.5c1.5,0.4,7.5-7.7,9.2-5.3c0.9,1.3-3.3,6.8-4.1,8.1c-1.3,2.1-5,6.9-1.7,7.7
		c2.5,0.7,6.5-8.9,7.5-10.5c3.5-5.7,8.2-9.7,13.6-11.9c1.6-0.7,4-0.7,5.1-2.8c-5.2-2.4-9.9-1.3-15,1.1c-1.4,0.6-6.4,4.4-7.5,3.5
		c-1.8-1.4,1.6-5.1,2.4-6.3C1721.8,227.3,1725.9,222.3,1731.3,218.7z"/>
	<path class="st0" d="M1680.2,251.5c1-1.1-2.8-5-3.4-5.5c-2.7-2.1-5.7-2.5-8.7-2c-2.4,0.4-4,1.1-2.4,2.3c3.5,2.6,7.8,5.7,9.9,8.8
		c0.9,1.2,1.8,4.3,3.2,3.5c1.8-1-0.5-4.8-1.2-5.8c-0.7-0.9-1.4-1.6-2.2-2.3c-0.1-0.1-2-2.1-1.6-2
		C1675.1,248.5,1679.5,252.3,1680.2,251.5z"/>
	<path class="st0" d="M69.4,306.6c1.2,0.5,10.9,4.3,10.7,1.6c-0.2-1.9-5.5-3.5-7-4.2c-3.5-1.7-5.3-4-8-6.7c-0.8-0.8-6.7-5.1-4.9-6.9
		c1.2-1.1,4.4-0.1,9,0c38.3,0.8,79.3-1.7,121.2-4.5c4.4-0.3,9.3-1,14.2-1.2c13-0.5,21.4,0.1,33.4,0c-2.4,4.6-6.3,7.8-9.8,11
		c-2.8,2.5-5.6,4.9-8.8,6.9c-1.4,0.9-6.4,3.2-6.1,5.3c0.8,4.8,14.5-6.2,15.4-7c6-5.6,11.3-11.8,17.4-17.4c6.5-6,12.8-13.4,19.5-18.7
		c0.7-0.6,7.5-4.7,5.7-6.5c-1.7-1.7-8.4,4.6-9.8,4.5c-2.3-0.1-7.8-6.4-10.6-9.4c-10.1-10.8-19.5-22-27.3-33
		c-5.4-7.7-11-16.2-15.9-24.4c-5.3-8.9-10.9-16.7-15.1-25.2c-15-30.7-31.4-63.6-41.9-98.5c-1.6-5.2-3.6-11-4.1-16.3
		c-0.5-5.5,0.1-5.2,0-8.5c-0.2-4.3-0.4-7.8-3.3-6.1c-1.9,1.1-0.6,4.9-2,6.1c-1.4,1.1-7.1,0.5-9.4,1.2c-6.3,1.9-14.9,8.1-22.4,11
		c-1.7,0.6-8.1,1.7-8.1,3.3c0,2.3,13.1,3.8,15.5,3.7c4.2-0.2,20.4-7.5,23.6-2.4c2.2,3.4-0.5,18.6-1.6,21.2
		c-3.1,7.1-8.9,14.2-13.8,21.6c-4.8,7.2-8.9,15.2-13.4,22c-4.9,7.2-10.2,13.5-15.5,19.9c-5.1,6.2-9.9,13.1-15.9,19.9
		c-5.9,6.8-11.4,12.7-16.7,18.7c-11.1,12.7-21.1,25.1-33,37.8c-4.3,4.6-13.7,15.5-18.7,17.1C6.4,244.3-0.3,242,0,246.1
		c0.2,2.5,7.4,2.8,10.6,2.8c39.7,0.9,73-0.4,109.4-0.4c4.4,0,15.8-1,17.1,0.8c1.4,2-0.2,5.6-0.8,6.1c-1.5,1.2-7.3,0-8.1,0
		c-3,0-6.3,0.3-9,0.4c-12.4,0.6-16.3,3.4-17.1,14.6c0,0.6-0.3,6.7-1.2,7.3c-1.1,0.8-5.2-0.4-6.9-0.4c-6.5,0-16.9,1.2-26,0.8
		c-5.4-0.2-22.8-2.4-24.4,0.8c-1.9,3.9,9.4,11.4,11.4,13.4C59.7,297.2,63.2,303.9,69.4,306.6z M249.8,258.7c1.6,1.7,6.7,5,6.1,7.3
		c-0.8,3.2-14.1,2.7-17.5,2.8c-7.3,0.4-14.4,2.6-18.7,1.6c-3.2-0.7-6.1-5.2-8.1-6.9c-5.9-5-11-10.5-22.8-10.2
		c-8.2,0.2-18.9,1.6-28.5,2c-2.7,0.1-8.7,0.5-9.4,0c-1.2-1-2-9.3-0.4-11.8c1.5-2.4,14.3-4,19.1-4.5c9.3-1,15-1.1,22.8-1.6
		c8.8-0.6,20.5-0.1,29.3,3.3c7.9,3,16.6,6.5,21.6,10.6C246,253.6,246.9,255.8,249.8,258.7z M159.5,111c2.6,0.6,3.3,5.5,4.9,9.4
		c3.4,8.1,7.2,16.4,11.2,24.7c-2.1,0.5-4.1,1.2-6.1,2.5c-0.1,0,0,0.1,0.1,0.1c2.3-0.4,4.6-0.6,6.9-0.7c1.3,2.7,2.7,5.5,4,8.2
		c-3.3,1.2-6.7,1.8-9.8,3.6c-0.5,0.3-0.3,1.2,0.3,1.1c3.7-0.5,7.5-0.6,11.1-1.5c1.6,3.1,3.2,6.2,4.8,9.2c-1.8,0.2-3.6,0.7-5.3,1.4
		c-2.6,1.2-5.4,1.7-7.9,3.1c-0.1,0.1-0.1,0.3,0.1,0.3c4.7-0.3,9.3-1.4,14-1.5c0.3,0,0.5-0.1,0.8-0.2c1.4,2.7,2.9,5.3,4.3,7.9
		c0.4,0.7,0.8,1.4,1.2,2.1c-5.9,1-11.6,3.8-17.5,4.7c-0.6,0.1-0.4,1,0.1,1c6.1,0.2,13.4-0.7,19.4-2.2c1.9,3.2,3.8,6.4,5.7,9.5
		c-8.6,1.1-17,4.6-25.2,6.9c-0.6,0.2-0.5,1.2,0.2,1.2c9-0.5,18.5-2.3,27.4-4.4c2.7,4.2,5.4,8.4,8.2,12.5
		c-11.1-0.2-23.3,1.9-33.3,6.4c0,0,0,0,0,0c11.7-1.2,24.3-0.1,35.8-2.7c2.3,3.4,4.6,6.9,7,10.4c1.6,2.5,3.1,5.4,4.9,7.7
		c1.8,2.3,4.9,4,4.9,7.3c-8.5-1.4-14.5-6.1-25.6-6.9c-13.9-1.1-25.4,0.7-38.2,2.4c-3.2,0.5-10.7,1.9-11.4,1.2c-2-2,2.3-7,2.8-8.5
		c11-30.9,5.5-84.4,0-114.7C158.9,111.8,159.4,111.6,159.5,111z M149.3,87c7.7,36,17.2,86.5,7.7,129.4c-1.1,5-1.5,11.5-6.1,14.2
		c-1.5-46.3-0.5-97.3-2.8-143.6H149.3z M142,243.2c0.1-9,1.2-25.7,1.2-37c0-3.8-1.2-8.4,0.4-11c0.5-0.1,0.7,0.1,0.8,0.4
		c2.3,14.1,1,33.5,0.4,46.8c-0.1,3.3,1.1,12.7-1.2,13C141.4,255.8,142,245.4,142,243.2z M117.6,238.3c-26.8,1.1-63.3,2.2-91.9,2.8
		c2-3.1,8.2-5.1,12.6-6.1c12.1-2.7,26.6-2.5,41.9-3.3c11.9-0.6,34.1,0.6,43.1,3.7c0.7,0.2,2.9,0.9,2.8,1.6
		C125.9,239,119.2,238.3,117.6,238.3z M129.4,231.8c-1,1-12-2.5-14.2-2.8c-26.9-4.5-60.1-2.6-83.4,3.7c-0.2-3.7,3.7-5.7,5.7-8.1
		c10.8-13,22.4-26.2,34.2-39.1c13.6-15,26.4-31.9,39.1-48.4c8.7-11.4,14.4-24.7,22.8-35.4c3.4-4.3,1.6,5.3,0.8,8.1
		c-1.5,5.8-3,12.1-4.2,18.7c-0.2,0-0.4,0-0.6,0.1c-3.4,1.4-6.3,3.2-9.4,5c-0.6,0.4-0.2,1.3,0.5,1.1c3-0.6,5.8-1.4,8.8-2
		c-0.5,2.7-0.9,5.4-1.3,8.1c-5.9,2.3-12.1,3.7-17.6,6.8c-0.1,0.1-0.1,0.3,0.1,0.3c5.8-0.6,11.5-1.5,17-3.3c-0.3,2.7-0.7,5.3-0.9,8
		c-3.7,0.9-7.4,2.4-11,3.5c-4.3,1.3-8.5,2.5-12.5,4.6c-0.1,0.1-0.1,0.2,0.1,0.2c7.2-0.7,16.1-1.6,23.1-4.5c-0.2,2.3-0.4,4.6-0.5,6.8
		c-10.2,3.6-20.7,6.2-31,9.5c-0.2,0.1-0.2,0.4,0.1,0.4c4.6,0.3,9.1-0.9,13.5-1.7c5.8-1.1,11.6-2.4,17.2-4.1
		c-0.1,3.1-0.2,6.2-0.2,9.2c0,0.8,0,1.5,0,2.4c-0.2-0.1-0.4-0.1-0.7-0.1c-3.3,0.3-6.5,1.9-9.8,2.5c-3.6,0.7-7,2.2-10.5,2.9
		c-0.2,0-0.2,0.4,0.1,0.4c3.6,0.3,7.2-0.4,10.8-0.6c3.4-0.1,7.2,0,10.1-1.8c0,2.9-0.1,6.1-0.1,9.4c-0.5-0.4-1.2-0.6-1.9-0.3
		c-5.1,2-11.2,2.4-16.5,4c-6.9,2.1-14,3.1-20.8,5.7c-0.1,0.1-0.1,0.3,0,0.3c7.2-0.6,14.5-1.3,21.6-2.6c5.5-1,12.3-0.4,17.3-3.1
		c0.1,0,0.1-0.1,0.2-0.1c0,4.5,0.1,9.2,0.4,13.6c-0.2-0.1-0.4-0.1-0.7-0.1c-6.3,0-12.8,1.9-19,2.8c-9,1.4-18,2.9-27.1,4.4
		c-0.5,0.1-0.4,1,0.1,0.9c14.9-0.8,32.1,0,46.4-4.5c0.2-0.1,0.4-0.1,0.5-0.2c0.3,2.6,0.6,5,1.1,7.3
		C127.1,220.6,131,230.2,129.4,231.8z M137.1,233.5c-3.5-1.2-3.6-6.1-4.5-9.8c-4.7-19.6-4.1-49.9-1.2-73.6
		c2.1-17.1,4.3-33.4,7.7-43.5c0.3-0.8,0.4-1.8,2-1.6C139.1,145.1,140,192.4,137.1,233.5z M109.5,262.3c3.3-3.4,18.1-1.6,25.2-1.6
		c13.8,0,35.6-1.1,50-2c4.3-0.3,11.1-0.8,14.6,0.4c2,0.7,4.9,3.5,6.9,5.3c2.3,2,5.4,4,5.7,6.5c-8.9,2.4-19,1.6-29.7,2.4
		c-10.4,0.8-24.7,2.4-37.8,2.4c-5.8,0-12.7,0.2-19.1,0.8c-3.9,0.4-15.9,1.9-17.5,0C106.6,275,108,263.9,109.5,262.3z M52.1,283.9
		c-0.1-2.2,9.5-1.6,10.6-1.6c48.1,0.3,109.6-3,161.1-6.9c7.6-0.6,14.6-1,21.2-1.2c0.3,0,0.6,0,0.8,0c1.3,0.1,1.7-0.8,2.4,0
		c1.7,1.7-2.4,4.9-3.7,5.3c-2.4,0.8-6.3,0.6-8.5,0.8c-10.4,0.8-18.2,0-28.1,0c-14.4,0-29,2.8-41.1,3.7c-2.9,0.2-5.9-0.5-9-0.4
		c-4,0.1-12.3,1.3-17.1,1.6c-16.7,1.2-38,0.9-56.1,0.8c-10.2-0.1-14.5-0.2-25.6-0.4C57.1,285.5,52.2,285.6,52.1,283.9z"/>
	<path class="st0" d="M181.1,271.3c6.4,0.2,6.6-10.3-0.8-8.5C174.5,264.1,176.3,271.1,181.1,271.3z"/>
	<path class="st0" d="M153.4,272.5c5.7-0.5,5-10.9-2.4-8.5C144.6,266,149.7,272.8,153.4,272.5z"/>
	<path class="st0" d="M131.8,269.7c0.5-3.4-3-5.6-5.3-5.3c-2.9,0.4-5.3,1.9-4.5,5.7C123,274.3,131.2,274.7,131.8,269.7z"/>
	<path class="st0" d="M1732.8,323.2c-5.4,2.4-6.9,3.6-12.2,4.9c-13.5,3.4-30.2,1.3-40.7-2.3c-2.7-0.9-10-5.1-12.6-4.8
		c-1.8,0.2-3.4,2.7-5.3,4.2c-6.4,5.1-16.5,8.7-27.6,8.7c-8.7,0-14-3.1-19.9-6.2c-3.4-1.8-9.9-6.3-12.6-6.2c-1.8,0.1-3.8,2.2-6.5,3.8
		c-6.8,4.1-15.1,7.4-24.4,8c-12.3,0.8-21.3-2.7-28.5-6.5c-2.3-1.2-5.4-4.5-7.3-4.5c-1.6,0-5.2,3.2-8.1,4.9c-3,1.7-6.3,3.5-8.9,4.2
		c-11.8,2.9-25.6,0.8-33.8-3.7c-3.7-2-5.1-5.6-8.6-5.5c-2.2,0-6.8,3.7-8.9,4.9c-2.8,1.6-6.6,3.8-9.3,4.5
		c-18.2,5.2-34.5-1.4-45.2-7.9c-2.1-1.3-5.2-4.4-6.9-4.5c-0.2,0-0.4,0-0.6,0c6-0.8,11.8-2.7,16.8-5.6c3.8-2.2,7.8-7,11-6.9
		c2.1,0,5.7,3.4,8.2,4.9c7,4.2,18.3,9.7,27.7,10.1c11.6,0.5,23.1-4.1,30.9-9.4c3.2-2.2,6.3-6.7,8.9-6.5c2.3,0.1,6.5,5.1,8.6,6.5
		c18.2,12.6,49.3,14.1,66.7,0.7c2.5-2,5.5-6.4,8.1-6.5c3.7-0.1,10.6,6.3,15.1,8.5c4.7,2.4,12,5.4,17.1,6.5c12.4,2.5,24-3.3,32.5-8.6
		c2.6-1.6,8-8.7,11-8.6c1.2,0,4.3,3.2,6.1,4.5c6.5,4.7,13.5,8.7,22,10.9c12.7,3.3,27.5,0.4,36.2-5.4c0.6-0.4,5-3.1,3.2-4.9
		c-1.2-1.2-6.7,2.4-9.3,3.3c-3.6,1.2-9,2.5-12.2,2.9c-18.7,2-30.8-5.8-39.9-12.9c-1.9-1.5-5.1-6.1-6.1-6.1c-1.4,0-4.8,5.2-6.1,6.5
		c-7.9,7.9-21.1,15.6-36.2,13.5c-8.8-1.2-21.8-8.3-27.3-12.1c-1.7-1.2-3.9-4.9-6.1-4.9c-1.6,0-6,5.4-8.1,7.3
		c-3.6,3.5-7,6.4-10.2,7.8c-19.7,8.5-46.5-0.3-57.8-9.2c-1.5-1.2-6.3-6.1-7.7-6.1c-2.2,0.1-7.4,6.7-10.6,9
		c-3.9,2.7-11.5,6.3-16.7,7.4c-15.9,3.2-27.9-2.6-37.9-8.5c-3.3-1.9-8.1-5.7-10.2-5.7c-1.8,0.1-7.1,4.2-9.3,5.7
		c-9,6.3-19.9,9.6-36.2,7.4c-7.8-1.1-15.5-6.1-22-9.3c-3.1-1.5-8.7-5.5-10.6-5.3c-2.4,0.3-5.1,5.5-8.1,8.2c-4.6,4-10.6,7.2-16.3,8.6
		c-18.5,4.5-34.7-2.3-45.6-10.1c-2.8-2-7.1-7-9.4-6.9c-3.5,0.1-9.5,8.6-11.4,9.8c-5.5,3.4-12.7,6.6-19.5,7.4
		c-16.7,1.9-30.3-6.7-37.5-13.3c-1.7-1.6-2.9-4.7-4.5-4.9c-2.3-0.2-2.9,2.1-4.9,4.1c-3.7,3.6-8.4,7-12.6,9
		c-16.3,7.7-38.9,0.8-50.1-6.4c-2.8-1.8-6.8-6.7-9-6.5c-1.7,0.2-4.6,5.2-6.9,6.9c-14.6,11.3-41.3,9.4-57-0.7
		c-2.5-1.6-6.1-6.6-8.6-6.5c-2,0.1-5.7,5.1-9.3,7.3c-3,1.8-7.3,3.7-10.2,4.5c-13.2,3.8-24.8-0.9-33.8-5.6c-3-1.6-10.6-6.4-12.2-6.1
		c-1.6,0.3-5,6.3-5.7,6.9c-14.3,13.3-39.8,9.6-54.1-1.1c-2.6-2-5.6-6.7-8.2-6.5c-1.3,0.1-4,3.7-5.3,4.9
		c-10.8,10.5-29.6,13.2-43.9,3.4c-1.8-1.2-6.5-8.1-8.6-8.1c-1.1,0-5.3,3.9-6.9,5.3c-2.8,2.4-4.7,4.4-6.9,5.3
		c-12.3,5.3-30.9,1.6-41.5-4c-2.4-1.3-4.5-4.6-6.9-4.5c-2,0.1-6,4.4-8.5,6.1c-3.3,2.3-7,4.6-10.2,5.7c-16.1,5.8-34.9-0.7-46.4-7.2
		c-2.9-1.7-6.5-5.2-8.6-4.9c-1.3,0.2-2.6,2.8-4.1,4.1c-4.2,3.8-10.2,6.9-16.3,8.2c-17.9,3.9-34.6-2.6-43.6-10.9
		c-2.1-1.9-3.9-4.9-5.7-4.9c-2.4,0-8.8,6.1-11.8,7.8c-3.8,2.2-9.7,4.8-14.2,5.7c-12.7,2.6-27.1-1-35.4-4.4c-4-1.6-9.1-6.3-12.6-6.1
		c-3.1,0.2-8,5.4-11.4,7.3c-3.7,2.1-8.5,4.1-14.2,4.5c-12.1,0.9-19.1-2.3-26.1-7.3c-3-2.1-9.1-8.1-11.8-7.3
		c-0.3,0.1-0.6,0.2-0.8,0.4c-4,3.2-6.4,7-11,9.4c-15,7.7-36.2,5.9-48.4-1.5c-1.4-0.8-3.5-4.8-5.7-4.9c-2.2-0.1-6.1,4.7-8.9,6.5
		c-12.4,8.1-32.4,7.5-44.8,0.5c-4.1-2.3-9.3-8.3-13-8.1c-1.6,0.1-4.7,3.4-6.9,4.9c-2.6,1.8-5.2,3.5-7.3,4.5c-8.8,4-24.6,5-34.2,0.5
		c-2.3-1.1-6.3-5.8-8.6-5.7c-2.4,0.1-7.8,6.3-10.6,8.2c-3.3,2.2-8.7,5.2-13,5.7c-14.3,1.9-26.9-3.8-35-9.3c-2.7-1.8-6.8-7.4-9.8-6.9
		c-1.6,0.3-3.9,3.9-5.3,4.9c-5.2,3.7-11.5,6.7-18.7,7.4c-14.5,1.4-25.5-1.9-34.2-6.4c-2.3-1.2-6.6-6.3-9-6.1c-2,0.1-4.8,4.5-6.5,6.1
		c-11.1,11.1-36.2,14.5-52.1,3.8c-3-2-4.7-6.3-7.7-6.1c-1.8,0.1-2.7,2.3-3.3,2.9c-11.3,10-43.2,9-58.2,3.8c-0.6-0.2-9-6.1-11-4
		c-2.2,2.2,4.5,5.3,4.5,5.3c4.2,2.2,4.5,2.7,7.3,3.6c5.6,1.9,18.4,4.4,25.6,4.4c11.6,0,22.5-3,28.9-5.8c2-0.8,3.7-3.4,6.5-3.3
		c2.7,0.1,5.8,3.8,8.6,5.3c14.3,7.4,36.4,6.8,49.2-1.7c2-1.4,5.6-7.5,8.5-7.8c2.4-0.2,4.6,3.2,7.3,4.5c8.8,4.2,20.9,8.4,34.2,6.8
		c6.9-0.8,14.5-4,19.5-7c2.3-1.4,4.5-4.6,6.9-4.5c1.7,0,5.5,3.4,7.7,4.9c8.1,5.2,17.8,9.7,28.5,10.5c8.6,0.7,15.6-2.6,21.5-6.2
		c3.4-2,7-6.5,9.8-6.5c3.4,0,7.3,4.3,10.6,5.3c6,1.8,15,3.2,22,2c3.3-0.6,9.6-3.4,13-5.3c2.3-1.3,8.7-6.9,11.4-6.9
		c3.3,0,9.5,6.1,13.4,8.1c13.9,7.2,31.2,6.8,45.2-1.3c2.7-1.6,4.4-4.5,7.3-4.5c2.1,0,5.9,2.6,8.1,3.6c2.9,1.3,6.2,3,8.1,3.6
		c13.9,4.5,27.8,2.3,39.5-3.3c2.7-1.3,9.5-8.2,12.2-8.2c1.6,0,4.2,2.9,5.7,4.1c9.9,7.7,26.3,13.4,41.5,6.8c3.6-1.5,11.7-8.9,15.4-9
		c2.9-0.1,10.1,4.4,14.3,6.1c4.8,1.9,10.9,3.8,16.3,4.4c12.2,1.4,20.8-1.3,29.7-5.8c3.7-1.9,10.2-7.1,12.6-6.9
		c1.9,0.1,5.4,4.3,6.9,5.3c4.7,3.1,13,7.4,18.3,8.9c12.9,3.6,25.2,1.3,35.4-3.7c3.1-1.5,7.2-6.8,11-6.9c1.9,0,5.7,2.5,8.6,4.1
		c8.3,4.4,19.1,9.6,29.3,9.7c10,0.1,19.8-4.3,26.8-9c2.4-1.6,5.6-4.9,7.3-4.9c1.8,0,4.3,2.6,6.5,3.6c6.1,2.8,17.2,7,26.1,7.3
		c7.7,0.2,15.9-2.6,21.1-5.7c1.5-0.9,6.3-6.7,8.5-6.5c1.4,0.1,4.7,4,6.5,5.3c2.7,1.8,7.6,4.8,10.2,5.7c9.3,3.3,20.5,2,28.9-1.7
		c3.8-1.7,10-9.5,13-9.4c1.8,0.1,6.7,4.5,8.6,5.7c3.2,2,6.7,4.4,9,5.3c15.1,5.9,29,5.1,41.1-2.1c3.1-1.9,7.4-8.5,10.6-8.6
		c3.4-0.1,12.9,6.9,15.9,8.1c13,5.2,24.1,3.9,35-1.3c2.4-1.1,10.8-6.9,12.6-6.9c2.4,0,8,4.9,11,6.5c3.9,2,8.6,4.7,11.8,5.7
		c15.4,4.6,31.1,1,43.1-6.2c2.8-1.7,4.9-5.3,7.3-5.3c2.1,0,5.7,3.6,8.6,5.3c18.3,10.7,40.8,12.8,58.2,1.1c3-2,6-6.1,8.1-6.1
		c2,0,8.6,5.8,11.4,7.7c3.9,2.6,8.6,5.5,12.2,6.9c14.7,5.7,33-1.9,42.7-8.6c2.3-1.6,5.9-5.7,7.7-5.7c1.8,0,6.9,4.7,9,6.1
		c3.2,2.3,6.6,4.9,9,6.1c19.5,9.5,42.1,3.8,55.3-7c1.8-1.5,5.4-5.2,6.9-5.3c2.8-0.2,13.4,6.8,15.9,8.1c9.8,5,21.6,7,32.6,5.6
		c-3.1,0.6-8.2,3.7-11,5.1c-4.4,2.2-9.4,4-13,4.5c-11.7,1.8-24-1.5-31.7-4.8c-3-1.3-6.2-3.5-8.1-3.4c-3.2,0-7.8,3.6-11,4.9
		c-5.5,2.3-12.2,3.6-18.7,3.9c-13.7,0.5-23.9-3.9-33-8.6c-2.2-1.1-5.7-3.4-6.9-3.5c-3.2-0.1-7.8,4.5-10.2,5.6
		c-13.9,6.3-35.5,6.1-49.2-0.6c-2.7-1.3-4.1-4.1-6.5-4.1c-2.2,0-2.8,1.5-5.3,3.1c-11.5,7.5-33.8,7.1-48.8,3.2
		c-4.3-1.1-9.3-2.1-12.6-3.8c-1.8-0.9-3.3-4-5.3-4.1c-0.9,0-4.7,2.6-6.5,3.5c-6.7,3.4-15.9,6.7-24.4,7.3
		c-13.8,1.1-22.7-2.3-30.9-5.8c-3.4-1.5-9.9-6-12.2-5.9c-2.4,0.1-6.8,4.7-9.7,6.3c-14.1,7.3-36.7,5.4-48.8-1.3
		c-2.6-1.4-5.8-4.9-8.2-4.8c-2.4,0.1-7,4.3-9.3,5.2c-16.3,6.7-35.1,3.6-48.4-2.3c-2.4-1.1-5.8-3.3-7.3-3.1c-1.9,0.2-8.3,5.6-9.7,6.3
		c-9.9,4.6-23.9,4.6-35.4,1.5c-2.4-0.6-9.8-4.2-11.4-4.1c-2.7,0.2-6.6,4.6-7.7,5.2c-13.7,7.2-32.1,4.5-46.8-2
		c-1.8-0.8-5.1-4.1-7.3-4.1c-3.3-0.1-8.6,5-12.2,6.6c-5.6,2.5-13.2,4-19.9,4.2c-11.2,0.4-16.4-2-23.6-5.1c-3.2-1.4-7.1-4.7-9.8-4.8
		c-2.5-0.1-7.5,2.7-10.2,3.8c-3.5,1.5-6.9,3.2-10.2,4.2c-12.9,4-33.1,2-44.8-4.1c-3.2-1.6-5.8-5.5-8.6-5.5c-2.4,0-7.3,3.7-10.6,4.9
		c-3.7,1.4-8.6,3.1-12.2,3.8c-14.3,3.1-31.2-1-41.9-6.1c-2.5-1.2-4.2-3.7-6.5-3.5c-0.5,0-0.5,0.2-0.8,0.3
		c-11.2,5.2-16.8,9.9-29.3,10.8c-15.4,1.2-25.4-2.5-35-6.5c-1.8-0.8-5-2.8-6.1-2.8c-1.9,0-5.2,3-7.3,3.8
		c-17.3,6.7-35.3,4.5-49.2-1.3c-1.9-0.8-6-3.5-7.7-3.4c-2.2,0-6.7,2.9-8.9,3.8c-10.6,4.5-29.1,6.8-42.3,3.2c-3.4-0.9-9-5-12.2-4.8
		c-1.4,0.1-4.9,2.7-6.9,3.8c-5.2,2.9-10.8,5-17.5,5.6c-15.2,1.4-23.2-2.4-32.6-5.5c-3.9-1.3-9-3.9-11.8-3.8
		c-3.9,0.1-9.7,4.7-14.6,5.9c-16.2,4.1-33.9,1.2-46.8-3.4c-2.6-0.9-7-3.2-8.5-3.1c-2.5,0.1-7.3,4.6-9.3,5.6
		c-16.2,7.8-39.3,5.3-56.6-0.6c-2.3-0.8-5.1-2.9-7.3-2.8c-1.8,0.1-5.8,3.6-6.9,4.2c-17.6,8.6-39.2,5.2-53.3-1.6
		c-1.9-0.9-5.7-3.5-7.3-3.4c-3.5,0-6.5,3.5-10.2,4.9c-8.4,3.1-28.8,4.1-38.6,1.5c-2.2-0.6-10.3-5.3-11.8-2.8c-1,1.7,1.6,2.4,1.2,2.1
		c2.2,1.5,6.9,3.4,9.4,4.1c11.1,3.5,29.1,2.7,39.1-0.8c3.3-1.2,6.9-4.6,11-4.5c2.5,0,7.1,3.1,10.2,4.5c12.2,5.4,28.4,7.6,43.5,3
		c4-1.2,10.5-6.2,15-6.3c2.3,0,6.1,1.7,9.4,2.7c3.2,1,6.7,2,9.4,2.8c12.4,3.5,26.4,3.1,37.4-0.1c2-0.6,6-2.3,8.5-3.5
		c3.3-1.6,5.7-4.1,8.1-4.2c1.9,0,5.4,1.8,8.1,2.8c14.3,4.7,34.4,7.5,50,2c3.3-1.2,7.7-4.8,11-4.9c3.6-0.1,10.8,3.7,15.1,5.2
		c13.4,4.7,27.3,5.6,41.1,0.9c3.8-1.3,10.3-5.6,13.4-5.6c3.3,0,6.9,3.1,10.6,4.1c10.3,2.9,22.1,2.6,32.1,0.6
		c6.6-1.3,13.8-7.4,19.5-7.3c3.8,0,10.2,3.9,14.2,5.2c4.8,1.6,10.8,3.5,15.9,3.8c10.2,0.6,19.7-2.2,26.8-4.6
		c2.7-0.9,5.4-2.8,7.7-2.8c4.5-0.1,9.4,4,14.3,5.5c17,5.4,33.8,2.2,46.4-2.9c3.1-1.3,8.2-4.9,10.6-4.9c2.1,0,5.4,2.3,8.1,3.4
		c8.2,3.4,18.3,7.2,29.3,6.9c7.7-0.2,17.3-3.2,23.2-5.3c3.4-1.2,7.9-4.3,10.2-4.2c2.9,0.1,7.5,4.7,10.2,5.9
		c8.7,3.8,22.7,5.9,32.6,5.1c8.5-0.6,14.4-3.7,20.3-6.3c3.1-1.3,6.8-3.9,9.8-3.8c2.6,0.1,8,3.4,11.4,4.8c4,1.8,8.3,3.6,12.2,4.5
		c12.1,2.6,26.8-1.3,34.6-5.3c2.4-1.2,5.5-4.1,7.7-4.2c2.3,0,5.6,2.8,8.1,3.8c6.2,2.5,16,5.7,23.6,6.2c10.1,0.7,16.6-1.8,23.2-4.9
		c2.4-1.1,6.7-4.5,8.5-4.5c1.1,0,5.2,1.8,7.3,2.4c2.7,0.8,5.3,2,7.3,2.4c10.9,2.3,21.3,1.5,30.1-1.8c2.9-1.1,8.9-6.5,11.8-6.6
		c2.2-0.1,5.9,2.7,8.6,3.8c3.1,1.3,6.4,2.7,9.4,3.4c11.2,2.8,23.1,2,33.4-1.1c4.1-1.2,9.3-5.6,12.6-5.6c3.7,0,8.1,4.8,11.8,6.2
		c6.6,2.5,16.4,4.7,24.4,4.4c8.4-0.3,17.8-3.7,23.6-6.6c3-1.5,5.3-4.2,7.7-4.2c2.3,0,8.6,3.7,11.4,4.8c7.8,3.2,15.6,7,26.5,6.5
		c5.5-0.2,16.9-2.5,21.6-4.2c4.1-1.5,9.1-6,13-5.9c1.4,0,4.9,1.8,7.3,2.8c14.4,5.8,35.1,10,52.9,4c3.9-1.3,9.2-5.3,12.6-5.2
		c3.4,0.1,9,3.8,13,5.2c12.8,4.5,30.3,3.6,41.5-1.1c3.2-1.3,8.6-5.2,11.4-5.2c3.4,0,10.7,5.1,14.7,6.6c13.3,4.9,30.4,6.7,44.3,0.9
		c3.5-1.4,6.6-4.8,10.2-4.9c1.9,0,5.7,2,8.1,3.1c3,1.3,5.9,2.3,8.6,3.1c14.1,4.1,27.5,2.1,37.8-2.9c2.5-1.2,6.4-4.5,8.9-4.5
		c3.7,0,11.2,5.9,15.9,7.9c5.3,2.4,12.6,4.9,18.3,5.9c11,1.8,22.1-2.6,28.9-6c3.2-1.6,7.1-4.6,9.3-4.5c2.3,0.1,3.9,2.5,6.9,4.1
		c10.7,5.8,30.5,7.8,42.3,2c3.8-1.8,7.4-6.4,10.6-6.3c2.2,0.1,5.8,3.6,8.2,4.8c5.3,2.6,13.5,5.9,21.6,6.2
		c10.6,0.4,17.8-2.4,25.2-5.6c3.7-1.6,9.2-5.9,11.8-5.9c1.4,0,5,2.1,6.9,3.1c5.6,2.9,13.1,7.1,19.1,8.3c7.7,1.5,13.7-0.7,19.9-2.1
		c3.2-0.7,6.4-1.2,9-2.5c2.6-1.3,7.4-7.1,11-7.3c1.6-0.1,5.1,1.5,7.3,2.4c6.7,2.7,14.8,6,23.6,6.2c15.8,0.4,24.1-2.3,34.6-8.1
		c1.4-0.8,13.4-5.6,11-7.7C1742.8,317.4,1734.5,322.4,1732.8,323.2z"/>
</g>
</svg>
