<?xml version="1.0" encoding="utf-8"?>
<!-- Generator: Adobe Illustrator 23.0.3, SVG Export Plug-In . SVG Version: 6.00 Build 0)  -->
<svg version="1.1" id="Ebene_1" xmlns="http://www.w3.org/2000/svg" xmlns:xlink="http://www.w3.org/1999/xlink" x="0px" y="0px"
	 viewBox="0 0 190.3 187.8" style="enable-background:new 0 0 190.3 187.8;" xml:space="preserve">
<style type="text/css">
	.st0{fill-rule:evenodd;clip-rule:evenodd;fill:#F1DDD5;}
</style>
<g>
	<g>
		<path class="st0" d="M90.6,61.3c-2.3,1-4.4,2.3-6.6,3.5c-0.5,0.2-0.1,0.9,0.3,0.8c2.4-0.5,4.6-1.1,7-1.5
			C93.2,63.8,92.3,60.6,90.6,61.3z"/>
		<path class="st0" d="M90.2,69.7c-4.3,1.8-8.8,2.7-12.9,5c-0.1,0,0,0.2,0,0.2c4.6-0.5,9.2-1.2,13.5-2.9
			C92.2,71.5,91.6,69.2,90.2,69.7z"/>
		<path class="st0" d="M89.8,77.9c-3,0.5-6,1.8-9,2.7c-3,0.9-6,1.7-8.8,3.2c-0.1,0,0,0.2,0,0.2c5.8-0.6,13.3-1.3,18.5-4.2
			C91.7,79.2,90.9,77.7,89.8,77.9z"/>
		<path class="st0" d="M88.5,85.4c-7.3,2.7-14.9,4.4-22.3,6.8c-0.2,0.1-0.1,0.3,0,0.3c3.2,0.2,6.4-0.6,9.5-1.2
			c4.5-0.9,9.1-1.9,13.4-3.3C90.8,87.4,90.1,84.9,88.5,85.4z"/>
		<path class="st0" d="M87.3,96.5c-2.3,0.2-4.5,1.3-6.9,1.7c-2.5,0.5-4.9,1.5-7.4,2c-0.2,0-0.1,0.3,0,0.3c2.6,0.2,5.1-0.3,7.6-0.4
			c2.4-0.1,5.1,0,7.2-1.3C88.9,98.2,88.6,96.4,87.3,96.5z"/>
		<path class="st0" d="M86.3,105.3c-3.6,1.4-7.8,1.7-11.5,2.8c-4.8,1.4-9.8,2.2-14.5,4c-0.1,0-0.1,0.2,0,0.2
			c5.1-0.4,10.1-0.9,15.2-1.8c3.9-0.7,8.6-0.3,12.1-2.2C89.1,107.3,88,104.6,86.3,105.3z"/>
		<path class="st0" d="M87.4,117.6c-4.4,0-9,1.3-13.3,2c-6.3,1-12.6,2.1-18.9,3.1c-0.4,0.1-0.3,0.7,0.1,0.7
			c10.4-0.6,22.5,0,32.5-3.2C89.2,119.7,89,117.6,87.4,117.6z"/>
		<path class="st0" d="M124,72.6c-1.9,0.4-3.7,0.9-5.3,2c0,0,0,0.1,0,0.1c1.8-0.3,3.7-0.5,5.5-0.5C125.4,74.2,125.2,72.4,124,72.6z"
			/>
		<path class="st0" d="M127.3,79.6c-2.5,1.1-5.3,1.5-7.7,2.8c-0.3,0.2-0.2,0.8,0.2,0.8c2.7-0.3,5.5-0.4,8.2-1.1
			C129.6,81.6,128.8,79,127.3,79.6z"/>
		<path class="st0" d="M131.5,88.6c-1.5,0.1-2.9,0.4-4.3,1c-1.8,0.8-3.8,1.2-5.5,2.2c-0.1,0,0,0.2,0,0.2c3.3-0.2,6.5-1,9.8-1.1
			C133,90.9,133,88.5,131.5,88.6z"/>
		<path class="st0" d="M137,97.6c-4.6,0.5-8.9,2.7-13.4,3.5c-0.4,0.1-0.3,0.7,0.1,0.7c4.3,0.2,9.5-0.5,13.7-1.6
			C138.8,99.9,138.5,97.5,137,97.6z"/>
		<path class="st0" d="M143.3,106.7c-6.7,0.4-13.2,3.3-19.7,5c-0.5,0.1-0.4,0.8,0.1,0.8c6.6-0.3,13.5-1.7,19.9-3.2
			C145.1,109,144.8,106.6,143.3,106.7z"/>
		<path class="st0" d="M150.5,118.3c-8.3-0.4-17.7,1-25.2,4.5c0,0,0,0,0,0c8.4-0.8,17.4,0,25.6-2
			C152.3,120.5,151.9,118.4,150.5,118.3z"/>
	</g>
	<g>
		<path class="st0" d="M190,152.1c-1.2-1.2-5.9,3.2-6.8,3.1c-1.6-0.1-5.5-4.5-7.4-6.6c-7-7.6-13.6-15.4-19.1-23.1
			c-3.8-5.4-7.7-11.4-11.1-17.1c-3.7-6.2-7.6-11.7-10.5-17.7c-10.5-21.5-22-44.5-29.3-68.9c-1.1-3.7-2.5-7.7-2.8-11.4
			c-0.3-3.9,0.1-3.6,0-6c-0.1-3-0.3-5.4-2.3-4.3c-1.4,0.8-0.4,3.5-1.4,4.3c-1,0.8-4.9,0.4-6.6,0.9c-4.4,1.4-10.4,5.7-15.7,7.7
			c-1.2,0.4-5.7,1.2-5.7,2.3c0,1.6,9.2,2.6,10.8,2.6c2.9-0.1,14.3-5.3,16.5-1.7c1.5,2.4-0.4,13-1.1,14.8c-2.1,4.9-6.2,9.9-9.7,15.1
			c-3.4,5-6.2,10.6-9.4,15.4c-3.4,5.1-7.2,9.4-10.8,14c-3.6,4.4-7,9.2-11.1,14c-4.1,4.8-8,8.9-11.7,13.1
			c-7.8,8.9-14.8,17.6-23.1,26.5c-3,3.2-9.6,10.8-13.1,12c-4.1,1.3-8.8-0.3-8.5,2.6c0.1,1.8,5.2,1.9,7.4,2
			c27.8,0.7,51.1-0.3,76.6-0.3c3.1,0,11.1-0.7,12,0.6c1,1.4-0.2,3.9-0.6,4.3c-1,0.9-5.1,0-5.7,0c-2.1,0-4.4,0.2-6.3,0.3
			c-8.7,0.4-11.4,2.4-12,10.3c0,0.4-0.2,4.7-0.9,5.1c-0.8,0.6-3.7-0.3-4.8-0.3c-4.6,0-11.9,0.8-18.2,0.6c-3.7-0.1-16-1.7-17.1,0.6
			c-1.4,2.7,6.6,8,8,9.4c3.3,3.3,5.8,8,10.1,9.9c0.8,0.4,7.7,3,7.5,1.1c-0.1-1.4-3.9-2.5-4.9-3c-2.4-1.2-3.7-2.8-5.6-4.7
			c-0.6-0.6-4.7-3.6-3.4-4.8c0.8-0.8,3.1-0.1,6.3,0c26.8,0.6,55.6-1.2,84.9-3.1c3.1-0.2,6.5-0.7,10-0.9c9.1-0.4,15,0.1,23.4,0
			c-1.7,3.2-4.4,5.5-6.8,7.7c-2,1.8-3.9,3.4-6.1,4.9c-1,0.6-4.5,2.2-4.3,3.7c0.5,3.4,10.1-4.3,10.8-4.9c4.2-3.9,7.9-8.3,12.2-12.2
			c4.6-4.2,8.9-9.4,13.7-13.1C186.6,156.3,191.3,153.4,190,152.1z M111.7,49c1.8,0.4,2.3,3.8,3.4,6.6c5.7,13.7,13.1,28.2,19.9,40.7
			c6.4,11.6,13.2,21.4,20.2,31.9c1.2,1.7,2.2,3.8,3.4,5.4c1.2,1.6,3.4,2.8,3.4,5.1c-5.9-1-10.2-4.2-17.9-4.8
			c-9.8-0.8-17.8,0.5-26.8,1.7c-2.3,0.3-7.5,1.3-8,0.9c-1.4-1.4,1.6-4.9,2-6c7.7-21.6,3.8-59.1,0-80.3
			C111.3,49.6,111.6,49.4,111.7,49z M104.6,32.2c5.4,25.2,12,60.6,5.4,90.6c-0.8,3.5-1,8.1-4.3,10c-1-32.4-0.4-68.1-2-100.6H104.6z
			 M99.4,141.6c0-6.3,0.9-18,0.9-25.9c0-2.6-0.9-5.9,0.3-7.7c0.3,0,0.5,0.1,0.6,0.3c1.6,9.9,0.7,23.5,0.3,32.8
			c-0.1,2.3,0.8,8.9-0.9,9.1C99,150.4,99.4,143.1,99.4,141.6z M82.3,138.2c-18.8,0.8-44.4,1.5-64.4,2c1.4-2.2,5.8-3.6,8.8-4.3
			c8.4-1.9,18.6-1.8,29.3-2.3c8.3-0.4,23.9,0.4,30.2,2.6c0.5,0.2,2.1,0.6,2,1.1C88.2,138.7,83.5,138.1,82.3,138.2z M90.6,133.6
			c-0.7,0.7-8.4-1.7-10-2c-18.8-3.2-42.1-1.8-58.4,2.6c-0.1-2.6,2.6-4,4-5.7c7.6-9.1,15.7-18.3,23.9-27.4
			c9.5-10.5,18.5-22.3,27.3-33.9c6.1-7.9,10.1-17.3,16-24.8c2.3-3,1.1,3.7,0.6,5.7c-3.6,13.4-6.4,31.2-6.3,46.7
			c0.1,7.6-0.7,21.2,1.1,30.2C89,125.7,91.7,132.5,90.6,133.6z M96,134.8c-2.4-0.9-2.5-4.3-3.1-6.8C89.6,114.2,90,93,92,76.4
			c1.5-12,3-23.4,5.4-30.5c0.2-0.6,0.3-1.3,1.4-1.1C97.4,72.9,98.1,106,96,134.8z M76.6,155c2.3-2.4,12.7-1.2,17.7-1.1
			c9.7,0,24.9-0.7,35-1.4c3-0.2,7.8-0.6,10.3,0.3c1.4,0.5,3.4,2.5,4.8,3.7c1.6,1.4,3.8,2.8,4,4.6c-6.2,1.7-13.3,1.1-20.8,1.7
			c-7.3,0.6-17.3,1.7-26.5,1.7c-4.1,0-8.9,0.1-13.4,0.6c-2.7,0.3-11.2,1.4-12.2,0C74.6,163.9,75.6,156.1,76.6,155z M171.2,167
			c-1.7,0.5-4.4,0.5-6,0.6c-7.3,0.6-12.7,0-19.7,0c-10.1,0-20.3,2-28.8,2.6c-2,0.1-4.2-0.3-6.3-0.3c-2.8,0.1-8.6,0.9-12,1.1
			c-11.7,0.8-26.6,0.7-39.3,0.6c-7.1,0-10.2-0.1-18-0.3c-1.3,0-4.8,0-4.8-1.1c-0.1-1.5,6.6-1.1,7.4-1.1c33.7,0.2,76.8-2.1,112.8-4.8
			c5.4-0.4,10.2-0.7,14.8-0.9c0.2,0,0.4,0,0.6,0c0.9,0.1,1.2-0.5,1.7,0C175,164.5,172.1,166.7,171.2,167z M167,159.6
			c-5.1,0.3-10.1,1.8-13.1,1.1c-2.2-0.5-4.3-3.6-5.7-4.8c-4.1-3.5-7.7-7.4-16-7.1c-5.7,0.2-13.2,1.1-19.9,1.4
			c-1.9,0.1-6.1,0.4-6.6,0c-0.8-0.7-1.4-6.5-0.3-8.3c1.1-1.7,10-2.8,13.4-3.1c6.5-0.7,10.5-0.8,16-1.1c6.2-0.4,14.3-0.1,20.5,2.3
			c5.6,2.1,11.6,4.5,15.1,7.4c1.9,1.5,2.5,3.1,4.6,5.1c1.2,1.2,4.7,3.5,4.3,5.1C178.7,159.8,169.4,159.4,167,159.6z"/>
		<path class="st0" d="M126.8,161.3c4.5,0.1,4.6-7.2-0.6-6C122.2,156.2,123.4,161.2,126.8,161.3z"/>
		<path class="st0" d="M107.4,162.1c4-0.3,3.5-7.6-1.7-6C101.2,157.6,104.8,162.3,107.4,162.1z"/>
		<path class="st0" d="M92.3,160.1c0.3-2.4-2.1-3.9-3.7-3.7c-2,0.3-3.7,1.3-3.1,4C86.1,163.4,91.8,163.7,92.3,160.1z"/>
	</g>
</g>
</svg>
