<?xml version="1.0" encoding="utf-8"?>
<!-- Generator: Adobe Illustrator 23.0.3, SVG Export Plug-In . SVG Version: 6.00 Build 0)  -->
<svg version="1.1" id="Ebene_1" xmlns="http://www.w3.org/2000/svg" xmlns:xlink="http://www.w3.org/1999/xlink" x="0px" y="0px"
	 viewBox="0 0 483.7 147.6" style="enable-background:new 0 0 483.7 147.6;" xml:space="preserve">
<style type="text/css">
	.st0{fill:#7F7674;}
	.st1{fill-rule:evenodd;clip-rule:evenodd;fill:#7F7674;}
</style>
<g>
	<g>
		<g>
			<path class="st0" d="M103.4,107.2c1.2-0.9,2.3-1.8,3.3-2.6c1-0.8,2-1.7,3.1-2.8l0.1-0.1c-0.7,0.1-1.4,0.2-2.1,0.4
				c-0.7,0.1-1.4,0.3-2.1,0.4c-0.2,0-0.5,0-0.7-0.1c-0.3-0.1-0.6-0.2-0.8-0.4c-0.3-0.2-0.5-0.4-0.7-0.7c-0.2-0.3-0.3-0.7-0.3-1.1
				c0-0.3,0.1-0.5,0.2-0.6c0.1-0.1,0.3-0.1,0.6-0.1c1.1,0.1,2.1,0,3.2-0.1c1.1-0.1,2.1-0.3,3.1-0.5c0.3-0.1,0.7-0.1,1.1-0.3
				c0.5-0.1,0.9-0.2,1.4-0.3c0.5-0.1,0.9-0.2,1.3-0.3c0.4-0.1,0.7-0.1,1-0.1c0.4,0.1,0.6,0.3,0.6,0.7c0,0.4,0,0.8-0.1,1.3
				c0,0.2,0,0.4-0.1,0.5c-0.1,0.2-0.1,0.3-0.2,0.4c-1,1-1.8,1.9-2.4,2.8c-0.7,0.9-1.2,1.8-1.8,2.8s-1,2.1-1.5,3.4
				c-0.5,1.3-1,2.7-1.6,4.4c-0.1,0.1-0.1,0.3-0.1,0.5c0,0.2-0.1,0.3-0.2,0.5c-0.1,0.1-0.2,0.2-0.3,0.3s-0.2,0.1-0.4,0
				c-0.1,0-0.2-0.1-0.3-0.1s-0.2-0.2-0.2-0.3c-0.3-1-0.5-1.9-0.5-2.8c0-0.9,0-1.8,0.1-2.7c-1.9,1.3-3.7,2.1-5.4,2.4
				c-1.6,0.3-3.2,0.2-4.7-0.5c-1.1-0.6-2-1.5-2.7-2.6c-0.6-0.9-1-1.9-1.1-3c-0.1-1.1-0.2-2.1-0.1-3.1c0.2-1.7,0.7-3.3,1.5-4.8
				c0.9-1.4,1.8-2.8,2.7-4c1.5-1.6,3-3.1,4.6-4.4c1.6-1.3,3.3-2.5,5.1-3.5c0.9-0.5,1.9-0.9,2.9-1.1c0.2-0.1,0.3-0.2,0.5-0.3
				c0.2-0.1,0.3-0.3,0.5-0.4c0.4-0.3,0.8-0.4,1.2-0.3c0.5,0.1,0.8,0.4,1.1,0.7s0.2,0.8,0,1.3c-0.5,1-1,2.1-1.6,3.2
				c-0.5,1.1-1.1,2.2-1.6,3.2c-0.1,0.3-0.3,0.7-0.5,1c-0.2,0.4-0.3,0.7-0.5,0.9c-0.3,0.3-0.6,0.3-0.8,0.1c-0.2-0.2-0.4-0.5-0.5-0.8
				c-0.1-0.3-0.2-0.6-0.3-1c-0.1-0.4-0.1-0.8-0.1-1.1c0-0.4,0-0.8,0.1-1.1c0.1-0.4,0.2-0.7,0.3-0.9c-1.7,1.2-3.4,2.5-4.9,3.9
				c-1.6,1.4-2.9,2.8-4,4.4c-1.1,1.5-1.8,3.2-2.3,4.9c-0.4,1.7-0.4,3.5,0.2,5.4c0.3,0.7,0.7,1.1,1.4,1.3c0.7,0.1,1.4,0.1,2.1-0.1
				c0.8-0.2,1.5-0.5,2.3-0.9C102.2,107.9,102.9,107.5,103.4,107.2z"/>
			<path class="st0" d="M135.5,106L135.5,106l0,0.3c-0.3,1-0.7,1.8-1.2,2.6c-0.2,0.3-0.5,0.6-0.8,1.1c-0.3,0.5-0.6,0.9-0.8,1.2
				c-0.6,0.6-1.1,1.2-1.6,1.6c-0.5,0.5-1.1,0.9-1.8,1.3c-0.3,0.2-0.7,0.3-1.1,0.4c-0.4,0.1-0.8,0.2-1.2,0.2s-0.8-0.1-1.1-0.2
				c-0.3-0.1-0.6-0.4-0.9-0.7c-0.4-0.5-0.7-1.2-0.7-1.9s0.1-1.5,0.4-2.3c-0.1,0.1-0.1,0.1-0.2,0.2c-0.1,0.1-0.2,0.2-0.4,0.4
				c-0.1,0.1-0.3,0.3-0.4,0.4c-0.1,0.1-0.2,0.2-0.3,0.2c-0.4,0.4-0.8,0.7-1.2,1c-0.4,0.3-0.8,0.5-1.2,0.8c-0.3,0.2-0.6,0.3-0.9,0.3
				c-0.3,0-0.5,0-0.7-0.1c-0.2-0.1-0.4-0.3-0.6-0.5c-0.2-0.2-0.4-0.5-0.7-0.8c-0.3-0.5-0.6-1-0.8-1.4c-0.2-0.5-0.2-1-0.1-1.5
				c0.1-0.2,0.1-0.4,0.1-0.6c0-0.2,0.1-0.4,0.2-0.5c0.2-0.5,0.4-1,0.6-1.6c0.2-0.6,0.5-1.2,0.7-1.8c0.2-0.6,0.5-1.1,0.7-1.7
				c0.2-0.5,0.4-0.9,0.6-1.3c0.2-0.5,0.5-0.7,0.8-0.7c0.4,0,0.7,0.1,1,0.4c0.3,0.3,0.5,0.7,0.7,1.2c0.2,0.5,0.1,0.9-0.1,1.4
				c-0.1,0.3-0.3,0.8-0.6,1.4c-0.3,0.6-0.5,1.2-0.8,1.8c-0.3,0.6-0.5,1.2-0.7,1.8c-0.2,0.6-0.3,1-0.4,1.2c0,0.6,0.1,0.9,0.3,0.9
				c0.2,0,0.5-0.1,0.9-0.4c0.4-0.3,0.8-0.8,1.3-1.3c0.5-0.6,0.9-1.2,1.4-1.8c0.5-0.6,0.9-1.3,1.3-1.9c0.4-0.6,0.8-1.1,1.1-1.5
				c0.4-0.7,0.7-1.3,0.9-1.8c0.3-0.5,0.6-1,1.1-1.5c0.3-0.1,0.6-0.1,1,0.1c0.4,0.1,0.7,0.4,1,0.7c0.3,0.3,0.5,0.6,0.6,1
				c0.1,0.4,0.1,0.7-0.1,0.9c-0.5,0.6-0.9,1.1-1.3,1.6c-0.4,0.4-0.8,1-1.1,1.6c-0.2,0.4-0.4,0.9-0.6,1.4c-0.2,0.5-0.5,1.1-0.7,1.6
				c-0.2,0.5-0.4,1.1-0.5,1.6c-0.1,0.5-0.2,1-0.1,1.4c0,0.5,0.2,0.6,0.7,0.6c0.6-0.1,1.3-0.4,2.1-1s1.5-1.2,2.3-2
				c0.7-0.7,1.4-1.5,2.1-2.2C134.6,106.8,135.1,106.3,135.5,106z"/>
			<path class="st0" d="M136.1,116.9c0.2,0.5,0.5,0.7,1,0.5c0.5-0.2,1.1-0.6,1.7-1.2s1.3-1.4,2.1-2.2c0.7-0.9,1.4-1.7,2.1-2.6
				s1.2-1.6,1.7-2.3c0.5-0.7,0.8-1.1,1-1.4c0.1-0.2,0.3-0.4,0.5-0.6c0.2-0.2,0.4-0.4,0.7-0.6c0.1-0.1,0.2-0.2,0.4-0.3
				c0.1-0.1,0.3-0.1,0.4-0.1s0.2,0.1,0.1,0.3c0,0.2-0.1,0.4-0.3,0.8c-0.2,0.3-0.4,0.8-0.8,1.5c-0.3,0.7-0.8,1.4-1.3,2.2
				s-1.1,1.7-1.7,2.5c-0.6,0.9-1.3,1.7-2,2.4c-0.7,0.7-1.4,1.4-2.2,2c-0.7,0.6-1.5,0.9-2.2,1.1c-0.7,0.2-1.3,0.2-1.8,0.3
				c-0.6,0-1.1-0.2-1.5-0.6c-0.4-0.4-0.6-1-0.7-1.7c-0.1-0.7,0-1.5,0.1-2.4c0.1-0.8,0.3-1.7,0.5-2.4c0.2-0.8,0.4-1.4,0.5-1.8
				c0.4-1.4,0.8-2.8,1.2-4.1c0.4-1.3,0.8-2.7,1.1-4.1c0.4-1.2,0.8-2.4,1.1-3.7c0.3-1.3,0.7-2.4,1-3.4c-0.5,0-1.1,0-1.6-0.1
				c-0.6,0-1.1,0-1.7,0c-0.6,0-1.1,0-1.7-0.1c-0.5-0.1-1.1-0.1-1.5-0.3c-0.4-0.1-0.7-0.3-0.9-0.5c-0.2-0.2-0.3-0.5-0.3-0.7
				c0-0.2,0.1-0.4,0.4-0.6c0.3-0.2,0.6-0.3,1.1-0.3c0.3,0,0.8,0,1.4,0.1c0.7,0.1,1.4,0.1,2.1,0.1c0.7,0,1.4,0,2,0
				c0.6,0,1-0.1,1.2-0.1c0.1,0,0.1-0.1,0.1-0.1c0.2-0.5,0.3-1,0.5-1.5c0.2-0.5,0.4-1.1,0.6-1.6c0.2-0.5,0.4-1,0.5-1.4
				c0.2-0.5,0.3-0.8,0.5-1.2c0.1-0.2,0.3-0.3,0.7-0.3c0.3,0,0.7,0.2,1,0.3c0.4,0.2,0.7,0.4,0.9,0.7c0.3,0.3,0.4,0.5,0.4,0.8
				c-0.1,0.7-0.3,1.4-0.6,2c-0.3,0.7-0.5,1.4-0.8,2.3c1.7,0,3.1,0,4.3-0.1c1.2,0,2.4,0,3.5,0c0.4,0,0.7,0,1.1,0s0.7,0,0.9,0.1
				c0.2,0.1,0.2,0.1,0.1,0.2c-0.1,0.1-0.5,0.2-1,0.4c-1.7,0.5-3.3,0.9-4.9,1.2c-1.6,0.3-3.1,0.5-4.6,0.6c-0.1,0-0.2,0.1-0.2,0.1
				c0,0,0,0.1-0.1,0.2c0,0,0,0.1,0,0.1c0,0,0,0.1,0,0.1c-0.4,1.2-0.9,2.5-1.4,4c-0.5,1.5-1,3-1.5,4.5c-0.5,1.5-1,3.1-1.4,4.6
				c-0.5,1.5-0.8,2.8-1.2,4.1c-0.3,1.2-0.6,2.2-0.7,3C136,116.2,136,116.7,136.1,116.9z"/>
			<path class="st0" d="M149.4,109.2c-0.5-0.7-1.1-1.5-1.6-2.3c-0.5-0.8-0.8-1.6-0.8-2.6c0-1,0.3-2,0.9-2.9c0.6-0.9,1.3-1.7,2.1-2.2
				c0.3-0.2,0.6-0.4,1-0.5c0.3-0.1,0.7-0.1,1.1,0c0.2,0.1,0.3,0.1,0.5,0.2c0.2,0,0.3,0.1,0.5,0.1c0.1,0.1,0.3,0.1,0.4,0.2
				c0.2,0.1,0.2,0.3,0.2,0.4c0,0.7,0,1.4,0.1,1.8c0,0.5,0.1,0.9,0.2,1.2c0.1,0.3,0.2,0.6,0.2,0.9c0.1,0.3,0.2,0.5,0.2,0.8
				c0.1,0.3,0,0.5,0,0.7s-0.3,0.2-0.6,0.1c-0.6-0.2-1-0.6-1.3-1.3c-0.3-0.6-0.5-1.2-0.6-1.8c0-0.1-0.1-0.3-0.2-0.6
				c-0.1-0.3-0.2-0.5-0.2-0.6c-0.2-0.1-0.5,0-0.8,0.2c-0.3,0.2-0.6,0.5-0.8,0.8c-0.2,0.3-0.4,0.7-0.4,1.2c-0.1,0.5,0,0.9,0.3,1.4
				c0.1,0.2,0.3,0.4,0.5,0.6s0.4,0.5,0.6,0.7s0.4,0.5,0.6,0.7c0.2,0.2,0.4,0.4,0.5,0.5c0.2,0.2,0.3,0.2,0.3,0.3c0.1,0,0.2,0,0.4-0.1
				c0.3-0.1,0.7-0.3,1.2-0.5c0.5-0.2,1.1-0.4,1.7-0.6c0.6-0.2,1.2-0.4,1.7-0.5c0.5-0.1,1-0.2,1.3-0.2c0.2,0,0.3,0.1,0.4,0.2
				c0.1,0.1,0.1,0.2,0,0.3c-0.1,0.1-0.2,0.3-0.4,0.4c-0.2,0.1-0.4,0.3-0.5,0.4c-0.2,0.1-0.3,0.2-0.4,0.2c-0.5,0.3-1,0.6-1.7,0.9
				c-0.7,0.3-1.3,0.7-1.8,1c-0.1,0.1-0.2,0.1-0.3,0.2c-0.1,0.1-0.3,0.1-0.3,0.2c0.3,0.7,0.5,1.3,0.7,1.9c0.1,0.5,0.2,1,0.1,1.5
				c0,0.5-0.1,1-0.3,1.5s-0.4,1.1-0.6,1.7c-0.4,0.6-0.8,1.2-1.1,1.8c-0.4,0.6-0.8,1.1-1.3,1.5c-0.5,0.5-1,0.8-1.6,1.1
				c-0.6,0.3-1.2,0.4-1.8,0.4c-0.4,0-0.7,0-1.1-0.1c-0.3-0.1-0.6-0.3-0.9-0.6c-0.6-0.7-1-1.4-1-2.2c-0.1-0.8,0-1.6,0.2-2.3
				c0.2-0.5,0.4-0.9,0.6-1.3c0.6-1,1.2-1.9,1.9-2.6C147.9,110.5,148.7,109.8,149.4,109.2z M150.8,111c-0.3,0.3-0.7,0.7-1.2,1.3
				c-0.5,0.5-1,1.1-1.4,1.8s-0.8,1.3-1.1,1.9c-0.3,0.6-0.4,1.2-0.2,1.6c0.5-0.2,1.1-0.6,1.6-1.2c0.6-0.5,1.1-1.1,1.5-1.8
				s0.7-1.3,0.9-1.9C151.1,112,151,111.4,150.8,111z"/>
			<path class="st0" d="M171.2,105.9c0.3-0.1,0.5-0.1,0.5,0s0,0.3-0.1,0.5c-0.2,0.3-0.4,0.6-0.6,0.9s-0.5,0.5-0.8,0.8
				c-0.6,0.6-1.1,1-1.5,1.4c-0.4,0.4-0.8,0.6-1,0.9c-0.3,0.2-0.5,0.4-0.7,0.5c-0.2,0.1-0.4,0.3-0.5,0.4c-0.6,0.4-1.2,0.7-1.8,1.1
				s-1.2,0.6-1.7,0.8c-0.8,0.2-1.6,0.2-2.4,0s-1.4-0.7-1.8-1.4c-0.5-0.8-0.6-1.8-0.6-2.9c0.1-1.1,0.4-2.1,0.8-3.1s1.1-1.9,1.9-2.6
				c0.8-0.7,1.6-1.1,2.6-1.1c0.3-0.1,0.6,0,0.9,0.3c0.3,0.2,0.5,0.5,0.6,0.8c0.1,0.2,0.1,0.5,0,0.8c-0.1,0.3-0.1,0.6-0.2,1
				c-0.1,0.4-0.2,0.8-0.3,1.2c-0.1,0.4-0.2,0.9-0.3,1.3c-0.1,0.2-0.1,0.2-0.2,0.3c-0.1,0-0.2,0-0.3-0.2c-0.3-0.5-0.5-0.9-0.5-1.3
				c-0.1-0.4-0.1-0.8-0.2-1.2c-0.2,0-0.4,0.2-0.6,0.5c-0.3,0.3-0.5,0.7-0.7,1.1s-0.4,0.9-0.6,1.5c-0.2,0.5-0.2,1-0.2,1.4
				c0,0.5,0.1,0.9,0.2,1.2c0.2,0.3,0.4,0.4,0.6,0.5c0.2,0.1,0.5,0,0.8,0c0.3-0.1,0.6-0.2,1-0.4c1.4-0.7,2.8-1.4,4.1-2.1
				S170,106.9,171.2,105.9z"/>
			<path class="st0" d="M180.8,105.5c-1,0.8-2,1.5-2.9,2.3c-0.9,0.7-1.8,1.6-2.6,2.5c-0.5,0.6-0.9,1.1-1.3,1.7
				c-0.4,0.6-0.7,1.2-0.9,1.8c-0.2,0.3-0.5,0.3-0.8,0.2c-0.6-0.5-1.1-1.1-1.3-1.8c-0.2-0.7-0.4-1.5-0.3-2.4c0-0.8,0.1-1.7,0.3-2.5
				c0.2-0.8,0.4-1.5,0.5-2.1c0.4-1.5,0.9-3.1,1.5-4.8c0.5-1.6,1.1-3.3,1.8-4.9c0.6-1.6,1.3-3.1,2-4.6c0.7-1.5,1.3-2.9,2-4.2
				c0.3-0.7,0.7-1.3,1.1-1.8c0.4-0.5,0.8-0.9,1.2-1.2c0.2-0.2,0.5-0.3,0.7-0.3c0.3,0,0.5,0,0.7,0.1c0.2,0.1,0.4,0.3,0.5,0.5
				c0.1,0.2,0.2,0.4,0.3,0.6c0.2,1.1,0,2.5-0.4,4s-0.9,3-1.6,4.5s-1.5,2.9-2.3,4.2c-0.8,1.3-1.6,2.4-2.4,3.1
				c-0.1,0.1-0.2,0.2-0.2,0.2c-0.4,1.1-0.8,2.2-1.1,3.3c-0.3,1.1-0.7,2.1-1,3.2c-0.1,0.3-0.1,0.6-0.2,0.9c-0.1,0.3-0.1,0.6-0.1,1
				c0.3-0.4,0.6-0.8,1-1.2c0.8-0.8,1.7-1.6,2.6-2.3c0.9-0.7,1.9-1.3,2.9-1.9c0.4-0.2,0.8-0.4,1.3-0.5c0.4-0.1,0.8-0.1,1.3,0
				c0.3,0.1,0.7,0.2,1,0.4c0.4,0.3,0.6,0.5,0.6,0.8s0,0.6-0.1,1c-0.3,1-0.6,2.1-1,3.2c-0.4,1.2-0.8,2.3-1.2,3.3
				c-0.4,1.1-0.7,2-1,2.7s-0.4,1.2-0.3,1.4c0.1,0.3,0.4,0.3,0.8,0c0.4-0.2,0.9-0.6,1.4-1.2c0.5-0.5,1.1-1.2,1.8-1.9
				c0.7-0.7,1.3-1.5,2-2.3c0.7-0.8,1.3-1.5,1.9-2.2c0.6-0.7,1.1-1.2,1.6-1.6c0.3-0.3,0.6-0.5,0.9-0.4c0.2,0.1,0.3,0.3,0.1,0.8
				c-0.2,0.4-0.6,0.9-1,1.6c-0.5,0.7-1,1.5-1.7,2.3s-1.4,1.7-2.1,2.6c-0.7,0.9-1.5,1.7-2.2,2.4c-0.7,0.7-1.4,1.3-2.1,1.8
				c-0.7,0.5-1.2,0.7-1.7,0.7c-0.5,0-0.9-0.1-1.3-0.3c-0.4-0.2-0.8-0.4-1.1-0.8c-0.3-0.3-0.5-0.7-0.7-1.2c-0.1-0.4-0.2-0.9-0.1-1.5
				c0-0.2,0.1-0.4,0.1-0.7c0.1-0.2,0.1-0.5,0.2-0.8c0.3-0.8,0.6-1.5,0.8-2.3c0.3-0.8,0.5-1.5,0.8-2.3c0.4-1.1,1-2.3,1.7-3.5v-0.1
				C181,105.6,181,105.5,180.8,105.5z M176.8,99.1c0.2-0.2,0.6-0.6,1-1.2c0.4-0.6,0.9-1.3,1.4-2.2c0.5-0.9,0.9-1.8,1.4-2.7
				c0.5-1,0.9-1.9,1.2-2.8c0.3-0.9,0.6-1.7,0.7-2.4c0.1-0.7,0.1-1.3-0.1-1.6c-0.3,0.6-0.7,1.6-1.2,2.7c-0.5,1.2-1.1,2.4-1.6,3.7
				c-0.6,1.3-1.1,2.6-1.6,3.8S177,98.5,176.8,99.1z"/>
			<path class="st0" d="M190.1,110.3c-0.1-1,0.1-2.1,0.3-3.2c0.3-1.1,0.7-2.1,1.2-3c0.5-0.9,1.2-1.7,2-2.3c0.8-0.6,1.8-0.9,2.9-0.9
				c0.6,0.1,1,0.4,1.3,0.8c0.3,0.4,0.4,0.9,0.3,1.6c-0.1,0.6-0.3,1.1-0.5,1.5c-0.2,0.4-0.5,0.8-1,1.3c-0.2,0.2-0.6,0.5-1,0.8
				c-0.4,0.3-0.8,0.7-1.2,1.1c-0.4,0.4-0.7,0.8-1,1.1c-0.3,0.4-0.4,0.7-0.4,1c-0.1,0.7,0,1.1,0.3,1.3s0.7,0.3,1.1,0.2
				c0.5,0,0.9-0.2,1.4-0.4c0.5-0.2,0.9-0.4,1.2-0.6c0.3-0.2,0.7-0.5,1.2-0.9c0.4-0.4,0.9-0.7,1.3-1.1c0.4-0.4,0.8-0.8,1.2-1.2
				c0.4-0.4,0.7-0.7,1-0.9c0.2-0.2,0.4-0.4,0.6-0.6c0.2-0.2,0.4-0.3,0.6-0.5c0.2-0.1,0.4-0.1,0.5,0c0.1,0,0.1,0.2-0.1,0.6
				c-0.2,0.5-0.5,0.9-0.8,1.3c-0.3,0.4-0.6,0.8-1,1.2c-0.5,0.5-1,1.1-1.5,1.7c-0.5,0.6-1.1,1.1-1.7,1.6c-0.6,0.5-1.2,0.9-1.9,1.3
				c-0.7,0.4-1.3,0.6-2,0.7c-1.2,0.1-2.2-0.2-3-0.8C190.5,112.5,190.1,111.6,190.1,110.3z M196.5,102.7c-0.7,0.3-1.3,0.6-1.7,1
				c-0.4,0.4-0.7,1.1-0.9,1.9c0.6-0.4,1.1-0.9,1.6-1.3C195.9,103.9,196.3,103.4,196.5,102.7z"/>
			<path class="st0" d="M212,105.4l0.5-0.5h0v0.1c0.1,0.6,0,1.1-0.2,1.4c-0.2,0.3-0.2,0.5-0.2,0.5c-0.3,0.4-0.6,0.9-1.1,1.5
				c-0.5,0.6-0.9,1.3-1.4,1.9c-0.5,0.7-1,1.3-1.4,1.8c-0.5,0.5-0.8,0.9-1.1,1.2c-0.3,0.4-0.7,0.7-1,1c-0.1,0.1-0.3,0.2-0.5,0.3
				c-0.2,0.1-0.5,0.1-0.7,0.2s-0.5,0-0.7,0s-0.4-0.1-0.5-0.2c-0.5-0.3-0.8-0.6-1.1-1.1c-0.3-0.4-0.4-0.9-0.4-1.3
				c-0.1-1.5,0-3,0.4-4.5c0.3-1.5,0.7-2.9,1.2-4.2c0.1-0.4,0.3-0.8,0.6-1.2c0.2-0.2,0.5-0.3,0.8-0.2c0.3,0.1,0.6,0.3,0.9,0.7
				c0.3,0.3,0.4,0.7,0.6,1.2c0.1,0.5,0.1,1-0.1,1.4c-0.1,0.5-0.3,0.9-0.4,1.3c-0.1,0.4-0.2,0.8-0.4,1.3c-0.1,0.2-0.1,0.5-0.3,0.9
				c-0.1,0.4-0.2,0.8-0.4,1.3c-0.1,0.4-0.3,0.9-0.4,1.3c-0.1,0.4-0.2,0.7-0.2,0.9c-0.1,0.4,0.1,0.5,0.3,0.3c0.3-0.2,0.6-0.5,1.1-1
				c1.1-1.1,2.1-2.2,3.1-3.3C210.1,107.5,211.1,106.4,212,105.4z M206.4,100.6c-0.2,0.2-0.3,0.2-0.4,0c-0.3-0.5-0.6-1.1-0.7-1.7
				c-0.1-0.6-0.1-1.2,0.2-1.8c0.1-0.3,0.3-0.6,0.7-0.9c0.4-0.2,0.7-0.3,1-0.2c0.2,0.1,0.3,0.1,0.5,0.3c0.2,0.1,0.3,0.3,0.4,0.4
				c0.2,0.7,0.1,1.4-0.3,2.1C207.4,99.5,206.9,100.1,206.4,100.6z"/>
			<path class="st0" d="M213.1,112.5c-0.1,0.2-0.2,0.3-0.2,0.4c-0.4,0.3-0.7,0.2-0.9-0.2c-0.1-0.2-0.1-0.4-0.1-0.6
				c0-0.2,0-0.4,0-0.6c0-0.6,0-1.2,0-1.8c0.1-0.7,0.2-1.4,0.5-2.2c0.2-0.8,0.5-1.6,0.9-2.3c0.3-0.8,0.7-1.5,1-2.2
				c0.4-0.7,0.7-1.2,1-1.7c0.2-0.2,0.4-0.4,0.7-0.4c0.3,0,0.6,0,0.8,0.2s0.5,0.4,0.6,0.7c0.2,0.3,0.2,0.6,0.1,1c0,0-0.1,0.1-0.2,0.2
				c-0.1,0.1-0.2,0.3-0.2,0.4s-0.2,0.3-0.2,0.5s-0.1,0.2-0.2,0.3c0.3-0.2,0.6-0.5,0.9-0.7s0.6-0.5,0.9-0.8c0.3-0.2,0.6-0.4,0.9-0.6
				c0.3-0.2,0.7-0.3,1-0.3c0.5,0,0.9,0.1,1.2,0.4c0.3,0.3,0.6,0.6,0.9,0.9c0.2,0.4,0.4,0.7,0.4,1.2c0.1,0.4,0,0.8-0.1,1.2
				c-0.2,0.7-0.6,1.4-1,2.1s-0.9,1.4-1.3,2c-0.4,0.7-0.8,1.3-1.2,2c-0.4,0.7-0.6,1.4-0.8,2.1c-0.2,0.6-0.2,0.9,0,1s0.3,0.2,0.6,0.1
				s0.5-0.2,0.7-0.4c0.3-0.2,0.4-0.3,0.5-0.4c1.1-0.9,2.1-1.8,3.1-2.8c1-1,1.9-2,2.8-2.9c0.8-0.8,1.3-1.2,1.5-1.3
				c0.2-0.1,0.2,0.1,0.1,0.4c-0.1,0.3-0.4,0.8-0.7,1.3c-0.3,0.6-0.6,1.1-0.9,1.5c-0.3,0.5-0.8,1.2-1.3,1.9c-0.6,0.8-1.2,1.5-1.9,2.2
				c-0.7,0.7-1.4,1.3-2.1,1.8c-0.7,0.5-1.4,0.7-2,0.7c-0.5,0-0.9-0.1-1.2-0.3s-0.6-0.4-0.9-0.7c-0.2-0.3-0.4-0.6-0.5-1
				s-0.2-0.7-0.2-1.1c0-1.3,0.3-2.6,0.8-3.9c0.5-1.3,1.1-2.5,1.7-3.5c0.3-0.6,0.4-0.9,0.2-1.2c-0.1-0.2-0.5-0.2-1.2,0.1
				c-0.5,0.2-1,0.7-1.5,1.3c-0.5,0.6-0.9,1.3-1.3,2c-0.4,0.7-0.7,1.5-1.1,2.2C213.6,111.5,213.3,112.1,213.1,112.5z"/>
			<path class="st0" d="M239.8,105.7c0.5-0.4,1-0.7,1.5-1c0.5-0.3,1-0.5,1.5-0.8c0.4-0.2,0.9-0.4,1.5-0.6c0.6-0.2,1.1-0.3,1.6-0.3
				c0.5,0,1,0.1,1.4,0.3c0.4,0.2,0.7,0.6,1,1.2c0,0.2,0,0.3,0.1,0.3c0.1,0,0.1,0,0.2,0c0.9,0,1.8,0.1,2.7,0.2s1.7,0.4,2.2,0.8
				c0.2,0.1,0.3,0.2,0.2,0.3c0,0.1-0.1,0.1-0.2,0.1c-0.1,0-0.3,0-0.4,0c-0.2,0-0.3,0-0.3,0c-0.6-0.1-1.2-0.1-1.7-0.2
				s-1.1-0.1-1.7-0.1h-0.9c-0.1,0.8-0.4,1.7-0.7,2.6c-0.3,0.9-0.8,1.7-1.4,2.5c-0.6,0.8-1.2,1.4-2,1.9c-0.8,0.5-1.6,0.7-2.6,0.6
				c-0.6,0-1.2-0.1-1.6-0.3c-0.4-0.2-0.7-0.5-1-0.8c-0.3-0.3-0.5-0.7-0.6-1.1c-0.1-0.4-0.3-0.8-0.3-1.1c0,0.1,0,0.1-0.1,0.1
				c-0.1,0-0.1,0.1-0.1,0.1c-0.2,0.5-0.4,1.1-0.6,1.6c-0.2,0.5-0.4,1.1-0.6,1.7c-0.2,0.6-0.5,1.2-0.8,1.9s-0.6,1.4-0.9,2.3
				c-0.1,0.1-0.1,0.2-0.2,0.2s-0.1,0.1-0.2,0.1c-0.1,0.1-0.3,0.1-0.4,0.1c-0.1,0-0.2-0.1-0.3-0.2c-0.1-1.3,0-2.6,0.2-3.9
				c0.2-1.3,0.5-2.6,0.8-3.9c0.3-1.3,0.7-2.6,1.1-3.8c0.4-1.3,0.8-2.5,1.1-3.6c0.9-2.7,1.9-5.2,3-7.5c1-2.3,2.1-4.6,3.3-6.9
				c0.5-0.9,1-1.7,1.4-2.6c0.5-0.9,1-1.6,1.6-2.3c0.2-0.2,0.4-0.4,0.7-0.5c0.3-0.1,0.6-0.1,0.9,0c0.6,0.3,0.8,0.8,0.8,1.5
				c-0.1,1-0.3,2-0.5,3.1c-0.2,1-0.5,2-0.9,3c-0.8,1.9-1.7,3.8-2.7,5.5c-1,1.7-2.1,3.4-3.4,5c-0.2,0.2-0.3,0.4-0.5,0.8
				c-0.2,0.4-0.3,0.8-0.5,1.3c-0.1,0.5-0.3,0.9-0.4,1.3C240.1,105,240,105.4,239.8,105.7z M238.8,108.8c0.3,0,0.6-0.1,0.7-0.2
				c0.2-0.1,0.3-0.3,0.5-0.4c0.6-0.6,1.3-1.2,2.1-1.7c0.8-0.5,1.6-0.9,2.4-1.3c0.4-0.2,0.7-0.3,1-0.5h-0.3c-0.1,0.1-0.2,0.1-0.2,0.1
				c-0.1,0-0.2,0-0.3,0.1c-2,0.7-3.8,1.9-5.4,3.4c-0.1,0.1-0.1,0.1-0.2,0.2C239,108.6,238.9,108.7,238.8,108.8z M240.7,109.1
				c0.5,0.4,1.1,0.5,1.7,0.5c0.6-0.1,1.1-0.2,1.6-0.6c0.5-0.3,0.9-0.7,1.3-1.3c0.3-0.5,0.5-1.1,0.6-1.7c-0.9,0.4-1.8,0.9-2.7,1.4
				C242.3,108,241.5,108.6,240.7,109.1z M248.3,86.5c-1.1,1.9-2.2,3.9-3.1,5.9c-0.9,2-1.8,4.1-2.7,6.1c0.2-0.2,0.5-0.6,0.9-1.2
				c0.4-0.6,0.7-1.2,1.1-2c0.4-0.7,0.8-1.5,1.2-2.4c0.4-0.9,0.8-1.7,1.1-2.5c0.3-0.8,0.6-1.6,0.9-2.3
				C248,87.4,248.2,86.9,248.3,86.5z"/>
			<path class="st0" d="M252.2,110.3c-0.1-1,0.1-2.1,0.3-3.2c0.3-1.1,0.7-2.1,1.2-3c0.5-0.9,1.2-1.7,2-2.3c0.8-0.6,1.8-0.9,2.9-0.9
				c0.6,0.1,1,0.4,1.3,0.8c0.3,0.4,0.4,0.9,0.3,1.6c-0.1,0.6-0.3,1.1-0.5,1.5c-0.2,0.4-0.5,0.8-1,1.3c-0.2,0.2-0.6,0.5-1,0.8
				c-0.4,0.3-0.8,0.7-1.2,1.1c-0.4,0.4-0.7,0.8-1,1.1c-0.3,0.4-0.4,0.7-0.4,1c-0.1,0.7,0,1.1,0.3,1.3s0.7,0.3,1.1,0.2
				c0.5,0,0.9-0.2,1.4-0.4c0.5-0.2,0.9-0.4,1.2-0.6c0.3-0.2,0.7-0.5,1.2-0.9c0.4-0.4,0.9-0.7,1.3-1.1c0.4-0.4,0.8-0.8,1.2-1.2
				c0.4-0.4,0.7-0.7,1-0.9c0.2-0.2,0.4-0.4,0.6-0.6c0.2-0.2,0.4-0.3,0.6-0.5c0.2-0.1,0.4-0.1,0.5,0s0.1,0.2-0.1,0.6
				c-0.2,0.5-0.5,0.9-0.8,1.3c-0.3,0.4-0.6,0.8-1,1.2c-0.5,0.5-1,1.1-1.5,1.7c-0.5,0.6-1.1,1.1-1.7,1.6c-0.6,0.5-1.2,0.9-1.9,1.3
				c-0.7,0.4-1.3,0.6-2,0.7c-1.2,0.1-2.2-0.2-3-0.8C252.6,112.5,252.2,111.6,252.2,110.3z M258.6,102.7c-0.7,0.3-1.3,0.6-1.7,1
				c-0.4,0.4-0.7,1.1-0.9,1.9c0.6-0.4,1.1-0.9,1.6-1.3C258.1,103.9,258.4,103.4,258.6,102.7z"/>
			<path class="st0" d="M267.4,109.2c-0.5-0.7-1.1-1.5-1.6-2.3c-0.5-0.8-0.8-1.6-0.8-2.6c0-1,0.3-2,0.9-2.9c0.6-0.9,1.3-1.7,2.1-2.2
				c0.3-0.2,0.6-0.4,1-0.5c0.3-0.1,0.7-0.1,1.1,0c0.2,0.1,0.3,0.1,0.5,0.2c0.2,0,0.3,0.1,0.5,0.1c0.1,0.1,0.3,0.1,0.4,0.2
				s0.2,0.3,0.2,0.4c0,0.7,0,1.4,0.1,1.8c0,0.5,0.1,0.9,0.2,1.2c0.1,0.3,0.2,0.6,0.2,0.9c0.1,0.3,0.2,0.5,0.2,0.8
				c0.1,0.3,0,0.5,0,0.7s-0.3,0.2-0.6,0.1c-0.6-0.2-1-0.6-1.3-1.3c-0.3-0.6-0.5-1.2-0.6-1.8c0-0.1-0.1-0.3-0.2-0.6s-0.2-0.5-0.2-0.6
				c-0.2-0.1-0.5,0-0.8,0.2c-0.3,0.2-0.6,0.5-0.8,0.8c-0.2,0.3-0.4,0.7-0.4,1.2c-0.1,0.5,0,0.9,0.3,1.4c0.1,0.2,0.3,0.4,0.5,0.6
				c0.2,0.2,0.4,0.5,0.6,0.7s0.4,0.5,0.6,0.7c0.2,0.2,0.4,0.4,0.5,0.5c0.2,0.2,0.3,0.2,0.3,0.3c0.1,0,0.2,0,0.4-0.1
				c0.3-0.1,0.7-0.3,1.2-0.5c0.5-0.2,1.1-0.4,1.7-0.6c0.6-0.2,1.2-0.4,1.7-0.5c0.5-0.1,1-0.2,1.3-0.2c0.2,0,0.3,0.1,0.4,0.2
				c0.1,0.1,0.1,0.2,0,0.3c-0.1,0.1-0.2,0.3-0.4,0.4c-0.2,0.1-0.4,0.3-0.5,0.4c-0.2,0.1-0.3,0.2-0.4,0.2c-0.5,0.3-1,0.6-1.7,0.9
				c-0.7,0.3-1.3,0.7-1.8,1c-0.1,0.1-0.2,0.1-0.3,0.2c-0.1,0.1-0.3,0.1-0.3,0.2c0.3,0.7,0.5,1.3,0.7,1.9c0.1,0.5,0.2,1,0.1,1.5
				c0,0.5-0.1,1-0.3,1.5s-0.4,1.1-0.6,1.7c-0.4,0.6-0.8,1.2-1.1,1.8c-0.4,0.6-0.8,1.1-1.3,1.5c-0.5,0.5-1,0.8-1.6,1.1
				c-0.6,0.3-1.2,0.4-1.8,0.4c-0.4,0-0.7,0-1.1-0.1c-0.3-0.1-0.6-0.3-0.9-0.6c-0.6-0.7-1-1.4-1-2.2s0-1.6,0.2-2.3
				c0.2-0.5,0.4-0.9,0.6-1.3c0.6-1,1.2-1.9,1.9-2.6C265.9,110.5,266.7,109.8,267.4,109.2z M268.8,111c-0.3,0.3-0.7,0.7-1.2,1.3
				c-0.5,0.5-1,1.1-1.4,1.8c-0.4,0.6-0.8,1.3-1.1,1.9c-0.3,0.6-0.4,1.2-0.2,1.6c0.5-0.2,1.1-0.6,1.6-1.2c0.6-0.5,1.1-1.1,1.5-1.8
				s0.7-1.3,0.9-1.9C269.1,112,269,111.4,268.8,111z"/>
			<path class="st0" d="M278.4,116.9c0.2,0.5,0.5,0.7,1,0.5c0.5-0.2,1.1-0.6,1.7-1.2s1.3-1.4,2.1-2.2s1.4-1.7,2.1-2.6
				s1.2-1.6,1.7-2.3c0.5-0.7,0.8-1.1,1-1.4c0.1-0.2,0.3-0.4,0.5-0.6c0.2-0.2,0.4-0.4,0.7-0.6c0.1-0.1,0.2-0.2,0.4-0.3
				c0.1-0.1,0.3-0.1,0.4-0.1s0.2,0.1,0.1,0.3s-0.1,0.4-0.3,0.8c-0.2,0.3-0.4,0.8-0.8,1.5c-0.3,0.7-0.8,1.4-1.3,2.2s-1.1,1.7-1.7,2.5
				s-1.3,1.7-2,2.4c-0.7,0.7-1.4,1.4-2.2,2c-0.7,0.6-1.5,0.9-2.2,1.1c-0.7,0.2-1.3,0.2-1.8,0.3c-0.6,0-1.1-0.2-1.5-0.6
				c-0.4-0.4-0.6-1-0.7-1.7c-0.1-0.7,0-1.5,0.1-2.4c0.1-0.8,0.3-1.7,0.5-2.4c0.2-0.8,0.4-1.4,0.5-1.8c0.4-1.4,0.8-2.8,1.2-4.1
				c0.4-1.3,0.8-2.7,1.1-4.1c0.4-1.2,0.8-2.4,1.1-3.7c0.3-1.3,0.7-2.4,1-3.4c-0.5,0-1.1,0-1.6-0.1c-0.6,0-1.1,0-1.7,0
				c-0.6,0-1.1,0-1.7-0.1c-0.5-0.1-1.1-0.1-1.5-0.3c-0.4-0.1-0.7-0.3-0.9-0.5c-0.2-0.2-0.3-0.5-0.3-0.7s0.1-0.4,0.4-0.6
				c0.3-0.2,0.6-0.3,1.1-0.3c0.3,0,0.8,0,1.4,0.1c0.7,0.1,1.4,0.1,2.1,0.1s1.4,0,2,0c0.6,0,1-0.1,1.2-0.1c0.1,0,0.1-0.1,0.1-0.1
				c0.2-0.5,0.3-1,0.5-1.5s0.4-1.1,0.6-1.6c0.2-0.5,0.4-1,0.5-1.4c0.2-0.5,0.3-0.8,0.5-1.2c0.1-0.2,0.3-0.3,0.7-0.3
				c0.3,0,0.7,0.2,1,0.3s0.7,0.4,0.9,0.7c0.3,0.3,0.4,0.5,0.4,0.8c-0.1,0.7-0.3,1.4-0.6,2c-0.3,0.7-0.5,1.4-0.8,2.3
				c1.7,0,3.1,0,4.3-0.1c1.2,0,2.4,0,3.5,0c0.4,0,0.7,0,1.1,0s0.7,0,0.9,0.1c0.2,0.1,0.2,0.1,0.1,0.2c-0.1,0.1-0.5,0.2-1,0.4
				c-1.7,0.5-3.3,0.9-4.9,1.2c-1.6,0.3-3.1,0.5-4.6,0.6c-0.1,0-0.2,0.1-0.2,0.1c0,0,0,0.1-0.1,0.2c0,0,0,0.1,0,0.1c0,0,0,0.1,0,0.1
				c-0.4,1.2-0.9,2.5-1.4,4c-0.5,1.5-1,3-1.5,4.5c-0.5,1.5-1,3.1-1.4,4.6c-0.5,1.5-0.8,2.8-1.2,4.1c-0.3,1.2-0.6,2.2-0.7,3
				C278.2,116.2,278.2,116.7,278.4,116.9z"/>
			<path class="st0" d="M288.3,110.3c-0.1-1,0.1-2.1,0.3-3.2c0.3-1.1,0.7-2.1,1.2-3c0.5-0.9,1.2-1.7,2-2.3c0.8-0.6,1.8-0.9,2.9-0.9
				c0.6,0.1,1,0.4,1.3,0.8c0.3,0.4,0.4,0.9,0.3,1.6c-0.1,0.6-0.3,1.1-0.5,1.5c-0.2,0.4-0.5,0.8-1,1.3c-0.2,0.2-0.6,0.5-1,0.8
				c-0.4,0.3-0.8,0.7-1.2,1.1c-0.4,0.4-0.7,0.8-1,1.1c-0.3,0.4-0.4,0.7-0.4,1c-0.1,0.7,0,1.1,0.3,1.3c0.3,0.2,0.7,0.3,1.1,0.2
				s0.9-0.2,1.4-0.4c0.5-0.2,0.9-0.4,1.2-0.6c0.3-0.2,0.7-0.5,1.2-0.9c0.4-0.4,0.9-0.7,1.3-1.1c0.4-0.4,0.8-0.8,1.2-1.2
				c0.4-0.4,0.7-0.7,1-0.9c0.2-0.2,0.4-0.4,0.6-0.6c0.2-0.2,0.4-0.3,0.6-0.5c0.2-0.1,0.4-0.1,0.5,0s0.1,0.2-0.1,0.6
				c-0.2,0.5-0.5,0.9-0.8,1.3c-0.3,0.4-0.6,0.8-1,1.2c-0.5,0.5-1,1.1-1.5,1.7c-0.5,0.6-1.1,1.1-1.7,1.6c-0.6,0.5-1.2,0.9-1.9,1.3
				c-0.7,0.4-1.3,0.6-2,0.7c-1.2,0.1-2.2-0.2-3-0.8C288.7,112.5,288.3,111.6,288.3,110.3z M294.7,102.7c-0.7,0.3-1.3,0.6-1.7,1
				c-0.4,0.4-0.7,1.1-0.9,1.9c0.6-0.4,1.1-0.9,1.6-1.3C294.2,103.9,294.5,103.4,294.7,102.7z"/>
			<path class="st0" d="M312.6,118.1c0.1,0.3,0.3,0.3,0.4,0.2c0.1-0.1,0.3-0.2,0.5-0.4c0.7-0.6,1.5-1.5,2.4-2.5
				c0.9-1,1.7-2.1,2.6-3.2s1.6-2.2,2.4-3.2c0.7-1.1,1.3-1.9,1.8-2.6c0.1-0.1,0.1-0.2,0.2-0.3c0.1-0.1,0.2-0.2,0.3-0.3
				c0.2-0.2,0.4-0.2,0.5-0.1c0.1,0.2,0.1,0.4,0.1,0.6c-0.4,0.7-0.9,1.6-1.5,2.9c-0.6,1.3-1.3,2.6-2.1,4s-1.6,2.7-2.5,4
				c-0.9,1.3-1.8,2.4-2.7,3.2c-0.6,0.6-1.3,0.9-2.1,1c-0.7,0-1.3-0.2-2-0.7c-0.6-0.4-1-1-1.1-1.7c-0.2-1.6-0.1-3.3,0.1-4.9
				c0.2-2,0.7-4.2,1.4-6.7c0.7-2.5,1.5-5,2.4-7.5c-0.7,1.5-1.5,3.2-2.3,5s-1.7,3.6-2.4,5.3c-0.8,1.7-1.5,3.1-2.2,4.4
				c-0.7,1.3-1.2,2.1-1.6,2.4c-0.6,0.6-1.3,0.9-2.1,1c-0.7,0-1.3-0.2-2-0.7s-1-1-1.1-1.7c-0.2-1.6-0.1-3.3,0.1-4.9
				c0.2-1.9,0.7-4,1.3-6.3c0.6-2.3,1.4-4.6,2.2-7c0.9-2.3,1.8-4.6,2.8-6.8s2-4.1,3-5.8c0.5-0.7,0.9-1.4,1.4-2.1
				c0.5-0.7,0.9-1.3,1.4-1.8c0.2-0.2,0.4-0.4,0.7-0.5c0.3-0.1,0.6-0.1,0.9,0c0.6,0.3,0.8,0.8,0.8,1.5c-0.2,1.6-0.6,3.2-1.1,5
				c-0.6,1.8-1.2,3.5-2,5.2c-0.8,1.7-1.6,3.3-2.6,4.9s-1.8,2.9-2.8,4c-0.1,0.1-0.1,0.2-0.2,0.3c0,0.1-0.1,0.2-0.1,0.3
				c-0.4,1.1-0.8,2.2-1.2,3.5c-0.4,1.3-0.7,2.5-1,3.7c-0.3,1.2-0.5,2.3-0.6,3.4s-0.1,1.8,0,2.4c0.1,0.3,0.3,0.4,0.5,0.4
				c0.2,0,0.4,0,0.7-0.2c0.5-0.4,1-1.1,1.7-2.2c0.7-1.1,1.4-2.3,2.2-3.8c0.8-1.5,1.6-3,2.4-4.7s1.7-3.3,2.4-4.8
				c0.8-1.5,1.5-2.9,2.2-4.2c0.7-1.3,1.2-2.2,1.7-2.9c0.5-0.9,0.9-1.8,1.3-2.7c0.4-0.8,0.9-1.6,1.3-2.3c0.5-0.7,0.9-1.4,1.4-2.1
				c0.5-0.7,0.9-1.3,1.4-1.8c0.2-0.2,0.4-0.4,0.7-0.5c0.3-0.1,0.6-0.1,0.9,0c0.6,0.3,0.8,0.8,0.8,1.5c-0.2,1.6-0.5,3.1-1,4.6
				c-0.5,1.5-1,2.9-1.7,4.3c-0.7,1.4-1.4,2.7-2.2,4c-0.8,1.3-1.7,2.5-2.6,3.6c-0.1,0.1-0.1,0.2-0.2,0.3c0,0.1-0.1,0.2-0.1,0.3
				c-0.3,0.7-0.6,1.6-0.9,2.5c-0.3,1-0.6,2-1,3.1s-0.6,2.2-0.9,3.3c-0.3,1.1-0.5,2.2-0.7,3.1c-0.2,1-0.4,1.9-0.5,2.6
				C312.6,117.2,312.6,117.8,312.6,118.1z M313.7,83.9c-0.6,1-1.1,2.1-1.8,3.3c-0.6,1.3-1.2,2.5-1.8,3.9c-0.6,1.3-1.1,2.6-1.7,3.9
				c-0.5,1.3-1,2.4-1.5,3.4c0.2-0.2,0.6-0.7,1-1.4c0.4-0.7,0.8-1.5,1.3-2.4s0.9-1.9,1.4-3c0.5-1.1,0.9-2.1,1.4-3.1s0.8-1.9,1.1-2.7
				S313.6,84.4,313.7,83.9z M323.6,86.5c-1.1,1.9-2.2,3.9-3.1,5.9s-1.8,4.1-2.7,6.1c0.2-0.2,0.5-0.6,0.9-1.2c0.4-0.6,0.7-1.2,1.1-2
				c0.4-0.7,0.8-1.5,1.2-2.4c0.4-0.9,0.8-1.7,1.1-2.5c0.3-0.8,0.7-1.6,0.9-2.3C323.4,87.4,323.6,86.9,323.6,86.5z"/>
			<path class="st0" d="M322.7,110.3c-0.1-1,0.1-2.1,0.3-3.2c0.3-1.1,0.7-2.1,1.2-3c0.5-0.9,1.2-1.7,2-2.3c0.8-0.6,1.8-0.9,2.9-0.9
				c0.6,0.1,1,0.4,1.3,0.8c0.3,0.4,0.4,0.9,0.3,1.6c-0.1,0.6-0.3,1.1-0.5,1.5c-0.2,0.4-0.5,0.8-1,1.3c-0.2,0.2-0.6,0.5-1,0.8
				c-0.4,0.3-0.8,0.7-1.2,1.1c-0.4,0.4-0.7,0.8-1,1.1c-0.3,0.4-0.4,0.7-0.4,1c-0.1,0.7,0,1.1,0.3,1.3c0.3,0.2,0.7,0.3,1.1,0.2
				c0.5,0,0.9-0.2,1.4-0.4c0.5-0.2,0.9-0.4,1.2-0.6c0.3-0.2,0.7-0.5,1.2-0.9c0.4-0.4,0.9-0.7,1.3-1.1c0.4-0.4,0.8-0.8,1.2-1.2
				c0.4-0.4,0.7-0.7,1-0.9c0.2-0.2,0.4-0.4,0.6-0.6c0.2-0.2,0.4-0.3,0.6-0.5c0.2-0.1,0.4-0.1,0.5,0s0.1,0.2-0.1,0.6
				c-0.2,0.5-0.5,0.9-0.8,1.3c-0.3,0.4-0.6,0.8-1,1.2c-0.5,0.5-1,1.1-1.5,1.7c-0.5,0.6-1.1,1.1-1.7,1.6s-1.2,0.9-1.9,1.3
				c-0.7,0.4-1.3,0.6-2,0.7c-1.2,0.1-2.2-0.2-3-0.8C323.1,112.5,322.7,111.6,322.7,110.3z M329.1,102.7c-0.7,0.3-1.3,0.6-1.7,1
				c-0.4,0.4-0.7,1.1-0.9,1.9c0.6-0.4,1.1-0.9,1.6-1.3C328.5,103.9,328.9,103.4,329.1,102.7z"/>
			<path class="st0" d="M335.9,112.5c-0.1,0.2-0.2,0.3-0.2,0.4c-0.4,0.3-0.7,0.2-0.9-0.2c-0.1-0.2-0.1-0.4-0.1-0.6
				c0-0.2,0-0.4,0-0.6c0-0.6,0-1.2,0-1.8c0.1-0.7,0.2-1.4,0.5-2.2c0.2-0.8,0.5-1.6,0.9-2.3c0.3-0.8,0.7-1.5,1-2.2
				c0.4-0.7,0.7-1.2,1-1.7c0.2-0.2,0.4-0.4,0.7-0.4c0.3,0,0.6,0,0.8,0.2s0.5,0.4,0.6,0.7c0.2,0.3,0.2,0.6,0.1,1c0,0-0.1,0.1-0.2,0.2
				c-0.1,0.1-0.2,0.3-0.2,0.4s-0.2,0.3-0.2,0.5s-0.1,0.2-0.2,0.3c0.3-0.2,0.6-0.5,0.9-0.7c0.3-0.3,0.6-0.5,0.9-0.8
				c0.3-0.2,0.6-0.4,0.9-0.6c0.3-0.2,0.7-0.3,1-0.3c0.5,0,0.9,0.1,1.2,0.4c0.3,0.3,0.6,0.6,0.9,0.9c0.2,0.4,0.4,0.7,0.4,1.2
				c0.1,0.4,0,0.8-0.1,1.2c-0.2,0.7-0.6,1.4-1,2.1s-0.9,1.4-1.3,2c-0.4,0.7-0.8,1.3-1.2,2c-0.4,0.7-0.6,1.4-0.8,2.1
				c-0.2,0.6-0.2,0.9,0,1s0.3,0.2,0.6,0.1s0.5-0.2,0.7-0.4c0.3-0.2,0.4-0.3,0.5-0.4c1.1-0.9,2.1-1.8,3.1-2.8c1-1,1.9-2,2.8-2.9
				c0.8-0.8,1.3-1.2,1.5-1.3s0.2,0.1,0.1,0.4c-0.1,0.3-0.4,0.8-0.7,1.3c-0.3,0.6-0.6,1.1-0.9,1.5c-0.3,0.5-0.8,1.2-1.3,1.9
				c-0.6,0.8-1.2,1.5-1.9,2.2c-0.7,0.7-1.4,1.3-2.1,1.8c-0.7,0.5-1.4,0.7-2,0.7c-0.5,0-0.9-0.1-1.2-0.3s-0.6-0.4-0.9-0.7
				c-0.2-0.3-0.4-0.6-0.5-1s-0.2-0.7-0.2-1.1c0-1.3,0.3-2.6,0.8-3.9c0.5-1.3,1.1-2.5,1.7-3.5c0.3-0.6,0.4-0.9,0.2-1.2
				c-0.1-0.2-0.5-0.2-1.2,0.1c-0.5,0.2-1,0.7-1.5,1.3c-0.5,0.6-0.9,1.3-1.3,2c-0.4,0.7-0.7,1.5-1.1,2.2
				C336.4,111.5,336.1,112.1,335.9,112.5z"/>
		</g>
		<g>
			<path class="st1" d="M357.6,3c3.9-1.7,4.3,4.3,1.1,4.3C356.3,7.3,355.2,4.1,357.6,3z"/>
			<path class="st1" d="M445,14.6c0.6-0.2,2.1-0.1,2.4,1.1C448.5,20.4,440.3,16.2,445,14.6z"/>
			<path class="st1" d="M366.1,22.1c7.1-1.8,6.8,8.5,0.8,8.1C363.3,29.9,361.8,23.2,366.1,22.1z M368.8,25c-0.1-0.3-0.9-0.3-1.3-0.3
				C362.5,25.5,371,29.4,368.8,25z"/>
			<path class="st1" d="M404.7,31.8c5.3-0.7,1.9,9.4,3.8,12.9c0.6,1.2,3.5,1.9,5.4,2.7c4.8,2.1,8,4.1,12.3,7.3
				c0.1,0.1,1.2,1.6,2.1,1.6c2,0,4.2-4.2,5.6-5.9c0.9-1.1,4.3-5.7,6.2-5.4c2.1,0.3,1.6,3.4,1.9,6.2c0.2,2.3,3.8,16.6,0.8,17.7
				c-1.5,0.6-5.4-2.5-7.2-3.8c-1.7-1.1-4.9-4.3-6.4-4.3c-2,0-3.3,2.3-5.1,3.5c-4.4,3-12,6.7-17.4,7.5c-0.1,0-5.2-0.5-6.2,1.3
				c-0.9,1.7,1.7,7.9-1.1,8.9c-1.3,0.4-4.3-2.6-4.8-3c-1.4-1.1-3-2.2-4.3-3.5c-1.2-1.3-2.5-4-3.8-4.8c-1.3-0.8-3.5-1.3-5.4-2.2
				c-4.2-2-10.5-5-13.4-8.3c-0.8-0.9-2.4-3.6-2.4-4.6c0-3.5,6.3-7.3,8.8-8.6c2.1-1.1,3.8-2,5.9-2.7c2.1-0.7,4.5-0.7,7-1.6
				c2.7-1,5.7-3.8,8.3-5.6C398.1,35.2,401.6,32.2,404.7,31.8z M398.3,38.5c-0.9,0.6-4.5,2.1-3.8,3.5c0.5,0.9,3.5,0.5,4,0.5
				c1.4,0.2,5.5,2,6.4,1.1c0.4-0.4,0.2-7.5-0.8-8.1c-0.6-0.3-1.1,0.3-1.3,0.3C401.1,35.9,399.5,37.7,398.3,38.5z M377.4,49
				c-2.4,1-8.8,4-8.6,7.3c0.2,2.7,6.9,6.1,9.6,7.5c3.9,2.1,8,4.4,12.1,5.1c8.4,1.4,20.5-0.7,26-3.2c2.8-1.3,9.3-5.6,9.1-7.3
				c-0.1-1-3.9-3.4-5.9-4.6c-8.1-4.6-18.4-8.9-29.8-8.1C384.6,46.1,381.8,47,377.4,49z M439.6,55.9c-0.1-0.8,0.1-4.9-1.1-5.4
				c-1.4-0.6-6.7,7-6.7,7.5c0.2,2.5,6.7,5.2,8.6,5.9C441.1,61.3,439.9,58.5,439.6,55.9z M397.2,77.2c0.8-0.4,0.6-3.3,0-4
				c-1.1-1.2-3.7-0.7-5.1-0.5C392,74.1,396.3,77.7,397.2,77.2z"/>
			<path class="st1" d="M349.8,37.4c3.5-0.8,7.4,0.9,7.2,4.6c-0.3,5.3-10.3,5.9-11,0.5C345.7,39.9,346.7,38.1,349.8,37.4z M354.1,42
				c0.3-1.8-2-3.1-4-1.9C345.7,42.6,353.5,45.6,354.1,42z"/>
			<path class="st1" d="M377.9,52.7c3-1.3,4.4,3.7,1.3,4C376.9,57,375.5,53.8,377.9,52.7z"/>
			<path class="st1" d="M457,0.1c4.1-0.7,1.8,4.8,2.4,7c0.4,1.5,3.6,2.7,6.2,4c1.7,0.9,5.4,3.5,6.4,3.5c1.7,0,3.3-3,4.8-4.3
				c0.8-0.7,4.6-3.5,5.6-3.2c1.9,0.6,1.1,8.3,1.1,11.8c0,3,0.2,7.5-1.1,8.3c-1.1,0.6-4-2.5-5.1-3.5c-1.7-1.6-3.8-4.3-4.8-4.3
				c-1.6-0.1-4,2.8-5.4,3.8c-1.4,0.9-5.1,2.2-5.6,3.5c-0.9,2,0.8,4.5-0.8,5.6c-2.3,1.6-8.6-3.6-11.3-4.6c-3.9-1.4-6.6-2.5-9.9-5.1
				c-1.5-1.2-5.4-3.7-5.4-6.2c0.1-2.7,7.3-7.4,9.7-8.3c1.2-0.5,2.7-0.5,3.2-0.8c2.8-1.4,6.4-5.1,9.4-7C456.7,0.2,456.7,0.1,457,0.1z
				 M453.8,6.5c1.5,3,5.1-2.8,1.3-1.9C454.4,4.8,453.2,5.2,453.8,6.5z M438,16.5c-0.1,2.9,6.2,6.5,10.2,7.8c5.1,1.7,10.6,0.5,15-1.6
				c2.1-1,6.4-3.5,6.2-5.6c-0.2-1.4-5.1-3.6-7.2-4.6c-4.5-1.9-9.6-3-14.2-2.1C444.2,10.9,438.1,14,438,16.5z M475.2,17
				c0,1.1,3.4,4.7,4.6,4c1.8-1-0.3-6.4,0.3-8.3C477.7,13.4,475.2,14.4,475.2,17z"/>
		</g>
		<path class="st0" d="M135.3,49.3C135.3,49.3,135.3,49.3,135.3,49.3C135.3,49.3,135.3,49.3,135.3,49.3z"/>
		<path class="st0" d="M139.3,48.9c0.2,0,0.3,0,0.5,0C139.7,48.9,139.5,48.9,139.3,48.9z"/>
		<path class="st0" d="M284.5,51.4c-0.7,0.1-1.4,0.2-2.2,0.3C283.6,51.7,284.5,51.7,284.5,51.4z"/>
		<path class="st0" d="M113.2,48.9c0.1,0,0.3,0.1,0.5,0.1c0.3,0,0.6,0,0.8,0L113.2,48.9z"/>
		<path class="st0" d="M0.9,86.1c0.5-3,0.6,4.9,1.2,0.4C1.9,86.9,1.2,82.4,0.9,86.1z"/>
		<path class="st0" d="M433.8,107.2L433.8,107.2C433.9,107.3,433.9,107.3,433.8,107.2z"/>
		<path class="st0" d="M260.6,48.5c0.3,0,0.6,0,0.9,0C261.2,48.5,260.8,48.5,260.6,48.5z"/>
		<path class="st0" d="M263.5,146.1C263.5,146.1,263.6,146.1,263.5,146.1C263.6,146.1,263.6,146.1,263.5,146.1z"/>
		<path class="st0" d="M276.3,49.2c0.7,0,1-0.1,1-0.1C276.7,49.1,276.1,49.2,276.3,49.2z"/>
		<path class="st0" d="M165.5,48.1c0.1,0.1,0.4,0.2,0.7,0.2C166.2,48.3,166,48.2,165.5,48.1z"/>
		<path class="st0" d="M233.6,48c0.4,0,0.7,0,1.1,0C234.2,48,233.8,48,233.6,48z"/>
		<path class="st0" d="M214.9,48.9l-1.2-0.1C214.2,48.9,214.6,48.9,214.9,48.9z"/>
		<path class="st0" d="M231.8,47.8c0.1,0,0.1,0,0.1,0C232.7,47.7,232.3,47.8,231.8,47.8z"/>
		<path class="st0" d="M139.3,48.9c-0.3,0-0.6-0.1-1.3,0c0.1,0,0.2,0,0.3,0.1C138.6,48.9,138.9,48.9,139.3,48.9z"/>
		<path class="st0" d="M431.8,129.9l-0.1-1.6C431.6,128.9,431.6,129.6,431.8,129.9z"/>
		<path class="st0" d="M433.1,134.3c-0.3-1.8-0.9-3.8-1.5-2.7c0.6,1.8,0.4,2.2,1.1,4.1c0.1,1.5-0.2,2.7-0.5,2.4
			c0.2,0.5-0.1,2.4,0.3,3.2c0.5-2,0.5-4.5,0.1-7.1C432.8,133.6,433,134.2,433.1,134.3z"/>
		<path class="st0" d="M431.5,127.4C431.5,127.4,431.5,127.5,431.5,127.4l0-0.7L431.5,127.4z"/>
		<path class="st0" d="M431.6,128.3c0-0.4,0-0.7-0.1-0.8L431.6,128.3z"/>
		<path class="st0" d="M431.4,107.1l0.2,0.2c-0.3-0.8,0.4-3.8,0.2-5.3h-0.1C431.6,103.4,431.3,105.3,431.4,107.1z"/>
		<path class="st0" d="M431.7,107.5l-0.2-0.2C431.6,107.4,431.6,107.5,431.7,107.5z"/>
		<path class="st0" d="M117.9,48.4l0.6,0.6C119.9,48.9,120.2,48.2,117.9,48.4z"/>
		<path class="st0" d="M334.7,48.9L334.7,48.9C334.6,48.8,334.6,48.9,334.7,48.9z"/>
		<polygon class="st0" points="110.7,147.2 113.7,147.1 112.3,147 		"/>
		<path class="st0" d="M38.5,49.1c-0.9-0.3-3.1-0.5-4.5-0.2C35.8,48.9,37.6,49.2,38.5,49.1z"/>
		<path class="st0" d="M433.2,144.7l-0.5,0c-0.1,0.1-0.1,0.2-0.1,0.3L433.2,144.7z"/>
		<polygon class="st0" points="302.9,48.2 299.5,48.4 302,48.2 		"/>
		<path class="st0" d="M239.1,146.2C239.1,146.2,239.1,146.2,239.1,146.2C239.1,146.2,239.1,146.2,239.1,146.2z"/>
		<path class="st0" d="M261.9,146.2c0.2,0,0.3,0,0.5,0c-0.3,0-0.5-0.1-0.7-0.1c-0.2,0.1-0.3,0.1-0.4,0.2
			C261.5,146.2,261.7,146.2,261.9,146.2z"/>
		<path class="st0" d="M431.6,113c0-0.4,0-0.8,0-1.3C431.6,112.3,431.6,112.7,431.6,113z"/>
		<path class="st0" d="M431.5,113.8c0,0.5,0.1,0.9,0.2,1.3c0-0.4,0-0.8-0.1-1.3C431.6,113.9,431.6,113.8,431.5,113.8z"/>
		<path class="st0" d="M431.8,113.8c-0.1-0.2-0.2-0.4-0.2-0.8c0,0.3,0,0.6,0,0.9C431.7,114,431.8,114,431.8,113.8z"/>
		<path class="st0" d="M2.1,86.4L2.2,86C2.1,86.2,2.1,86.3,2.1,86.4L2.1,86.4L2.1,86.4C2.1,86.5,2.1,86.4,2.1,86.4z"/>
		<path class="st0" d="M434.1,102H433c0.1,1,0.2,2.1,0.3,3.6c-0.3,1.8-0.7-1.5-0.7-1.5c-0.3,2.9-0.2,5.2,0,7.9
			c-0.2-0.6-0.3,0-0.5,0.9c0.1,2.2,0.7,1.5,0.4,4.4c-0.2-0.5-0.6-1.2-0.8-2.2c0.2,2.6,0.5,5.2,0.7,7.9c-0.3,0.7-0.5-1.6-0.7-2.6
			c0.2,3.1,0.3,7.9,0.8,8.9l0.1-1.5c-0.1,0.4-0.4-0.1-0.5-0.7c-0.4-2.6,0.2-3.8,0.4-3.9l0.1,1.9c1.1-2-0.2-7.8-0.1-11.7l0.8,1.6
			l-0.7-4c0.2-0.8,0.7-1.4,0.8,0.5c0.4-2.8-0.3-2.5,0.2-4.9c0.1-0.3,0.1-0.1,0.1,0.1l-0.2-2.7c0.2,0.5,0.6-0.5,0.5,1.2
			C434.2,104.1,434.2,103,434.1,102z"/>
		<path class="st0" d="M433.8,106.8c0,0.1,0,0.3,0,0.4L433.8,106.8z"/>
		<path class="st0" d="M316,142.2c0.6,0.2,0.9,0.3,1.2,0.5C316.8,142.3,320.8,142.1,316,142.2z"/>
		<polygon class="st0" points="314.4,51.9 316.3,52.2 317.3,51.7 		"/>
		<path class="st0" d="M397.1,141.9C397.1,141.9,397.1,142,397.1,141.9C397.3,141.9,397.4,141.9,397.1,141.9z"/>
		<path class="st0" d="M432.7,127.9c0-0.1,0.1-0.2,0-0.5L432.7,127.9z"/>
		<path class="st0" d="M433.9,107.3c0,0.1,0,0.3,0,0.4L433.9,107.3z"/>
		<path class="st0" d="M432,142.7l-0.3-0.5l0,0.4c-0.7-0.2-1.6-0.3-2.8-0.4l-4.3,0.6l-1.4-0.5l3.6,0c-2.1-0.4-3.4,0-4.8,0.2
			c-0.3-0.2-0.9-0.4-1.8-0.5l-4.2,0.9c-0.5-0.4,1.9-0.7-0.9-0.9c-2,0.4,1.9,0.8-1.4,1.1c-2.1-0.4-1.5-0.8-3.9-0.4
			c-0.3-0.2,0.2-0.4,1.1-0.5c-2.2,0.3-5.7,0.1-6.8,0.6c-2.1-0.5-7.3,0.1-7-0.7c-0.7,0.2-3.8,0.7-5.8,0.7c3.6-1.1-7.4-0.1-6.4-1.2
			c-2.7,0.9-9.6,0.4-14.4,0.9c0.3-0.1,0.8-0.2,1.2-0.2c-2.7-0.1-3.4-0.4-5.1-0.5c-0.3,0.8-4.5,1-6.7,1.4c-3.3-0.8,2-0.9,1-1.6
			c0.2,0.6-5.7,0.6-4.6,1.2c-2.5-0.5-2.2-0.2-3.4-0.9c-0.4,1-2.3,0.2-4.4,0.8c-3.6-0.5-0.9-0.9-4.9-0.6c-1.9-0.3,1.6-0.6,1.6-0.6
			c-4,0-1.9,0.7-2.8,1.1c-4.8,0.2-2.2-0.5-3.9-0.9c-3,0.2-5.3,0.9-7.6,0.8c-0.2-0.1-0.6-0.2-0.1-0.3c-3.2,0.6-9.5,0-13.2,0.8
			c-0.3-0.1-0.4-0.1-0.5-0.2c0.6,0.4,0.7,0.7,0.6,1c-1.8,0-3.4,0.5-4,0c1.1,0,1.2-0.2,1.7-0.3l-1.9,0.2c-1.7-0.7,2.6-0.2,2.6-0.8
			c-3.7,0.2-8,0.8-10.9,0.6c-0.6-0.7,6.6-0.2,2.8-0.8l4.4,0.3c-3.4-1.1,2.7,0.1-0.4-1.1c-5.8-0.2-6.5,0.3-12.2,0.1
			c-1.3,0.4,0.4,0.6-0.9,0.9c-8.2,0.7-6.4-1.7-12.5-0.8c-1.6,0.5-2.2,1.3-6.4,0.9l1.5-0.8c-5.6-0.1-3.2,1.1-9,0.6
			c1-0.3,4.4-0.3,3.5-0.3c-3.8-0.6-2.7,0.4-5.6,0.4l-0.6-0.7c-6,0.1-12.5,0.6-19.1,0.7c0.4-0.2,1.5-0.4,0-0.6
			c-8.3,0.3-17.7-0.1-25.8-0.5l-3.1,0.6c-0.7,0-1.3-0.3-0.6-0.4c-3.1-0.2-0.2,0.4-1.7,0.6c-1.8,0-2.3-0.3-1.2-0.5
			c-5.5,0.5-15.7,1.1-21.5,0.4l1.1-0.2c-4.5-0.2-5.1,1.2-9.3,0.7l0.8-0.1c-9.8-0.3-20.7,0.3-28.2-0.6c-1.4,0.8-9.7-0.4-10.4,0.8
			c-5.6-0.6-4-0.8-11.9-1.2c-2.1-0.1-3.1,0.7-5.8,0.9l-0.1-0.6l-3.5,0.6l-1.9-0.7l-2.4,0.2c1,0,2.1,0.3,1.9,0.5
			c-3.8,0.3-9.3-0.4-9.4-0.7l-9,0.5c0.2-0.2,1.1-0.3,2-0.4c-3.4,0.3-0.3-0.7-4.4-0.2c0.6,0.1-0.3,0.4-0.4,0.5
			c-2.2-0.4-7.2-0.4-10.9-0.2l0.7-0.4c-6.7-0.1-14.1,0.2-21.7,0.2c2.7,0.2,2.1,0.9-0.1,1l-0.9-0.7c-1.4,0.4,2.3,0.2-0.6,0.7
			c-2.8-0.1-1.9-0.7-0.3-1l-3.4,0.2c-0.2-0.2,0.6-0.3,0.8-0.5c-1.4,0.4-5.9-0.7-7.9,0l-0.2-0.2c-7.5,0-10.9,0.2-17.1,0.3
			c-0.1,0.6-2.5,0.4-4.3,0.9c-4.5-0.2-9.5-0.6-14.9-0.6c-3.8,0.3-1.1,0.5-2.8,0.8c-0.3-0.5-5.7-0.5-2.9-0.8c-3.2,0-5.3,0.1-7.6,0.1
			c-1.1,0-2.3,0.1-3.7,0.1c-0.4,0-0.7,0-1.1,0c-0.2,0-0.4,0-0.6,0l-0.1,0l-0.1,0l-0.1,0c-0.3,0-0.7,0.1-1.1,0.1c0,0,0,0,0-0.1l0,0.1
			c0.2,0.2,0.6,0.3,0.2,0.4c-0.2,0-0.5,0-0.7,0c0.1-0.7,0.3-1.3,0.5-1.3l0.1,0.1c0-0.1,0-0.2-0.1-0.3l0-0.2c0-0.1,0-0.1,0-0.3
			c0-0.6,0-1.2,0-1.8c0-1.2,0-2.5,0.1-3.8c0.1-2.5,0.3-5.2,0.4-7.7c0.3-5.1,0.6-10,0.1-13.6l0.1,0.4L5.1,107
			c0.1-3.5,0.4,2.1,0.7-0.5c-0.9-8.2,0.1-13-0.4-19.8C6.9,81.5,5.2,68.1,6.2,61l-0.4,0.4c-0.3-1.8,0.2-2.2,0.3-3.6
			c-0.3,0.2-0.3,2-0.5,0.8c0-1.9-0.1-3.9-0.1-5.9c2.5,0,5,0.1,7.6,0.1c3.3,0.1,6.6,0.2,10,0.3c6.7,0.2,13.3,0.4,19.9,0.6
			c5.8,0.1,3.3-1.8,10.6-1l-2.1,0.7c11.7-0.8,24,0,35.5-0.6c-0.7,0.2-0.7,0.4-1.8,0.3c2.4,0.5,9,0,9-0.4c1.8,0,0.4,0.4,1.5,0.6
			c2.4,0.3,6.1-0.6,7.4-0.1c0.1,0.1-0.2,0.1-0.6,0.1c2.1-0.1,6.7,0.1,5.3-0.4c4.3,0.3,8.3-0.2,11.7,0.1c2.2-0.6,7.4,0.3,8.1-0.6
			c-0.3,0.9,7.6,0.7,10.3,0.3c-0.9,0.3,2.4,0.3,1.3,0.7c3.1,0,6-0.2,5.4-0.6c5.7,1.1,11.5-0.9,14.8,0.5c9.2-0.5,17.8-0.8,26.1-1
			c-0.3,0.9-9.2,0.1-8.8,1c7.9-0.4,12.4-1.1,20.3-0.9c2,0.1-1.2,0.4-1.8,0.5c7.9-0.4,15.2,0.1,22.2-0.4c-1.3-0.5,5.1-1.1,5.9-1.4
			c-2,1.1,7,0.3,3.3,1.7c0.9-0.1,2.1-0.3,1.8-0.5c1.3,0.1,1.8,0.2,0.4,0.6c5-0.2,3.2-0.7,7.7-0.7c0,0.2-0.9,0.3-1.4,0.5
			c2.3-0.4,4.6-0.8,8.3-0.6c-0.2,0.1,0.1,0.2-0.6,0.3c6.3-0.1,10.9-1,17.9-0.7c-2.1,0.9,2.4,0.3,2.8,1l3.8-0.2l-1.5-0.4
			c3.4,0,6.3-0.5,9.2-0.3l-2.5,0.3l6.3-0.1l-3.6-0.3c3.4-0.4-0.4-0.9,4.1-0.7c-0.9,0.1,3.4,0,5.1,0.4l0,0c1.7-0.2,3.4-0.5,5.9-0.3
			c0.6,0.2-0.5,0.8-0.1,1c1.6-0.6,7.9-0.2,10-0.8c-0.7,0.2-0.7,0.5-0.5,0.6l1.4-0.5c1.6,0.2,1.8,0.2,1.5,0.6
			c4.7,0.1-1.5-0.9,4.1-0.5c-0.4,0-0.2,0.1-1.1,0.2c5.6,0.2,10.8-0.3,15.9-0.1c1.5,0.8-4.5,0.2-2.8,0.8c5.2-0.1,10.7-0.5,15.9-0.7
			v-2.1c-1.6,0.1-2.6,0.2-5.8-0.1c2.9-0.3-1-0.3,3-0.3c-3.8-0.2-4.7-0.5-8.8,0.1c1.4-0.5-2.9-0.6-4.7-0.5l2.7,0.4
			c-2,0.1-3.8,0-5.6,0l1-0.7c-7.8-0.8-14,1.4-20,0c-2.1,0.5,4.2,0.3,2.4,0.9c-3.6-0.1-7.3-1-8.4-1c-4.9-0.4-4.6,1-9.7,0.7
			c0.7,0.2,1.3,0.9-2.6,1.1c-3.6-0.1-4.4-1-2.1-1.2c0.9,0,1.3,0.1,1.2,0.1c1.2-0.1,2.7-0.2,1.3-0.4l-0.5,0.2
			c-1.8-0.2-6.7-0.2-5.6-0.6c-2.7,0.2-1.2,0.4,0.8,0.5c-4.6-0.3-7.2,0-11.9-0.2c0.8,0.1,1.4,0.4,0.7,0.4c-6.9-0.3-3.1,0.5-7.8,0.6
			c-2.7-0.4,1-0.9-3.8-0.6c-2.9-0.2-0.6-0.6,0.5-0.8c-4.3,0.5-8.1-0.3-10.5-0.4l2.3-0.2c-1.4,0.1-2.5,0.1-3.6,0.1l1.3,0.5
			c-1.3-0.1-2.5-0.1-2.4-0.3c-1.4,0.3,1.1,0.8-1.7,1.2c-1.8-0.2-5.4,0.3-6-0.4c5.1,0.2,0.4-0.5,3.1-0.7c-0.7,0-1.4,0-2.3-0.1
			c-0.2-0.1,0.2-0.1,0.6-0.2c-5.4-0.6-2.5,0.7-8,0.7c0.7-0.4-1.3-0.7-2.2-0.6c2.2,0,1.1,0.6-1,0.9c-3.6-0.3-3.9,0.2-5.7,0.2l2.1,0.1
			c-0.7,0.4-2.5,0.3-5,0.4c-0.2-0.3,2.3-0.2,1.4-0.3c-2.8,0.6-6.2-0.6-10.1-0.2c-1.8-0.2-0.2-0.7-1.7-0.8c-4.3,0.5-4.7-0.5-9.2-0.1
			c1.3,0.5,1.5,0.4-1.7,0.8l7.4-0.3l-4.8,0.7c2.2,0,4.7-0.3,6.1-0.2c-2.3,0.4-2,0.3-1,0.7c-3.1-0.7-6.1,0.4-9.6-0.1l0.1-1.2
			c-5.3-0.5-9.5,0.6-16.4,0.3l2.2,0.2c-0.9,0.5-4.3,0.1-6.5,0.3c0.2-0.4-1.2-0.5-2.2-0.8c0.1,0.3-5.1,0-5.7,0.8l-3.1-0.5
			c-5.6-0.2-6.4,1.1-11.8,1c1.6-0.4-0.8-0.7,2.8-1c-1.8,0-3.4-0.1-3.4,0.2c-1-0.2-5,0.5-6.6,0.2c-0.8,0.2-1,0.6-3,0.6
			c-0.1-0.1-0.1-0.1-0.1-0.2c-0.4,0.2-3,0.3-1.3,0.7c-5.5-1.2-15.5,0.1-20.3-1c-3.9,0.1-8.6,0.3-12.2,0.3c0.2-0.1,0-0.2,0.7-0.2
			c-4.9-0.4-3,1.1-8.6,0.7c-2.9-0.6,3-0.3,1.2-0.6C94,48,88,49.5,84.3,48.7l0.9-0.1c-2.9-0.4-7,0.5-11.7,0.4c0,0,0.2-0.1,0-0.2
			c-3.2,0.7-9.3,0.9-13.8,1.1c1.4-0.5,2.1-0.3,1.2-0.8c-2,0.1,0.6,0.8-3.4,1c-1.3-0.3-4.2-0.5-4.6-1.1l3.8,0c-2-0.7-4.9,0-6.9-0.1
			l0.3-0.3c-5.8,0.1-5.9,0.9-12.2,0.8l0.6,0.2c-3.4,0.8-2.9-0.4-6.3,0.1l-1-0.8c-2.3,0.2-7.9,0.8-12,0.9c2.3-0.6,7-0.9,10-1.2
			c-2.2,0-7.6,0.1-8.8,0.4c0.9-0.1,2-0.3,2.9-0.1c-2.8,0.6-6.4,0.9-10.8,0.9c0.3-0.5-0.9-0.7-2.7-0.8C8.8,49,7.8,49,6.6,49
			c-1.6,0-3.3,0-5-0.1c0,0.9,0,1.8-0.1,2.6c0,0.4,0,0.8,0,1.2c0,0.2,0,0.4,0,0.6c0,0.2,0,0.4,0,0.5c-0.1,1-0.2,1.8-0.4,2.4
			C1.6,64.2,0.8,72,0.9,81.2c1.2-3.3,0,2.7,1.3,2.1c0.1,2.1,0.1,2.9,0,3.1l0,0h0L1.4,93c-0.4,1.5-0.3-2-0.5-1.8
			c-0.1,4.7-0.5,2-0.8,5.1c0.4-0.6,0.6,1.6,0.5,4.3L1,96.7c0.7,6.6-1,5.7-0.4,12.3l-0.4-2.1c0.2,3.4,0,12.5,1,15.9
			c-0.1,0.6-0.5,1.4-0.6-0.1c-0.1,3.6,0.1,7.5,0.3,11.2c0.2,4,0.4,6.6,0.3,12.6c1.4,0,2.7,0.1,4,0.1L4.1,147c0.7,0,1.3-0.1,1.9-0.1
			l0.4,0l0.3,0c0.2,0,0.3-0.1,0.5-0.1c0.7-0.1,1.5-0.1,2.4,0c-0.1,0.1-0.6,0.3,0.1,0.3c0.8-0.1,4-0.5,6-0.3l-1.7,0.3
			c7.9,0.4,12.1-0.8,18.8-1c0,0.9,6.2,1.2,9.3,1.3l-0.1,0.1c9.2,0.1,15.7-0.7,24.2-1.1c5.3,1,17.9,0.4,26.5,0.9
			c-1.3-0.2,0.2-0.7,1.7-0.8c2,0.2,5.5-0.6,5.2,0.2l-0.7,0c1.5,0.8,5.6,0.6,8.8,0.6l0.5-1.1c8.4,1.5,22-0.6,26.6,0.8
			c2-0.3,4.5-0.3,6.5-0.5l-0.1,0.6c5.6,0.1,8.4,0.2,15.3,0.1l-1.4,0.4c3.9,0,4.9-1.6,8.5-1.7l1.1,0.8c6.8,0,13.7,0.7,20.5,0
			c-0.1,0.1-0.3,0.4-1.4,0.4c3.1,0,11.8,0.5,11.3-0.5c0.8,0.6,7.2-0.1,10.6-0.4l-0.6,0.6c3.1-0.7,3.2-0.9,7.6-1.1
			c1,0.1,0.9,0.4-0.5,0.3c3.4,0.3,2.7-0.5,6.8-0.2l-1.5,0.4c3.5,0,3.2-0.1,5.2-0.6c2.2-0.2,6.7,0.1,7.2,0.6c0.5-0.3,2.4-0.7,4.5-0.6
			c0.3,0.2-0.5,0.3-0.9,0.4c5.9,0.4,8.8-0.6,12.8-0.1c0.1,0.2,0.3,0.3,0.7,0.3c-4.3,0-7.8,0-8.1-0.1c0,0.5,3.8,0.6,0.8,1.3
			c3-0.4,8.2-1.2,11.9-1c0.2,0,0.4,0.1,0.5,0.2l-0.4,0.1c0.9,0.1,1.6,0,2.3-0.1c1.2,0.1,1.9,0.1,3.1,0.2c0.4,0.4,4.3,0.2,6.2,0.2
			c-0.2-0.6,2.3-0.5,0.1-0.9c0.1,0-0.6,0.1-1.7,0.1c-0.3,0-0.6,0-0.8,0.1c0,0,0.1,0,0.1,0c-1.2,0-2.9,0-4.7,0c1.5-0.3,3-0.5,5.1-0.2
			c1-0.4,2-0.7,2.6-0.9c2.6,0.8,7.6,1.2,8.3,1.7c5.8-0.3,13.6-0.2,17.2-1.3c1.6-0.1,1.9,0.3,2.5,0.5c-0.9,0.1-2.1,0.1-2.6,0.2
			c3.3-0.3,9.7-0.1,10.5-0.8c4.1,0.3-2.3,0.7,3.4,0.6l-0.8,0.2c11.2,1.2,18.1-1.9,30.5-0.4c-0.9-0.1-1.3-0.1-1.5-0.3
			c14.1,0.7,29.1-0.6,43,0.4c4,0.2,4.4-0.3,6.8-0.6l0.9,0.6l4.1-0.7c5.9-0.5,10.1,1.5,17.6,0.5l-1-0.4c2.7,0.1,8.4-0.2,8,0.2
			c0.3-0.1,0.9-0.4,1.9-0.2l0.1,0.3l6.5-0.5c5.1,0.2-0.8,1.3,6.6,1.3c2.8-0.1,7.8-0.9,6.8-1.1c-1.1,0-2.8-0.2-2.9-0.5l1.8-0.1
			c0,0,0.1,0,0.1,0l0.6,0C433.1,144,434.3,143.3,432,142.7z M245.5,143.4c0.4-0.1-1.4-0.2-2.6-0.4c1,0,2.2,0,3.4,0
			C246.6,143.3,246.3,143.5,245.5,143.4z M250.8,143C250.8,143,250.8,143,250.8,143c0.8,0,1.5,0,1.9,0
			C252.3,143,251.8,143,250.8,143z M260,146.7c0,0,0.1,0,0.1-0.1c-0.1,0.1-0.3,0.2-0.5,0.3c-1.3,0.1-1.7,0-1.8-0.1
			C258.4,146.8,259.1,146.8,260,146.7z"/>
		<path class="st0" d="M125.5,142.2c-0.4,0-0.7,0-1,0.1L125.5,142.2z"/>
		<path class="st0" d="M215.9,52.7c-0.2,0-0.4,0-0.6,0C214,52.8,214.9,52.8,215.9,52.7z"/>
		<path class="st0" d="M138.8,53.4l-4.2-0.1C135.7,53.3,137.3,53.4,138.8,53.4z"/>
		<path class="st0" d="M219,52.4l-1.3,0.1c-0.1,0-0.2-0.1-0.2-0.1c0,0.1-0.8,0.2-1.5,0.2C217.3,52.7,219.1,52.8,219,52.4z"/>
		<path class="st0" d="M139.3,53.4C139.3,53.4,139.3,53.4,139.3,53.4c-0.2,0-0.3,0-0.5,0L139.3,53.4z"/>
		<polygon class="st0" points="217.4,52.4 217.4,52.4 217.4,52.4 		"/>
		<polygon class="st0" points="133.4,142 133.4,142.1 134.1,142 		"/>
		<path class="st0" d="M242.9,52.3c-0.1,0-0.2,0-0.4,0C242.7,52.3,242.8,52.3,242.9,52.3z"/>
		<path class="st0" d="M122,53.4c-0.8-0.2-1.6-0.3-2.4-0.4c-0.2,0-0.4,0.1-0.5,0.1L122,53.4z"/>
		<path class="st0" d="M111.3,142c0.2,0,0.4,0,0.6-0.1C111.7,141.9,111.5,142,111.3,142z"/>
		<path class="st0" d="M279.1,51.6c1.2,0.1,2.2,0.1,3.2,0C281.3,51.6,280.2,51.5,279.1,51.6z"/>
		<path class="st0" d="M111,142c0.1,0,0.2,0,0.3,0C111.2,142,111.1,142,111,142z"/>
		<path class="st0" d="M102.6,53.3c-0.2,0-0.4,0-0.6,0.1C102.2,53.4,102.4,53.4,102.6,53.3z"/>
	</g>
</g>
</svg>
