<?xml version="1.0" encoding="utf-8"?>
<!-- Generator: Adobe Illustrator 23.0.3, SVG Export Plug-In . SVG Version: 6.00 Build 0)  -->
<svg version="1.1" id="Ebene_1" xmlns="http://www.w3.org/2000/svg" xmlns:xlink="http://www.w3.org/1999/xlink" x="0px" y="0px"
	 viewBox="0 0 177.6 97.2" style="enable-background:new 0 0 177.6 97.2;" xml:space="preserve">
<style type="text/css">
	.st0{fill-rule:evenodd;clip-rule:evenodd;fill:#F1DDD5;}
</style>
<g>
	<path class="st0" d="M174.1,64.8c-1.4-1.1-6-3.5-7.4-3.8c-1.1-0.2-2.5,0.5-3.6,0c-1.7-0.8-1.9-3.4-3.3-4.7c-0.9-0.9-3.6-2.4-5.2-3
		c-2-0.7-5.7-1.1-6.3-1.9c-0.5-0.7-0.3-3.5-0.6-4.7c-1.9-9.8-11.7-18.8-23.6-15.4c-0.8,0.2-2.4,1.5-3.8,1.1
		c-2.3-0.6-1.6-3.8-1.9-7.4C117,10.8,103-1.6,87,0.2c-9.6,1.1-15.7,4.1-20.1,9.9c-1.3,1.7-2.4,5.7-4.1,6c-1.6,0.4-2.8-0.8-3.8-0.8
		c-5.5,0.1-9.6,4.3-11,8c-0.5,1.4-0.1,4.2-0.8,5.2c-0.6,0.7-3.4,0.7-4.9,1.4c-6.1,2.5-12.6,12.3-9.9,21.2c0.8,2.6,4.2,5.7-0.8,4.9
		c-3.5-0.5-6.6,0.4-8.8,2.2c-2.1,1.7-2.1,4-4.4,4.4c-1.8,0.3-3.9-1-5.2-1.1c-3.8-0.2-8.4,1-10.7,3.3c-5.6,5.5-0.2,14.8,5.2,16.8
		c1.2,0.4,3.5,0,4.9,0.8c1.4,0.8,2.1,4.1,3,5.2c2.6,3.3,7.2,5.8,12.1,5.2c2.2-0.3,4.3-2.7,6.9-2.7c1.2,0,2.9,1.4,4.7,1.9
		c4.8,1.4,8,0.9,12.1-0.8c1.8-0.8,4.3-3.1,5.5-3c1,0.1,2.7,2.2,3.6,3c3.4,3.1,8.1,5.9,13.7,6c7,0.2,13.2-3.9,16.2-7.7
		c0.6-0.8,1.8-3.3,2.7-3.6c1-0.2,2.9,1.2,4.7,1.6c1.4,0.4,3.3,0.7,4.7,0.5c2-0.2,3.9-2,5.5-1.9c1.8,0.1,3.2,1.9,4.4,2.5
		c3.2,1.5,7.8,3.3,12.9,2.5c2.3-0.4,6.9-3,9.1-4.7c1.8-1.4,3.7-4.7,5.2-4.9c1.5-0.2,4.4,1.6,6.6,1.6c4.2,0.1,6.8-2.6,10.2-2.7
		c3-0.1,5.8,1.9,9.1,1.6c3.4-0.2,8.4-2.2,10.2-4.1C179.2,73.9,177.5,67.6,174.1,64.8z M167.5,78.5c-2.9,0.4-8.5,0.2-9.3-0.8
		c-1-1.2,0.7-3.7-1.1-4.4c-1.2-0.4-3.5,4.5-4.1,4.9c-1.7,1.3-11.3,2.7-12.6,0c-0.5-1,1.3-3.9-1.1-4.1c-2.2-0.2-2.6,4.8-3.3,6
		c-2.4,4.2-8.9,8.7-17.3,7.4c-2.3-0.4-7-1.7-7.4-3.3c-0.8-2.9,3.3-2.6,2.2-4.7c-1.1-2.3-7.8,4.6-9.6,4.9c-4.5,0.9-7.8-0.7-10.4-2.5
		c-1.5-1-5.8-4.8-4.4,0c0.4,1.5,1.2,0.8,1.1,2.2c-0.1,2-5.5,6.7-7.4,7.7c-8.5,4.2-19.9-0.7-23.1-6c-0.4-0.7-1.8-6.7-3.3-6.6
		c-2.6,0.1-0.5,2.7-0.8,4.4c-1.1,6.7-15.6,6.9-20.3,2.7c-0.3-0.3-4-6.1-5.2-5.8c-2.7,0.9,1.7,5.4,1.4,6.9c-0.6,2.4-6.6,2.4-9.3,1.4
		c-2-0.7-5.2-4.4-5.5-5.5c-0.1-0.4,1-2,0-3.8c-0.9-1.8-4.3-0.5-6.6-0.8c-3.4-0.5-8.1-4-6.3-10.2c0.9-3.1,8.1-4.7,12.1-3.8
		c1.3,0.3,2.9,2.7,4.4,2.5c1.4-0.2,1.3-2.2,2.2-3.8c1.2-2.1,4-4.2,5.5-4.4c1.5-0.2,5.4-0.6,6.3,0.5c0.9,1.1-2,5.4,0.3,6
		c1.2,0.4,3.3-4.8,4.4-5.8c1.6-1.3,4.4-2.4,8-1.4c1,0.3,3,2.8,4.1,2.2c1.1-0.6-0.4-3.3-0.6-4.2c-0.5-1.7-0.7-3.3-0.4-5.1
		c0.7-3.8,3.4-6.5,7-7.8c2.6-1,5.3-0.5,7.8,0.3c1,0.3,2.3,1,3.4,1.2c2.3,0.2,0.5-1.7-0.2-2.4c-0.9-0.8-1.9-1.5-3.1-1.9
		c-2.2-0.9-4.7-0.9-6.9-0.4c-4.7,1.1-9.1,4.6-10.8,9.2c-0.5,1.4-0.1,4.6-1.4,5.4c-1,0.7-2.5-0.1-3.6,0.3c-1.2,0.4-1.6,1-3,0.6
		c-2.8-0.8-4.3-8.5-3.3-13.2c1.5-6.9,7.4-11.1,14-10.4c2.7,0.3,4.7,1.8,5.2,0c0.5-1.7-3.7-2.2-4.1-3c-1-1.8,0.2-5.4,0.5-6
		c2-3.6,9.6-5.8,12.1-3.3c0.3,0.3,0.9,4.8,2.2,4.7c1.6-0.2,1.4-7.9,1.9-9.3c2.6-6.7,9.4-10.2,18.4-11.3c9.4-1.1,16.7,2.1,22.3,7.1
		c1.6,1.4,4.8,5.6,5.8,8.8c0.5,1.6,1.4,7,0.6,7.7c-0.9,0.8-4.8-0.8-5.8-0.8c-2.5,0-7,1.5-8.8,3c-0.7,0.6-2.8,3.2-2.2,4.1
		c0.9,1.2,4.8-2.5,5.5-2.7c6.4-2.6,14-0.3,15.1,5.8c0.1,0.3,0.4,4.3-0.3,4.9c-0.3,0.3-1.4,0-3,0.3c-2.3,0.3-7.6,2.5-6.6,4.7
		c0.6,1.2,5.9-1.5,8.8-1.4c2.4,0.1,4.9,1.2,5.5,3c0.3,0.9-0.6,5,0.8,5.5c1,0.3,2.5-2.4,2.5-4.4c0-3.3-4-5.7-4.4-6.9
		c-0.4-1.4,0.4-6.8,0.3-6.6c1.1-2.1,6.8-2.2,9.3-1.9c6.3,0.8,12.5,6.3,13.2,12.1c0.6,4.9-0.5,9.4-1.1,13.2c-0.8,4.9,4-3.3,4.7-3.6
		c4.3-1.5,9.2,1.8,10.4,3.6c0.6,0.8,1.7,7.7,2.5,8c1,0.3,2.2-2.8,3.3-3c3.7-0.9,10,3.3,10.4,6.6C175.3,75,171.4,77.9,167.5,78.5z"/>
	<path class="st0" d="M70.3,66.8c0.7-0.2,0.7-1.2,0-1.4c-2.1-0.5-4.2,0.3-6.3,0.7c-0.2,0-0.2,0.4,0,0.5
		C66.1,66.9,68.3,67.3,70.3,66.8z"/>
	<path class="st0" d="M70.8,71.7c-2.4,0-4.5,0.7-6.8,0.9c-0.1,0-0.2,0.2,0,0.2c2.2,0.6,4.6,0.5,6.9,0.5
		C71.8,73.3,71.8,71.7,70.8,71.7z"/>
	<path class="st0" d="M69.4,77.8c-1.2,0.2-2.2,0.5-3.3,1.1c-0.1,0-0.1,0.2,0,0.2c1.2,0.5,2.3,0.5,3.6,0.7C71,79.9,71,77.6,69.4,77.8
		z"/>
</g>
</svg>
