<?xml version="1.0" encoding="utf-8"?>
<!-- Generator: Adobe Illustrator 23.0.3, SVG Export Plug-In . SVG Version: 6.00 Build 0)  -->
<svg version="1.1" id="Ebene_1" xmlns="http://www.w3.org/2000/svg" xmlns:xlink="http://www.w3.org/1999/xlink" x="0px" y="0px"
	 viewBox="0 0 87.4 65" style="enable-background:new 0 0 87.4 65;" xml:space="preserve">
<style type="text/css">
	.st0{fill:#7F7674;}
</style>
<g>
	<path class="st0" d="M47.2,2.7c-3.9-1.3-8.1-0.2-11.9,0.7c-4.7,1.2-8.7,3.4-12.5,6.4c-6.5,5.3-8.9,13-9.6,21.1
		c-0.6,7.9,0.8,15.1,5.3,21.7c4.8,7.1,13.5,11.1,21.8,12.2c8,1.1,17.4-2,23.8-6.7c6.5-4.7,9.8-11.3,11-19c1.3-8.7,0.6-17.5-4.3-25.1
		C66,6.3,59.5,2.9,50.8,1.2c-2.6-0.5-5.1-0.6-7.7-0.5c-0.5,0-0.4,1.7,0,1.8c6.9,1,14.4,1.7,20.3,5.8c7.5,5.2,11.3,14.6,11.1,23.4
		c-0.2,9.4-2.8,17.5-10.1,23.6c-5.7,4.8-13.5,6.8-20.8,7.2c-7.3,0.4-15.5-3.2-20.9-8c-6.7-5.9-8.8-14.5-8.4-23
		c0.5-9.3,4.2-16.5,11.6-22.1c5.4-4.1,14.4-7.2,21.3-6.1C47.3,3.3,47.3,2.8,47.2,2.7z"/>
	<path class="st0" d="M46.2,13.4c-5.2-1.9-12,1.3-16,4.6c-4.5,3.6-5.8,9.3-6,14.8C23.7,44,31.3,52.5,42.4,53.7
		c5.4,0.6,11.4-1.7,15.6-5c4.9-3.8,6.2-9.3,6.6-15.2c0.8-12.3-8.3-22.8-21.1-21.6c-0.5,0-0.4,1.7,0,1.8c4.1,0.8,8.5,1.1,12.2,3.3
		c5.5,3.2,8,9.9,7.7,15.9c-0.2,5.6-2,10.1-6.2,13.8c-3.5,3-8.2,4.2-12.7,4.6c-4.9,0.5-10.3-1.9-14-5c-4.4-3.8-5.6-9.4-5.2-14.9
		C26.1,20.9,35.9,13.3,46.2,14C46.3,14,46.3,13.4,46.2,13.4z"/>
	<path class="st0" d="M86.7,0.3c-8,5.4-9.8,17.2-8.7,26.2c0.1,0.7,0.5,0.7,0.6,0c0.4-4,0.2-8,0.9-12c0.9-5.3,3.5-9.6,7.3-13.2
		C87,1,86.9,0.2,86.7,0.3z"/>
	<path class="st0" d="M86.5,0.8c-1,9.4-0.3,19.4-0.4,28.8c0,10.5-0.4,21.1,0.1,31.5c0,0.7,0.7,1.2,0.8,0.2
		c0.6-10.1,0.2-20.2,0.2-30.3c0-10,0.7-20.4-0.4-30.3C86.8,0.4,86.6,0.4,86.5,0.8z"/>
	<path class="st0" d="M78.1,27.1c2.1,2,4.3,2.8,5.6,5.7c1.5,3.1,1,7.4,0.7,10.7c-0.5,5.5-0.7,11.4-2,16.8c-0.2,0.9,0.7,2.9,1.1,1.3
		c0.8-3.5,0.9-7.2,1.2-10.8c0.4-4.1,0.9-8.2,0.9-12.3c-0.1-5.2-1.7-11.1-7.5-12.4C77.9,26,78,27,78.1,27.1z"/>
	<path class="st0" d="M82.5,61.7c0.6,0.4,1.3,0.4,2,0.4c0.7,0,1.6,0.2,2.3-0.2c0.3-0.1,0.2-1,0-1.1c-0.6-0.3-1.3-0.2-2-0.2
		c-0.8,0-1.6,0-2.3,0.4C82.3,61.1,82.4,61.6,82.5,61.7z"/>
	<path class="st0" d="M2.5,0.5c0.1,3.5-0.4,7,0,10.4c0.2,1.5,0.8,4.5,2.9,3.7c0.5-0.2,0.3-1.3,0-1.5c-2-1.5-2.1-3.2-2.2-5.6
		C3.1,5,3,2.7,2.7,0.3C2.6-0.1,2.5,0.3,2.5,0.5z"/>
	<path class="st0" d="M7,0.4c-0.9,1.5-0.9,3.3-1,5c0,0.9,0,1.9,0,2.8c0,2.1,0,3.1-1.8,4.2c-0.4,0.3-0.4,1.6,0,1.8
		c1.7,0.7,2.4-1,2.6-2.5c0.5-3.7-0.5-7.3,0.2-11C7.2,0.7,7.1,0.2,7,0.4z"/>
	<path class="st0" d="M12.5,0.4c0,0.4-0.1,0.8,0,1.2c0.6,3,1.5,5.7,1.2,8.9c-0.3,4.1-3.6,6.3-5.2,9.8c-2,4.4,0.1,10.2,0.8,14.6
		c0.5,3.3-1,5.9-0.8,9.1C8.6,47.2,9,50.4,9,53.8c0,2.4-0.6,4.6-1,7c-0.2,0.9,0.7,1.7,0.9,0.5c-0.2,1.1,0.4-0.4,0.5-0.7
		c0.5-1.3,0.6-2.8,0.7-4.2c0.2-2.5,0-5-0.1-7.5c-0.2-2.4-0.7-4.7-0.2-7c0.3-1.4,0.6-2.7,0.7-4.2c0.1-2.3-0.5-4.7-0.9-6.9
		c-0.6-3-1.6-6.3-0.2-9.3c0.7-1.4,1.9-2.7,2.8-3.9c1.9-2.4,2.1-4.8,2.3-7.8c0.1-1.6-0.1-3.2-0.3-4.8c-0.2-1.4-1.3-3-1.3-4.3
		C12.9,0.1,12.5-0.3,12.5,0.4z"/>
	<path class="st0" d="M1.7,0.4c0,0.8-0.8,2.2-1,3C0.3,4.8,0.1,6.2,0,7.7c-0.2,2.6,0.1,5.5,1.2,7.9c0.6,1.2,1.5,2.2,2.3,3.3
		c2.1,2.6,2.5,5.3,2,8.5c-0.5,3.2-1.4,6.3-1.5,9.5c-0.1,3.5,1,6.7,0.6,10.3c-0.3,2.9-0.4,5.8-0.3,8.7c0.1,1.4,0.3,2.9,0.7,4.3
		c0.1,0.4,0.7,2,0.6,1c0.2,1.2,1.1,0.4,0.9-0.5c-0.3-1.6-0.9-4.2-1-6.2c-0.2-3.5,0.4-6.9,0.6-10.4c0.2-2.9-1.2-5.5-0.9-8.4
		c0.5-5.5,3-11,0.5-16.3c-1.6-3.4-4.4-4.9-4.9-9C0.5,7,0.9,5.4,1.8,2.5c0.3-0.9,0.3-1.1,0.3-2C2.1,0.1,1.8-0.3,1.7,0.4z"/>
	<path class="st0" d="M12,0.3c-0.3,2.1-0.5,4-0.5,6.1c0,2.7,0.1,4.8-2.2,6.6c-0.3,0.3-0.4,1.3,0,1.5c1.8,0.7,2.6-1.7,2.8-3.1
		c0.4-3.6-0.1-7.3,0-10.9C12.2,0.4,12.1-0.1,12,0.3z"/>
	<path class="st0" d="M7.5,0.8C8.2,4.2,7.2,7.6,7.6,11c0.2,1.5,0.7,4.1,2.7,3.2c0.5-0.2,0.4-1.6,0-1.8C8.9,11.6,8.6,10.8,8.6,9
		c0-1.4,0-2.8,0-4.2c0-1.5-0.2-3.1-1-4.4C7.5,0.2,7.5,0.7,7.5,0.8z"/>
	<path class="st0" d="M14.1,30c-0.6,4.2-0.4,9.4,3.6,11.9c1.6,1,4,0.7,5.2-0.8c1.9-2.1,1.4-4.6,1.6-7.2c0-0.2-0.2-0.7-0.3-0.3
		c-0.6,2.1,0.1,4.3-1.2,6.2c-1.1,1.5-3,1.9-4.7,1.3c-4.5-1.4-4.3-7.4-4.1-11.1C14.2,30,14.1,29.8,14.1,30z"/>
	<path class="st0" d="M43.7,63.3c-3.2,0.1-6.4-1-7.5-4.3c-0.8-2.4,0.7-4.3,2.7-5.2c1.5-0.7,2.9-0.3,4.5-0.2c0.3,0,0.2-0.6,0-0.7
		c-3.3-2.2-7.7,1.1-7.9,4.6c-0.2,4.4,4.3,7.1,8.2,6.2C43.9,63.7,43.9,63.3,43.7,63.3z"/>
	<path class="st0" d="M48.4,14.4l0-0.1L48.4,14.4z"/>
	<path class="st0" d="M48.4,14.1c-3.1,4.6-5.8,9.5-8.5,14.4c-0.1,0.1,0,0.8,0.1,0.6c3-4.7,5.7-9.6,8.5-14.3
		C48.6,14.5,48.5,13.9,48.4,14.1z"/>
	<path class="st0" d="M44.5,13.1c0,0.5-0.6,1.3-0.8,1.7c-0.5,0.9-1.1,1.8-1.7,2.6c-0.8,1.2-1.8,2.4-2.4,3.8c0,0.1,0,0.7,0.2,0.5
		c1-1.9,2.4-3.6,3.5-5.4c0.5-0.7,1.8-2.4,1.3-3.4C44.5,12.7,44.5,13.1,44.5,13.1z"/>
	<path class="st0" d="M51.7,23.9c-2.1,3.2-3.7,6.7-5.7,10c-2,3.5-4.2,6.9-6,10.6c-0.1,0.2,0,0.8,0.2,0.5C44,38,47.8,31,51.8,24.2
		C51.8,24.2,51.8,23.8,51.7,23.9z"/>
	<path class="st0" d="M15.7,39.5c-0.4,0.7-0.9,1.5-1.1,2.2c0,0.1,0,0.8,0.2,0.5c0.4-0.7,0.8-1.6,1.1-2.4
		C15.9,39.8,15.8,39.3,15.7,39.5z"/>
	<path class="st0" d="M16.9,40.9c-0.6,1-1.4,2.1-1.5,3.4c0,0.1,0.1,0.6,0.2,0.3c0.4-1.1,0.9-2.1,1.4-3.2
		C17.1,41.3,17,40.7,16.9,40.9z"/>
	<path class="st0" d="M19,41.7c-0.8,1.2-1.4,2.4-2.1,3.6c-0.3,0.5-0.7,1.4-0.3,2c0.1,0.2,0.2-0.1,0.2-0.2c0-0.8,0.5-1.3,0.9-2
		c0.6-0.9,0.9-1.9,1.4-2.8C19.2,42.1,19.1,41.5,19,41.7z"/>
	<path class="st0" d="M21.7,41.3c-1.2,2.4-2.6,4.7-3.7,7.1c-0.2,0.5,0.3,1.1,0.3,0.3c0-0.1,0-0.3-0.1-0.3c-0.1-0.1-0.1,0,0.3,0.3
		c0.3-0.4,0.5-1,0.8-1.4c0.9-1.8,1.7-3.6,2.6-5.4C21.9,41.7,21.8,41.1,21.7,41.3z"/>
	<path class="st0" d="M18.4,48.7c0.1,0,0.1-0.2,0-0.2C18.3,48.5,18.3,48.7,18.4,48.7z"/>
	<path class="st0" d="M25.3,38.9c-1.4,2.5-2.5,5-4,7.5c-0.8,1.2-1.1,4.1-2.3,4.8c-0.2,0.1-0.2,0.9,0.1,0.8c1-0.4,1.3-2.6,1.6-3.5
		c0.7-1.9,2-3.5,2.9-5.3c0.7-1.3,1.2-2.8,1.7-4.1C25.4,39.1,25.4,38.8,25.3,38.9z"/>
	<path class="st0" d="M25.9,42c-1.3,2.6-2.8,5-4.2,7.5c-0.6,1-1.6,2.3-1.6,3.5c0,0.4,0.3,0.6,0.4,0.1c0.2-1.6,1.8-3.6,2.5-5
		c1.1-1.9,2.2-3.8,2.9-5.9C26.1,42.2,26,41.9,25.9,42z"/>
	<path class="st0" d="M27.6,44.2c-1,1.4-1.6,3.1-2.5,4.5c-1.2,2-2.6,3.9-3.7,5.9c-0.2,0.3,0.1,1.3,0.3,0.8c0-0.1,0.1-0.2,0.1-0.3
		c0-0.1,0-0.9-0.2-0.7l-0.2,0.2c0.1,0.3,0.1,0.6,0.2,0.9c2.1-3.6,4.5-7.1,6-11C27.7,44.4,27.7,44,27.6,44.2z"/>
	<path class="st0" d="M29.1,46.3c-1.1,2.1-2.2,4.2-3.5,6.3c-0.6,1-1.7,2.1-1.6,3.4c0,0.1,0,0.4,0.2,0.4l0.2,0.1
		c0.2,0.1,0.2-0.4,0.2-0.5c-0.2-0.5,0.4-1,0.6-1.4c0.6-1,1.1-2,1.7-2.9c0.9-1.6,1.7-3.3,2.4-5C29.3,46.6,29.2,46.2,29.1,46.3z"/>
	<path class="st0" d="M30.6,47.8c-1.1,3.3-3.6,5.9-4.8,9.1c-0.2,0.7,0.4,1.2,0.4,0.4c0-0.1,0-0.4-0.1-0.4c0.4,0.2,0.2,0.4,0.6-0.4
		c0.4-1,1-1.9,1.6-2.8c1-1.7,2.2-3.7,2.5-5.7C30.8,47.9,30.7,47.6,30.6,47.8z"/>
	<path class="st0" d="M32.5,49.7c-0.9,1.5-1.5,3.2-2.4,4.7c-0.8,1.4-1.8,2.6-2.5,4c0.1,0.2,0.3,0.4,0.4,0.6c0-0.1,0-0.2,0.1-0.3
		c0-0.1,0-0.8-0.2-0.6l-0.1,0.1c-0.4,0.3,0,1.4,0.3,0.9c1.6-3.1,3.4-5.8,4.7-9C32.6,50,32.6,49.5,32.5,49.7z"/>
	<path class="st0" d="M34,50.8c-0.7,1.1-1,2.5-1.6,3.7c-0.8,1.9-1.9,3.6-2.9,5.4c0.1,0.2,0.3,0.3,0.4,0.5c0-0.1,0-0.2,0-0.2
		c0-0.1,0-0.5-0.2-0.5l-0.1,0c-0.6,0.2-0.1,1.4,0.2,0.9c0.8-1.4,1.6-2.8,2.3-4.3c0.8-1.6,1.1-3.5,2-5.1C34.2,51.2,34.1,50.6,34,50.8
		z"/>
	<path class="st0" d="M36.3,51.8c-0.5,0.3-0.6,0.9-0.8,1.5c-0.4,1.3-1,2.5-1.5,3.7c-0.5,1.1-1.4,2.2-1.5,3.4c0,0.2,0.2,0.9,0.4,0.4
		c0.5-0.8,0.8-1.8,1.2-2.6c0.5-1.1,0.9-2.2,1.3-3.3c0.3-0.8,0.4-2,1-2.6C36.4,52.2,36.4,51.7,36.3,51.8z"/>
	<path class="st0" d="M35.7,58.3c-0.4,1-1.1,2-1.2,3.1c0,0.1,0,0.3,0.2,0.4l0,0c0.1,0,0.1,0,0.2-0.1c0.1-0.2,0.1-0.4,0.1-0.6
		c0.1-0.3,0.2-0.7,0.4-1c0.2-0.5,0.5-1.1,0.5-1.7C35.8,58.4,35.7,58.2,35.7,58.3z"/>
	<path class="st0" d="M36.5,61.2c-0.2,0.4-0.3,0.8-0.3,1.2c0,0.1,0.2,0.5,0.3,0.2c0.1-0.3,0.2-0.6,0.3-0.9c0.1-0.2,0.1-0.3,0-0.5
		C36.7,61.1,36.6,61.1,36.5,61.2z"/>
	<path class="st0" d="M86.4,8c-1.2,2.4-2.6,4.6-4,6.9c-0.1,0.1,0,0.7,0.1,0.6c1.6-2.2,2.9-4.6,3.9-7.1C86.5,8.3,86.5,7.9,86.4,8z"/>
	<path class="st0" d="M86.5,12.9c-1.2,1.2-1.9,2.8-2.9,4.2c-1.1,1.5-2.3,2.9-3.1,4.6c-0.1,0.2,0.1,0.9,0.2,0.6c0.9-1.6,2-3.1,3-4.5
		c1-1.4,1.7-3.1,2.8-4.5C86.6,13.1,86.6,12.8,86.5,12.9z"/>
</g>
</svg>
