<?xml version="1.0" encoding="utf-8"?>
<!-- Generator: Adobe Illustrator 23.0.3, SVG Export Plug-In . SVG Version: 6.00 Build 0)  -->
<svg version="1.1" id="Ebene_1" xmlns="http://www.w3.org/2000/svg" xmlns:xlink="http://www.w3.org/1999/xlink" x="0px" y="0px"
	 viewBox="0 0 38.6 90.4" style="enable-background:new 0 0 38.6 90.4;" xml:space="preserve">
<style type="text/css">
	.st0{fill:#7F7674;}
</style>
<g>
	<path class="st0" d="M18.1,72.5c0.1,0,0.2,0,0.2,0c0.1,0,0.1,0,0.1,0c0.4-0.1,1.8-0.3,2.3-1.3c0-0.1,0-0.1,0-0.2
		c0-0.1-0.1-0.1-0.2-0.1c0,0,0,0,0,0c-0.5,0-1,0.3-1.3,0.5c-0.1,0.1-0.2,0.1-0.3,0.1c-0.1,0-0.2,0.1-0.3,0.1c-0.2,0-0.3,0.1-0.5,0.2
		c-0.1,0.1-0.4,0.2-0.7,0.3c-0.1,0-0.1,0.1-0.1,0.1c0,0.1,0,0.1,0.1,0.2C17.7,72.4,17.9,72.5,18.1,72.5z"/>
	<path class="st0" d="M21.1,72.3c0,0-0.1-0.1-0.1-0.1c0,0-0.1,0-0.1,0c-0.3,0.1-0.5,0.3-0.8,0.5c-0.5,0.3-1,0.6-1.3,0.7
		c-0.2,0.1-0.4,0.1-0.6,0.2c-0.2,0-0.4,0.1-0.6,0.2c-0.4,0.1-0.8,0.2-1.1,0.2c-0.1,0-0.2,0.1-0.2,0.2c0,0.1,0,0.2,0.1,0.2
		c0.2,0.1,0.4,0.1,0.7,0.1c1.1,0,3.1-0.7,4-2C21.2,72.5,21.2,72.4,21.1,72.3z"/>
	<path class="st0" d="M18.3,75.9c0.1,0,0.2,0,0.3-0.1c0,0,0.1,0,0.2,0c0.6-0.2,1.5-0.6,1.9-1.1c0-0.1,0-0.2,0-0.2
		c0-0.1-0.1-0.1-0.2-0.1c0,0,0,0,0,0c-0.4,0.1-0.8,0.3-1.1,0.4c-0.1,0.1-0.2,0.1-0.2,0.1c-0.1,0-0.2,0.1-0.2,0.1
		c-0.1,0-0.3,0.1-0.4,0.2c-0.1,0.1-0.3,0.2-0.5,0.2l-0.1,0c-0.1,0-0.1,0.1-0.1,0.2c0,0.1,0,0.2,0.1,0.2
		C18.1,75.8,18.2,75.9,18.3,75.9z"/>
	<path class="st0" d="M17.7,77.1c0,0.1,0,0.2,0.1,0.2c0.1,0.1,0.3,0.1,0.5,0.1c0.7,0,1.8-0.5,2.2-1.2c0-0.1,0-0.2,0-0.2
		c0,0-0.1-0.1-0.2-0.1c0,0,0,0-0.1,0c-0.4,0.1-0.7,0.3-0.9,0.5c-0.1,0.1-0.2,0.1-0.3,0.2c-0.1,0-0.2,0.1-0.2,0.1
		c-0.1,0-0.3,0.1-0.4,0.2c-0.1,0.1-0.3,0.1-0.5,0.2C17.8,77,17.7,77,17.7,77.1z"/>
	<path class="st0" d="M20.6,77.5C20.6,77.5,20.5,77.5,20.6,77.5c-0.5,0.1-0.9,0.4-1.1,0.5c-0.1,0.1-0.2,0.1-0.3,0.2
		c-0.1,0-0.2,0.1-0.3,0.1c-0.1,0-0.3,0.1-0.5,0.2c-0.2,0.1-0.4,0.2-0.6,0.2l-0.1,0c-0.1,0-0.1,0.1-0.1,0.2c0,0.1,0,0.2,0.1,0.2
		c0.1,0.1,0.3,0.1,0.4,0.1c0,0,0.1,0,0.1,0c0.9-0.2,2-0.7,2.5-1.4c0-0.1,0-0.2,0-0.2C20.7,77.5,20.6,77.5,20.6,77.5z"/>
	<path class="st0" d="M20,79.1C19.9,79.1,19.9,79.1,20,79.1c-0.5,0.2-0.8,0.5-1.1,0.7c-0.2,0.1-0.3,0.2-0.4,0.3
		c-0.1,0.1-0.2,0.1-0.3,0.2c-0.2,0.1-0.3,0.1-0.5,0.2c-0.2,0.1-0.5,0.2-0.7,0.3c-0.1,0-0.1,0.1-0.1,0.2c0,0.1,0,0.2,0.1,0.2
		c0.1,0,0.2,0,0.3,0c0.8,0,2.4-0.8,2.9-1.9c0-0.1,0-0.2,0-0.2C20.1,79.1,20,79.1,20,79.1z"/>
	<path class="st0" d="M5.9,75.6c-0.4-0.1-0.8-0.1-1.1-0.1c-0.3,0-0.6,0-0.8-0.1l-0.1,0c-0.1-0.1-0.3-0.1-0.3-0.1
		c-0.1,0-0.2-0.1-0.3-0.1c-0.1,0-0.2-0.1-0.4-0.1l0,0c-0.1-0.1-0.2-0.1-0.3-0.2c0,0-0.1,0-0.1,0c0,0-0.1,0-0.1,0
		c-0.1,0-0.1,0.1-0.1,0.2c0,0.1,0,0.2,0.1,0.3c0.1,0.3,0.2,0.3,0.4,0.4l0.1,0c0.1,0,0.1,0.1,0.1,0.1c0.2,0.1,0.4,0.3,1,0.4
		c0.3,0.1,0.5,0.1,0.7,0.1c0.5,0,0.9-0.1,1.3-0.4C6,75.9,6,75.8,6,75.7C6,75.6,5.9,75.6,5.9,75.6z"/>
	<path class="st0" d="M4,77.1c-0.2,0-0.3,0-0.5-0.1c0,0-0.1,0-0.1-0.1c-0.1-0.1-0.2-0.1-0.4-0.1c0,0,0,0-0.1,0
		c-0.1,0-0.4-0.1-0.5-0.2c0,0-0.1,0-0.1,0c0,0-0.1,0-0.1,0c-0.1,0-0.1,0.1-0.1,0.2c0,0.2,0.1,0.4,0.2,0.5c0.1,0.1,0.1,0.1,0.2,0.1
		c0.1,0,0.1,0.1,0.1,0.1c0.1,0.1,0.3,0.2,0.7,0.3C3.7,78,3.9,78,4.1,78c0.3,0,0.6-0.1,0.9-0.3c0.1,0,0.1-0.1,0.1-0.2
		c0-0.1,0-0.1-0.1-0.2C4.6,77.2,4.2,77.2,4,77.1z"/>
	<path class="st0" d="M3.8,80.3c-0.2,0-0.3,0-0.5-0.1c0,0,0,0-0.1-0.1C3.1,80,3,79.9,2.8,79.9c-0.1,0-0.3-0.1-0.5-0.3
		c0,0-0.1-0.1-0.1-0.1c0,0,0,0-0.1,0c-0.1,0-0.1,0.1-0.1,0.1c0,0.2,0,0.4,0.1,0.6c0.1,0.1,0.1,0.1,0.2,0.1c0.1,0,0.1,0.1,0.1,0.1
		c0.1,0.1,0.3,0.3,0.7,0.4c0.3,0.1,0.5,0.1,0.7,0.1c0.3,0,0.6-0.1,0.9-0.3c0.1,0,0.1-0.1,0.1-0.2c0-0.1-0.1-0.1-0.1-0.2
		C4.4,80.3,4.1,80.3,3.8,80.3z"/>
	<path class="st0" d="M1.4,45.1c0.1,0,0.1,0,0.2,0c0.2,0,0.3-0.1,0.4-0.1c0.1-0.1,1.1-0.5,1.3-0.5c0.2,0,0.5-0.2,0.5-0.3
		c0,0,0.1-0.1,0.1-0.2c0-0.1,0-0.1-0.1-0.1c-0.1-0.1-0.3-0.2-0.5-0.2c-0.1,0-0.2,0-0.3,0.1c0,0-0.4,0.2-0.6,0.2l-0.1,0
		c-0.1,0-0.1,0-0.2,0.1c-0.2,0.1-0.4,0.1-0.5,0.3c0,0,0,0,0,0c-0.1,0-0.1,0-0.2,0c-0.1,0.1-0.3,0.2-0.3,0.4
		C1.2,45,1.3,45.1,1.4,45.1z"/>
	<path class="st0" d="M5.3,43.8c0.1,0,0.1,0,0.2,0c0.1,0,0.1,0,0.2,0c0.2,0,1.5-0.1,2.2-0.4c0.1,0,0.1-0.1,0.1-0.2
		C8,43.1,7.9,43,7.8,43c-0.2-0.1-0.4-0.1-0.6-0.1c-0.3,0-0.5,0-0.7,0.1c-0.1,0-0.1,0-0.2,0c-0.1,0-0.2,0-0.3,0c-0.2,0-0.3,0-0.5,0.1
		c-0.1,0.1-0.3,0.1-0.5,0.1c-0.1,0-0.1,0-0.2,0c-0.1,0-0.1,0.1-0.1,0.2s0,0.2,0.1,0.2C5,43.8,5.2,43.8,5.3,43.8z"/>
	<path class="st0" d="M7.9,47.8c0.1,0.9,0.3,2,0.3,3.5l0,0.3c0,1,0,2.3,0.2,3.6c0,0.1,0.1,0.2,0.2,0.2c0,0,0,0,0,0
		c0.1,0,0.2-0.1,0.2-0.2c0.1-0.6,0.2-1.9,0.1-3.9c0-2.3-0.3-3.3-0.4-4.1C8.3,46.5,8.2,46,8.3,45c0-0.1-0.1-0.2-0.2-0.2c0,0,0,0,0,0
		c-0.1,0-0.2,0.1-0.2,0.1C7.6,45.8,7.7,46.6,7.9,47.8z"/>
	<path class="st0" d="M11.1,59.7c0.2,0.1,0.3,0.1,0.5,0.1c0.1,0,0.2,0,0.3,0c0.1,0,0.3,0,0.4,0l0.2,0c0.1,0,0.2,0,0.4,0
		c0.1,0,0.3,0,0.4,0c0.2,0,0.3,0,0.5,0c0.3,0,0.7,0,1-0.1c0.1,0,0.2-0.1,0.2-0.2c0-0.1,0-0.2-0.1-0.2C14.5,59.1,14,59,13.5,59
		c-0.1,0-0.2,0-0.3,0c-0.1,0-0.1,0-0.2,0c-0.1,0-0.1,0-0.1,0c-0.1,0-0.1,0-0.2,0c-0.1,0-0.1,0-0.2,0c-0.2,0-0.5,0-1.4,0.3
		c-0.1,0-0.1,0.1-0.2,0.2C11,59.6,11.1,59.7,11.1,59.7z"/>
	<path class="st0" d="M13.2,60.6c-0.1,0-0.2,0-0.3,0c0,0-0.1,0-0.1,0l0,0.1l0,0v-0.1c0,0,0,0-0.1,0c0,0-0.1,0-0.1,0
		c-0.1,0-0.2,0-0.3,0.1c0,0-0.1,0.1-0.3,0.1c-0.1,0-0.1,0.1-0.1,0.1s0,0.1,0.1,0.2c0.1,0.1,0.2,0.2,0.4,0.2c0,0,0.1,0,0.1,0
		c0,0,0,0,0.1,0c0,0,0.1,0,0.1,0c0.1,0,0.2,0,0.2,0l0.1,0l0.1,0c0.2,0,0.5,0,0.8-0.2c0.1,0,0.1-0.1,0.1-0.2c0-0.1,0-0.1-0.1-0.2
		C13.7,60.7,13.5,60.6,13.2,60.6z M12.8,60.9C12.8,60.9,12.8,60.9,12.8,60.9L12.8,60.9L12.8,60.9z"/>
	<path class="st0" d="M33.9,61.1C34,61.1,34,61.1,33.9,61.1c0.1,0,0.2,0,0.2,0l0.1,0l0.1,0c0,0,0.1,0,0.1,0c0.1,0,0.3,0,0.5-0.1
		c0.5-0.2,0.8-0.4,0.9-0.8c0-0.1,0-0.1,0-0.2c0,0-0.1-0.1-0.2-0.1c0,0,0,0,0,0c-0.3,0.1-0.5,0.2-0.7,0.3c-0.1,0.1-0.2,0.1-0.4,0.2
		c-0.3,0-0.3,0-0.4,0.1c0,0,0,0-0.2,0c-0.1,0-0.1,0-0.2,0c-0.1,0-0.1,0-0.2,0.1s0,0.1,0,0.2C33.7,61,33.8,61.1,33.9,61.1z"/>
	<path class="st0" d="M33.1,62.9c0.8,0,2.1-0.4,2.6-1.4c0-0.1,0-0.2,0-0.2c0,0-0.1-0.1-0.2-0.1c0,0,0,0-0.1,0
		c-0.4,0.1-0.7,0.3-1,0.5c-0.2,0.1-0.3,0.2-0.4,0.2c-0.1,0-0.2,0.1-0.3,0.1c-0.1,0-0.3,0.1-0.5,0.2c-0.2,0.1-0.5,0.1-0.7,0.2
		c-0.1,0-0.1,0.1-0.2,0.2c0,0.1,0,0.2,0.1,0.2C32.7,62.9,32.9,62.9,33.1,62.9z"/>
	<path class="st0" d="M32.5,65.8c0.8,0,2-0.6,2.4-1.5c0-0.1,0-0.2-0.1-0.2c0,0-0.1,0-0.1,0c0,0-0.1,0-0.1,0
		c-0.3,0.2-0.6,0.4-0.8,0.5c-0.2,0.1-0.3,0.2-0.4,0.3c-0.1,0.1-0.2,0.1-0.3,0.1c-0.1,0-0.3,0.1-0.4,0.2c-0.2,0.1-0.4,0.2-0.6,0.2
		c-0.1,0-0.1,0.1-0.2,0.2c0,0.1,0,0.2,0.1,0.2C32.2,65.8,32.3,65.8,32.5,65.8z"/>
	<path class="st0" d="M30.8,68.1c0.1,0,0.2,0.1,0.3,0.1c0.1,0,0.2-0.1,0.3-0.1c0,0,0.1,0,0.1-0.1c0.2-0.1,1.1-0.5,1.5-1.1
		c0-0.1,0-0.1,0-0.2c0-0.1-0.1-0.1-0.2-0.1c0,0,0,0,0,0c-0.4,0-0.7,0.3-0.9,0.4c-0.1,0-0.1,0.1-0.1,0.1c-0.1,0-0.1,0.1-0.2,0.1
		c-0.1,0-0.3,0.1-0.4,0.2c-0.1,0.1-0.2,0.2-0.4,0.3c-0.1,0-0.1,0.1-0.1,0.2C30.7,68,30.7,68.1,30.8,68.1z"/>
	<path class="st0" d="M21,61.9c0.1,0,0.1-0.1,0.2-0.2c0-0.1,0-0.2-0.1-0.2c-0.1,0-1.4-0.7-1.5-0.7c-0.1-0.1-0.2-0.1-0.3-0.2
		c-0.1-0.1-0.3-0.2-0.4-0.3c-0.2-0.1-0.4-0.2-0.6-0.4l-0.1-0.1c0,0-0.1,0-0.1,0c0,0-0.1,0-0.1,0c-0.1,0-0.1,0.1-0.1,0.2
		c0.1,0.4,0.3,0.5,0.4,0.7l0.1,0.1c0.3,0.3,1.3,1.2,2.3,1.2C20.8,61.9,20.9,61.9,21,61.9z"/>
	<path class="st0" d="M23.2,64c0.1,0,0.1-0.1,0.1-0.2c0-0.1-0.1-0.2-0.1-0.2c-0.2,0-0.4-0.1-0.6-0.2c-0.5-0.1-1.1-0.3-1.4-0.4
		c-0.2-0.1-0.3-0.2-0.4-0.3c-0.1-0.1-0.3-0.2-0.5-0.3c-0.3-0.2-0.6-0.4-0.8-0.6c0,0-0.1-0.1-0.1-0.1c0,0-0.1,0-0.1,0
		c-0.1,0-0.1,0.1-0.1,0.2c0.2,0.9,1.8,2,3.3,2C22.8,64.1,23,64.1,23.2,64z"/>
	<path class="st0" d="M23.8,66.3c0.1,0,0.1-0.1,0.2-0.2c0-0.1,0-0.2-0.1-0.2c-0.4-0.2-0.9-0.3-1.2-0.3c-0.2,0-0.4-0.1-0.5-0.1
		c-0.1,0-0.2-0.1-0.4-0.2c-0.1-0.1-0.2-0.1-0.4-0.2c-0.2-0.1-0.4-0.2-0.6-0.5c0-0.1-0.1-0.1-0.2-0.1c0,0,0,0-0.1,0
		c-0.1,0-0.1,0.1-0.1,0.2c0,0.2,0.1,0.5,0.3,0.7c0.5,0.5,1.5,0.8,2.4,0.8C23.4,66.4,23.6,66.3,23.8,66.3z"/>
	<path class="st0" d="M23.5,67.9C23.5,67.8,23.4,67.8,23.5,67.9c-0.1,0-0.2,0-0.2,0.1c-0.1,0.1-0.1,0.2,0,0.2
		c0.2,0.3,0.4,0.4,0.6,0.5c0,0,0,0,0.1,0c0.3,0.2,1,0.6,1.8,0.6c0.3,0,0.6-0.1,0.9-0.2c0.1,0,0.1-0.1,0.1-0.2c0-0.1-0.1-0.2-0.2-0.2
		c-0.2-0.1-0.5-0.1-0.8-0.1c-0.3,0-0.6-0.1-0.8-0.1c-0.1,0-0.2-0.1-0.3-0.1c-0.1-0.1-0.3-0.2-0.5-0.2c-0.2,0-0.3-0.1-0.5-0.2
		C23.6,67.9,23.6,67.9,23.5,67.9z"/>
	<path class="st0" d="M27.7,57.6c0.1,0,0.3,0.1,0.4,0.1c0.1,0,0.2,0.1,0.3,0.1c0.2,0,0.3,0.1,0.5,0.1c0.2,0,0.4,0.1,0.5,0.1
		c0.3,0.2,0.5,0.2,0.6,0.2c0.1,0,0.1,0,0.2,0c0.1,0,0.1,0,0.2,0.1c0.1,0,0.1,0.1,0.2,0.1c0.2,0.1,0.3,0.1,0.5,0.1
		c0.2,0.1,0.4,0.1,0.6,0.2c0.4,0.2,0.7,0.3,1,0.3c0.1,0,0.1,0,0.2,0C33,59,33,59,33,58.9c0-0.1,0-0.2-0.1-0.2l-0.2-0.1
		c-0.8-0.4-0.8-0.4-1.7-0.7l-0.3-0.1c-0.1,0-0.1-0.1-0.2-0.1c-0.1,0-0.1,0-0.6-0.2c-0.3-0.1-0.6-0.2-0.8-0.2
		c-0.6-0.2-1.2-0.4-1.9-0.4c-0.1,0-0.2,0-0.3,0c-0.1,0-0.2,0.1-0.2,0.2c0,0.1,0,0.2,0.1,0.2C26.9,57.3,27.5,57.6,27.7,57.6z"/>
	<path class="st0" d="M30.2,59.3c0,0-0.1,0-0.1,0c0,0,0,0,0,0c0,0,0,0-0.1-0.1c0,0-0.1-0.1-0.1-0.1c-0.1,0-0.2-0.1-0.3-0.1
		c0,0-0.1,0-0.1,0c-0.1-0.1-0.1-0.1-0.3-0.2c0,0,0,0,0,0c0,0-0.1,0-0.1,0c0,0,0,0,0,0c0,0-0.1-0.1-0.1-0.1c-0.1-0.1-0.2-0.1-0.3-0.1
		c0,0-0.1,0-0.1,0c0,0-0.1,0-0.1-0.1c-0.1-0.1-0.2-0.1-0.4-0.1c-0.1,0-0.3,0-0.4,0.1c-0.1,0-0.1,0.1-0.1,0.2c0,0.1,0,0.1,0.1,0.2
		c0.1,0,0.1,0.1,0.2,0.1c0.1,0.1,0.3,0.2,0.5,0.2c0,0,0.1,0,0.1,0c0.1,0,0.1,0,0.2,0.1c0.1,0,0.1,0.1,0.2,0.1c0,0,0.1,0,0.1,0
		c0.2,0.1,0.3,0.1,0.4,0.2c0.1,0,0.1,0.1,0.2,0.1c0,0,0.1,0,0.1,0.1c0.1,0,0.1,0,0.1,0.1c0,0,0,0,0.1,0c0.1,0,0.2,0,0.3,0
		c0,0,0.1,0,0.1,0c0.1,0,0.1,0,0.2-0.1c0-0.1,0-0.1,0-0.2C30.4,59.5,30.3,59.4,30.2,59.3z"/>
	<path class="st0" d="M26.5,60.2C26.5,60.2,26.5,60.2,26.5,60.2c0.1,0,0.2,0,0.2,0.1c0,0,0,0,0.1,0l0.1,0c0.1,0,0.1,0,0.2,0
		c0.1,0,0.2,0,0.4-0.1c0.1,0,0.1-0.1,0.1-0.2c0-0.2-0.1-0.3-0.3-0.3c-0.1,0-0.2,0-0.2,0c0,0,0,0,0,0c0,0,0,0,0,0c0,0,0,0,0,0
		c-0.1,0-0.1-0.1-0.2-0.1c-0.1,0-0.1,0-0.2,0.1c0,0-0.1,0-0.2,0.1c-0.1,0-0.1,0-0.1,0.1s0,0.1,0,0.2c0,0.1,0.1,0.2,0.2,0.3
		C26.3,60.1,26.4,60.2,26.5,60.2z"/>
	<path class="st0" d="M21.2,87.2c-0.2,0-0.3-0.1-0.4-0.1c-0.2,0-0.3-0.1-0.5-0.1c-0.3-0.1-0.6-0.4-0.6-0.5c0,0,0-0.1,0-0.1
		c0.1-0.1,0.2-0.2,0.1-0.4c0-0.1-0.1-0.1-0.1-0.1c-0.1,0-0.1,0-0.2,0c-0.2,0-0.3,0.1-0.4,0.2c-0.1,0.2-0.2,0.3-0.1,0.5
		c0.1,0.6,1,1.1,1.5,1.3c0.5,0.2,1.6,0.4,2.1,0.5c0.6,0.1,1.3,0.2,2,0.2c0.9,0,1.7-0.2,2.4-0.5c0.1,0,0.1-0.1,0.1-0.2
		c0-0.1-0.1-0.1-0.2-0.1c0,0,0,0,0,0c-0.5,0-1,0.1-1.5,0.1c-1.9,0-3.2-0.3-3.9-0.5L21.2,87.2z"/>
	<path class="st0" d="M33.3,88.1c0.1,0.1,0.2,0.1,0.3,0.1c0.1,0,0.3,0,0.4-0.1c0.1,0,0.1,0,0.1,0c0.1,0,0.2-0.1,0.4-0.2
		c0.4-0.2,0.7-0.5,0.9-0.7c0.2-0.2,0.3-0.6,0.1-0.9c0-0.1-0.1-0.1-0.2-0.1c0,0,0,0,0,0c-0.1,0-0.1,0.1-0.2,0.1
		c-0.1,0.3-0.5,0.7-0.7,0.8c-0.1,0.1-0.1,0.1-0.2,0.1c-0.1,0.1-0.2,0.1-0.4,0.2c-0.1,0.1-0.3,0.2-0.4,0.3c0,0,0,0,0,0
		c-0.1,0-0.1,0.1-0.1,0.2S33.3,88.1,33.3,88.1z"/>
	<path class="st0" d="M28.7,70.9C28.7,70.9,28.7,70.9,28.7,70.9c0.1,0,0.1-0.1,0.2-0.1c0.4,0,0.8-0.1,1.2-0.1
		c0.5-0.1,0.9-0.2,1.3-0.4c0,0,0,0,0,0c0.2-0.1,0.4-0.2,0.6-0.3l0.2-0.1c1.8-1.1,4.1-3.4,4.9-4.8c0.2-0.5,0.4-0.9,0.6-1.2
		c0.8-1.9,1-4.4,0.7-7.4c0,0,0,0,0,0c-0.2-1.7-0.5-3.2-0.8-4.5c-0.2-0.8-0.3-1.6-0.5-2.4c0,0,0-0.1,0-0.1c0-0.1,0-0.1,0-0.2l0-0.1
		c0-0.3-0.1-1.2-0.6-2.1c0.1-0.8-0.5-2.1-2.1-2.8c-0.8-0.4-2.8-0.8-4.2-1c-0.3,0-0.6-0.1-0.9-0.1l-0.1,0c-0.1,0-0.2,0-0.4,0
		c-0.2,0-0.5,0-0.8,0c-0.8,0-1.9,0.1-4.1,0.2c-0.7,0-1.2,0.1-1.5,0.2c0.1-0.6,0.1-1.8,0.1-2.2c0-0.3,0-0.4,0-0.5c0,0,0-0.1,0-0.1
		c0-0.2,0-0.4,0-0.6c0-0.1,0.1-0.3,0.1-0.6c-0.1-1,0-1.4,0-1.6c0-0.2,0-0.4,0-0.8c-0.1-0.7-0.2-0.9-0.2-1.1c0.1-0.7-0.2-1.7-0.5-2.6
		c-0.1-0.3-0.2-0.7-0.3-1c-0.2-0.7-0.4-1.1-0.6-1.5c-0.1-0.2-0.2-0.5-0.3-0.8c-0.1-0.3-0.3-0.5-0.4-0.7c-0.1-0.1-0.2-0.2-0.3-0.3
		c-0.2-0.3-0.5-0.6-0.8-1c-0.1-0.1-0.2-0.3-0.3-0.4c-0.2-0.2-0.3-0.3-0.4-0.5c-0.2-0.2-0.3-0.4-0.5-0.5c-0.1-0.1-0.2-0.2-0.3-0.3
		c-0.3-0.4-0.4-0.4-0.5-0.7l-0.1-0.2c-0.1-0.1-0.1-0.2-0.2-0.3c0-0.1-0.1-0.1-0.1-0.2c-0.1-0.3-0.1-0.6-0.1-0.9c0-0.2,0-0.4-0.1-0.7
		c-0.1-0.3-0.1-0.6-0.1-1.1c0-0.3,0-0.6,0-0.9l0-0.3c0-0.2,0-0.3,0-0.5c0-0.2,0-0.4,0-0.6c0.1-0.6,0.1-1.3,0.1-1.8
		c0-0.4,0-0.8,0-1.1c0.1-0.4,0-0.6,0-0.8l0-0.1c0-0.2,0-0.3,0-0.5c0-0.1,0.1-0.2,0.1-0.4c0-0.2,0-0.3-0.1-0.4c0-0.1,0-0.1,0-0.2
		c0-0.3,0-0.9,0-1.4c0-0.4,0-0.7,0-0.9c0-0.1,0-0.2,0-0.2c0-0.1,0-0.2,0-0.3c0-0.1,0-0.2,0-0.3c0-0.1,0-0.2,0-0.2
		c0.1-0.5,0-0.9,0-1.2c0-0.2-0.1-0.4,0-0.5c0-0.1,0-0.2,0-0.2c0-0.1,0-0.2,0-0.5c0,0,0,0,0,0c0,0,0-0.1,0-0.1c0-0.1,0-0.1,0-0.1
		c0,0,0.1-0.1,0.1-0.2c0.1-0.1,0.1-0.3,0-0.4c0.1-0.1,0.1-0.3,0.1-0.4c0,0,0-0.1,0-0.1c0-0.1,0-0.1,0-0.2c0-0.1,0.1-0.3,0-0.5
		c0-0.1,0-0.1,0-0.2l0-0.1c0-0.2,0-0.3,0-0.3c0,0,0,0,0-0.3c0,0,0-0.1,0-0.1c0-0.1,0-0.1,0-0.1c0,0,0.1-0.1,0-0.2l0,0
		c0-0.2,0-0.3,0-0.5c0-0.1,0-0.1,0-0.2c0,0,0-0.1,0-0.2c0-0.1,0-0.2,0-0.3c0-0.1,0-0.1,0-0.2c0-0.2,0-0.5-0.2-0.8
		c0-0.1-0.1-0.1-0.1-0.1l0,0c0-0.1,0-0.1,0-0.2c0-0.1,0-0.1,0-0.1c0-0.1,0.1-0.3-0.1-0.4c0,0,0,0,0,0c0.2-0.3,0.1-0.5,0.1-0.7
		c-0.4-0.9-3-1.6-3.5-1.6c0,0-0.1,0-0.1,0c-0.1,0-0.2,0.1-0.3,0.1c-0.1,0-0.1,0.1-0.2,0.1c0,0,0,0,0,0c-0.1,0-0.1,0-0.2-0.1
		C12.1,0.1,11.8,0,10.9,0c-0.1,0-0.2,0-0.3,0C8.7,0,7,0.8,6.5,1.5C6.3,1.7,6.3,1.9,6.3,2c0,0.1,0,0.1,0,0.2l0,0.1c0,0.2,0,0.5,0,0.8
		c0,0-0.1,0.1-0.1,0.1C6,3.4,6,3.5,6,3.7c0,0.1,0,0.2,0,0.2C6,4,6,4,6,4.1C5.9,4.5,5.9,4.6,6,4.8C6,4.9,6,5,6,5.1c0,0.1,0,0.2,0,0.3
		c0,0.1,0,0.1-0.1,0.2c0,0,0,0,0,0.1c0,0,0,0.3,0,0.6c0,0,0,0.1,0,0.1c0,0.1,0,0.2,0,0.4C6,7,6,7.1,6,7.2c0,0.2-0.1,0.4,0,0.7
		C6,8,6.1,8.2,6.3,8.2c0,0.1,0.1,0.2,0.1,0.3C6.2,9,6.2,9.2,6.2,9.4l0,0.1c0,0.5,0,1.1,0,1.6c0,0.4,0,0.8-0.1,1.2
		c0,0.4-0.1,0.9-0.1,1.3c0,0.4,0,0.7,0,1.1c0,0.5,0.1,1.1,0,1.5c0,1-0.1,1.5-0.2,2c-0.1,0.5-0.2,0.8-0.1,1.3c0,0.1,0,0.2,0.1,0.3
		C6,20,6,20.3,6,20.5C6,20.8,6,21,6,21.3c0,0.4-0.1,0.8,0.1,1.5c0.2,1.2-0.3,3-1.7,4.2c-0.4,0.2-0.6,0.5-0.7,1
		c-0.7,0.5-1,0.9-1.2,1.1l0,0.1c-2.6,3.5-2.5,5.1-2.3,17.8l0,0.6c0,0.1,0,0.2,0,0.3c0,4.7-0.1,6.7-0.1,8.1C0,57.5-0.1,58.3,0.2,62
		c0.1,0.8,0.1,1.9,0.1,3.1c0,1.2,0,2.5,0.1,3.5l0.1,0.5c0.1,0.5,0.1,0.9,0.2,1.6l0,0.1l0,0.4c0,0,0,0,0,0c0,0.3,0,0.5,0,1l0,1
		l0.1,1.4c0,0.9,0.1,1.7,0.1,2.3c0.1,4.2,0.2,4.5,1.3,5.3c0.3,0.2,0.7,0.4,1.1,0.5c0,0,0,0,0.1,0c0,0,0,0,0.1,0
		c0.4,0.1,1.5,0.4,2.6,0.7c0.5,0.1,0.8,0.2,0.9,0.2c0.1,0,0.2,0.1,0.3,0.1C7.7,83.9,8,84,8.8,84L9,84c0.3,0,0.6,0,0.9,0
		c0.2,0,0.4,0,0.6,0c0.2,0,0.5,0,0.7,0c0.7,0,1.7,0,3.3-0.2c1-0.1,3.2-0.3,4.3-0.6l0.4-0.1c0.5-0.2,0.6-0.2,0.8-0.4
		c1.7-0.9,1.8-2,1.8-3.7c0-0.5,0-1,0.1-1.5c0-0.6,0.1-1,0.1-1.3c0-0.2,0-0.4,0.1-0.7c0.1-1,0-1.2,0-1.5c0-0.2-0.1-0.4-0.1-0.8
		c0,0,0,0,0,0c0,0,0-0.1,0-0.1c0-0.3,0-1,0-1.6c0-0.5,0-0.9,0-1l0-0.1c0-0.1,0-0.2,0-0.3c0,0,0,0,0-0.1l0,0c0-0.1,0-0.2,0-0.2
		c0,0,0,0,0-0.1c0-0.1,0.1-0.2,0.1-0.3c0-0.1,0-0.3-0.1-0.5c1.1,0.7,2.3,1.3,3.6,1.6c0.1,0.4,0.1,0.6,0.1,1.1c0,0.1,0,0.1,0,0.2
		c0,0.1,0,0.2,0,0.4c0.1,0.2,0.1,0.4,0,0.6c0,0,0,0.1,0,0.2c0,1.3,0,2.7,0,4.1c0.1,1.9,0.1,3.9,0,6.1c-0.1,0-0.2,0-0.3,0
		c-2,0-4.5,0.6-5.7,1c-1.5,0.5-2.1,1.2-2.4,1.7c-0.2,0.5-0.2,1,0,1.5c0.4,1,1.4,1.5,2.3,1.7c0.8,0.3,1.6,0.5,2.5,0.7
		c2.3,0.4,5.2,0.6,7,0.6c0.4,0,0.7,0,0.9,0c1.6-0.1,4.3-1.1,5.1-1.5c1-0.5,1.7-1.1,2-1.9c0.2-0.6,0.1-1.2-0.2-1.8
		c-0.6-0.9-1.5-1.3-2.4-1.5c-2.9-0.7-4.4-0.8-5.1-0.9c-0.2,0-0.3,0-0.3,0c-0.1,0-0.1,0-0.2-0.1c-0.1,0-0.2-0.1-0.3-0.1
		c0,0,0-0.1,0-0.1c-0.1-0.3-0.1-0.7-0.1-1.1c0-0.2,0-0.5,0-0.7c0-0.4-0.1-0.9-0.1-1.3c0-0.2,0-0.3-0.1-0.4c0-0.6,0-0.9,0-1.2
		c0-0.2,0-0.4,0-0.6c0-0.1,0-0.2,0-0.3c0-0.2,0-0.3,0-0.5c0-0.2,0-0.3,0.1-0.5c0-0.1,0.1-0.3,0.1-0.4c0-0.2,0-0.4,0-0.6l0-0.2l0-0.5
		c0-0.2,0-0.4,0-0.6c0-0.2,0-0.3,0-0.4C28.4,72.1,28.6,71.2,28.7,70.9z M27.4,75.6c0,0.1,0,0.2,0,0.4c0,0.2,0,0.4,0,0.5
		c0,0.1,0,0.3,0,0.5c0,0,0,0.1,0,0.1c0,0,0,0,0,0c0,0,0,0,0-0.1c0,0-0.1-0.1-0.1-0.1c0-0.1-0.1-0.1-0.2-0.1c0,0-0.1,0-0.1,0
		c-0.1,0-0.1,0-0.1,0c0-0.2,0-0.4,0-0.7c0-0.2,0-0.7,0-1.2C27,75,27.1,75,27.2,75c0.1,0,0.2,0,0.2-0.1
		C27.4,75.2,27.4,75.4,27.4,75.6z M26.8,72.6L26.8,72.6C26.8,72.6,26.8,72.6,26.8,72.6L26.8,72.6z M27.3,71.3L27.3,71.3
		C27.3,71.3,27.3,71.3,27.3,71.3C27.3,71.3,27.3,71.3,27.3,71.3L27.3,71.3z M27,71C27,71,26.9,71,27,71C27,71,27,71,27,71
		C27,71,27,71,27,71z M26.7,71C26.7,71,26.7,71,26.7,71c0-0.1,0.1-0.1,0.1,0C26.8,71,26.7,71,26.7,71z M27.4,74.4c0,0-0.1,0-0.1,0
		c0,0-0.1-0.1-0.2-0.1c0,0,0,0,0,0c0,0-0.1-0.1-0.1-0.1c0,0-0.1,0-0.1,0c0-0.4,0-0.8,0-1.2c0,0,0,0,0.1,0c0,0,0.1,0,0.1,0
		c0,0,0,0,0.1,0c0,0,0.1,0,0.1-0.1c0.2-0.2,0.1-0.3,0-0.4c-0.1-0.1-0.2-0.1-0.2-0.1c0,0,0,0,0,0c0,0-0.1,0-0.1,0c0,0,0,0,0,0
		c0,0-0.1,0-0.1,0c0-0.1,0-0.2,0-0.3c0-0.2,0-0.3,0-0.4c0.1,0.1,0.3,0.2,0.5,0.2c0.2,0,0.4-0.1,0.4-0.3c0-0.1,0-0.2,0-0.2
		c-0.1-0.1-0.1-0.2-0.2-0.2c0,0-0.1,0-0.1,0l0,0c0,0-0.1-0.1-0.1-0.1l0,0c0,0,0,0,0,0c0.2,0,0.5-0.1,0.6-0.2c0.1,0,0.1,0,0.2,0
		c0,0,0,0,0,0.1c0,0.1,0,0.1,0,0.1c0,0.1-0.1,0.2-0.1,0.4c-0.2,0.4-0.4,0.9-0.4,2.5C27.4,74,27.4,74.2,27.4,74.4z M25.6,84.3
		c-0.1,0.1-0.2,0.2-0.2,0.4c-0.1,0.2,0,0.4,0,0.6c-0.2,0.1-0.3,0.3-0.3,0.6c0,0.2,0.1,0.4,0.3,0.6c-0.1,0-0.3,0-0.4,0
		c-0.3,0-0.5,0-0.7-0.1c-0.2,0-0.3-0.1-0.5-0.1c-0.2-0.1-0.4-0.1-0.6-0.1c0,0-0.1,0-0.1,0c-0.1,0-0.1,0-0.1-0.1c0,0,0-0.1,0-0.1
		c0-0.1,0-0.1,0-0.2c0.1-0.1,0-0.2-0.1-0.3c-0.1,0-0.1-0.1-0.2-0.1c-0.1,0-0.3,0.1-0.4,0.2c-0.1,0.2-0.1,0.4,0,0.7
		c0.4,0.8,2.1,1,2.9,1c0.4,0,1.1,0,1.4-0.3c0.1,0,0.1-0.1,0.1-0.2c0,0,0,0,0-0.1c0.1,0,0.2,0,0.3,0c0.6,0,1.3-0.1,1.8-0.4
		c0.2-0.1,0.4-0.2,0.6-0.4c0.2-0.3,0.2-0.6,0-0.9c-0.1-0.1-0.1-0.1-0.2-0.2c0.1,0,0.2,0,0.3,0.1c0.1,0,0.1,0,0.2,0.1
		c0.2,0.1,0.4,0.2,0.6,0.2c0,0,0,0,0,0c0.1,0,0.1,0,0.1-0.1c0,0,0.1-0.1,0.1-0.2c0-0.2-0.1-0.3-0.3-0.4c0,0,0,0,0,0c0,0,0.1,0,0.1,0
		c0.1,0,0.2,0,0.3,0c0.1,0,0.3,0,0.5,0l0.1,0l0.1,0c0.2,0,0.3,0,0.5,0.1c0.2,0.1,0.3,0.1,0.4,0.2c0.1,0.1,0.2,0.2,0.4,0.2
		c0,0,0.1,0,0.1,0l0.1,0c0,0,0.1,0,0.1,0c0,0,0,0,0,0c0.1,0,0.1,0,0.2,0.1c0.1,0.1,0.2,0.1,0.4,0.1c0,0,0.1,0,0.1,0l0.1,0
		c0.1,0,0.2,0.1,0.5,0.2c0.1,0,0.3,0.2,0.4,0.2c0,0,0.1,0.1,0.2,0.1c0.2,0,0.3-0.1,0.4-0.3c0-0.1,0.1-0.1,0-0.2
		C35.2,85,35.1,85,35,84.9c0,0,0,0-0.1,0c0,0-0.1,0-0.1,0c-0.2-0.1-0.3-0.2-0.3-0.2l0,0c0,0,0,0,0-0.1c0.7,0.3,1.3,0.5,1.6,0.8
		c0.3,0.3,0.4,0.7,0.3,1.1c-0.1,0.4-0.4,1-1.6,1.6c-1.9,0.9-3.2,1.3-6.5,1.3c-0.3,0-0.6,0-0.8,0c-2.4,0-5.2-0.2-7.4-1.1
		c-0.9-0.4-1.5-0.8-1.7-1.3c-0.1-0.3,0-0.5,0-0.7c0-0.1,0-0.1,0-0.2c0.1-0.2,0.4-0.5,0.7-0.7c0.7-0.5,1.3-0.7,2.2-0.9
		c2.3-0.5,3-0.6,3.3-0.6c0.1,0,0.2,0,0.2,0c0.1,0,0.3,0,0.5,0.1l0.1,0c0.1,0,0.1,0,0.2,0c0,0,0.1,0,0.1,0
		C25.7,84.2,25.7,84.3,25.6,84.3z M33.9,84.5c0,0-0.1,0-0.1,0l-0.1,0c-0.2,0-0.6-0.2-0.6-0.2c0,0,0,0-0.1,0
		C33.4,84.3,33.7,84.4,33.9,84.5C34,84.5,34,84.5,33.9,84.5z M30.3,83.8C30.3,83.8,30.3,83.8,30.3,83.8c-0.1,0-0.2,0-0.2,0
		c-0.1,0-0.2,0-0.2,0c0,0-0.1,0-0.1,0c0,0-0.1-0.1-0.1-0.1c0,0,0,0-0.1,0c0,0-0.1,0-0.1,0c-0.1,0.1-0.2,0.2-0.2,0.4
		c-0.1,0-0.2,0-0.6,0.1c-0.1,0-0.1,0.1-0.2,0.1c0,0.1,0,0.1,0,0.2c-0.1,0-0.1,0-0.2,0.1c-0.1,0.1,0,0.2,0,0.2
		c0.3,0.4,0.3,0.5,0.3,0.5c0,0-0.1,0.1-0.2,0.1l-0.1,0.1c-0.4,0.2-0.7,0.3-0.9,0.3c-0.1,0-0.2,0-0.4,0c-0.1,0-0.2,0-0.4,0l-0.1,0
		c0,0,0,0-0.1,0c-0.1,0-0.1,0-0.2,0c-0.1,0-0.2,0-0.3,0c0,0-0.1,0-0.1,0c-0.1,0-0.1-0.1-0.2-0.1c0,0,0-0.1,0-0.1
		c0.1,0.1,0.3,0.1,0.5,0.1c0.2,0,0.4-0.1,0.6-0.2c0.1,0,0.1-0.1,0.1-0.2s0-0.1-0.1-0.2c-0.2-0.1-0.4-0.2-0.6-0.2l-0.1,0
		c0,0-0.1,0-0.1,0c0,0,0-0.1,0-0.1c0,0,0.1-0.1,0.1-0.1c0.7-0.5,0.7-1.8,0.6-3.3c0-0.5,0-1,0-1.5c0-0.1,0-0.3,0-0.4
		c0-0.2,0-0.4,0-0.6c0-0.2,0-0.3,0-0.5c0-0.2,0-0.3,0-0.5c0-0.3,0-0.4,0-0.7c0.1,0.1,0.2,0.2,0.3,0.2c0.1,0,0.2,0,0.3-0.1
		c0,0,0,0,0-0.1c0,0.5,0.1,1,0,1.6c0,0.3,0,0.6,0,0.9c0-0.1-0.1-0.1-0.1-0.1c0,0,0,0-0.1,0c-0.1,0-0.1,0-0.1,0.1
		c-0.2,0.2-0.2,0.4-0.2,0.6c0,0,0,0.1,0,0.2c0,0.4-0.1,1.2,0.2,1.8c0,0.1,0.1,0.1,0.2,0.1c0,0,0,0,0,0c0.1,0,0.1,0,0.2-0.1
		c0-0.1,0.1-0.2,0.1-0.3c0.1,0.9,0.3,1.6,0.5,2.2c0,0.1,0.1,0.1,0.2,0.1c0,0,0,0,0,0c0.1,0,0.2-0.1,0.2-0.2c0-0.2,0.1-0.5,0.1-0.8
		c0.4,0.1,0.6,0.1,0.8,0.1l0.2,0l0.2,0c0.1,0,0.2,0,0.3,0C30.1,83.7,30.2,83.7,30.3,83.8C30.3,83.7,30.3,83.8,30.3,83.8z M7.1,1.9
		C7.1,1.9,7.1,1.9,7.1,1.9C7.1,1.9,7.2,1.9,7.1,1.9C7.2,1.9,7.2,1.9,7.1,1.9C7.1,1.9,7.1,1.9,7.1,1.9z M20.8,69.4
		c-0.2,0.1-0.3,0.2-0.4,0.2c0,0-0.1,0-0.1,0c0,0-0.1,0-0.1,0c0,0,0,0,0,0c-0.3,0-0.4,0.1-0.6,0.2c-0.1,0-0.1,0.1-0.2,0.1
		c-0.1,0-0.2,0.1-0.3,0.1c-0.2,0.1-0.4,0.1-0.7,0.2c0-0.1,0-0.2,0-0.3c0-0.1,0-0.2,0-0.2c0,0,0,0.1,0.1,0.1c0,0,0.1,0.1,0.1,0.1
		c0,0,0,0,0.1,0c0,0,0.1,0,0.1,0c0.1-0.1,0.2-0.1,0.3-0.1c0,0,0.1,0,0.1,0c0,0,0.1,0,0.1,0s0.1,0,0.2,0c0.2,0,0.2-0.1,0.3-0.1
		c0,0,0.1-0.1,0.3-0.1c0.4-0.1,0.7-0.2,0.9-0.2l0,0c0,0,0,0,0,0C21,69.3,20.9,69.4,20.8,69.4z M18.4,67.8c0,0,0-0.1,0-0.1
		C18.4,67.7,18.4,67.8,18.4,67.8z M18.6,65.4c-0.1,0.1-0.2,0.2-0.2,0.3c0-0.1-0.1-0.2-0.1-0.4c0-0.1,0-0.2,0-0.4c0,0,0-0.1,0-0.1
		C18.4,65,18.5,65.2,18.6,65.4C18.6,65.4,18.6,65.4,18.6,65.4z M20.8,81c0-0.1,0-0.2,0-0.2c0,0-0.1-0.1-0.2-0.1c0,0,0,0-0.1,0
		c-0.2,0.1-0.3,0.1-0.6,0.3c-0.1,0.1-0.3,0.2-0.6,0.3c-1,0.5-2.9,1-3.4,1c0,0-0.2,0-0.3,0c-0.4,0-1.1,0.1-1.2,0.1
		c-0.2,0-1,0-1.7,0.1c-0.1,0-0.2,0-0.4,0c-0.9,0-2.7-0.1-3.5-0.2c-0.3,0-0.5,0-0.5,0c-0.2,0-0.3,0-0.5,0.1c-0.1,0-0.1,0.1-0.1,0.2
		c0,0.1,0,0.2,0.1,0.2C8.4,83,8.6,83,9.1,83.1c0.3,0,0.7,0,1.4,0.1l0.4,0c-0.1,0-0.2,0-0.3,0c-0.2,0-0.3,0-0.5,0
		c-1,0-2.4-0.2-3.4-0.4c-1.4-0.3-2.1-0.5-2.5-0.7c-0.3-0.1-0.5-0.2-0.9-0.2c0,0-0.1,0-0.1,0c-0.1-0.2-0.3-0.3-0.4-0.4
		C2.1,80.8,2,80.7,2,80.1l0-0.4c0-0.2,0-0.4,0-0.6c0,0,0.1,0,0.1,0c0.1,0,0.1,0.1,0.1,0.1c0.2,0.2,0.7,0.4,1.2,0.4
		c0.3,0,0.6-0.1,0.8-0.3c0,0,0.1-0.1,0.1-0.2c0-0.1,0-0.1-0.1-0.2c-0.4-0.3-0.7-0.3-0.9-0.3c-0.1,0-0.1,0-0.2,0
		c-0.1,0-0.1-0.1-0.2-0.1c-0.1-0.1-0.2-0.1-0.3-0.1c0,0-0.1,0-0.1,0c0,0,0,0,0,0c-0.1,0-0.3-0.1-0.4-0.1c0,0-0.1,0-0.1,0
		c0,0,0,0,0,0c0-0.7-0.1-1.4-0.1-2.2c0-0.6,0-1,0-1.4c0-0.3,0-0.6,0-0.9c0,0,0.1,0.1,0.1,0.1C2.3,74,2.4,74,2.5,74.1
		c0.1,0.1,0.3,0.1,0.5,0.3c0.2,0.2,0.4,0.2,0.5,0.3c0.1,0,0.1,0,0.2,0.1c0.4,0.2,0.7,0.2,1,0.3c0.2,0,0.5,0.1,1,0.2
		c0,0.3,0.1,0.3,0.4,0.4c0,0,0,0,0,0c0,0,0,0,0.1,0c0.1,0,0.3-0.2,0.3-0.3c0.1-0.1,0.1-0.3,0.1-0.4c0,0,0-0.1,0-0.1
		c0-0.2,0-0.9,0.1-2.7c0-0.2,0-0.4,0-0.6c0-0.5,0-1.1,0-1.4c0-0.1,0-0.1,0-0.2c0,0,0,0,0,0c0.1,0,0.1,0,0.2,0c0.2,0,0.3-0.1,0.4-0.1
		c0,0,0.1,0,0.1-0.1C7.5,69.6,8,69.3,8.3,69c0,0.1,0.1,0.1,0.2,0.1c0,0,0,0,0,0c0.1,0,0.2-0.1,0.2-0.2c0.2-1.1,0.2-2.5,0.2-3.5
		l0-0.3c0-0.2,0-0.5,0-0.7c0-0.4,0-0.9,0-1.2c0-0.3,0-0.6,0-0.8c0.4,0.1,0.7,0.1,1.1,0.1l0.2,0l0.3,0l0.1,0c0.5,0,1.1,0.1,1.5,0.2
		c0.3,0.1,0.4,0.1,0.5,0.1c0,0,0,0,0,0c0.3,0,0.4,0,0.5-0.1c0.1,0,0.3-0.1,0.5-0.1c0.1,0,0.2,0,0.3,0c0.2,0,0.3,0,0.3,0
		c0.2,0,0.3,0,0.4,0c0.1,0,0.3-0.1,1.4-0.1l0.1,0c0.5,0,0.7,0,0.9,0c0,0.1,0,0.1,0.1,0.2c-0.3,0.1-0.7,0.2-0.8,0.3
		c-0.1,0-0.1,0-0.1,0c-0.1,0-0.1,0-0.1,0c-0.1,0-0.1,0-0.5,0.1c-0.3,0.1-0.6,0.1-0.9,0.1c-0.4,0-0.9,0-1.4,0.2
		c-0.1,0-0.1,0.1-0.1,0.2c0,0.1,0.1,0.2,0.1,0.2c0.2,0.1,0.5,0.1,0.7,0.1c0,0,0,0,0.1,0c0,0,0.1,0,0.1,0l0.1,0l0.1,0l0.1,0l0.1,0
		c0.1,0,0.2,0,0.4-0.1l0.1,0c0.1,0,0.3-0.1,0.4-0.1l0.1,0c0.2,0,0.4-0.1,0.5-0.1c0,0,0.1,0,0.1,0l0.1,0c0,0,0,0,0.1,0
		c0,0,0.1,0,0.1,0c0,0,0.1,0,0.1,0c0.2-0.1,0.4-0.1,0.5-0.1c0,0,0.1,0,0.1-0.1c0.1,0,0.2-0.1,0.3-0.1c0.1,0,0.1,0,0.2-0.1
		c0.1,0.1,0.1,0.3,0.2,0.4c-0.2,0.3-0.2,0.4-0.1,0.9c0,0.3,0,0.8,0.1,1.8c0,0.4,0,0.8,0.1,1.2c0,0.2,0,0.4,0.1,0.6
		c0,0.8,0,1.1-0.1,1.4c0,0.1,0,0.3-0.1,0.4c0,0.2,0,0.3,0.1,0.5c0,0.1,0.1,0.3,0.2,0.8c0,0.1,0.1,0.1,0.1,0.2c0,0,0,0,0.1,0
		c0,0,0.1,0,0.1,0c0.4-0.3,0.4-0.3,0.7-0.4c0.1,0,0.2-0.1,0.4-0.1c0.1,0,0.2-0.1,0.3-0.1c0.1,0,0.1-0.1,0.2-0.1
		c0.1,0,0.2-0.1,0.3-0.1c0.3-0.1,0.8-0.2,1.2-0.4c0,0.1,0,0.1,0,0.2c0,0,0,0,0,0c0.1,2.7,0.1,3.8,0,5.7c0,0.7-0.1,1.4-0.1,2.4
		c0,0.4,0,0.8,0,1c0,0.5,0,0.7-0.1,0.9c-0.2,1-1,1.5-1.9,1.8C19.8,81.9,20.5,81.5,20.8,81z M1.1,36.3c-0.1-1-0.1-1.5,0.2-2.6
		c0.5-2.3,1.8-4,2-4.1c0.1,0,0.1-0.1,0.2-0.1c0.3-0.1,0.3-0.2,0.8-1l0.2-0.3c0.2-0.2,0.3-0.3,0.4-0.4c0,0,0.1-0.1,0.1-0.2
		c0.8-0.8,1.2-1.5,1.4-1.9c0.1-0.1,0.1-0.2,0.1-0.2c0.2-0.2,0.5-1.6,0.4-2.7c0-2.4,0-3.4,0.1-4.2c0-0.4,0.1-0.8,0.1-1.4
		c0.5,0.2,1.5,0.5,1.6,0.5c0.3,0.1,0.6,0.1,0.9,0.1c0.3,0,0.7,0.1,1.4,0.2c0.2,0,0.4,0.1,0.5,0.1c0.2,0,0.3,0.1,0.4,0.1
		c0.2,0,0.4-0.1,0.5-0.1c0.1,0,0.1,0,0.2-0.1c0.1-0.1,0.3-0.1,0.5-0.1c0.3,0,0.5,0,0.8-0.1c0.2-0.1,0.5-0.2,0.9-0.2
		c0.2,0,0.5-0.1,0.8-0.2c0,0.3,0,0.8,0,1.2c0,0.5,0,0.9,0,1.3c0.1,0.5,0.1,0.7,0.1,0.9c0,0.1,0,0.3,0,0.5c0,0.6,0,1.1,0,1.4
		c0,0.4,0,0.6,0,1c0,0.5,0.2,1,0.4,1.4c0.1,0.2,0.1,0.3,0.2,0.4c0,0.1,0,0.1,0,0.2c0.1,0.3,0.2,0.6,0.9,1.5c0.5,0.6,0.6,0.7,0.8,0.9
		c0.2,0.1,0.4,0.3,0.8,0.8c0.3,0.3,0.7,0.9,0.9,1.3c0.1,0.3,0.3,0.5,0.4,0.6c0,0,0.1,0.1,0.1,0.1c0.2,0.2,0.3,0.6,0.5,1
		c0.1,0.3,0.2,0.5,0.4,0.8c0.2,0.6,0.3,1.3,0.4,1.9c0.1,0.5,0.1,1.1,0.3,1.4c0.1,0.3,0.1,0.6,0,1c0,0.3,0,0.5,0,0.7
		c0.2,0.8,0.1,1,0.1,1.3c0,0.2,0,0.5,0,1c0,0.3,0,0.4-0.1,0.6c0,0.1,0,0.1,0,0.2c0,0.2-0.2,2.3-0.2,2.9c-0.1,0-0.2,0.1-0.4,0.1
		c-0.1,0-0.2,0.1-0.3,0.1c0,0-0.1,0-0.1,0c0,0-0.1,0-0.1,0c-0.1,0-0.2,0.1-0.2,0.1c0,0,0,0,0,0c-0.1,0-0.2,0.1-0.3,0.1
		c-0.3,0.1-0.5,0.2-0.6,0.3c-0.3,0.1-0.4,0.2-0.5,0.2c0,0-0.1,0-0.2,0c-0.2,0.2-0.4,0.4-0.5,0.7c-0.2,0-0.4,0.1-0.5,0.2
		c-0.2,0.2-0.3,0.6-0.3,1c-0.8,2.2-1.4,5.7-1.4,9.1c0,0-0.1-0.1-0.1-0.1c0,0,0,0,0,0c-0.3,0-0.5,0.1-0.6,0.1c-0.1,0-0.1,0.1-0.2,0.1
		c0,0,0,0-0.1,0c0,0-0.1,0-0.1,0c-0.1,0-0.2,0-0.2,0.1c0,0,0,0-0.1,0c-0.1,0-0.1,0-0.2,0c0,0,0,0,0,0c-0.1,0-0.1,0-0.1,0.1
		c0,0,0,0,0,0c-0.1,0-0.1,0-0.2,0c-0.1,0-0.1,0-0.2,0c0,0-0.1,0-0.2,0c-0.3,0-0.4,0-0.6-0.1c-0.2,0-0.5,0-1.2-0.1
		c-0.3-0.1-0.6-0.1-1-0.1c-0.3,0-0.6,0-0.9,0.1c-0.2,0-0.4,0.1-0.6,0.1c-0.2,0-0.4,0-0.5,0c-0.1,0-0.3,0-0.4,0c-0.2,0-0.3,0-0.4,0.1
		c-0.1,0-0.1,0.1-0.2,0.1C8,56,7.9,56.1,7.7,56.1c-0.1,0-0.3,0.1-0.4,0.1c-0.1,0-0.2,0.1-0.3,0.1c0,0,0,0-0.1,0c0,0-0.1-0.1-0.1-0.1
		c0,0-0.1,0-0.1,0c-0.1,0.1-0.3,0.3-0.3,0.5c0,0.1,0,0.2,0.1,0.2C6.7,57,6.8,57,7,57c0.2,0,0.4-0.1,0.7-0.1c0.1,0,0.3-0.1,0.5-0.1
		C8,57.4,8,58.6,8.2,59.2c0,0.1,0.1,0.1,0.2,0.1c0,0,0,0,0,0c0.1,0,0.1,0,0.2-0.1c0.2-0.3,0.2-0.7,0.2-1c0,0,0,0,0,0
		c0.2,0.1,0.3,0.1,0.4,0.1c0.1,0,0.1,0,0.2,0c0.1,0,0.4-0.1,0.5-0.1c0.2,0,0.4-0.1,0.6-0.1c0.2,0,0.5,0,0.8-0.1
		c0.3,0,0.5-0.1,0.7-0.1c0.4,0,0.5,0.1,0.7,0.1c0.1,0,0.2,0.1,0.4,0.1c0,0,0.1,0,0.1,0c0.1,0,0.2,0,0.3-0.1c0.1,0,0.1,0,0.2,0
		c0.1,0,0.2,0,0.3,0.1c0.2,0,0.3,0.1,0.4,0.1c0.1,0,0.1,0,0.2,0c0,0,0,0,0.1,0c0.1,0,0.1,0,0.2,0c0.6,0.2,0.8,0.3,0.9,0.3
		c0.1,0,0.1,0.1,0.2,0.1c0.1,0,0.2-0.1,0.3-0.1c0.1-0.1,0.1-0.1,0.2-0.2c0-0.1,0-0.1,0-0.2C16.1,58,16,58,15.9,58c0,0,0,0,0,0
		c0,0-0.1,0-0.1,0c-0.1,0-0.3-0.1-0.5-0.2c-0.1,0-0.1,0-0.1-0.1l0,0c-0.1-0.1-0.2-0.1-0.3-0.1c-0.1,0-0.1,0-0.2,0c0,0-0.1,0-0.1,0
		c0,0,0,0,0,0c-0.4,0-1.8-0.2-2-0.3c0,0,0,0,0,0c0,0,0,0,0,0c0,0,0,0,0,0c0,0,0,0,0,0c-0.1,0-0.2,0-0.3,0c-0.3,0-0.5,0-0.6,0.1
		c-0.2,0-0.3,0-0.4,0l-0.1,0c-0.3,0-0.4,0-0.5-0.1c-0.1,0-0.2,0-0.2,0c-0.1,0-0.2,0-0.3,0.1c-0.1,0-0.1,0.1-0.2,0.1
		c-0.1,0-0.1,0.1-0.2,0.1c-0.1,0-0.2,0-0.3,0.1c-0.1,0-0.1,0-0.2,0c0-0.1-0.1-0.1-0.2-0.1c0,0-0.1,0-0.1,0c-0.1,0-0.1,0.1-0.2,0.2
		c0,0,0-0.1,0-0.1c0-0.1,0-0.2,0-0.3c0-0.2,0-0.3,0-0.5c0-0.1,0-0.2,0-0.2c0.5,0,0.8-0.1,1.1-0.1c0.3,0,0.5-0.1,0.8-0.1
		c0.2,0,0.5,0,0.8,0.1c0,0,0.1,0,0.1,0c0.2,0.1,0.4,0.1,0.6,0.1c0.1,0,0.2,0,0.3,0l0.1,0c0.2,0,0.3-0.1,0.3-0.1c0.1,0,0.2,0,0.3,0.1
		l0.1,0c0.2,0,0.3,0.1,0.5,0.1c0.1,0,0.1,0,0.2,0c0,0,0.1,0,0.1,0c0.5,0,1.4,0.3,1.6,0.3c0.1,0.1,0.1,0.1,0.2,0.1c0.1,0,0.1,0,0.2,0
		c0.1,0,0.1-0.1,0.3-0.1c0,0,0,0,0,0c0.1,1.7,0.3,3.3,0.7,4.6c-0.1,0-0.3,0-0.5,0c-0.2,0-0.3,0-0.4,0c-0.2-0.1-0.4-0.1-0.5-0.1
		c-0.1,0-0.2,0-0.3,0.1c-0.1,0-0.2,0.1-0.5,0.1c-0.6,0-1.1,0-1.5,0c-0.5,0-0.8,0-1-0.1c-0.2,0-0.4,0-0.8,0c-0.1,0-0.2,0-0.3,0
		c-0.2,0-0.4,0-0.5,0c-0.2,0-0.3,0-0.4,0c-0.3,0-0.6,0-1.1-0.2c-0.1,0-0.2-0.1-0.3-0.1l0-0.1c0-0.1-0.1-0.2-0.2-0.2c0,0,0,0,0,0
		c-0.1,0-0.2,0.1-0.2,0.1c0,0.1,0,0.1,0,0.2c-0.1,0-0.2,0-0.2,0c-0.1,0-0.1,0-0.2,0c-0.1,0-0.1,0-0.2,0c-0.2,0-0.3,0-0.5-0.1
		c-0.2,0-0.4,0-0.4-0.1c0-0.1-0.1-0.1-0.2-0.1c0,0,0,0,0,0c-0.1,0-0.2,0-0.2,0.1c0-0.4,0-0.8,0-1.1c0-1.1-0.1-2.1-0.1-2.4
		c-0.1-0.5,0-0.8,0-1.1c0-0.3,0.1-0.6,0-1c0-0.3-0.1-2.3-0.1-2.5c0-0.1,0-0.2,0-0.3c0-0.1,0.1-0.3,0.1-0.5c0-0.3,0-0.6,0-0.8
		c0-0.4,0-0.8,0.1-1.2c0-0.2,0-0.4,0-0.6c0-0.1,0-0.2,0-0.3c0-0.1,0-0.2,0.1-0.2c0.1-0.2,0.1-0.3,0-1c0-0.1-0.1-0.2-0.2-0.2
		c0,0,0,0,0,0l-0.1,0c-0.1,0-0.3,0-0.4,0c-0.2,0-0.6-0.1-1-0.2c-0.3-0.1-1.2-0.3-1.3-0.4c-0.5-0.3-0.8-0.5-1-0.6
		c-0.2-0.1-0.3-0.2-0.5-0.3c0,0-0.4-0.3-0.5-0.5c0-0.1-0.1-0.1-0.1-0.1c0-2.6,0.1-5.6,0.1-6.8c0-0.2,0-0.4,0-0.4
		C1.2,37.7,1.2,36.9,1.1,36.3z M6.7,6.9c0-0.1,0-0.1,0-0.2l0-0.1c0-0.2,0-0.2,0-0.3c0,0,0-0.1,0-0.3c0,0,0-0.1,0-0.1
		c0-0.1,0-0.1,0-0.1c0,0,0-0.1,0-0.1c0,0,0,0,0,0c0,0,0-0.1,0-0.2c0-0.2,0-0.3,0-0.4c0-0.1,0-0.1,0-0.2l0-0.1c0-0.1,0-0.1,0-0.3
		c0-0.3,0-0.3,0-0.3c0,0,0-0.1,0-0.3c0,0,0-0.1,0-0.2C6.9,3.3,7,3,7,2.8c0-0.1,0-0.1,0-0.1c0,0,0,0,0,0c0,0,0,0,0,0
		c0.1,0,0.2,0.1,0.3,0.1c1.6,0.7,3.9,1,4.4,1c0,0,0,0,0,0c0.5,0,2.7-0.3,3.4-0.6c0.2-0.1,0.4-0.1,0.8-0.3c0,0.2,0,0.4,0.1,0.5
		c0,0.1,0.1,0.3,0.2,0.4c0,0,0.1,0.1,0.1,0.1c0,0,0.1,0.1,0.1,0.1c0,0.1,0,0.3,0,0.5c0,0.3,0,0.7,0,0.9c0,0,0,0,0,0.1
		c0,0.1,0,0.3,0,0.6c0,0,0,0.1,0,0.1c-0.1,0.1,0,0.2,0,0.4c0,0.2,0,0.3,0,0.5l0,0.1c-0.1,0.3-0.1,0.5,0.1,0.7c0,0-0.1,0.1-0.1,0.1
		c0,0-0.1,0.1-0.4,0.2c-0.1,0.1-0.3,0.1-0.4,0.1c-0.1,0-0.1,0-0.1,0c-0.1,0-0.1,0-0.2,0c-0.1,0-0.2,0-0.3,0.1
		c-0.1,0-0.1,0.1-0.2,0.1c-0.1,0.1-0.2,0.1-0.4,0.2c-0.7,0.1-1.1,0.2-1.6,0.2c-0.1,0-0.2,0-0.3,0c-0.4,0-0.7,0-0.9,0
		c-0.4,0-0.7,0-1,0c-0.1,0-0.2,0-0.3,0c-0.2,0-0.4,0-0.9-0.2C8.7,8.4,8.5,8.4,8.3,8.4c-0.1,0-0.1,0-0.1,0c0,0-0.1,0-0.1,0
		c-0.1,0-0.1,0-0.3-0.1c-0.1,0-0.2-0.1-0.3-0.1c-0.1,0-0.3-0.1-0.3-0.1C7.1,8,7,7.9,6.9,7.9c0,0-0.1,0-0.1,0c0,0,0,0-0.1,0
		c0-0.1,0-0.1,0-0.2c0-0.1,0-0.1,0-0.2c0-0.1,0-0.1,0-0.2C6.7,7.2,6.8,7,6.7,6.9z M7.2,8.9C7.3,9,7.4,9,7.5,9c0.2,0,0.4,0.1,0.7,0.2
		C9,9.5,9.3,9.5,9.7,9.5l0.2,0l0.2,0c0.3,0,0.7,0,1.4,0.1c0,0,0.1,0,0.2,0c0.2,0,0.3,0.1,0.5,0.1c0,0,0.1,0,0.1,0
		c0.2,0,0.4-0.1,0.5-0.1c0.2-0.1,0.3-0.1,0.7-0.1l0.1,0c0.4,0,0.6-0.1,0.8-0.1c0.1-0.1,0.2-0.1,0.6-0.2c0.3-0.1,0.5-0.1,0.8-0.2
		c0,0.1,0,0.3,0,0.5l0,0.1c0,0.2,0,0.4-0.1,0.6c0,0.2-0.1,0.4-0.1,0.6c0,0.4,0,0.6,0.1,0.9c0,0.1,0,0.2,0,0.3c0,0.1,0,0.2,0,0.3
		c0,0.1,0,0.1,0,0.2c0,0.3,0,1.5,0,1.8c0,0.5-0.1,1-0.1,1.1c0,0,0,0,0,0c0,0,0,0.1,0,0.1c0,0.1,0,0.2,0,0.3c0,0.1,0,0.1,0,0.2
		c0,0.2,0,0.3,0,0.4c0,0.1,0,0.1,0,0.2c-0.1,0.1-0.4,0.1-0.6,0.2c0,0-0.1,0-0.1,0c0,0-0.1,0-0.1,0l-0.1,0c0,0-0.1,0-0.1,0
		c-0.2,0-0.4,0.1-0.5,0.2c0,0-0.1,0-0.1,0.1c-0.2,0.1-1,0.3-2,0.3l-0.1,0c-0.8-0.1-1.3-0.1-1.7-0.1c-0.6,0-0.7,0-1.3-0.3
		c-0.4-0.2-0.6-0.2-0.7-0.2c0,0,0,0,0,0c0,0-0.1,0-0.1,0l-0.1,0c-0.1,0-0.1,0-0.3-0.1c-0.1,0-0.2-0.1-0.3-0.1
		c-0.1,0-0.2-0.1-0.3-0.1c0-0.4,0-0.7-0.1-0.9c0-0.6-0.1-0.8,0-1.7c0-0.2,0-0.4,0.1-0.6c0-0.2,0.1-0.5,0.1-0.7c0-0.2,0-0.5-0.1-0.7
		c-0.1-0.2-0.1-0.4-0.1-0.6c0-0.1,0-0.2,0-0.3c0-0.1,0-0.3,0-0.4c0-0.1,0-0.2,0-0.3c0-0.2,0-0.4,0-0.6l0-0.1c0,0,0,0,0,0
		c0,0,0.1,0,0.1-0.1C7.2,9.2,7.3,9.1,7.2,8.9z M17.5,57.2c0,0-0.1-0.1-0.2-0.1c0,0-0.1,0-0.1,0c-0.1,0-0.1,0-0.1,0.1
		c0,0,0-0.1,0-0.2c2-0.9,4.5-1.3,7.6-1.7c-0.2,0-0.3,0.2-0.4,0.4c0,0,0,0.1,0,0.2c0,0.1,0.1,0.1,0.1,0.1c0.2,0.1,0.5,0.2,0.7,0.2
		c0.1,0,0.2,0,0.4,0c0.2,0,0.5,0,0.8,0l0.2,0c0.5,0,0.7,0,0.9,0c0.3,0,0.3,0,0.5,0c0.1,0,0.2,0,0.6,0h0.1c0.6,0,1.1,0.2,1.4,0.3
		c0.1,0.1,0.3,0.1,0.4,0.1c0.1,0,0.1,0,0.2,0c0.1,0,0.2,0,0.3,0c0.1,0,0.1,0,0.2,0c0,0,0,0,0,0c0.2,0,0.4,0.1,0.6,0.2
		c0.2,0.1,0.4,0.2,0.7,0.2c0.4,0,1.5,0.7,1.7,0.9c0.1,0.1,0.2,0.2,0.4,0.2c0.1,0,0.2,0,0.3-0.1c0.1,0,0.1-0.1,0.1-0.1
		c0-0.1,0-0.1,0-0.2c-0.1-0.1-0.1-0.2-0.1-0.3c0-0.1-0.1-0.1-0.1-0.1c0,0-0.1,0-0.1,0c0,0-0.5-0.3-0.6-0.4c-0.1-0.1-0.1-0.1-0.2-0.2
		l0-0.1c-0.2-0.2-0.4-0.2-0.6-0.2c-0.1,0-0.3,0-0.5-0.1c-0.4-0.1-0.8-0.2-1.1-0.3l-0.2,0c-1.2-0.3-1.7-0.4-2.1-0.4
		c-0.1,0-0.3,0-0.4,0c-0.1,0-0.3,0-0.4,0c-0.3,0-0.6,0-1-0.1c-0.2,0-0.4-0.1-0.5-0.1c-0.2,0-0.3,0-0.4,0.1c-0.1,0-0.2,0.1-0.4,0.1
		l-0.1,0c-0.1,0-0.3,0-0.4,0c-0.1,0-0.2,0-0.2,0c-0.1,0-0.1,0-0.1,0c0-0.1-0.1-0.1-0.2-0.1c0.1,0,0.1,0,0.2,0l0.8-0.1
		c0.5-0.1,0.9-0.1,1.4-0.1c0.4,0,1,0,2,0.1l0.2,0c0.1,0,0.3,0,0.4,0c1.3,0,3.4,0,5.5,1.1c0,0,0.1,0,0.1,0c0.5,0.3,0.9,0.5,1.3,0.8
		c0.1,0.1,0.2,0.2,0.4,0.3l0,0c0,0,0,0,0,0c0.3,0.2,0.4,0.4,0.4,0.4c-0.4,0.4-0.8,0.6-1.3,0.9c-0.3,0.2-0.5,0.2-0.9,0.3l-0.3,0.1
		c-0.8,0.2-1.3,0.4-1.8,0.6c-1.3,0.4-2,0.7-5.1,1c-0.3,0-0.6,0.1-0.9,0.1c-0.6,0.1-1.1,0.1-1.7,0.1c-0.5,0-1,0-1.6-0.1
		c-3.1-0.4-5.3-1.6-5.8-2c-0.4-0.3-0.7-0.9-0.4-1.3C17.6,57.3,17.6,57.2,17.5,57.2z M24.3,49.4C24.3,49.4,24.3,49.5,24.3,49.4
		c-0.1,0-0.5,0-0.6-0.1c0,0-0.1,0-0.1,0c0,0,0.1,0,0.1,0c0.2,0.1,0.4,0.1,0.7,0.1L24.3,49.4z M34.7,55.2c-0.1,0-0.2-0.1-0.3-0.1
		c-0.1,0-0.1-0.1-0.2-0.1c-1.7-0.5-2.8-0.6-5.1-0.7c-0.4,0-0.8,0-1.3-0.1c-0.4,0-0.7,0-1,0c-0.8,0-1.3,0.1-2.1,0.3
		c-0.7,0.1-1.7,0.3-3.4,0.6c-0.9,0.1-1.5,0.3-2.1,0.5c-0.2,0-0.3,0.1-0.5,0.1c-0.3,0.1-0.6,0.2-0.9,0.2c0,0,0,0-0.1,0
		c-0.2,0.1-0.5,0.3-0.7,0.5c-0.1-2.7,0.6-7.1,0.8-7.5c0-0.1,0.1-0.1,0.1-0.2c0.1-0.2,0.1-0.3,0.2-0.7c0.3,0.3,0.6,0.4,0.9,0.6
		c0.3,0.1,0.7,0.3,1.1,0.6c0,0,0.1,0.1,0.1,0.1c0.1,0.1,0.2,0.2,0.4,0.2c0.1,0.1,0.3,0.1,0.5,0.1c0.1,0,0.1,0,0.1,0
		c0.1,0,0.3,0.1,0.4,0.2c0.2,0.1,0.4,0.2,0.7,0.2c0.1,0,0.1,0,0.1,0c0.1,0,0.2,0,0.5,0.1c0.1,0,0.3,0.1,0.5,0.2c0,0,0.8,0.2,0.9,0.2
		c0.3-0.1,0.4-0.3,0.5-0.4c0-0.1,0-0.2,0-0.2c-0.1-0.1-0.2-0.1-0.3-0.2c0.2,0,0.5,0,0.7,0c2.6,0,7-0.6,8.3-1.1
		c1.1-0.4,1.8-1.2,1.8-2.1c0-0.2-0.1-0.4-0.1-0.6c0.1,0.1,0.2,0.2,0.3,0.4c0.1,0.2,0.4,0.8,0.5,1.6c0.1,0.6,0.4,2.1,0.9,4.4l0,0.2
		c0.4,2.2,0.5,2.5,0.5,3.3c0,0.3,0,0.7,0.1,1.4C36.9,56.3,35.9,55.7,34.7,55.2z M33.6,47.3c-0.3,0.2-0.7,0.3-1.1,0.4
		c-0.1,0-0.2,0.1-0.3,0.1L31.7,48c-0.9,0.3-1,0.3-2.5,0.5c-0.3,0-0.6,0.1-0.9,0.1c-0.4,0-0.8,0.1-1.3,0.1c-0.3,0-0.7,0.1-1.1,0.1
		c-2.5,0-5.9-0.9-6.6-2c0-0.1-0.1-0.1-0.2-0.1c0,0,0,0,0,0c-0.1,0-0.1,0.1-0.2,0.1c-0.1,0.4,0.1,0.8,0.3,1c-0.4-0.2-0.5-0.5-0.7-0.7
		c0-0.1-0.1-0.2-0.1-0.2l-0.1-0.1c-0.1-0.1-0.1-0.1-0.1-0.2l0-0.1c0-0.1,0-0.2,0-0.3c0,0,0,0,0.1,0c0.1,0,0.1,0,0.2-0.1
		c0,0,0,0,0-0.1c0-0.1,0-0.1,0-0.3c0,0,0.1,0,0.1-0.1c0,0,0,0.1,0,0.1c0,0.1,0.1,0.1,0.2,0.1c0,0,0,0,0,0c0.8-0.2,1.4-0.4,2-0.6
		c1.2-0.4,2.4-0.8,4.8-1c0.6,0,1.2,0,1.8,0c1.9,0,3.6,0.2,5.1,0.6c1.1,0.3,1.7,0.8,1.8,1.4C34.5,46.6,34.2,47,33.6,47.3z M18.4,46
		C18.4,46,18.4,46,18.4,46L18.4,46L18.4,46C18.4,46,18.4,46,18.4,46z M16,56.4c-0.1,0-0.1,0-0.1,0l0,0c0.2-0.1,0.3-0.2,0.4-0.4
		c0,0.2,0,0.4,0,0.6C16.2,56.6,16.1,56.5,16,56.4z M5.3,52.9c0,0.1,0,0.2,0,0.3c0,0,0,0,0,0c0,0,0,0.2,0,0.8c0-0.2,0-0.3,0-0.5
		c0-0.4-0.1-0.7,0-2.5c0-0.2,0-0.3,0.1-0.4c0,0,0,0.1,0,0.1c0,0.1,0,0.2,0,0.4c0,0.4-0.1,0.9-0.1,1.3C5.2,52.7,5.2,52.8,5.3,52.9z
		 M5.3,49.3c0,0.1,0,0.2,0,0.4c0-0.1-0.1-0.2-0.1-0.3c0-0.1-0.1-0.1-0.1-0.1c0,0,0,0,0,0c0-0.1,0-0.2,0-0.3c0,0,0,0,0,0
		c0.1,0,0.2,0,0.3,0C5.3,49.1,5.3,49.2,5.3,49.3z M6.7,68.9c0-0.2-0.1-0.4,0-0.6c0,0,0-0.1,0-0.1c0-0.2,0.1-0.8-0.1-2
		c0-0.3,0-0.3,0-0.6l0-0.2c0-0.2,0-0.3,0-0.4c0-0.1,0-0.3-0.1-0.5c-0.1-1,0-1.3,0-1.5c0-0.2,0-0.2-0.1-0.6c0-0.1,0-0.2,0-0.4
		c0.3,0.1,0.5,0.2,0.9,0.2c0.2,0,0.5,0.1,0.9,0.1c0,0.8-0.2,4.1,0,6.1c-0.2,0-0.3,0.1-0.4,0.1c-0.1,0.1-0.2,0.1-0.3,0.2
		c0,0-0.1,0.1-0.1,0.1c0,0-0.1,0.1-0.1,0.1C7.1,68.9,7,69,6.9,69.1c0,0,0,0.1-0.1,0.2l-0.1,0.1c0,0,0,0,0,0
		C6.7,69.2,6.7,69,6.7,68.9z M3.2,48.6c0.1,0,0.2,0.1,0.2,0.1C3.3,48.7,3.2,48.6,3.2,48.6C3.1,48.6,3.1,48.6,3.2,48.6
		C3.1,48.6,3.1,48.6,3.2,48.6z M4.2,73.7c0.2,0,0.5,0,1,0c0,0,0,0,0,0c0.1,0,0.1,0,0.2-0.1c0-0.1,0-0.2,0-0.2c0,0,0,0,0,0
		c0.1-0.4,0-0.6,0-0.8c0,0,0-0.1,0-0.1c0-0.2,0-1.2,0-1.8c0-0.4,0.1-0.5,0.1-0.6c0.1-0.3,0.1-0.5,0-1.6c-0.1-0.7,0-2.2,0-3.8
		c0-1.7,0.1-3.5,0-4.4c0-0.5-0.1-0.9-0.1-1.3c-0.1-1-0.2-1.8-0.1-3.1c0-0.3,0-0.6,0-0.8c0,0.8,0,1.1,0,1.2c0,0.2,0,0.3,0.1,1l0,0.1
		c0.1,0.4,0.1,0.5,0,0.6c0,0,0,0.1,0,0.1c0,0.6,0,1.6,0.1,2.6c0.1,0.9,0.1,1.7,0.1,2c0,0.4,0,0.5,0,0.7c0,0.1,0.1,0.3,0.1,0.6
		c0,0.8,0.1,1.5,0.1,2.1c0.1,3.2,0.2,4.6,0,8.5c-0.1,0-0.2,0-0.3,0c-0.1,0-0.1,0-0.4-0.1c-0.1,0-0.2-0.1-0.4-0.1
		C4.4,74,4.2,74,4.2,74l-0.1,0c-0.1,0-0.1,0-0.3-0.1c-0.2-0.1-0.4-0.2-0.7-0.3c-0.1,0-0.3-0.1-0.3-0.1c0,0-0.1,0-0.1-0.1
		c-0.1-0.1-0.1-0.1-0.2-0.1c0.1,0,0.2,0.1,0.3,0.1c0.1,0,0.2,0.1,0.2,0.1c0.5,0.2,0.6,0.2,0.7,0.3c0.1,0,0.1,0,0.2,0
		c0,0,0.1,0,0.1,0C4.1,73.7,4.1,73.7,4.2,73.7z M1.1,47.4L1.1,47.4L1.1,47.4C1.1,47.4,1.1,47.4,1.1,47.4z M1.5,48.8l0.2,0.1
		c0.2,0.1,0.2,0.1,0.3,0.2c0.2,0.2,0.3,0.3,0.5,0.3c0,0,0.1,0,0.2,0c0.1,0,0.1,0,0.1,0.1c0.2,0.1,0.3,0.1,0.9,0.2c0.1,0,0.2,0,0.3,0
		c0.1,0,0.2,0,0.3,0c0,0,0,0,0.1,0c0,0,0,0,0,0c0.4,0,0.4-0.1,0.4-0.1c0,0,0,0,0,0c-0.2,0.6-0.2,0.9-0.3,1.3l0,0.1
		c-0.1,0.8-0.1,4-0.1,4.5c0,0.8,0.1,1.5,0.1,2.2c0.1,1.1,0.2,2.2,0.1,3.8c-0.1,1.7-0.1,1.9,0,2.2c0,0.2,0.1,0.4,0.1,0.8
		c0,0.4,0,0.9,0,1.3c0,0.5-0.1,1.1,0,1.7c0.1,0.5,0,0.8,0,2.1l0,0.9c0,0.7,0,1.9,0,1.9l0,0.1c0,0.1,0,0.3,0,0.5l0,0
		c-0.1,0-1.1-0.4-1.1-0.4c-0.1,0-0.3-0.1-0.4-0.2c-0.4-0.1-0.8-0.3-1.2-0.5c-0.5-4.3-0.5-9.7-0.5-15c0-2.8,0-5.7-0.1-8.4
		C1.2,48.7,1.3,48.7,1.5,48.8z M21.5,61.1c1.4,0.4,1.7,0.5,2.8,0.5l0.5,0c0.2,0,0.5,0,0.8,0l0.2,0c0,0,0,0,0,0c3.8-0.1,6-0.7,10-1.7
		c0.6-0.2,1.4-0.7,1.9-1.1c0.1,2-0.3,4-1.2,5.6c-0.1,0-0.1,0.1-0.2,0.1c-0.1,0-0.1,0.1-0.1,0.2c0,0,0,0.1,0,0.1
		c-1.2,2-3.7,3.9-5.3,4.5c-0.9,0.3-1.9,0.5-3,0.5c-2.5,0-5.1-1-6.9-2.8c-2.4-2.2-3.2-5.1-3.6-7.7C18.6,60.2,20.9,61,21.5,61.1z
		 M14.7,1.9c-1,0-1.3,0.2-1.6,0.3c-0.3,0.1-0.5,0.2-1.1,0.2l-0.2,0l-0.2,0l-0.3,0c-0.1,0-0.2,0-0.3,0c-0.1,0-0.2,0-0.2,0
		c-0.1,0-0.2,0-0.4,0c-0.2,0-0.4,0-0.7-0.1l-0.2,0C9,2.2,8.7,2.2,8.2,1.9C8.1,1.9,8,1.8,7.9,1.8c0-0.1,0-0.1,0-0.1
		c0-0.1,0-0.1,0-0.1c0,0,0,0,0,0c0,0,0,0,0.1,0c0.1,0,0.1,0,0.2,0c0.1,0,0.1,0,0.2,0c0,0,0,0,0,0c0,0,1.2-0.2,1.6-0.3
		c0.2,0,0.6,0,1,0c1.7,0,3.7,0.2,4,0.6c0,0,0,0.1,0,0.1C15.1,1.9,15,1.9,14.7,1.9z M21.3,68.8L21.3,68.8
		C21.3,68.9,21.3,68.9,21.3,68.8c0,0,0-0.1-0.1-0.2c0-0.1-0.1-0.1-0.1-0.1c0,0-0.1,0-0.1,0c-0.1,0-0.1,0-0.2,0
		c-0.1,0-0.1,0.1-0.2,0.1c-0.1,0-0.2,0.1-0.3,0.1c0,0-0.1,0-0.1,0c0,0-0.1,0-0.2-0.1c0,0,0,0,0,0c-0.2,0-0.3,0.1-0.4,0.2
		c-0.1,0.1-0.3,0.1-0.5,0.2c0-0.1,0-0.2,0-0.2c0-0.1,0-0.2,0-0.4c0-0.2,0-0.3-0.1-0.5c-0.1-0.3-0.1-0.5,0-0.9c0.1-0.3,0-0.4,0-0.5
		c0-0.1-0.1-0.1,0-0.2c0,0,0-0.1,0-0.2c0,0,0,0,0,0c0.7,0.9,1.4,1.7,2.2,2.3C21.3,68.6,21.3,68.7,21.3,68.8z"/>
</g>
</svg>
