<?xml version="1.0" encoding="utf-8"?>
<!-- Generator: Adobe Illustrator 23.0.3, SVG Export Plug-In . SVG Version: 6.00 Build 0)  -->
<svg version="1.1" id="Ebene_1" xmlns="http://www.w3.org/2000/svg" xmlns:xlink="http://www.w3.org/1999/xlink" x="0px" y="0px"
	 viewBox="0 0 288.51 160.69" style="enable-background:new 0 0 288.51 160.69;" xml:space="preserve">
<style type="text/css">
	.st0{fill:#7F7775;}
</style>
<g>
	<g>
		<polygon class="st0" points="200.95,127.36 194.86,121.45 184.32,127.39 177.42,121.43 170.16,127.23 165.02,122.08 
			155.05,127.39 147.55,121.45 138.61,127.36 132.64,121.28 124.87,128.29 126.86,129.96 132.61,126.03 138.31,130.55 
			147.34,126.24 154.78,130.4 164.53,126.88 170.12,130.55 177.4,126.4 183.88,130.41 194.4,126.24 200.71,130.54 209.33,126.39 
			215.49,129.94 217.52,128.28 209.37,121.44 		"/>
		<path class="st0" d="M78.08,98.9c0-0.1-0.03-0.2-0.11-0.35l-0.07-0.14c-0.03-0.06-0.07-0.12-0.13-0.16
			c-0.08-0.06-0.14-0.11-0.11-0.1c0-0.05,0-0.09,0-0.13l0.14-0.14c0.09-0.11,0.13-0.25,0.13-0.41c0-0.06-0.02-0.24-0.06-0.49
			l-0.02-0.39l-0.12-0.44c0-0.57-0.04-0.72-0.09-0.86c-0.07-0.13-0.17-0.26-0.31-0.4c0.06-0.1,0.08-0.22,0.05-0.34
			c-0.04-0.14-0.13-0.3-0.29-0.51c-0.05-0.15-0.13-0.3-0.23-0.45c-0.02-0.03-0.06-0.11-0.12-0.23c-0.07-0.15-0.21-0.24-0.37-0.25
			c-0.06-0.05-0.12-0.1-0.19-0.14c0.02-0.11,0-0.23-0.06-0.33l-0.24-0.36c-0.07-0.1-0.18-0.21-0.41-0.38
			c-0.85-0.63-0.89-0.64-1.06-0.63c-0.06-0.08-0.12-0.14-0.2-0.19c-0.11-0.07-0.29-0.14-0.55-0.21c-0.02-0.01-0.05-0.01-0.08-0.01
			c-0.06-0.06-0.13-0.11-0.22-0.14l-0.53-0.15c-0.24-0.11-0.4-0.17-0.55-0.18c-0.11,0-0.19-0.01-0.25-0.02
			c-0.02-0.03-0.06-0.06-0.1-0.11c-0.02-0.02-0.1-0.1-0.12-0.11c-0.09-0.08-0.21-0.11-0.32-0.1l-0.75,0.06
			c-0.07-0.02-0.19-0.05-0.37-0.1c-0.08-0.02-0.24-0.05-0.74-0.07c-0.04,0-0.08,0-0.13-0.01c-0.14-0.01-0.26-0.02-0.34-0.02
			c-0.04,0-0.17,0.02-0.37,0.06l-0.77,0.09c-0.42,0.02-0.74,0.05-0.99,0.1c-0.27,0.07-0.53,0.18-0.69,0.28l-1.16,0.5
			c-0.05,0.03-0.1,0.07-0.18,0.16c-0.11,0.04-0.24,0.1-0.36,0.23c0,0-0.05,0.04-0.19,0.11c-0.54,0.22-0.65,0.31-0.7,0.37
			c-0.08,0.07-0.14,0.17-0.19,0.29c-0.14,0.05-0.28,0.12-0.42,0.22c-0.06,0.04-0.11,0.12-0.13,0.2c-0.09,0.01-0.23,0.05-0.29,0.1
			c-0.09,0.06-0.14,0.14-0.25,0.33c-0.3,0.23-0.49,0.39-0.6,0.51c-0.14,0.15-0.23,0.3-0.28,0.47c-0.06,0.03-0.11,0.06-0.16,0.12
			c-0.16,0.19-0.39,0.5-0.67,0.92c-0.07,0.1-0.22,0.39-0.43,0.82c-0.36,0.55-0.64,1.18-0.83,1.84l-0.17,0.43
			c-0.03,0.07-0.05,0.15-0.07,0.38c-0.01,0.07,0,0.14,0.03,0.2c-0.16,0.19-0.25,0.42-0.26,0.72c0,0.28-0.01,0.44-0.02,0.51
			c-0.02,0.22-0.03,0.34-0.03,0.38c0.01,0.89,0.08,1.21,0.13,1.35c0.03,0.11,0.05,0.26,0.05,0.45c0.02,0.38,0.14,0.61,0.29,0.74
			c-0.05,0.09-0.09,0.19-0.09,0.3c0,0.11,0.03,0.23,0.25,0.77l0.38,0.61c0.11,0.22,0.18,0.35,0.23,0.43
			c0.03,0.06,0.07,0.11,0.12,0.14c0.02,0.02,0.04,0.03,0.06,0.05c0,0.04,0,0.08,0.01,0.13c0,0.11,0.05,0.22,0.14,0.3
			c0.05,0.04,0.13,0.15,0.26,0.31c0.18,0.24,0.36,0.45,0.63,0.45c0.04,0,0.07,0,0.12-0.02c0.03,0.01,0.06,0.02,0.09,0.03
			c0.01,0.03,0.03,0.06,0.04,0.09c0,0,0.01,0.04,0.02,0.13c0.01,0.12,0.11,0.25,0.22,0.32c0.02,0.14,0.1,0.25,0.22,0.32
			c0.14,0.08,0.37,0.22,0.71,0.42c0.32,0.18,0.54,0.31,0.68,0.42c0.12,0.09,0.28,0.11,0.42,0.06c0.16,0.19,0.4,0.23,0.58,0.18
			c0,0,0,0,0.01,0c0.06,0.1,0.14,0.18,0.23,0.22c0.11,0.06,0.24,0.08,0.42,0.07l1,0.24c0.04,0.01,0.08,0.02,0.12,0.02
			c0.02,0,0.03,0,0.05,0l1.46-0.16c0.02,0,0.11-0.02,0.13-0.03l2.2-0.57l2.29-1.07l1.74-1.03c0.13-0.07,0.27-0.18,0.43-0.34
			c0.16-0.17,0.26-0.28,0.32-0.32c0.24-0.17,0.38-0.27,0.44-0.33c0.04-0.05,0.21-0.26,0.47-0.6c0.34-0.33,0.7-0.76,1.08-1.28
			c0.22-0.31,0.32-0.5,0.34-0.67c0.14-0.09,0.21-0.26,0.19-0.42c0.03-0.04,0.06-0.08,0.08-0.12c0.05-0.08,0.1-0.22,0.17-0.59
			l0.15-0.45c0.16-0.52,0.19-0.68,0.19-0.8c0-0.11-0.01-0.3-0.02-0.57l0.01-0.19C78.07,99.03,78.08,98.96,78.08,98.9z M75.4,101.88
			c-0.08,0.14-0.17,0.33-0.25,0.56l-0.26,0.41l-0.17,0.35l-0.59,0.73l-0.26,0.2c-0.54,0.44-0.72,0.57-0.78,0.6
			c-0.12,0.07-0.2,0.19-0.22,0.33l0,0c-0.02,0.01-0.04,0.03-0.05,0.05c-0.09-0.02-0.18-0.01-0.27,0.03
			c-0.4,0.18-0.54,0.28-0.58,0.32c-0.13,0.09-0.22,0.15-0.24,0.16c-0.15,0.05-0.48,0.17-0.56,0.46c-0.08,0-0.16,0.03-0.23,0.07
			c-0.1,0.07-0.34,0.19-0.73,0.38l-0.17,0.1c-0.49,0-0.52,0.01-0.61,0.03c-0.06,0.02-0.21,0.08-0.47,0.19l-0.33,0.05
			c-0.13,0.05-0.23,0.08-0.29,0.11c-0.08-0.1-0.25-0.15-0.4-0.15c-0.08,0-0.17,0.01-0.23,0.04c-0.15-0.01-0.29-0.02-0.46,0.01
			l-0.05,0.01c-0.04-0.01-0.08-0.03-0.15-0.06c-0.07-0.03-0.29-0.07-0.63-0.14c-0.32-0.08-0.51-0.12-0.63-0.13
			c-0.13-0.09-0.26-0.16-0.4-0.22c-0.04-0.02-0.12-0.06-0.23-0.12c-0.14-0.09-0.26-0.14-0.36-0.18c-0.03-0.1-0.09-0.18-0.18-0.24
			c-0.13-0.09-0.24-0.17-0.32-0.25c-0.1-0.1-0.24-0.16-0.38-0.14c0-0.01,0-0.02,0.01-0.03c0.05-0.18-0.03-0.38-0.19-0.48
			c-0.19-0.12-0.36-0.25-0.54-0.42l-0.22-0.22c-0.08-0.16-0.22-0.24-0.4-0.24c0-0.12-0.04-0.24-0.13-0.33
			c-0.02-0.02-0.04-0.05-0.06-0.08c-0.04-0.14-0.11-0.26-0.22-0.38c-0.03-0.03-0.1-0.11-0.17-0.3c-0.04-0.1-0.11-0.19-0.21-0.24
			c0-0.01,0-0.03,0-0.04c0-0.09-0.05-0.26-0.1-0.33c-0.1-0.15-0.18-0.26-0.22-0.33l0-0.23l-0.06-0.31
			c-0.04-0.21-0.12-0.41-0.29-0.65l0.02-0.35c0-0.06-0.01-0.09-0.06-0.3v-1.82c0-0.01,0-0.02,0-0.04c0.1-0.22,0.15-0.35,0.15-0.35
			l0,0c0.02-0.07,0.04-0.15,0.05-0.37l0.04-0.07c0.03-0.04,0.04-0.09,0.05-0.14l0.07-0.34l0.11-0.14c0.03-0.04,0.05-0.08,0.07-0.12
			c0.25-0.71,0.33-0.85,0.33-0.86c0.38-0.66,0.47-0.78,0.48-0.79c0.09-0.11,0.16-0.23,0.22-0.37c0.54-0.56,0.57-0.61,0.58-0.62
			c0.04-0.05,0.09-0.13,0.15-0.24c0.23-0.13,0.5-0.33,0.82-0.63c0.22-0.2,0.44-0.33,0.66-0.41c0.14-0.05,0.25-0.17,0.28-0.31
			c0.07-0.03,0.15-0.07,0.24-0.11c0.08-0.03,0.14-0.08,0.19-0.15c0.09-0.03,0.17-0.08,0.23-0.16c0.02-0.02,0.03-0.05,0.04-0.06
			l0.29-0.05c0.04-0.01,0.08-0.02,0.11-0.03l0.47-0.22l0.4-0.07c0.18-0.03,0.28-0.05,0.29-0.05c0.08,0,0.18,0.01,0.3,0.02
			c0.31,0.04,0.49,0.03,0.65,0c0.21-0.04,0.36-0.07,0.44-0.08c0.03,0.01,0.08,0.03,0.13,0.05c0.08,0.03,0.16,0.04,0.24,0.02
			c0.03,0,0.06,0,0.1-0.01c0.11-0.02,0.2-0.03,0.25-0.04c0.08,0.02,0.23,0.07,0.5,0.16c0.18,0.02,0.32,0.05,0.41,0.08
			c0.11,0.04,0.23,0.03,0.34-0.02c0.04,0.07,0.1,0.13,0.17,0.18c0.39,0.22,0.67,0.32,0.9,0.32h0c0.1,0.07,0.23,0.13,0.38,0.13
			c0.1,0.11,0.22,0.2,0.37,0.29c0.38,0.21,0.6,0.33,0.61,0.34c0.03,0.03,0.12,0.11,0.26,0.24c0.21,0.21,0.31,0.33,0.36,0.4
			c0.07,0.11,0.19,0.18,0.32,0.19c0,0.01,0,0.02,0,0.03c-0.01,0.13,0.05,0.26,0.15,0.35c0.1,0.08,0.25,0.27,0.47,0.78l0.42,0.73
			l0.14,0.75c0,0.15,0.07,0.27,0.16,0.38c0.01,0.12,0.03,0.27,0.06,0.43c0.05,0.28,0.07,0.45,0.08,0.51c0,0.04-0.01,0.12-0.02,0.21
			c-0.02,0.17,0.05,0.33,0.19,0.42c-0.1,0.09-0.16,0.23-0.14,0.38c0.03,0.23,0.23,0.39,0.47,0.37c0.07-0.01,0.14-0.01,0.2-0.01
			l-0.07,0.13l-0.18,0.02c-0.2,0.02-0.36,0.17-0.38,0.37c-0.02,0.14,0.03,0.28,0.13,0.37c-0.03,0.06-0.04,0.12-0.04,0.19l0.01,0.28
			c-0.06,0.34-0.08,0.52-0.08,0.54c0,0.02,0,0.03,0,0.05c-0.16,0.09-0.29,0.27-0.29,0.55C75.39,101.81,75.4,101.85,75.4,101.88z"/>
		<path class="st0" d="M58.34,101.58c-0.11-0.41-0.17-0.65-0.21-0.74c-0.07-0.17-0.17-0.34-0.32-0.54
			c-0.01-0.01-0.02-0.02-0.03-0.03c0.04-0.11,0.03-0.24-0.03-0.35c-0.08-0.13-0.21-0.33-0.39-0.54c-0.15-0.21-0.24-0.32-0.25-0.34
			c-0.03-0.03-0.06-0.06-0.09-0.08c-0.03-0.02-0.09-0.05-0.16-0.1l-0.07-0.09c-0.03-0.04-0.06-0.08-0.1-0.11
			c-0.55-0.41-0.75-0.54-0.87-0.59c-0.01-0.01-0.02-0.03-0.03-0.04c-0.16-0.21-0.3-0.35-0.44-0.45c-0.21-0.15-0.55-0.37-1.03-0.69
			c-0.45-0.28-0.75-0.38-1.03-0.28c-0.03-0.01-0.07-0.01-0.1-0.01l-0.07-0.03c-0.07-0.14-0.18-0.3-0.35-0.33L52.17,96
			c-0.19-0.08-0.39-0.12-0.58-0.13c-0.06,0-0.11,0.01-0.16,0.02c-0.02-0.02-0.05-0.04-0.07-0.05c-0.18-0.1-0.35-0.16-0.49-0.18
			c-0.17-0.04-0.41-0.12-0.72-0.22c-0.03-0.01-0.07-0.02-0.1-0.03c0.11-0.06,0.23-0.12,0.34-0.19c0.04-0.02,0.14-0.07,0.29-0.16
			c0.09-0.05,0.16-0.14,0.19-0.24h0.01c0.14,0,0.27-0.07,0.35-0.18c0.05-0.06,0.18-0.22,0.59-0.57c0.03-0.03,0.06-0.06,0.08-0.1
			l0.24-0.39c0.37-0.54,0.55-0.99,0.55-1.36c0-0.34-0.1-0.62-0.29-0.85c-0.09-0.1-0.24-0.19-0.67-0.32
			c-1.18-0.45-1.16-0.41-1.41-0.39c-0.09-0.06-0.18-0.1-0.27-0.13c-0.03-0.01-0.14-0.02-0.29-0.03l-0.6-0.07l-0.25,0.01
			c-0.45-0.08-0.82-0.13-1.14-0.14c-0.23-0.01-0.48-0.03-0.77-0.06c-0.1-0.01-0.2,0.01-0.28,0.06c-0.08,0.05-0.17,0.08-0.27,0.11
			c-0.04,0.01-0.07,0.02-0.11,0.04c-0.09-0.15-0.27-0.23-0.44-0.2c-0.14,0.02-0.23,0.04-0.27,0.04c-0.04,0-0.08-0.01-0.15-0.03
			c-0.22-0.06-0.4-0.1-0.53-0.1c-0.02,0-0.1,0.01-0.12,0.01c-0.32,0.04-0.51,0.07-0.56,0.07c-0.39,0-0.44,0.01-0.57,0.05
			c-0.31,0.14-0.4,0.16-0.46,0.14c-0.19-0.03-0.29-0.05-0.31-0.05c-0.08,0-0.17,0.02-0.41,0.08c-0.03,0.01-0.09,0.02-0.19,0.04
			c-0.1,0.02-0.19,0.09-0.25,0.18c-0.03,0.02-0.05,0.03-0.09,0.05c-0.2,0.07-0.28,0.29-0.41,0.62c-0.04,0.11-0.04,0.23,0.01,0.34
			c0.05,0.11,0.14,0.19,0.25,0.22c0.1,0.03,0.16,0.05,0.34,0.04l0.28-0.06c0.01,0.2,0.04,0.45,0.09,0.77l0.05,0.29
			c0.03,0.12,0.05,0.22,0.05,0.32c0,0.12,0.05,0.24,0.14,0.32c0,0,0.01,0.01,0.02,0.01c-0.01,0.03-0.01,0.07-0.01,0.1
			c-0.08,0.15-0.12,0.31-0.12,0.46c0,0.07,0.01,0.17,0.14,0.88l-0.03,0.38c0,0.04,0,0.08,0.01,0.12l0.04,0.81
			c-0.03,0.14-0.04,0.23-0.04,0.3c0,0.18,0.05,0.38,0.17,0.65c0.03,0.07,0.07,0.12,0.13,0.17c-0.1,0.09-0.16,0.22-0.15,0.36
			l0.02,0.3c-0.03,0.07-0.03,0.14-0.02,0.21c0.04,0.29,0.06,0.47,0.06,0.52l-0.06,0.72c0,0.09,0.02,0.17,0.06,0.23l0,0.58
			l-0.07,0.75c0,0.13,0.02,0.3,0.08,0.52c0.02,0.1,0.06,0.22,0.13,0.34c-0.08,0.15-0.13,0.29-0.13,0.44c0,0.02,0.01,0.15,0.01,0.17
			c0.02,0.16,0.04,0.3,0.05,0.43c0,0.02,0.01,0.04,0.01,0.06c-0.02,0.04-0.04,0.08-0.05,0.12c-0.05,0.18-0.07,0.28-0.04,0.34
			l-0.09,0.11c-0.09,0.11-0.13,0.26-0.09,0.4c0.02,0.07,0.06,0.14,0.11,0.19c-0.05,0.05-0.1,0.11-0.12,0.17
			c-0.04,0.11-0.04,0.23,0.02,0.34c0.08,0.17,0.1,0.24,0.11,0.23l-0.01,0.53c-0.09,0.18-0.12,0.27-0.12,0.37
			c0,0.14,0.03,0.26,0.09,0.36c-0.06,0.08-0.09,0.18-0.08,0.29l0.04,0.2l-0.7,0.27c-0.17,0.07-0.34,0.18-0.43,0.28
			c-0.12,0.08-0.23,0.28-0.23,0.43c0,0.19,0.09,0.64,0.9,0.64c0.05,0,0.22-0.01,0.48-0.05c0.01,0,0.03,0,0.03,0l1.23,0.06l0.17-0.02
			l0.48,0.03c0.07,0,0.15,0.03,0.25,0.07c0.06,0.02,0.12,0.03,0.18,0.03l0.18-0.01l0.05,0.02c0.03,0.02,0.07,0.03,0.1,0.04
			l0.41,0.09c0.31,0.07,0.31,0.07,0.36,0.07c0.08,0,0.16-0.02,0.45-0.11c0.06,0.07,0.14,0.13,0.23,0.15l0.38,0.1
			c0.04,0.01,0.07,0.01,0.11,0.01c0,0,0.01,0,0.01,0l1.75-0.05c0.13,0,0.24-0.06,0.32-0.16l0.05,0.05c0.14,0.13,0.34,0.15,0.5,0.06
			c0.05-0.03,0.18-0.09,0.43-0.13c0.12-0.01,0.27-0.05,0.43-0.17c0.05,0.01,0.11,0.03,0.17,0.05c0.11,0.03,0.23,0.02,0.33-0.04
			l0.21-0.12c0.05-0.02,0.13-0.03,0.24-0.05l0.25-0.05c0.1-0.02,0.19-0.08,0.26-0.16c0.15,0.05,0.31,0.04,0.53-0.08
			c0.05-0.02,0.17-0.07,0.38-0.15l0.27-0.11c0.55-0.26,0.7-0.29,0.71-0.29c0.6-0.11,0.84-0.2,0.97-0.38
			c0.08-0.11,0.13-0.23,0.13-0.35c0.09,0.03,0.19,0.02,0.28-0.01c0.55-0.21,0.92-0.46,1.16-0.79c0.05-0.08,0.08-0.15,0.1-0.19
			c0.05-0.03,0.13-0.09,0.25-0.17l0.37-0.3c0.04-0.03,0.07-0.06,0.1-0.1c0.65-0.88,0.65-0.92,0.65-1.08c0-0.04,0-0.12-0.02-0.28
			c0-0.04,0-0.09,0.01-0.15c0-0.05,0-0.1-0.02-0.15c0.13-0.19,0.2-0.36,0.21-0.53l0-0.31l0.03-0.4
			C58.55,102.16,58.52,101.96,58.34,101.58z M50.12,107.2c-0.08-0.03-0.16-0.04-0.25-0.02c-0.59,0.12-1.05,0.19-1.37,0.19
			c-0.4,0-0.96-0.05-1.66-0.16l-0.22-0.03l-0.33-0.13c-0.22-0.04-0.41-0.1-0.57-0.18c-0.1-0.05-0.22-0.05-0.32-0.02
			c-0.07-0.04-0.15-0.07-0.22-0.09c0.04-0.1,0.06-0.19,0.06-0.29c0-0.06,0-0.07-0.13-0.78l-0.39,0.07l-0.03,0c0,0,0,0,0,0l0.45-0.08
			c0.02-0.12,0.02-0.22,0.02-0.35c0-0.16-0.04-0.34-0.11-0.54c0.02-0.02,0.04-0.03,0.06-0.05c0.09-0.09,0.14-0.21,0.14-0.34
			c-0.01-0.11-0.01-0.19-0.01-0.23l0.01-0.61c0-0.19-0.08-0.37-0.23-0.54c0.04-0.05,0.07-0.12,0.08-0.19
			c0.06-0.31,0.09-0.53,0.09-0.66c0-0.09-0.02-0.28-0.06-0.5l-0.03-0.53l-0.07-0.27l0.06-0.64c0.01-0.16,0.02-0.28,0.02-0.37
			c0-0.1-0.01-0.22-0.02-0.36c-0.04-0.21-0.06-0.35-0.06-0.48l0-0.24c0-0.08,0.01-0.14,0.03-0.21c0.04-0.14,0-0.29-0.1-0.4
			c0,0-0.01-0.01-0.01-0.01c0.07-0.05,0.13-0.12,0.16-0.21c0.08-0.21,0.11-0.36,0.11-0.48c0-0.03-0.01-0.14-0.02-0.17
			c-0.03-0.15-0.06-0.28-0.07-0.39c0.12-0.08,0.24-0.12,0.33-0.12l0.77,0.03l0.44-0.02c0.04,0,0.21,0.02,0.52,0.05l2.14,0.52
			c0.11,0.04,0.19,0.04,0.45-0.06c0.07,0.04,0.15,0.07,0.23,0.1l0.64,0.33l0.74,0.22l0.23,0.11c0.12,0.04,0.24,0.1,0.36,0.17
			c0.22,0.12,0.42,0.18,0.66,0.11c0.04,0.07,0.06,0.1,0.1,0.13c0.04,0.04,0.1,0.09,0.25,0.17l0.19,0.12
			c0.03,0.02,0.07,0.04,0.11,0.05c0.08,0.02,0.15,0.06,0.23,0.12c0.06,0.04,0.11,0.08,0.15,0.1c0.07,0.1,0.14,0.18,0.23,0.24
			c0.05,0.03,0.2,0.11,0.44,0.25c0.12,0.06,0.25,0.12,0.37,0.18c0,0,0.01,0,0.01,0c0,0.11,0.05,0.22,0.13,0.3
			c0.53,0.52,0.74,0.77,0.84,0.9c0.44,0.56,0.46,0.71,0.47,0.7l-0.01,0.26c0,0.08,0.02,0.16,0.06,0.23l0.12,0.22v0.33
			c0,0.03,0,0.06,0.01,0.1c-0.03,0.07-0.05,0.14-0.05,0.22c0,0.03,0,0.06,0,0.08c-0.01,0.03-0.02,0.08-0.04,0.14l-0.1,0.43
			c-0.03,0.06-0.08,0.16-0.15,0.29c-0.07,0.13-0.07,0.28,0,0.4c0,0,0,0.01,0.01,0.01c0,0.01-0.01,0.02-0.01,0.03
			c-0.16,0.07-0.27,0.15-0.36,0.25c-0.04,0.05-0.14,0.16-0.32,0.4c-0.04,0.07-0.06,0.12-0.09,0.16c-0.62,0.33-0.73,0.41-0.8,0.47
			c-0.17,0.15-0.54,0.41-1.29,0.73c-0.07,0.03-0.14,0.06-0.2,0.09c-0.15-0.01-0.3,0.04-0.5,0.14c-0.16,0.08-0.35,0.15-0.6,0.2
			l-0.51,0.13c-0.06,0.01-0.16,0.02-0.32,0.02c-0.11,0-0.21,0.05-0.29,0.12c-0.05,0.05-0.09,0.08-0.09,0.08l-0.39,0.05
			C50.18,107.17,50.15,107.18,50.12,107.2z M48.02,91.81l0.18-0.03l1.01,0.23c0.06,0.09,0.15,0.15,0.26,0.18
			c0.16,0.04,0.29,0.06,0.4,0.07l0.26,0.28c0.07,0.07,0.16,0.12,0.25,0.13c0.01,0.03,0.03,0.05,0.05,0.07
			c-0.02,0.06-0.05,0.13-0.08,0.22l-0.14,0.4c-0.05,0.06-0.14,0.15-0.26,0.27c-0.09,0.08-0.31,0.25-0.85,0.56l-0.27,0.18l-0.4,0.15
			c-0.2,0.13-0.28,0.16-0.25,0.16l-1.63,0.33c-0.08,0.02-0.16,0.06-0.21,0.11c-0.05-0.03-0.11-0.05-0.17-0.05
			c-0.27-0.03-0.53-0.04-0.74-0.05c-0.23-0.04-0.36-0.05-0.42-0.05c0,0-0.01,0-0.01,0l-0.09,0v-1.4c0-0.12-0.05-0.24-0.15-0.33
			c-0.05-0.05-0.09-0.1-0.13-0.17c0.06-0.1,0.09-0.2,0.1-0.31l0.05-0.86c0.12-0.01,0.26-0.03,0.39-0.06l1.37-0.17l1.01,0.12l0.2,0
			l0.17,0.02C47.95,91.82,47.98,91.82,48.02,91.81z"/>
		<path class="st0" d="M95.63,96.5l-0.14-0.46l-0.02-0.41c0-0.04-0.01-0.09-0.02-0.13l-0.21-0.58l-0.05-0.21
			c-0.02-0.22-0.2-0.4-0.32-0.53c-0.19-0.18-0.33-0.33-0.44-0.45c-0.07-0.09-0.17-0.14-0.28-0.16c0.01-0.17-0.08-0.33-0.24-0.4
			c-0.12-0.06-0.28-0.17-0.51-0.34l-0.77-0.54c-0.06-0.04-0.16-0.11-0.28-0.2c-0.06-0.04-0.12-0.07-0.19-0.08L92.02,92l0.01-0.02
			c-0.1-0.07-0.24-0.14-0.99-0.29l-0.83-0.35c-0.09-0.04-0.2-0.05-0.29-0.02l-0.05,0.01c-0.03-0.02-0.08-0.05-0.15-0.09
			c-0.23-0.14-0.38-0.2-0.52-0.2c0,0,0,0,0,0l-0.25-0.01c-0.27-0.08-0.34-0.12-0.58,0.06c-0.07-0.09-0.18-0.15-0.3-0.16
			c-0.13-0.01-0.28-0.03-0.54-0.09l-1.66-0.17c-0.12,0-0.25-0.01-0.41-0.02c-0.09-0.01-0.2,0.04-0.29,0.11
			c-0.07-0.05-0.16-0.08-0.25-0.08c-0.03,0-0.06,0-0.09,0c-0.33-0.04-0.65-0.06-0.97-0.06c-0.08,0-0.16,0.02-0.23,0.07
			c-0.12-0.07-0.26-0.13-0.39-0.11l-1.76,0.05c-0.07,0-0.13,0.02-0.19,0.04c-0.29-0.12-0.37-0.14-0.49-0.15l-0.93,0.01
			c-0.12,0-0.23,0.05-0.32,0.14c-0.07,0.08-0.12,0.11-0.14,0.13c-0.12,0.02-0.26,0.08-0.33,0.17c-0.43,0.2-0.49,0.52-0.49,0.7
			c0,0.12,0.03,0.25,0.1,0.38c0.07,0.15,0.22,0.25,0.39,0.25c0.21,0,0.36-0.02,0.49-0.07c0.02,0.19,0.04,0.33,0.04,0.42
			c0,0.21,0.03,0.41,0.07,0.51l0.03,0.4c0.09,0.37,0.15,0.62,0.16,0.74c0.01,0.11,0.1,0.23,0.2,0.31c-0.02,0.01-0.03,0.03-0.05,0.04
			c-0.09,0.09-0.13,0.2-0.13,0.32l0.07,1.7l-0.06,0.59c0.02,0.18,0.1,0.33,0.22,0.43c-0.05,0.12-0.07,0.22-0.07,0.32
			c0,0.06,0,0.14,0.01,0.25c0.01,0.14,0.02,0.38,0.02,0.71v0.24c0,0.13,0.02,0.25,0.07,0.36c-0.03,0.06-0.04,0.12-0.04,0.18v0.26
			c0,0.07,0.02,0.15,0.05,0.21c-0.04,0.1-0.05,0.19-0.05,0.28c0,0.02,0,0.07,0.02,0.2c0,0.01,0.01,0.05,0.01,0.12l0,1.17l-0.02,0.26
			c0,0.25,0.07,0.42,0.15,0.53c-0.02,0.03-0.04,0.06-0.05,0.09c-0.07,0.13-0.06,0.29,0.02,0.42l0.4,0.65l-0.18,0.05
			c-0.12,0.03-0.22,0.12-0.27,0.23c-0.05,0.11-0.06,0.24-0.01,0.36c0.06,0.14,0.07,0.19,0.06,0.21c-0.14,0.59-0.14,0.6-0.14,0.66
			c0,0.04,0.01,0.09,0.02,0.13l0.03,0.1c0.01,0.04,0.02,0.08,0.02,0.05l-0.12,0.75c0,0.07,0,0.17,0.01,0.31
			c-0.05,0.08-0.08,0.17-0.11,0.26c-0.07,0.03-0.16,0.07-0.3,0.12c-0.37,0.14-0.44,0.18-0.46,0.19c-0.18,0.1-0.29,0.28-0.29,0.49
			c0,0.39,0.27,0.66,0.67,0.66c0.06,0,0.12-0.01,0.15-0.04l1.28-0.06c0.1,0.01,0.23,0.03,0.4,0.03l0.22,0.01l3.2-0.37l0.84-0.29
			c0.21-0.06,0.37-0.1,0.52-0.11c0.19-0.03,0.45-0.12,0.9-0.33l0.08-0.04c0.39-0.13,0.47-0.18,0.52-0.22
			c0.04-0.03,0.07-0.05,0.1-0.07h0.09c0.17,0,0.19-0.02,0.59-0.37c0.55-0.14,0.61-0.17,0.72-0.24c0.04-0.03,0.07-0.07,0.1-0.1
			c0.15,0.06,0.34,0.03,0.46-0.09c0.1-0.09,0.17-0.16,0.19-0.18l0.66-0.34c0.32-0.22,0.54-0.4,0.66-0.52
			c0.03-0.03,0.06-0.07,0.08-0.1c0.15,0.03,0.31-0.03,0.41-0.15c0.05-0.06,0.12-0.12,0.2-0.17c0.25-0.16,0.45-0.32,0.61-0.47
			c0.04-0.04,0.07-0.1,0.09-0.16c0.24,0.01,0.4-0.16,0.54-0.32l0.26-0.31c0.03-0.04,0.06-0.08,0.08-0.13l0.37-0.43
			c0.04-0.05,0.08-0.1,0.1-0.16l0.24-0.35c0.2-0.42,0.3-0.58,0.34-0.63c0.09-0.12,0.11-0.28,0.06-0.42
			c0.32-0.11,0.45-0.51,0.51-0.71c0.01-0.03,0.03-0.09,0.07-0.19c0.06-0.16,0.09-0.31,0.09-0.44c0-0.02,0-0.06-0.01-0.09
			c0.02-0.03,0.03-0.06,0.05-0.09c0.11-0.3,0.18-0.53,0.22-0.7c0.05-0.21,0.08-0.49,0.09-0.87l0.05-0.68c0-0.04,0-0.08-0.01-0.12
			L95.63,96.5z M92.51,101.54c-0.56,0.67-0.62,0.8-0.65,0.85c-0.05,0.09-0.07,0.12-0.07,0.12c0,0,0,0,0,0l-0.5,0.49l-0.22,0.33
			l-0.46,0.36c-0.52,0.43-0.81,0.67-0.84,0.7c-0.06,0.04-0.17,0.1-0.38,0.2c-0.32,0.21-0.55,0.35-0.75,0.42l-0.23,0.1
			c-0.08,0.03-0.14,0.09-0.19,0.17c-0.03,0.01-0.06,0.01-0.1,0.02c-0.04,0.01-0.08,0.02-0.12,0.04l-0.39,0.21l-0.09,0
			c-0.05,0-0.1,0.01-0.15,0.02c-0.04,0.01-0.22,0.09-0.51,0.22l-0.29,0.08c-0.04,0.01-0.07,0.02-0.1,0.04
			c-0.06,0.03-0.25,0.13-0.87,0.39l-0.62,0.22c-0.02,0-0.11,0.02-0.57,0.02c-0.23,0-0.41,0.03-0.59,0.11
			c-0.05,0.03-0.1,0.07-0.14,0.11l-0.86,0.03c-0.02,0-0.06-0.01-0.11-0.01c-0.1-0.02-0.2,0.01-0.29,0.06
			c0.03-0.07,0.04-0.14,0.03-0.22c-0.04-0.32-0.07-0.52-0.07-0.6c0-0.33-0.02-0.55-0.04-0.69c-0.02-0.1-0.04-0.21-0.04-0.31
			c0-0.05-0.01-0.11-0.04-0.15c0.01-0.01,0.01-0.02,0.02-0.03c0.08-0.14,0.12-0.27,0.12-0.4c0-0.02-0.01-0.15-0.02-0.18
			c-0.06-0.35-0.09-0.57-0.09-0.66c0-0.03,0-0.06,0-0.08c0.04-0.23,0.05-0.35,0.05-0.36c0-0.04,0-0.09-0.01-0.16
			c0-0.02-0.01-0.05-0.02-0.07c-0.01-0.06-0.03-0.29-0.03-1.14v-1.28c0-0.03-0.02-0.15-0.03-0.18c-0.01-0.04-0.02-0.09-0.05-0.12
			c0-0.01,0-0.03,0-0.04c0.01-0.18,0.03-0.38,0.08-0.61c0.02-0.11,0-0.23-0.06-0.33c-0.28-0.43-0.48-0.74-0.59-0.91
			c0.04-0.04,0.1-0.09,0.18-0.15c0.08-0.06,0.19-0.16,0.34-0.31c0.11-0.11,0.15-0.26,0.12-0.4c-0.02-0.09-0.07-0.17-0.14-0.23
			c0.02-0.07,0.03-0.14,0.03-0.2c0-0.07-0.01-0.15-0.06-0.36l-0.02-0.44l0.04-0.65c0-0.05,0-0.09-0.01-0.14
			c-0.02-0.06-0.03-0.11-0.04-0.14c0.02-0.04,0.05-0.1,0.08-0.18c0.03-0.07,0.04-0.14,0.04-0.22l-0.03-0.28l0.02-0.57
			c0-0.04,0-0.08-0.01-0.11l-0.04-0.15c-0.04-0.32-0.08-0.54-0.14-0.7c-0.01-0.03-0.03-0.06-0.04-0.08
			c0.04-0.14,0.07-0.31,0.09-0.46l0.07-0.26c0.01-0.05,0.02-0.1,0.01-0.15l0-0.11c0.02,0.01,0.05,0.02,0.07,0.03
			c0.12,0.06,0.26,0.09,0.4,0.09l1.31-0.03l1.28,0.07c0.24,0.04,0.36,0.05,0.37,0.05c0.1,0,0.2-0.02,0.31-0.08
			c0.06,0.05,0.11,0.09,0.16,0.13c0.07,0.04,0.12,0.07,0.89,0.2l1.24,0.22l0.4,0.11l0.38,0.05l1.09,0.47l0.2,0.08l0.32,0.25
			l0.36,0.2c0.53,0.43,0.64,0.5,0.87,0.5c0.01,0,0.03,0,0.04,0c0.01,0.11,0.06,0.22,0.15,0.3c0.24,0.2,0.39,0.29,0.48,0.29
			c0.01,0,0.02,0.01,0.03,0.01c0.01,0.08,0.03,0.13,0.07,0.18c0.04,0.08,0.13,0.24,0.27,0.49c0.08,0.14,0.17,0.26,0.26,0.37
			c-0.01,0.05-0.01,0.1-0.01,0.15c0,0.07,0.01,0.15,0.12,0.46l0.02,0.27c0.05,0.24,0.09,0.43,0.1,0.57
			c0.01,0.16,0.11,0.29,0.25,0.36c0.07,0.03,0.09,0.06,0.09,0.08c-0.16,0.04-0.28,0.15-0.32,0.31c-0.03,0.1-0.06,0.27-0.07,0.47
			l-0.09,0.55l0,0.43c0,0.01-0.01,0.08-0.12,0.33c-0.16,0.36-0.23,0.58-0.23,0.75c0,0.12-0.03,0.22-0.07,0.31
			c-0.11,0.21-0.17,0.34-0.22,0.47L92.51,101.54z M88.72,91.42L88.72,91.42L88.72,91.42L88.72,91.42z"/>
		<path class="st0" d="M125.24,108.64l0.98-0.36l0.38,0.29c0.1,0.08,0.23,0.11,0.35,0.08c0.11-0.02,0.2-0.09,0.26-0.17
			c0.12-0.01,0.22-0.07,0.3-0.16c0.07-0.09,0.16-0.18,0.32-0.35l0.44-0.63c0.1-0.13,0.14-0.3,0.15-0.59
			c0.01-0.21-0.14-0.39-0.34-0.44c-0.17-0.04-0.36-0.02-0.99,0.26c-0.06,0.02-0.18,0.06-0.35,0.11c-0.13,0.03-0.22,0.12-0.28,0.23
			c-0.13-0.07-0.3-0.06-0.54,0.03c0,0-0.04,0.01-0.15,0.01c-0.33,0.03-0.65,0.07-0.9,0.12l-0.5,0.05c-0.24,0.05-0.31,0.05-0.31,0.05
			c-0.06,0-0.12,0-0.17-0.01c-0.24-0.03-0.4-0.04-0.49-0.04c-0.02,0-0.17,0.02-0.44,0.06c-0.26-0.06-0.35-0.07-0.42-0.07
			c-0.02,0-0.15,0.01-0.17,0.02l-0.22,0.04l-0.77-0.15c-0.09-0.01-0.18,0-0.26,0.04l-0.41,0.2l-0.07-0.11
			c-0.08-0.11-0.21-0.18-0.35-0.18l-0.43,0.01l-0.66-0.14l-0.27-0.02c-0.26-0.08-0.34-0.08-0.44-0.08c-0.05-0.03-0.1-0.05-0.15-0.07
			l0.02-1.27c0-0.09-0.02-0.16-0.11-0.43c-0.03-0.08-0.07-0.14-0.13-0.19c0-0.02,0-0.05,0.01-0.07l0.03-0.05
			c0.04-0.06,0.07-0.14,0.07-0.21l0.02-0.41c0.13-0.6,0.14-0.72,0.14-0.8l-0.03-1.56c0.04-0.15,0-0.31-0.11-0.42
			c0.02-0.03,0.04-0.05,0.05-0.09c0.04-0.1,0.06-0.19,0.06-0.28c0-0.05,0-0.12-0.01-0.16c-0.01-0.15-0.01-0.3-0.01-0.46l0-0.18
			c0.01-0.17,0.02-0.52,0-1.06c0.01-0.04,0.02-0.1,0.02-0.14c0-0.01,0-0.02,0-0.03c0.07-0.26,0.07-0.28,0.07-0.33
			c0-0.16-0.05-0.33-0.16-0.56c0.13-0.16,0.16-0.32,0.16-0.44c0-0.22-0.03-0.41-0.08-0.58c0.02-0.07,0.04-0.12,0.02-0.09
			c0.03-0.06,0.04-0.12,0.04-0.19c0-0.27-0.18-0.48-0.53-0.63c-0.02-0.01-0.04-0.02-0.05-0.02l-0.07-0.97
			c0-0.04-0.01-0.08-0.02-0.12l-0.04-0.1l0.25-0.28c0.05-0.06,0.09-0.13,0.1-0.21l0.08-0.45c0.18-0.18,0.31-0.34,0.4-0.5
			c0.11-0.2,0.03-0.47-0.16-0.6c-0.01-0.01-0.03-0.02-0.05-0.02l-0.03-0.06c0.13-0.09,0.22-0.27,0.22-0.43
			c0-0.06-0.01-0.11-0.04-0.16l-0.02-0.36c-0.01-0.09-0.02-0.16,0.02-0.24c0.07-0.1,0.1-0.23,0.07-0.35l-0.04-0.39
			c0-0.36-0.26-0.6-0.63-0.6c-0.22,0-0.49,0.07-0.85,0.23l-0.11,0.04c-0.06,0.02-0.11,0.06-0.15,0.1l-0.27,0.18
			c-0.17,0.02-0.34,0.08-0.54,0.18l-0.23,0.12c-0.19,0.1-0.28,0.32-0.21,0.53l0.09,0.27c0.05,0.13,0.15,0.24,0.29,0.28l0.04,0.6
			c0,0.13,0.05,0.24,0.13,0.35c0.01,0.1,0.04,0.2,0.1,0.33c-0.03,0.06-0.05,0.12-0.05,0.19v0.78c0,0.08,0.02,0.16,0.07,0.23
			c-0.03,0.15-0.04,0.28-0.04,0.39l0,0.15c0.01,0.09,0.01,0.17,0.01,0.23l0.05,1.06c-0.03,0.27-0.04,0.41-0.04,0.42
			c0,0.28,0.13,0.46,0.29,0.55c-0.07,0.12-0.11,0.25-0.13,0.46c0,0,0,0,0,0c-0.05,0.09-0.11,0.21-0.11,0.34
			c0,0.1,0.03,0.19,0.05,0.3l-0.01,0.49c0,0.15,0,0.25,0,0.26c-0.04,0.14-0.05,0.22-0.05,0.3c0,0.09,0.02,0.24,0.15,0.37
			c-0.05,0.07-0.08,0.15-0.09,0.24c0,0.09-0.02,0.18-0.05,0.28c-0.02,0.07-0.02,0.14-0.01,0.21c0.04,0.2,0.07,0.33,0.07,0.33
			c0,0,0,0,0,0l-0.04,0.84l0.03,0.35c-0.01,0.04-0.02,0.09-0.05,0.18c-0.04,0.15,0.06,0.38,0.17,0.5c0.02,0.02,0.04,0.04,0.06,0.05
			c-0.11,0.12-0.17,0.27-0.17,0.43l0,0.28c0,0-0.01,0.08-0.1,0.31c-0.02,0.04-0.03,0.09-0.03,0.14l-0.04,0.55
			c-0.01,0.13,0.04,0.26,0.13,0.35l0.36,0.35l-0.31,0.2c-0.15,0.09-0.22,0.27-0.19,0.44c0.03,0.17,0.16,0.31,0.33,0.35l0.05,0.01
			c-0.18,0.23-0.35,0.46-0.48,0.65c-0.13,0.13-0.17,0.26-0.18,0.36c-0.1,0.08-0.17,0.14-0.23,0.18c-0.12,0.09-0.23,0.2-0.32,0.32
			c-0.08,0.11-0.1,0.26-0.06,0.39c0.04,0.13,0.15,0.23,0.28,0.28c0.19,0.06,0.42,0.11,0.64,0.15c0.24,0.07,0.34,0.08,0.42,0.08
			c0.19,0,0.38-0.05,0.56-0.13c0.5,0.07,0.82,0.03,1.14-0.17c0.06,0.05,0.15,0.1,0.26,0.15c0.11,0.06,0.25,0.06,0.37,0.01
			c0.05-0.02,0.1-0.05,0.13-0.09c0.11,0.01,0.36,0.02,0.7,0.03l0.63,0.08c0.08,0.01,0.16,0.01,0.24-0.02l0.69-0.26
			c0.03,0.03,0.06,0.05,0.1,0.09c0.19,0.18,0.42,0.28,0.66,0.28c0.01,0,0.12-0.01,0.34-0.05l0.61,0.08c0.88-0.06,1.36-0.1,1.45-0.1
			c0.37,0,0.47,0.02,0.53,0.05C125.04,108.68,125.14,108.68,125.24,108.64z"/>
		<path class="st0" d="M113.27,106.42c0-0.03-0.01-0.06-0.01-0.09c-0.04-0.19-0.07-0.33-0.08-0.38c0-0.05-0.01-0.16-0.03-0.32
			c-0.01-0.08-0.07-0.17-0.15-0.24l-0.01-0.05c-0.01-0.04-0.03-0.08-0.05-0.12c0.01-0.01,0.02-0.02,0.03-0.03
			c0.11-0.1,0.17-0.24,0.15-0.39c-0.02-0.13-0.03-0.27-0.03-0.48l0.06-0.21c0.01-0.04,0.01-0.07,0.01-0.11
			c0-0.25-0.14-0.46-0.37-0.56c0.05-0.06,0.09-0.13,0.11-0.22c0.04-0.24,0.06-0.39,0.06-0.47c-0.02-0.76-0.04-1.18-0.04-1.24
			c0-0.15,0.01-0.28,0.02-0.36c0.03-0.13,0.03-0.24,0.03-0.3c0-0.02-0.01-0.11-0.01-0.13c0-0.03-0.04-0.14-0.05-0.17
			c-0.01-0.07-0.01-0.34-0.01-0.8c0-0.04,0.01-0.14,0.01-0.26c0-0.02,0.01-0.14,0.01-0.17c0-0.19-0.07-0.32-0.1-0.34
			c-0.04-0.07-0.05-0.11-0.05-0.11c0-0.47,0.04-0.74,0.07-0.88c0.01-0.04,0.01-0.08,0.01-0.12l-0.02-0.47
			c-0.02-0.74-0.04-1.18-0.06-1.32c-0.01-0.11-0.06-0.2-0.14-0.27c-0.02-0.07-0.05-0.13-0.08-0.19c0.03-0.05,0.05-0.11,0.12-0.35
			c0.05-0.19,0.06-0.26,0.06-0.31c0-0.09-0.05-0.25-0.1-0.32c-0.02-0.03-0.03-0.05-0.04-0.06c0.07-0.28,0.11-0.47,0.12-0.58
			c0.01-0.31,0.02-0.51,0.02-0.61c0-0.03-0.01-0.15-0.02-0.18c-0.04-0.21-0.06-0.37-0.06-0.49c0-0.17,0-0.3,0.01-0.38l0.1-0.73
			c0.02-0.19,0.03-0.28,0.03-0.29c0-0.17-0.07-0.35-0.21-0.56c-0.1-0.14-0.26-0.2-0.42-0.18c-0.21,0.03-0.36,0.06-0.4,0.08
			c-0.19,0.04-0.24,0.06-0.28,0.08c-0.01,0-0.15,0.09-0.43,0.26l-0.39,0.24c-0.39,0.19-0.46,0.24-0.5,0.32
			c-0.1,0.12-0.15,0.26-0.15,0.4c0,0.29,0.23,0.47,0.3,0.52c-0.03,0.16-0.03,0.23-0.03,0.31l0.1,0.8l0.02,0.5
			c0,0.04,0.01,0.07,0.02,0.11l0.06,0.2l-0.02,0.47c-0.01,0.11,0.03,0.21,0.09,0.29c-0.03,0.06-0.05,0.12-0.05,0.19
			c-0.01,0.21,0.08,0.41,0.25,0.57l0.04,0.03c-0.04,0.05-0.07,0.11-0.09,0.18c-0.05,0.26-0.08,0.53-0.08,0.8
			c0,0.08,0.03,0.32,0.09,0.71c0.03,0.2,0.04,0.4,0.04,0.61c0,0.19-0.03,0.35-0.09,0.5c-0.05,0.11-0.05,0.23,0,0.34
			c0.05,0.11,0.13,0.19,0.24,0.24c-0.06,0.13-0.08,0.21-0.08,0.3c0,0.12,0.02,0.25,0.06,0.39c0.01,0.05,0.04,0.09,0.09,0.13
			c0,0.01,0,0.01,0.01,0.02c-0.09,0.08-0.14,0.19-0.15,0.31c-0.01,0.2-0.01,0.48-0.01,0.81l-0.05,0.76c0,0.03,0.01,0.12,0.02,0.25
			c0.01,0.13,0.01,0.22,0.01,0.27l-0.04,0.41c0,0.03,0,0.07,0.01,0.1c-0.07,0.08-0.16,0.19-0.28,0.32c-0.09,0.15-0.15,0.26-0.2,0.32
			l-0.21,0.07c-0.14,0.05-0.32,0.17-0.72,0.57c-0.16,0.02-0.28,0.12-0.34,0.26c-0.17,0.04-0.39,0.16-0.53,0.47l-0.16,0.1
			c-0.05,0.02-0.15,0.05-0.32,0.09c-0.04,0.01-0.08,0.03-0.11,0.05l-0.57,0.31c-0.11,0.05-0.18,0.13-0.25,0.23
			c-0.11-0.04-0.25-0.04-0.36,0.02c-0.14,0.08-0.33,0.2-0.57,0.38l-0.3,0.12c-0.06,0.03-0.11,0.07-0.19,0.14
			c-0.18,0.01-0.34,0.08-0.47,0.2l-0.02-0.01c-0.15-0.05-0.31-0.01-0.43,0.1c-0.08,0.07-0.17,0.13-0.29,0.16
			c-0.1,0.03-0.18,0.09-0.24,0.18c-0.11,0.03-0.24,0.08-0.39,0.13l-0.5,0.14l-0.32-0.02c-0.15-0.01-0.24-0.02-0.27-0.02
			c-0.1,0-0.2,0.01-0.28,0.03c-0.19,0.04-0.33,0.07-0.4,0.08c-0.09-0.18-0.29-0.27-0.49-0.23c-0.08,0.02-0.13,0.03-0.16,0.03
			c-0.08,0-0.17-0.02-0.24-0.05c0,0-0.04-0.03-0.15-0.15c-0.03-0.04-0.07-0.07-0.12-0.09c-0.27-0.14-0.47-0.28-0.61-0.41
			c-0.18-0.16-0.34-0.44-0.48-0.82c-0.05-0.14-0.17-0.24-0.31-0.27l-0.03-0.03c-0.03-0.06-0.09-0.12-0.16-0.16
			c0.01-0.06,0.01-0.11,0.01-0.15c0-0.12-0.02-0.23-0.05-0.31l-0.16-0.54c-0.05-0.14-0.07-0.31-0.07-0.52c0-0.08,0-0.15,0-0.17
			c0.02-0.1,0.02-0.18,0.02-0.22c0-0.12-0.03-0.24-0.09-0.38c-0.04-0.11-0.12-0.2-0.22-0.24c0.01-0.04,0.01-0.06,0.01-0.08
			c0.03-0.04,0.05-0.09,0.06-0.13c0.05-0.2,0.07-0.37,0.07-0.5c0-0.01-0.01-0.14-0.01-0.15c-0.01-0.09-0.01-0.18,0-0.34
			c0.11-0.55,0.16-0.88,0.17-1c0.01-0.15,0.03-0.33,0.06-0.61c0-0.14,0-0.23,0-0.24c0.09-0.12,0.19-0.28,0.19-0.57
			c0-0.06-0.03-0.14-0.07-0.2c0.09-0.14,0.17-0.34,0.25-0.62l0.47-1.56l0.26-0.33c0.09-0.11,0.09-0.32,0.05-0.47
			c0.01-0.04,0.02-0.09,0.04-0.14c0.03-0.06,0.05-0.14,0.08-0.29c0.01-0.08-0.01-0.18-0.05-0.27c0.08-0.04,0.14-0.1,0.19-0.17
			c0.08-0.15,0.15-0.3,0.21-0.49c0.03-0.12,0.06-0.17,0.05-0.17c0.22-0.26,0.34-0.41,0.35-0.44c0.11-0.18,0.17-0.35,0.17-0.52
			c0-0.01,0-0.03,0-0.05c0.01-0.02,0.03-0.05,0.04-0.07l0.6-1.09c0.3-0.57,0.41-0.93,0.38-1.2c-0.02-0.14-0.11-0.27-0.24-0.33
			c-0.12-0.06-0.23-0.09-0.34-0.09c-0.27,0-0.65,0.11-1.18,0.34c-0.45,0.18-0.86,0.41-1.22,0.68c-0.16,0.12-0.22,0.34-0.13,0.52
			l0.11,0.22c0.04,0.06,0.11,0.14,0.21,0.19L98.7,94.4l-0.15,0.38c-0.21,0.63-0.28,0.77-0.29,0.79l-0.12,0.2
			c-0.02,0.03-0.04,0.07-0.05,0.11l-0.12,0.45l-0.15,0.32c-0.05,0.1-0.05,0.21-0.02,0.32c0.03,0.09,0.05,0.17,0.07,0.23
			c-0.1,0.04-0.18,0.12-0.23,0.23c-0.04,0.09-0.11,0.21-0.2,0.35c-0.03,0.04-0.05,0.09-0.06,0.13l-0.03,0.14
			c-0.16,0.34-0.2,0.47-0.2,0.61c0,0.04,0,0.09,0.01,0.14C97.03,98.97,97,99.04,97,99.17c0,0.21,0.08,0.32,0.28,0.41
			c-0.06,0.04-0.12,0.07-0.2,0.12c-0.12,0.07-0.2,0.2-0.21,0.34c-0.01,0.14,0.05,0.27,0.15,0.36c0,0.01-0.01,0.02-0.01,0.03
			l-0.02,0.09c-0.25,0.27-0.32,0.53-0.33,0.72c-0.01,0.22-0.03,0.39-0.06,0.52c-0.03,0.17,0.04,0.32,0.19,0.41l-0.14,0.22
			c-0.04,0.08-0.05,0.15-0.07,0.38c-0.04,0.51-0.07,0.78-0.07,0.83c0,0.08,0.02,0.19,0.08,0.45l0.04,0.41
			c0.01,0.07,0.03,0.14,0.08,0.22c-0.03,0.08-0.03,0.15-0.03,0.2c0,0.12,0.04,0.24,0.12,0.41l0.03,0.15c0.03,0.11,0.1,0.2,0.21,0.3
			l0.03,0.15c0.03,0.12,0.1,0.23,0.21,0.29c-0.01,0.04-0.01,0.08-0.01,0.13c0,0.17,0.09,0.29,0.22,0.47
			c0.03,0.04,0.05,0.07,0.06,0.11c0.11,0.31,0.18,0.48,0.22,0.56c0.05,0.08,0.12,0.15,0.46,0.37c0.52,0.58,0.53,0.59,0.58,0.6
			c0.24,0.16,0.43,0.28,0.55,0.38c0.08,0.06,0.18,0.09,0.28,0.08c0.05,0.05,0.1,0.08,0.17,0.11c0.5,0.18,0.91,0.29,1.23,0.33
			c0.02,0,0.04,0,0.06,0c0.14,0,0.26-0.06,0.35-0.17c0.11,0.08,0.25,0.1,0.39,0.06c0.09-0.03,0.16-0.09,0.22-0.16l0.12,0.1
			c0.11,0.09,0.27,0.12,0.41,0.07c0.32-0.1,0.51-0.16,0.62-0.16c0.2,0.05,0.39-0.07,0.48-0.26c0.02-0.01,0.06-0.03,0.12-0.06
			c0.31,0.18,0.66,0.08,1.08-0.21c0.19-0.12,0.39-0.21,0.6-0.25c0.16-0.04,0.28-0.16,0.32-0.3c0.13-0.05,0.3-0.12,0.54-0.24
			l0.83-0.37c0.02-0.01,0.08-0.04,0.1-0.05c0.38-0.23,0.58-0.35,0.59-0.35c0.06-0.03,0.16-0.06,0.28-0.1
			c0.11-0.03,0.21-0.11,0.26-0.22c0.01-0.01,0.01-0.02,0.02-0.04c0.03-0.01,0.08-0.03,0.15-0.06l0.84-0.45l0.41-0.33
			c0.04-0.02,0.21-0.1,0.53-0.24c0.05-0.02,0.23-0.13,0.54-0.32l0,0.02l-0.03,0.66c-0.08,0.36-0.09,0.49-0.09,0.56
			c0,0.16,0.01,0.23,0.02,0.28c0.1,0.44,0.11,0.6,0.11,0.66c0,0.09-0.01,0.18-0.03,0.25c-0.1,0.32-0.12,0.45-0.12,0.54
			c0,0.02,0.01,0.11,0.01,0.13c0.03,0.19,0.17,0.34,0.36,0.37c0.32,0.05,0.48,0.04,0.72-0.07l0.94-0.49
			c0.05-0.02,0.09-0.05,0.13-0.09l0.23-0.24c0,0,0.04-0.02,0.15-0.07c0.19-0.07,0.3-0.25,0.28-0.45l-0.05-0.52
			C113.48,106.61,113.39,106.49,113.27,106.42z M98.62,103.44L98.62,103.44L98.62,103.44L98.62,103.44z"/>
		<path class="st0" d="M147.21,98.9c0-0.1-0.03-0.2-0.11-0.35l-0.07-0.14c-0.03-0.06-0.07-0.12-0.13-0.16
			c-0.08-0.06-0.14-0.11-0.11-0.1c0-0.05,0-0.09,0-0.13l0.14-0.14c0.09-0.11,0.13-0.25,0.13-0.41c0-0.06-0.02-0.24-0.06-0.49
			l-0.02-0.39l-0.12-0.44c0-0.57-0.04-0.71-0.09-0.86c-0.07-0.13-0.17-0.26-0.31-0.4c0.06-0.1,0.08-0.22,0.05-0.34
			c-0.04-0.14-0.13-0.3-0.29-0.51c-0.05-0.15-0.13-0.3-0.23-0.45c-0.02-0.04-0.06-0.11-0.12-0.24c-0.07-0.15-0.21-0.24-0.37-0.25
			c-0.06-0.05-0.12-0.1-0.19-0.14c0.02-0.11,0-0.23-0.06-0.33c-0.07-0.1-0.12-0.18-0.13-0.18c-0.03-0.06-0.07-0.12-0.11-0.18
			c-0.07-0.1-0.18-0.21-0.41-0.38c-0.85-0.63-0.88-0.64-1.06-0.63c-0.06-0.08-0.12-0.14-0.2-0.19c-0.11-0.07-0.29-0.14-0.55-0.21
			c-0.02-0.01-0.05-0.01-0.08-0.01c-0.06-0.06-0.13-0.11-0.22-0.14l-0.53-0.15c-0.24-0.11-0.41-0.17-0.55-0.18
			c-0.11,0-0.19-0.01-0.25-0.02c-0.02-0.03-0.06-0.06-0.1-0.11c-0.02-0.02-0.1-0.1-0.12-0.11c-0.09-0.08-0.21-0.11-0.32-0.1
			l-0.75,0.06c-0.07-0.02-0.19-0.05-0.37-0.1c-0.08-0.02-0.24-0.05-0.74-0.07c-0.04,0-0.08,0-0.13-0.01
			c-0.14-0.01-0.26-0.02-0.34-0.02c-0.04,0-0.17,0.02-0.37,0.06l-0.77,0.09c-0.42,0.02-0.74,0.05-0.99,0.1
			c-0.26,0.07-0.53,0.17-0.69,0.28l-1.16,0.5c-0.05,0.03-0.1,0.07-0.18,0.16c-0.11,0.04-0.24,0.1-0.37,0.23c0,0-0.05,0.04-0.19,0.11
			c-0.54,0.22-0.65,0.31-0.7,0.36c-0.08,0.07-0.14,0.17-0.19,0.29c-0.14,0.05-0.28,0.12-0.42,0.22c-0.06,0.04-0.11,0.12-0.13,0.2
			c-0.09,0.01-0.23,0.05-0.29,0.1c-0.09,0.06-0.15,0.14-0.25,0.33c-0.3,0.23-0.49,0.39-0.6,0.51c-0.14,0.15-0.23,0.3-0.28,0.47
			c-0.06,0.03-0.11,0.06-0.16,0.12c-0.16,0.19-0.39,0.5-0.67,0.91c-0.07,0.1-0.22,0.39-0.43,0.82c-0.36,0.55-0.64,1.18-0.83,1.84
			l-0.17,0.43c-0.03,0.07-0.05,0.15-0.07,0.37c-0.01,0.07,0,0.14,0.03,0.2c-0.16,0.19-0.25,0.42-0.26,0.72
			c0,0.28-0.01,0.44-0.02,0.51c-0.02,0.22-0.03,0.34-0.03,0.38c0.01,0.89,0.08,1.21,0.13,1.35c0.03,0.11,0.05,0.26,0.05,0.45
			c0.02,0.38,0.14,0.61,0.29,0.74c-0.05,0.09-0.09,0.19-0.09,0.3c0,0.11,0.03,0.23,0.25,0.77l0.38,0.61
			c0.11,0.22,0.18,0.35,0.23,0.42c0.03,0.06,0.07,0.11,0.12,0.15c0.02,0.02,0.04,0.03,0.06,0.05c0,0.04,0,0.08,0.01,0.13
			c0,0.11,0.05,0.22,0.14,0.3c0.05,0.04,0.13,0.15,0.26,0.31c0.18,0.24,0.36,0.45,0.63,0.45c0.04,0,0.07,0,0.12-0.02
			c0.03,0.01,0.06,0.02,0.09,0.03c0.01,0.03,0.03,0.06,0.04,0.09c0,0,0.01,0.04,0.02,0.13c0.01,0.12,0.11,0.25,0.22,0.32
			c0.02,0.14,0.1,0.25,0.22,0.32c0.14,0.08,0.37,0.22,0.71,0.42c0.32,0.18,0.54,0.31,0.67,0.42c0.12,0.09,0.28,0.11,0.42,0.06
			c0.16,0.19,0.41,0.23,0.58,0.18c0,0,0,0,0.01,0c0.06,0.1,0.14,0.18,0.23,0.22c0.11,0.06,0.23,0.08,0.43,0.08l1,0.24
			c0.04,0.01,0.08,0.02,0.12,0.02c0.02,0,0.03,0,0.05,0l1.46-0.16c0.02,0,0.11-0.02,0.13-0.03l2.2-0.57l2.29-1.07l1.74-1.03
			c0.13-0.08,0.27-0.18,0.43-0.34c0.16-0.17,0.26-0.28,0.32-0.32c0.24-0.17,0.38-0.27,0.44-0.33c0.04-0.05,0.21-0.26,0.47-0.6
			c0.34-0.33,0.69-0.75,1.08-1.28c0.22-0.31,0.32-0.5,0.34-0.67c0.14-0.09,0.21-0.26,0.19-0.42c0.03-0.04,0.06-0.08,0.08-0.12
			c0.05-0.08,0.1-0.22,0.17-0.59l0.15-0.45c0.16-0.52,0.19-0.68,0.19-0.8c0-0.11-0.01-0.3-0.02-0.57l0.01-0.19
			C147.2,99.03,147.21,98.96,147.21,98.9z M144.53,101.88c-0.08,0.14-0.17,0.33-0.25,0.56l-0.26,0.41l-0.17,0.35l-0.59,0.73
			l-0.26,0.2c-0.51,0.42-0.7,0.56-0.78,0.6c-0.12,0.07-0.2,0.19-0.22,0.33l0,0c-0.02,0.01-0.04,0.03-0.05,0.05
			c-0.09-0.02-0.18-0.01-0.27,0.03c-0.4,0.18-0.54,0.28-0.58,0.32c-0.13,0.09-0.22,0.15-0.24,0.16c-0.15,0.05-0.48,0.17-0.56,0.46
			c-0.08,0-0.16,0.03-0.23,0.07c-0.1,0.07-0.34,0.19-0.73,0.38l-0.17,0.1c-0.49,0-0.52,0.01-0.61,0.03
			c-0.06,0.02-0.21,0.08-0.47,0.19l-0.33,0.05c-0.13,0.05-0.23,0.08-0.29,0.11c-0.08-0.1-0.25-0.15-0.4-0.15
			c-0.08,0-0.17,0.01-0.23,0.04c-0.15-0.01-0.29-0.02-0.46,0.01l-0.05,0.01c-0.04-0.01-0.08-0.03-0.15-0.06
			c-0.07-0.03-0.29-0.07-0.63-0.14c-0.32-0.08-0.51-0.12-0.63-0.13c-0.13-0.09-0.26-0.16-0.4-0.22c-0.04-0.02-0.12-0.06-0.23-0.12
			c-0.14-0.09-0.26-0.14-0.36-0.18c-0.03-0.1-0.09-0.18-0.18-0.24c-0.13-0.09-0.24-0.17-0.32-0.25c-0.1-0.1-0.24-0.16-0.38-0.14
			c0-0.01,0-0.02,0.01-0.03c0.05-0.18-0.03-0.38-0.19-0.48c-0.19-0.11-0.36-0.25-0.54-0.42l-0.22-0.22
			c-0.08-0.16-0.23-0.24-0.4-0.24c0-0.12-0.04-0.24-0.13-0.33c-0.02-0.02-0.04-0.05-0.06-0.08c-0.04-0.14-0.11-0.26-0.22-0.38
			c-0.03-0.03-0.1-0.11-0.17-0.31c-0.04-0.1-0.11-0.19-0.21-0.24c0-0.01,0-0.03,0-0.04c0-0.09-0.04-0.26-0.1-0.34
			c-0.1-0.15-0.18-0.26-0.22-0.33l0-0.23l-0.06-0.31c-0.04-0.21-0.12-0.41-0.29-0.65l0.02-0.35c0-0.06-0.01-0.09-0.06-0.3v-1.82
			c0-0.01,0-0.02,0-0.04c0.1-0.22,0.15-0.35,0.15-0.35l0,0c0.02-0.07,0.04-0.15,0.05-0.37l0.04-0.07c0.03-0.04,0.04-0.09,0.05-0.14
			l0.07-0.34l0.11-0.14c0.03-0.04,0.05-0.08,0.07-0.12c0.25-0.71,0.33-0.85,0.33-0.86c0.38-0.66,0.47-0.78,0.48-0.79
			c0.09-0.11,0.16-0.23,0.22-0.37c0.54-0.56,0.57-0.61,0.58-0.62c0.04-0.05,0.09-0.13,0.15-0.24c0.23-0.13,0.5-0.33,0.82-0.63
			c0.22-0.2,0.44-0.33,0.66-0.41c0.14-0.05,0.25-0.17,0.28-0.31c0.07-0.03,0.15-0.07,0.24-0.11c0.08-0.03,0.14-0.08,0.19-0.15
			c0.09-0.03,0.17-0.08,0.23-0.16c0.02-0.02,0.03-0.05,0.04-0.06l0.29-0.05c0.04-0.01,0.08-0.02,0.11-0.03l0.47-0.22l0.4-0.07
			c0.18-0.03,0.28-0.05,0.29-0.05c0.07,0,0.18,0.01,0.3,0.02c0.3,0.04,0.48,0.03,0.65,0c0.21-0.04,0.36-0.07,0.44-0.08
			c0.03,0.01,0.08,0.03,0.13,0.05c0.08,0.03,0.16,0.04,0.24,0.02c0.03,0,0.06,0,0.1-0.01c0.11-0.02,0.2-0.03,0.25-0.04
			c0.08,0.02,0.23,0.08,0.5,0.16c0.18,0.02,0.32,0.05,0.41,0.08c0.11,0.04,0.23,0.04,0.34-0.02c0.04,0.07,0.1,0.13,0.17,0.18
			c0.39,0.22,0.67,0.32,0.9,0.32h0.01c0.1,0.07,0.23,0.13,0.38,0.13c0.1,0.11,0.22,0.2,0.37,0.29c0.38,0.21,0.6,0.33,0.61,0.34
			c0.03,0.03,0.12,0.11,0.26,0.24c0.22,0.21,0.31,0.33,0.36,0.4c0.07,0.11,0.2,0.18,0.32,0.19c0,0.01,0,0.02,0,0.03
			c-0.01,0.13,0.05,0.26,0.15,0.35c0.1,0.08,0.25,0.27,0.47,0.78l0.42,0.73l0.14,0.75c0,0.15,0.07,0.27,0.16,0.38
			c0.01,0.12,0.03,0.27,0.06,0.43c0.05,0.28,0.07,0.45,0.08,0.51c0,0.04-0.01,0.12-0.02,0.21c-0.02,0.17,0.05,0.33,0.18,0.42
			c-0.1,0.09-0.16,0.23-0.14,0.38c0.03,0.23,0.23,0.39,0.47,0.37c0.07-0.01,0.14-0.01,0.2-0.01l-0.07,0.13l-0.18,0.02
			c-0.2,0.02-0.36,0.17-0.38,0.37c-0.02,0.14,0.03,0.28,0.13,0.37c-0.03,0.06-0.04,0.12-0.04,0.19l0.01,0.28
			c-0.06,0.34-0.08,0.52-0.08,0.54c0,0.02,0,0.03,0,0.05c-0.16,0.09-0.29,0.27-0.29,0.55C144.53,101.81,144.53,101.85,144.53,101.88
			z"/>
		<path class="st0" d="M264.21,38.81c-1.49-1.24-3.01-1.68-4.98-1.98c-6.11-0.95-10.69,1.33-15.23,3.95
			c-0.32,0.18-0.47,0.28-0.56,0.34c-0.09,0.06-0.09,0.06-0.52,0.2l0,0l-3.06-2.41c-3.8-3.53-10.9-5.74-12.85-4.57l-0.45,0.27
			l0.35,0.39c0.84,0.94,2.04,1.07,3.43,1.22c1.57,0.17,3.52,0.39,5.88,1.76c1.51,0.88,2.39,1.71,3.33,2.59
			c0.97,0.91,1.97,1.84,3.72,2.94l0.21,0.13l0.22-0.12c9.71-5.31,10.2-5.24,14.85-4.57c1.34,0.19,3.01,0.44,5.33,0.62l1.36,0.11
			L264.21,38.81z"/>
		<path class="st0" d="M120.8,48.53c2.01,0.49,5.04,1.23,9.7,4.07c12.2,7.41,16.24,15.07,19.49,21.21c1.18,2.23,2.29,4.34,3.64,6.08
			l0.19,0.25l0.3-0.11c0.67-0.24,0.89-0.4,1.14-0.59c0.2-0.15,0.42-0.32,1-0.61c0.56-0.27,1.37-0.6,2.41-0.98
			c1.69-0.58,3.14-0.82,4.82-1.09l0.56-0.09c3.87-0.64,7.51-0.73,12.17-0.31c4.82,0.45,9.04,1.04,13.31,1.88
			c0.72,0.14,1.93,0.45,3.32,0.81c3.73,0.96,6.79,1.71,8.36,1.71c0.27,0,0.49-0.02,0.67-0.07l0.5-0.13l-0.22-0.47
			c-2.06-4.35-29.54-7.68-38.06-6.22c-2.82,0.48-4.92,1.15-6.96,1.79c-0.97,0.31-1.97,0.62-3.04,0.92
			c-1.66-3.57-3.96-7.24-5.8-10.06c-5.16-7.96-15.82-17.84-27.01-20.73c-0.36-0.09-0.65-0.18-0.91-0.26
			c-1.3-0.39-1.71-0.45-2.65,0.77l-0.15,0.2l0.09,0.23C118.15,47.88,119.21,48.13,120.8,48.53z"/>
		<path class="st0" d="M227.28,10.55l-1.11,0.23c-3,0.61-4.38,1.95-6.46,3.97l-0.69,0.67c-2.08,2-3.43,3.44-5.48,6.19
			c-1.06,1.41-2.17,3.03-3.25,4.59c-0.59,0.85-1.16,1.68-1.7,2.45l-0.53,0.73c-0.69,0.95-1.33,1.85-2.04,2.93
			c-1.17,1.79-1.23,2.58-1.26,3.05c-0.01,0.07-0.01,0.16-0.02,0.19c0,0-0.03,0.04-0.18,0.12l-17.2,3.14
			c-2.47,0.53-14.2,4.81-13.26,9.39l0.06,0.32l0.32,0.03c0.27,0.02,0.62,0.07,0.78,0.18l0.22,0.14l0.43-0.19l0.06-0.21
			c0.1-0.32,0.48-0.81,0.78-1.17c3.23-3.83,7.8-5.23,12.59-6.45c5.31-1.37,11.58-2.31,17.05-3.09l0.42-0.06l-0.17-1.5
			c0-0.05,0-0.1,0-0.14c0.05-0.09,0.1-0.19,0.16-0.3c2.32-4.52,10.34-15.78,13.68-18.85c1.21-1.13,1.89-1.66,3.13-2.63l0.67-0.52
			c1.07-0.83,1.43-1.11,2.31-2.29L227.28,10.55z"/>
	</g>
</g>
</svg>
