<?xml version="1.0" encoding="utf-8"?>
<!-- Generator: Adobe Illustrator 23.0.3, SVG Export Plug-In . SVG Version: 6.00 Build 0)  -->
<svg version="1.1" id="Ebene_1" xmlns="http://www.w3.org/2000/svg" xmlns:xlink="http://www.w3.org/1999/xlink" x="0px" y="0px"
	 viewBox="0 0 60.69 47.15" style="enable-background:new 0 0 60.69 47.15;" xml:space="preserve">
<style type="text/css">
	.st0{fill:none;stroke:#7F7775;stroke-width:0.7333;stroke-linecap:square;stroke-miterlimit:10;}
</style>
<g id="_x31_2_6_">
	<g id="_x38__11_">
		<path class="st0" d="M25.53,24.26c-0.25-0.4-0.2-0.51-0.2-0.51l0.74-1.07c0.2-0.27,0.17-0.64-0.07-0.87l-1.53-1.52
			c-0.22-0.22-0.57-0.24-0.82-0.05l-0.66,0.51c-0.06,0.04-0.11,0.1-0.15,0.15c-1.31,1.83,0.53,4.71,2.79,6.96
			c2.2,2.19,5.19,4.14,6.99,2.75c0.05-0.04,0.1-0.09,0.13-0.14l0.52-0.68c0.19-0.25,0.17-0.6-0.06-0.82l-1.53-1.52
			c-0.24-0.23-0.61-0.26-0.87-0.06l-1.07,0.74c0,0-0.43,0.15-2.5-1.9c-0.74-0.74-1.2-1.26-1.48-1.63
			C25.67,24.47,25.59,24.36,25.53,24.26"/>
	</g>
	<path class="st0" d="M31.29,25.21c0-0.44-0.1-0.89-0.3-1.32c-0.52-1.07-1.58-1.7-2.69-1.71"/>
	<path class="st0" d="M33.03,25.21c0-0.7-0.15-1.41-0.48-2.08c-0.82-1.69-2.5-2.68-4.26-2.69"/>
	<path class="st0" d="M32.55,23.13c-0.6-1.38-2.46-2.62-4.26-2.69"/>
</g>
</svg>
