<?xml version="1.0" encoding="utf-8"?>
<!-- Generator: Adobe Illustrator 23.0.3, SVG Export Plug-In . SVG Version: 6.00 Build 0)  -->
<svg version="1.1" id="Ebene_1" xmlns="http://www.w3.org/2000/svg" xmlns:xlink="http://www.w3.org/1999/xlink" x="0px" y="0px"
	 viewBox="0 0 60.69 47.15" style="enable-background:new 0 0 60.69 47.15;" xml:space="preserve">
<style type="text/css">
	.st0{fill-rule:evenodd;clip-rule:evenodd;fill:#7F7775;}
</style>
<path class="st0" d="M41.15,21.28c-0.99,0.25-1.59-0.43-2.5-0.58c-3.25-0.55-5.85,2.77-7.21,6.08c-0.47,1.14-0.55,2.29-1.29,2.44
	c-0.58,0.11-0.9-1.15-1.37-1.51c-1.15-0.86-2.93-1.21-4-1.35c-2.53-0.33-4.39,0.84-6.51,1.21c1.69-2.74,6.01-4.61,9.84-3.1
	c0.22,0.09,0.95,0.79,1.4,0.73c0.53-0.07,0.66-0.9,1.16-1.7C32.71,20.23,38.5,16.51,41.15,21.28z"/>
</svg>
