<?xml version="1.0" encoding="utf-8"?>
<!-- Generator: Adobe Illustrator 23.0.3, SVG Export Plug-In . SVG Version: 6.00 Build 0)  -->
<svg version="1.1" id="Ebene_1" xmlns="http://www.w3.org/2000/svg" xmlns:xlink="http://www.w3.org/1999/xlink" x="0px" y="0px"
	 viewBox="0 0 18.5 18.3" style="enable-background:new 0 0 18.5 18.3;" xml:space="preserve">
<style type="text/css">
	.st0{fill:#7F7674;}
</style>
<path class="st0" d="M18.5,15.9H0l2.8-6.7h2.9v1H3.4l-1.9,4.7H17l-1.9-4.7h-2.3v-1h2.9L18.5,15.9z M9.2,13.2l-0.4-0.6
	C8.7,12.4,5.8,8.3,5,6.9C4.7,6.2,4.5,5.5,4.5,4.7C4.5,2.1,6.6,0,9.2,0S14,2.1,14,4.7c0,0.7-0.2,1.4-0.5,2.1
	c-0.7,1.4-3.7,5.7-3.8,5.8L9.2,13.2z M9.2,1c-2,0-3.7,1.7-3.7,3.7c0,0.6,0.1,1.2,0.4,1.7c0.5,1,2.5,3.8,3.3,5
	c0.9-1.2,2.8-4.1,3.4-5.1C12.9,5.8,13,5.3,13,4.7C13,2.7,11.3,1,9.2,1z M9.2,6.9C8,6.9,7,5.9,7,4.7s1-2.2,2.2-2.2s2.2,1,2.2,2.2
	S10.5,6.9,9.2,6.9z M9.2,3.5C8.6,3.5,8,4.1,8,4.7s0.5,1.2,1.2,1.2s1.2-0.6,1.2-1.2S9.9,3.5,9.2,3.5z M0.2,17.3h18v1h-18V17.3z"/>
</svg>
