<?xml version="1.0" encoding="utf-8"?>
<!-- Generator: Adobe Illustrator 23.0.3, SVG Export Plug-In . SVG Version: 6.00 Build 0)  -->
<svg version="1.1" id="Ebene_1" xmlns="http://www.w3.org/2000/svg" xmlns:xlink="http://www.w3.org/1999/xlink" x="0px" y="0px"
	 viewBox="0 0 186.8 111.2" style="enable-background:new 0 0 186.8 111.2;" xml:space="preserve">
<style type="text/css">
	.st0{fill-rule:evenodd;clip-rule:evenodd;fill:#F1DDD5;}
</style>
<g>
	<path class="st0" d="M15.7,4.1c5.2-2.4,5.9,5.8,1.5,5.8C14,10,12.6,5.5,15.7,4.1z"/>
	<path class="st0" d="M134.2,19.8c0.8-0.3,2.9-0.1,3.3,1.5C139,27.7,127.8,21.9,134.2,19.8z"/>
	<path class="st0" d="M27.3,30c9.6-2.4,9.2,11.5,1.1,10.9C23.5,40.5,21.5,31.4,27.3,30z M31,34c-0.2-0.4-1.2-0.5-1.8-0.4
		C22.5,34.6,33.9,39.9,31,34z"/>
	<path class="st0" d="M79.7,43.1c7.2-1,2.6,12.7,5.1,17.5c0.8,1.6,4.8,2.5,7.3,3.6c6.5,2.9,10.9,5.6,16.7,9.8
		c0.2,0.1,1.6,2.2,2.9,2.2c2.7-0.1,5.7-5.7,7.6-8c1.2-1.5,5.8-7.7,8.4-7.3c2.9,0.4,2.2,4.6,2.5,8.4c0.3,3.2,5.1,22.5,1.1,24
		c-2.1,0.8-7.4-3.4-9.8-5.1c-2.3-1.6-6.6-5.8-8.7-5.8c-2.7,0-4.5,3.1-6.9,4.7c-6,4.1-16.2,9.1-23.6,10.2c-0.2,0-7.1-0.7-8.4,1.8
		c-1.2,2.3,2.3,10.8-1.5,12c-1.8,0.6-5.9-3.5-6.5-4c-1.9-1.5-4.1-3-5.8-4.7c-1.7-1.8-3.4-5.4-5.1-6.6c-1.7-1.1-4.8-1.7-7.3-2.9
		c-5.6-2.7-14.3-6.8-18.2-11.3c-1.1-1.3-3.3-4.9-3.3-6.2c0-4.7,8.6-9.8,12-11.7c2.8-1.5,5.2-2.7,8-3.6c2.8-0.9,6.2-0.9,9.5-2.2
		c3.7-1.4,7.7-5.2,11.3-7.6C70.7,47.8,75.4,43.6,79.7,43.1z M71,52.2c-1.2,0.8-6.2,2.9-5.1,4.7c0.7,1.3,4.8,0.6,5.5,0.7
		c1.9,0.3,7.5,2.7,8.7,1.5c0.6-0.6,0.3-10.1-1.1-10.9c-0.8-0.4-1.5,0.3-1.8,0.4C74.8,48.6,72.6,51.1,71,52.2z M42.6,66.4
		c-3.2,1.4-12,5.4-11.6,9.8c0.3,3.6,9.4,8.2,13.1,10.2c5.3,2.9,10.9,6,16.4,6.9c11.4,2,27.8-1,35.3-4.4c3.8-1.7,12.6-7.6,12.4-9.8
		c-0.2-1.4-5.2-4.6-8-6.2C89.1,66.6,75.1,60.8,59.7,62C52.4,62.6,48.5,63.8,42.6,66.4z M126.9,75.8c-0.1-1.1,0.1-6.7-1.5-7.3
		c-1.9-0.7-9.1,9.5-9.1,10.2c0.3,3.5,9.1,7.1,11.6,8C129,83.1,127.4,79.3,126.9,75.8z M69.5,104.6c1-0.6,0.9-4.5,0-5.5
		c-1.5-1.7-5-0.9-6.9-0.7C62.4,100.4,68.3,105.3,69.5,104.6z"/>
	<path class="st0" d="M5.2,50.7c4.7-1,10.1,1.2,9.8,6.2C14.6,64.1,1.1,65,0.1,57.6C-0.4,54.1,1.1,51.6,5.2,50.7z M11,56.9
		c0.4-2.5-2.6-4.1-5.5-2.5C-0.4,57.7,10.2,61.8,11,56.9z"/>
	<path class="st0" d="M43.3,71.5c4.1-1.7,5.9,5,1.8,5.5C41.9,77.3,40,72.9,43.3,71.5z"/>
	<path class="st0" d="M150.5,0.1c5.5-1,2.4,6.5,3.3,9.5c0.6,2,4.9,3.7,8.4,5.5c2.4,1.2,7.4,4.8,8.7,4.7c2.3,0,4.5-4,6.5-5.8
		c1.1-1,6.2-4.8,7.6-4.4c2.6,0.8,1.4,11.3,1.5,16c0,4.1,0.3,10.2-1.5,11.3c-1.4,0.9-5.4-3.4-6.9-4.7c-2.3-2.2-5.1-5.8-6.5-5.8
		c-2.1-0.1-5.4,3.9-7.3,5.1c-1.9,1.3-6.9,3-7.6,4.7c-1.2,2.7,1.1,6.1-1.1,7.6c-3.1,2.2-11.6-4.9-15.3-6.2c-5.2-1.9-9-3.3-13.4-6.9
		c-2-1.6-7.4-5-7.3-8.4c0.1-3.6,9.9-10,13.1-11.3c1.6-0.6,3.6-0.7,4.4-1.1c3.8-1.9,8.7-7,12.7-9.5C150.1,0.3,150.1,0.2,150.5,0.1z
		 M146.2,8.8c2,4.1,6.9-3.8,1.8-2.5C146.9,6.6,145.3,7.1,146.2,8.8z M124.7,22.3c-0.2,3.9,8.4,8.8,13.8,10.6
		c7,2.2,14.3,0.7,20.4-2.2c2.9-1.4,8.7-4.7,8.4-7.6c-0.2-1.9-6.9-4.9-9.8-6.2c-6-2.6-13-4.1-19.3-2.9
		C133.2,14.8,124.9,19,124.7,22.3z M175.3,23c0.1,1.4,4.6,6.4,6.2,5.5c2.4-1.4-0.4-8.7,0.4-11.3C178.6,18.1,175.1,19.5,175.3,23z"/>
</g>
</svg>
