<?xml version="1.0" encoding="utf-8"?>
<!-- Generator: Adobe Illustrator 23.0.3, SVG Export Plug-In . SVG Version: 6.00 Build 0)  -->
<svg version="1.1" id="Ebene_1" xmlns="http://www.w3.org/2000/svg" xmlns:xlink="http://www.w3.org/1999/xlink" x="0px" y="0px"
	 viewBox="0 0 164.3 93.6" style="enable-background:new 0 0 164.3 93.6;" xml:space="preserve">
<style type="text/css">
	.st0{fill:#7F7674;}
</style>
<g>
	<path class="st0" d="M83.5,4.3c0.1-0.1,0.1-0.3,0-0.4C83.4,4,83.3,4.4,83.5,4.3z"/>
	<path class="st0" d="M42.6,77.6C42.6,77.5,42.4,77.6,42.6,77.6C42.5,77.6,42.5,77.6,42.6,77.6z"/>
	<path class="st0" d="M42.5,66.9C42.7,66.5,42.4,66.9,42.5,66.9L42.5,66.9z"/>
	<path class="st0" d="M46.4,72.8C46.4,72.8,46.5,72.8,46.4,72.8C46.5,72.8,46.5,72.8,46.4,72.8z"/>
	<path class="st0" d="M45,66.7C45,66.8,45.1,66.8,45,66.7C45.1,66.8,45,66.6,45,66.7z"/>
	<path class="st0" d="M47.8,44c-0.4,1.1-1.2,1.9-1.6,2.9c-0.2,0.3-0.5,0.5-0.5,0.9c0,0.3-0.3,0.6-0.4,0.8c-0.1,0.2-0.2,0.5-0.3,0.6
		c-0.1,0.1-0.3,0.2-0.3,0.3c-0.1,0.1,0.1,0.3,0,0.4c-0.2,0.2-0.1,0.4-0.3,0.6c-0.1,0.1-0.4,0.8-0.4,0.9c0,0-1.1,2-0.9,2
		c-0.1,0-0.8,3.1-0.9,3.5c0,0.4-0.2,0.7-0.2,1.1c0,0.6-0.3,0.8-0.4,1.3c0,0.5,0.1,1-0.1,1.4c-0.2,0.6-0.3,1-0.2,1.6
		c0.1,1.1-0.5,1.8-0.3,2.9c0.1,0.7-0.1,1.7-0.3,2.3c-0.1,0.4,0.1,0.8,0.1,1.2c0,0.3,0.2,0.7,0.2,0.9c-0.1,0.6,0.6,1.2,0.6,1.7
		c0,0.2-0.1,0.5-0.1,0.8c0,0.7-0.1,1.5,0,2.2c0,1.1,0.3,2.4,1.3,3.1c-0.2-0.3-0.1-0.4,0.1-0.3c0.2,0.3-0.2,0.3,0.2,0.5
		c0.4,0.2,0.8,0,1.1-0.4c0.1,0.2,1,1,1.2,0.6c0.1-0.1,0-0.5,0.2-0.5c0.5,0,0.9-0.1,1.4-0.1c1.9-0.2,3.7,0,5.6,0.2
		c0.9,0.1,1.9,0.1,2.8,0.2c1,0.1,1.9,0.3,3,0.4c1.8,0.3,1.4-1.1,1.8-2.2c0.4,0.2,0.3,0.9,0.3,1.3c0.3,0,0.5-0.1,0.7-0.3
		c0,0.2,0,0.3,0.1,0.5c0.1,0.3-0.1,0.5-0.1,0.8c0.2-0.2,0.7-0.5,1-0.6c0.6-0.2,0.7,0.1,1,0.5c0.5-0.2,1.3-0.8,1.1,0.3
		c1.2-0.1,2.4-0.4,3.7-0.4c1.3,0,2.6,0,3.9-0.2c2.6-0.4,5.2-1.2,7.8-1c-1.3,0.4-2.7,0.8-4.1,0.7c0.7,0.7,2.5,0.5,3.4,0.5
		c1.6,0,3.1-0.3,4.6-0.6c3.6-0.6,7.3,0.3,10.9,0.5c0.4,0,0.6,0.1,0.8-0.2c0.1-0.2,0.4-0.3,0.5,0c0.3,0.5,2,0.2,2.6,0.1
		c1.8-0.1,3.6-0.3,5.4-0.2c1.2,0.1,2.7,0.6,3.9,0.2c0.7-0.2,2-0.5,2.1-1.3c0.4,1.1,2.4,1.1,3.4,1.1c1.6,0,3-0.1,4.6,0.1
		c0.5,0.1,1,0.1,1.6,0.2c0.2-0.3,0.6,0,0.8,0c0.5,0,1,0,1.4-0.1c0.6-0.1,0.7,0,1.2,0.4c0.4-0.3,0.5,0.2,0.9-0.2
		c-0.1-0.3,0.5-0.5,0.1-1c-0.2-0.3-0.3-0.8,0.1-1c0-0.6,0.1-0.3-0.2-0.7c0.1-0.2,0.2-0.2,0.4,0c0.2-0.2,0.2-1.1,0.3-1.3
		c0.1-0.5,0-0.9,0.1-1.4c0-0.4,0.3-0.7,0.3-1.1c0-0.5,0-1,0-1.4c0.1-0.5-0.1-0.9-0.1-1.4c-0.8,0.7-0.5-1.3,0.1-0.5
		c0.1-0.5-0.1-0.8-0.1-1.3c0.1-0.4-0.2-1.2,0.1-1.5c0.1-0.2,0-0.4,0-0.6c-0.1-0.3,0.2-0.3,0.2-0.6c0-0.2,0.1-1.1,0-1.3
		c-0.1-0.4-0.1-0.8-0.2-1.2c-0.1-0.2,0.1-0.2,0.1-0.4c0-0.2-0.2-0.5-0.2-0.7c-0.1-0.8-0.4-1.4-0.4-2.3c0-0.4-0.2-0.8-0.4-1.1
		c-0.2-0.4,0-0.8-0.3-1.1c-0.4-0.5-0.6-1.3-0.9-1.9c-0.3-1.3-1.3-2.5-1.5-4c-0.1-0.7-0.7-1.3-0.9-2c-0.1-0.3-0.3-0.3-0.4-0.5
		c-0.1-0.2-0.1-0.6-0.4-0.8c-0.3-0.2-0.6-1.2-0.8-1.5c-0.2-0.2-0.2-0.5-0.4-0.7c-0.4-0.4-0.7-0.8-1-1.2c-0.8-1.1-1.4-2.3-2.4-3.3
		c-0.1-0.1-0.1-0.3-0.2-0.4c-0.1-0.1-0.3-0.1-0.4-0.3c-0.1-0.1-0.3-0.4-0.4-0.5c-0.3-0.2-0.6-0.5-0.9-0.7c-0.2-0.2-0.4-0.7-0.6-0.7
		c-0.3,0-0.5-0.8-0.9-0.7c-0.2,0-0.7-0.5-0.8-0.6c-0.3-0.4-1.1-0.4-1.3-1c0,0-0.4-0.3-0.4-0.4c-0.1-0.1-0.4-0.1-0.5-0.3
		c-0.2-0.2-0.4-0.3-0.5-0.5c-0.4-0.4-1-0.5-1.3-1c-0.1-0.1-0.5-0.2-0.6-0.3c-0.2,0-0.6-0.5-0.8-0.7c-0.1-0.2-0.4-0.3-0.6-0.5
		c-0.2-0.2-0.4-0.2-0.6-0.4c-0.1-0.2-0.4-0.2-0.6-0.3c-0.1-0.2-0.5-0.3-0.7-0.4c-0.2-0.2-0.6-0.4-0.9-0.5c-0.3-0.2-0.6-0.2-0.9-0.5
		c-0.2-0.1-0.6-0.7-0.8-0.7c-0.1,0-0.8-0.4-0.9-0.5c-0.4-0.2-1.1-0.2-1.6-0.4c-0.2-0.1-0.5-0.2-0.7-0.3c-0.3-0.2-0.1,0.1-0.4,0.2
		c-0.5,0-0.4-0.3-0.8-0.4c-0.3-0.1-0.5-0.3-0.8-0.3c-0.4,0-1,0-1.4-0.3c-0.8-0.5-1.8-0.3-2.5-0.6c-0.4-0.2-1.3-0.2-1.8-0.2
		c-0.4,0-0.9,0-1.4,0c-0.6,0-1.1-0.1-1.6-0.1c-0.5,0-1,0.1-1.4,0c-0.8,0-1.8,0.1-2.7,0c-0.3,0-1.1,0.2-1.3,0.1
		c-0.5-0.3-1.2-0.2-1.7-0.1c-0.5,0.1-1,0.3-1.6,0.3c-0.3,0-1.1,0.1-1.3,0.2c-0.6,0.4-2,0.2-2.7,0.3c-0.3,0.1-0.6,0.3-1,0.3
		c-0.1,0-0.9,0.2-1,0.2c-0.1,0.1-0.7,0.3-0.8,0.3c-0.2-0.1-0.6,0.4-0.8,0.3c-0.4-0.2-1.3,0.7-1.8,0.7c-0.6,0.1-1.1,0.7-1.8,0.7
		c-0.7,0-1.1,0.8-1.7,0.8C64,29.8,63.4,30,63,30.1c-0.7,0.2-1,1-1.6,1.3c-0.5,0.3-1.6,0.5-1.9,1c-0.1,0.1-0.2,0.2-0.4,0.2
		c-0.3,0.1-0.6,0.4-0.9,0.5c-0.3,0.2-1.6,1.6-1.8,1.5c-0.2-0.1-1.1,1-1.5,1c-0.4,0-0.4,0.3-0.5,0.6c-0.2,0.3-0.5,0.5-0.8,0.8
		c-0.4,0.4-0.8,0.9-1.1,1.2c-0.2,0.2-1.1,1-1.1,1.3c0.1,0.5-1.1,0.8-1.3,1.1c-0.2,0.2-0.6,0.7-0.8,0.9c-0.4,0.3-0.5,0.7-0.7,1.1
		c-0.1,0.2-0.4,0.2-0.4,0.4C48.3,43.3,47.9,43.7,47.8,44C47.8,43.9,47.8,43.8,47.8,44z M122.8,71.9c0.4-0.4,0.6,0,0.7,0.3
		C123.2,72.5,122.9,72.2,122.8,71.9z M123.4,67.1c0,0,0-0.1,0-0.1C123.5,67,123.5,67,123.4,67.1c0.4,0.4,0.4,2.4-0.1,2.4
		c-0.6-0.1-0.4-1.3-0.7-1.4C123.4,68.3,123.4,67.7,123.4,67.1z M122.7,57.1C122.7,57.1,122.7,57.2,122.7,57.1c0.2,0.3,0,0.5-0.2,0.2
		C122.6,57.2,122.6,57.2,122.7,57.1z M122.1,76.1C122,76.1,122,76.1,122.1,76.1C122.7,76,122.2,76,122.1,76.1
		c0.7-0.1,0.5-0.6,0.8-1.1c-0.2,0.4,0.6,2.6-0.4,2.6c0-0.5-0.5-0.7-0.4-1.3c-0.3,0-1.1,0.2-1.1-0.3
		C121.3,75.9,121.7,76.1,122.1,76.1z M113.3,65.8C112.9,66.1,112.9,65.3,113.3,65.8L113.3,65.8z M113.1,58c-0.3-0.3-0.2-0.8,0.3-0.6
		C114,57.7,113.4,58,113.1,58z M113.3,56.8c0.2-0.6,0.8,0.1,0.1,0.2C113.3,56.9,113.3,56.9,113.3,56.8z M115,54
		C115,54,115,54,115,54c-0.1-0.4,0.3-0.4,0.4-0.2C115.6,54.1,115.2,54.1,115,54z M116,47.7c-0.1,0-0.1-0.1-0.2,0
		C115.2,46.9,116.8,47,116,47.7z M115.7,46.4c0.1-0.3,0.6-0.6,0.8-0.1C116.3,46.6,115.9,46.8,115.7,46.4z M118.5,70.9
		C118.4,70.9,118.4,70.9,118.5,70.9c-0.3,0.2-0.6-0.1-0.4-0.3C118.4,70.3,118.5,70.6,118.5,70.9C118.5,70.9,118.5,70.9,118.5,70.9z
		 M118.5,50c-0.4,0-0.5-0.5-0.2-0.7C118.9,49.1,118.9,49.9,118.5,50z M116.8,44C116.7,43.8,116.6,43.6,116.8,44
		c0.7,1.3,1.7,2.6,1.6,4c-0.4-0.4-0.6-1-0.9-1.5c-0.3-0.5-0.8-0.8-1.1-1.2c-0.3-0.5-0.2-1.1-0.5-1.6c-0.3-0.5-0.9-0.9-1.1-1.5
		C115.8,42.3,116.4,43.3,116.8,44z M114.2,47.8C114.2,47.8,114.2,47.8,114.2,47.8c0.1,0.1,0.5,0.2,0.2,0.5
		C114,48.6,113.8,48.1,114.2,47.8z M113.6,54.1c0.4,0,1,0.7,0.9,1.2c0.1,0,0.1,0-0.1,0.2c-0.2,0.1-0.7,0.6-0.8,0.6
		c-0.7,0-0.4-1.1,0.2-0.6c0.2-0.4-0.2-0.6-0.5-0.8C113.1,54.4,113.3,54,113.6,54.1z M112.8,44.6c0.7-0.1,0.7,0.8-0.1,0.7
		C112.5,45.1,112.6,44.7,112.8,44.6z M112,40.9C112.4,40.9,111.9,41.5,112,40.9L112,40.9z M111.9,64.5C112,64.5,112,64.5,111.9,64.5
		c0.3-0.1,0.6,0.1,0.4,0.3C112,65.1,111.7,64.8,111.9,64.5C111.9,64.6,111.9,64.6,111.9,64.5z M112.2,66.8c0,0,0,0.1-0.1,0.2
		c0,0-0.1,0-0.1,0c-0.3,0-0.5-0.2-0.7-0.4c-0.4-0.3-0.1-0.5,0.2-0.7C112.3,65.4,112.5,66.3,112.2,66.8z M111.4,55
		c-0.1,0.2-0.3,0-0.4-0.2C110.9,54.4,111.6,54.7,111.4,55z M111,64.4c0,0,0,0,0.1,0c0,0,0,0,0.1,0.1c0.3,0.4,0,0.5-0.3,0.6
		C110.7,64.9,110.7,64.4,111,64.4z M111.7,46.6c-0.1,0.2-0.1,0.1-0.3,0.2C111.1,46.6,111.5,46.2,111.7,46.6z M111.2,45
		c0.2,0.2-0.1,0.6-0.3,0.6C110.5,45.2,110.9,44.9,111.2,45z M111,67.1c-0.2,0.4-0.7,0.6-1.1,0.5C108.9,66.4,110.3,66.2,111,67.1z
		 M109.8,64.4C108.3,65.2,109.4,62.9,109.8,64.4L109.8,64.4z M109.2,68.3c0.2-0.2,0.4-0.3,0.6-0.3C110.4,70.9,106.1,67.2,109.2,68.3
		z M108.6,55.8C108.6,55.8,108.6,55.8,108.6,55.8c0,0.1-0.1,0.2-0.2,0.2C108.1,55.7,108.4,55.5,108.6,55.8z M108.2,67.3
		c0.3,0.2-0.1,0.6-0.2,0.3C108,67.5,108.1,67.4,108.2,67.3z M87.3,62c0.2,0.3,0.4,0.8-0.2,0.7c-0.5-0.1-0.4-0.7,0.1-0.7
		C87.1,62,87.2,62,87.3,62z M86.9,63.1c0.2,0.1,1.3,0.6,0.7,0.9c-0.2,0.1-0.5-0.1-0.7-0.2C86.6,63.5,86.5,63.4,86.9,63.1z M87,69.7
		c0.3,0,1.1,0.1,0.5,0.6c-0.4,0.2-0.7-0.3-1.1-0.2c0,0,0,0-0.1-0.1C85.8,69.3,87.2,68.6,87,69.7z M86.6,71.3c-0.3-0.1-0.3-0.2,0-0.4
		c0.2,0.1,0.5,0.3,0.5,0.5C87,71.7,86.5,71.7,86.6,71.3z M87.1,75.5C86.3,75.1,87.8,74.8,87.1,75.5L87.1,75.5z M87.5,70.8
		c0.3,0,0.6,0.4,0.5,0.6C87.7,71.8,87,71.1,87.5,70.8z M87.8,72.8c0-0.1-0.1-0.2-0.1-0.2c0.1-0.1,0.3-0.1,0.4,0.1
		C88,72.8,88,72.8,87.8,72.8z M90.8,72.1c0.1,0.1,0.1,0.1,0.2,0.1C90.9,72.9,90.1,72.3,90.8,72.1z M92.5,71.7
		C92.5,71.7,92.5,71.7,92.5,71.7c0.1-0.3,0.5-0.4,0.5-0.1C92.9,72,92.6,71.9,92.5,71.7C92.5,71.8,92.5,71.8,92.5,71.7z M92.6,75
		C92.6,74.9,92.6,74.9,92.6,75c0-0.1,0.1-0.2,0.2-0.2C93,74.9,92.8,75.2,92.6,75z M93.2,74.2c-1,0.8-0.8-1.3,0-0.2
		C93.2,74,93.2,74.1,93.2,74.2z M93.4,67C93.4,67,93.4,67.1,93.4,67c0,0.1-0.1,0.1-0.1,0.1c-0.3,0.3-0.7-0.4-0.2-0.5
		c-0.3-0.1-1-0.1-0.7-0.7c0.1-0.2,0.5-0.2,0.7-0.2c0.8,0.2,1.1,1.2,0.1,0.8C93.4,66.7,93.5,66.9,93.4,67z M92.9,61.8
		c-0.3,0.3-0.3,0-0.4-0.1c0.1-0.1,0.1-0.1,0.1,0C92.8,61.6,92.9,61.6,92.9,61.8z M93.1,64.2C93.7,63.7,93.5,64.8,93.1,64.2
		C93.1,64.3,93.1,64.3,93.1,64.2z M94.1,64.7C94.2,64.8,94.2,64.8,94.1,64.7c0.2,0.3,0,0.6-0.4,0.6C93.3,65.1,93.7,64.5,94.1,64.7
		C94,64.6,94,64.6,94.1,64.7z M93.8,57.6c-0.3-0.2-0.1-0.6,0.2-0.6C94.3,57.2,94.1,57.6,93.8,57.6z M95.9,74.2
		c0,0.5-0.5,0.4-0.8,0.1c-0.3-0.3-0.6-0.3-1.1-0.1c-0.9,0.4-0.3-1.1,0.1-1.4c0.2,0.2,0,0.3,0.1,0.5c0.3-0.3,1.1-0.1,1.4,0.2
		c0.3,0.3,0,0.3,0.5,0.3C96.7,73.9,96.4,74.4,95.9,74.2z M97.4,53.7c0.4,0.5-0.9,1.3-1.2,1.1C95.8,53.8,96.6,53.5,97.4,53.7z
		 M96.8,52c0.3-0.2,0.6-0.2,0.5,0.3C97.1,52.4,96.8,52.3,96.8,52C96.8,52.1,96.8,52.1,96.8,52z M98.3,58.8c0.1,0.4-0.1,0.7,0.1,1.1
		c-0.3,0.2-0.6,0.6-1,0.7C97.1,59.9,97.8,59.2,98.3,58.8z M98.1,56.5c0,0.2-0.2,0.2-0.4,0.2C97.4,56.4,97.9,56.1,98.1,56.5z
		 M96.7,60.2c0.2,0.1,0.6,0.5,0.4,0.7C96.6,61.4,95.8,60.4,96.7,60.2z M96.4,56.9c0.1-0.3,0.4-0.4,0.6-0.1
		C96.9,57,96.6,57.2,96.4,56.9z M97.1,61.8c-0.2,0.2-0.6,0.2-0.5-0.2C96.7,61.2,97.1,61.5,97.1,61.8C97.1,61.8,97.1,61.8,97.1,61.8z
		 M96.8,66C96.9,66.1,96.9,66.1,96.8,66c0.2,0.4,0.1,0.8-0.2,0.6C96.2,66.4,96.4,65.9,96.8,66z M96.9,62.2c0.3,0.2,0.6,0.6,0.4,0.8
		C96.8,63.4,96.2,62.3,96.9,62.2z M98.2,64.9C96.2,66.4,97.4,63.2,98.2,64.9L98.2,64.9z M97.6,66.6c0.1-0.3,0.4-0.5,0.7-0.5
		c0.1,0.2,0.1,0.4,0.1,0.6c0,0.2,0.2,0.6,0.1,0.8c0,0,0,0,0,0.1c-0.1,0-0.2-0.1-0.4-0.1c-0.1,0.3-0.3,0.3-0.4,0.1
		C97.6,67.3,97.1,66.7,97.6,66.6z M98.9,61.3c0,0.1,0,0.2,0,0.3C98,62.4,98.1,60.6,98.9,61.3z M98.8,57.1c-0.6-0.1-0.3-0.9,0.2-0.6
		C99.2,56.7,99.1,56.9,98.8,57.1z M98.4,55.7C97.8,55.1,99.2,55.3,98.4,55.7L98.4,55.7z M97.4,67.2c-0.4,0.2-0.8,0.2-1.2,0.4
		C95.6,66.7,97.2,66.6,97.4,67.2z M97.4,68.3C97.3,68.4,97.3,68.4,97.4,68.3c-0.4,0.3-0.8-0.2-0.6-0.5
		C97.1,67.4,97.5,67.9,97.4,68.3C97.4,68.2,97.4,68.2,97.4,68.3z M96.6,71.2c0.4,0.6,0.8,1.5,0.4,2.2c0,0.1-0.1,0.1-0.1,0.2
		c-0.3,0-0.4,0-0.4-0.1c-0.2-0.1-0.2-0.5-0.1-0.8c0.2-0.9-0.2-0.8-0.7-1.2c-0.1-0.3-0.1-0.7,0.1-0.9C96.1,70.3,96.4,70.9,96.6,71.2z
		 M96.1,72.2c-0.2,0.3-0.5,0.7-0.9,0.8C94.5,72.4,95.6,71.4,96.1,72.2z M95.4,60.1C95.4,60.2,95.3,60.2,95.4,60.1
		c-0.3,0.3-0.6-0.2-0.5-0.5C95,59.1,95.6,59.6,95.4,60.1C95.4,60.1,95.4,60,95.4,60.1z M95.1,56.1c0,0,0,0.1-0.1,0.2
		c-0.6-0.3-0.3-1.5,0.4-1.3C95.4,55.4,95.3,55.8,95.1,56.1z M94.7,60.7c-0.1,0.3-0.4,0.2-0.4-0.1C94.5,60.4,94.6,60.5,94.7,60.7z
		 M94.8,63c0,0.1-0.1,0.2-0.3,0.3C93.9,63.2,94.5,62.3,94.8,63z M96.4,75.6c-0.3-0.3-0.2-0.6,0.1-0.8C96.9,75,96.8,75.6,96.4,75.6z
		 M99.2,76c-0.1,0.1-0.1,0.1-0.1,0.1c-0.7,0.4-1.4,0.3-2.1-0.2c-0.8-0.6,1.1-1,1.3-1.3c0.2,0.2,0.4,0.3,0.6,0.3
		C99.5,75,99.3,75.6,99.2,76z M98.8,69.6C99.2,70.1,98.2,70.1,98.8,69.6L98.8,69.6z M99.2,64.5c-0.4,0.2-0.9-0.2-0.4-0.5
		c0.4-0.2,0.4,0.2,0.6,0.4C99.2,64.5,99.2,64.5,99.2,64.5z M99.1,53.1c-0.3,0.3-0.8,0.4-1.2,0.5c0,0-0.1,0-0.1,0
		c-0.1-0.2-0.1-0.3,0-0.3c0.1-0.2,0.3-0.4,0.5-0.5c0.3-0.2,0.5-0.8,0.7-0.8C99.7,52,99.4,52.8,99.1,53.1z M99,48.2
		c0.1,0,0.4,0.3,0.3,0.4C98.9,49.1,98.5,48.4,99,48.2z M99.8,56.4c-0.4-0.1-0.3-0.7,0.1-0.6C100.1,56,100,56.2,99.8,56.4z M100,48.8
		C99.3,48,101,48.6,100,48.8L100,48.8z M100.7,51.7C100.2,50.6,101.8,51.5,100.7,51.7L100.7,51.7z M101.1,47.7
		C101.3,48.8,100,47.5,101.1,47.7L101.1,47.7z M103.9,66.7c-0.4,0.3-1-0.5-0.7-0.8C103.6,65.6,104.2,66.5,103.9,66.7z M104.2,70.9
		C103.1,72.1,103.4,69.3,104.2,70.9L104.2,70.9z M103.5,57.8c-0.3-0.1-0.6-0.1-0.3-0.5c0.4-0.5,0.8,0,0.4,0.4
		C103.6,57.8,103.6,57.8,103.5,57.8z M103.2,54.6c-0.7,0.2-1.3-1.3-0.4-1.4C102.8,53.6,103.6,54.1,103.2,54.6z M103,65.2
		c-0.1,0.2-0.3,0.4-0.5,0.3C102,65.1,102.7,64.5,103,65.2z M101.8,43.9c-0.1-0.1-0.2-0.2-0.2-0.3C101.9,43.2,102.3,43.7,101.8,43.9z
		 M102.2,48.6c0.2,0.2,0.2,0.3,0,0.4C101.9,49,101.9,48.6,102.2,48.6z M101.4,50.8C101.4,50.7,101.4,50.7,101.4,50.8
		C102,50.4,101.9,51.7,101.4,50.8z M101.4,57.6C101.4,57.6,101.4,57.6,101.4,57.6C101.4,57.5,101.4,57.5,101.4,57.6
		c0-0.2,0.1-0.2,0.1-0.3C101.9,57.6,101.6,57.7,101.4,57.6z M102.3,57.9c-0.1,0.1,0,0.2-0.1,0.3C101.4,58.7,101.7,57,102.3,57.9z
		 M102.1,73.6C102.1,73.6,102.1,73.5,102.1,73.6c-0.1-0.1-0.1-0.1-0.1-0.2c0.1-0.5,0.7-0.7,0.8,0C103.1,74.1,102.4,73.9,102.1,73.6z
		 M103,76.3c-0.5-0.5-0.2-1.5,0.4-1.3C103.7,75.4,103.4,75.9,103,76.3z M103.5,73.7C103.5,73.7,103.5,73.7,103.5,73.7
		c-0.3,0-0.5-0.2-0.4-0.4C103.4,73,103.8,73.4,103.5,73.7C103.6,73.7,103.6,73.7,103.5,73.7z M103.4,72.3c-0.2-0.2-0.2-0.2-0.1-0.1
		c-0.1-0.3,0.2-0.6,0.5-0.6C104.1,72,103.9,72.3,103.4,72.3z M104.5,75.8C103.3,75.3,105.3,74.6,104.5,75.8L104.5,75.8z M106.1,72
		c-0.2-0.2-2-1.3-1.5-1.7c0.7-0.4,0.9,0.2,1.4,0.6C106.4,71.3,106.6,71.6,106.1,72z M105.1,66.5c0.2-1,1.2-0.7,1.6-0.2
		c0,0,0,0-0.1,0C106.3,66.7,105,67.4,105.1,66.5z M106.8,54.6c-0.2-0.4-0.3-0.7,0.1-1C107.5,53.8,107.2,54.6,106.8,54.6z
		 M107.1,65.4c0,0.2-0.1,0.4-0.4,0.4C106.3,65.4,106.8,65,107.1,65.4z M106.5,40.2c0.1,0,0.2,0,0.3,0.1c0,0,0,0,0,0
		C106.7,40.5,106.5,40.5,106.5,40.2z M106.7,68.3c0.4,0.2,0.9,0.8,0.3,1.1C106.6,69.3,106.1,68.6,106.7,68.3z M106.9,71.5
		C106.9,71.4,106.9,71.4,106.9,71.5c-0.2-0.3,0-0.5,0.2-0.2C107.1,71.3,107,71.4,106.9,71.5z M107.1,70.8c-0.4-0.1-0.8-0.7-0.4-1
		c0.4-0.3,0.8,0.5,0.5,0.9C107.3,70.7,107.3,70.7,107.1,70.8z M107.8,57.5C106.9,58.2,107.4,56.6,107.8,57.5L107.8,57.5z
		 M107.7,55.3C107.1,56.5,106.6,54.2,107.7,55.3L107.7,55.3z M106.9,36.2c0.3-0.1,0.3,0,0.2,0c0.4,0.1,0.5,0.7,0.4,1
		c-0.1,0.4-0.5-0.2-0.6-0.3C106.7,36.4,106.8,36.4,106.9,36.2z M106.2,36.9C107.3,36.9,105.8,37.9,106.2,36.9
		C106.2,37,106.2,36.9,106.2,36.9z M106.1,39.9c-0.6,0.1-0.9-0.2-0.8-0.7C105.8,38.9,106.6,39.4,106.1,39.9z M105.3,51.3
		c0.2-0.2,0.4,0,0.4,0.2C105.5,51.6,105.3,51.5,105.3,51.3z M105.2,52.8c-0.1-0.1-0.1-0.2-0.1-0.3C105.4,52.3,105.6,52.7,105.2,52.8
		z M105.1,38.4c0,0,0,0,0.1,0c0.3,0.3,0,0.5-0.3,0.5C104.8,38.8,104.9,38.5,105.1,38.4z M104.5,54.2
		C104.5,54.2,104.5,54.2,104.5,54.2C105.2,55,103.9,54.6,104.5,54.2z M105.9,54.4c0.6,1.1-1.2,1.5-1.8,0.8
		C104.4,54.5,105.4,55,105.9,54.4z M103.7,53c0.2,0.3,0.5,0.5,0.4,0.8C103.6,54.2,103.1,53.3,103.7,53z M94.3,27.5
		C94.3,27.5,94.3,27.5,94.3,27.5c0.4,0.2,0.9,0.2,1.4,0.4c0.4,0.2,0.7,0.2,1,0.4c0.4,0.2,1.1,0.5,1.5,0.5c0.3,0.1,0.4,0,0.6,0.2
		c0.1,0.1,0.3,0.2,0.5,0.2c0.3-0.1,0.6,0.5,0.9,0.6c0.2,0.1,0.5,0.4,0.7,0.5c0.1,0.1,0.4,0.1,0.4,0.2c0.3,0.6,2.1,0.5,2.1,1.3
		c-0.3,0-0.9-0.5-1.1-0.6c-0.2-0.2-0.6-0.1-0.7-0.4c-0.9-0.5-1.9-0.9-2.8-1.3c-0.5-0.2-0.9-0.4-1.4-0.5c-0.2-0.1-0.9-0.3-1.1-0.5
		c-0.1-0.1-0.5-0.2-0.6-0.3c-0.3-0.2-0.7-0.2-1-0.3c-0.2-0.1-1-0.3-1-0.6C93.9,27.5,94.1,27.5,94.3,27.5z M93.8,52.9
		C93.8,52.9,93.9,52.9,93.8,52.9C94,53,94,53,94,53.1c0.1,0.3,0.2,0.7-0.2,0.7C93.5,53.7,93.5,53.1,93.8,52.9z M93.4,58
		c-0.2,0.2-0.2,0.6-0.5,0.6C92.6,58.3,92.9,57.5,93.4,58z M92.9,53.8C93.8,54.4,92,54.5,92.9,53.8L92.9,53.8z M92.3,59.9
		c0.2-0.3,0.7-0.6,1.1-0.7c0,0,0,0,0.1,0c0.1,0,0.1,0,0.1,0.1c0.3,0.2,0.4,0.5,0.1,0.8c-0.3-0.2-0.6,0-0.9,0.1
		C92.5,60.2,92.1,60.2,92.3,59.9z M91.4,71.3C91.8,71.5,91,71.7,91.4,71.3L91.4,71.3z M91.3,50.5C91.3,50.5,91.3,50.5,91.3,50.5
		C91.7,50.9,90.5,50.9,91.3,50.5z M90.8,54.1c0.5,0.3,0.4,0.9,0,1.2C90.4,55.1,90.5,54.4,90.8,54.1z M90.7,64.5
		C90.7,64.5,90.7,64.5,90.7,64.5c0.3,0.3,0.1,0.7-0.3,0.2C90.5,64.6,90.6,64.6,90.7,64.5z M89.6,74c0,0,0,0-0.1,0.1
		c-0.2-0.2-0.4-0.7,0.1-0.7C89.8,73.6,89.8,73.9,89.6,74z M89.6,56.2C89.2,57.1,88.9,55.5,89.6,56.2L89.6,56.2z M88.5,63.2
		c0.7,0,1.2,1.3,0.3,1.5C88.6,64.4,87.9,63.6,88.5,63.2z M88,59.1L88,59.1C88,59.1,88.1,59.1,88,59.1c0.2,0.1,0.2,0.2,0.2,0.2
		c0.1,0.5-0.6,1-0.9,1.3C86.4,60.6,87.6,59.4,88,59.1z M87.4,58.7C87.4,58.7,87.4,58.8,87.4,58.7c0.1,0.1,0,0.1,0,0.1
		c-0.2,0.3-0.5,0.5-0.8,0.3C86,58.7,86.9,58.4,87.4,58.7z M86.4,61.4c0,0,0,0,0.1,0c0.2,0.3,0.3,0.8-0.3,0.6
		C86,61.8,86.1,61.5,86.4,61.4z M86.3,70.3c0.2,0.1,0.1,0.2,0,0.4C85.9,70.6,86,70.3,86.3,70.3z M85.8,61.2
		c-0.1,0.2-0.2,0.4-0.5,0.4C84.7,61.2,85.5,60.6,85.8,61.2z M85.3,60.4c0,0.2-0.3,0.4-0.4,0.1C84.9,60.3,85.2,60.1,85.3,60.4z
		 M82.6,68.4c-0.1,0.1-0.1,0.1-0.1,0.2C81.9,68.9,82.2,67.8,82.6,68.4z M82.6,75.4c0-0.1,0.1-0.1,0,0.1c0,0-0.1,0.1-0.1,0.1
		c-0.3,0.3-0.5-0.1-0.6-0.3C82.1,74.8,82.7,75,82.6,75.4z M80.5,76c0.3,0.3,0.3,0.6-0.1,0.8C79.9,76.7,80,75.8,80.5,76z M76.5,35.7
		c0.2,0.3,0.5,0.7,0.1,1c-0.2-0.2-0.3-0.5-0.5-0.7C76.2,35.9,76.3,35.7,76.5,35.7z M51.8,68c-0.5-0.6-0.7-1.8,0.2-1.7
		C52,66.8,52.4,67.4,51.8,68z M52.1,61.2C52.1,61.2,52.1,61.2,52.1,61.2c-0.2-0.1-0.1,0.3-0.4-0.1C51.7,60.6,52.4,60.8,52.1,61.2z
		 M54,75.4C54,75.4,54,75.4,54,75.4c-0.5,0.2-0.6-0.6-0.8-0.9c-0.2-0.2-1.5,0.1-0.7-0.7c0.6-0.6,1.6,0.4,1.6,1.2
		C54.3,74.9,54.3,74.9,54,75.4z M53.2,72.7c-0.1,0.7-0.9-0.1-0.2-0.3C53.1,72.5,53.2,72.6,53.2,72.7z M53.2,61.7
		C53.3,61.6,53.3,61.6,53.2,61.7c0.3-0.1,0.5,0.1,0.2,0.3C53.3,61.9,53.2,61.8,53.2,61.7z M56.9,60.1c-0.2,0.2-0.2,0.2-0.1,0.1
		c-0.3,0.2-0.6-0.1-0.7-0.4c-0.1-0.4,0.4-0.2,0.6-0.1C57.3,60.1,56.7,59.7,56.9,60.1z M55.9,65.2C55.9,65.2,55.9,65.2,55.9,65.2
		L55.9,65.2C55.9,65.2,55.9,65.1,55.9,65.2c-0.1-0.1-0.1-0.2-0.1-0.2c-0.2-0.1-0.5,0.1-0.8-0.1c-0.2-0.3-0.2-0.6-0.1-0.8
		c0.2-0.5,0.8-0.8,1.3-0.7c1.4,0.3-0.1,2.2-0.2,2.9C55.6,66.1,55.9,65.6,55.9,65.2z M54.6,54.2c-0.2-0.5,0.4-0.9,0.7-1.2
		c0,0.6,0.9,0.9,1.3,1.2C56,54.2,55.3,54.2,54.6,54.2z M55.2,65.1c0.1,0,0.1,0.1,0.1,0.1l0,0c0,0,0,0,0.1,0.1
		c0.2,0.2,0.2,0.6,0.1,0.9c-0.1,0.2-0.1,0.3-0.2,0.4c0.1,0.2,0.4,0.2,0.4,0.5c0.6-0.6,0.7,0.5,0.2,0.2c-0.3-0.2-0.4,0-0.8,0
		c-0.4,0-0.9-0.2-1.2-0.5C54.5,66.4,54.9,65.8,55.2,65.1z M54.6,77.1c0,0.1-0.1,0.1-0.3,0c0-0.5,0.1-2.1,0.9-1.8
		C56,75.7,55.2,77,54.6,77.1z M57.1,71.4c-0.8,0.6-1.3-0.1-1.2-0.9c-0.3,0.4-1.2,0.8-1-0.1c0.1-0.6,1.4-1.3,1.7-0.5
		c0.2,0.7,0.8-0.1,0.9,0.6C57.6,70.8,57.4,71.1,57.1,71.4z M60,71.7C60,71.7,60,71.7,60,71.7C59.8,71.8,59.9,71.7,60,71.7
		c-0.3,0.2-0.7-0.1-0.4-0.4C59.7,71,60.2,71.4,60,71.7z M60.2,68.2c-0.9-0.9-2.2-0.2-3.2-1c0.3-0.9,1.1-1.2,1.9-1
		c0.9,0.2,1.7,0.6,2.5,1.1C62.7,67.9,60.5,68,60.2,68.2z M57.7,51.8c0.4-0.6,0.3-1.1,0.6-1.7c0.5-0.9,1.3-0.1,1.8,0.3
		c0.7,0.4,0,1.1-0.6,1.1c-0.4,0-0.6,0-0.9,0.2C58.2,51.9,57.9,52.3,57.7,51.8z M62.2,75c-0.2-0.2-0.2-0.3-0.2-0.3
		c-0.1-0.4,0.4-0.9,0.8-0.9c0.3,0,0.4,0.2,0.5,0.4C63,74.5,62.6,74.8,62.2,75z M62.5,59.3c0.2-0.2,0.8-0.2,0.5,0.2
		c-0.1,0.2-0.4,0.1-0.5,0C62.5,59.5,62.5,59.4,62.5,59.3z M64.9,67.2c-0.5,0.5-1-0.5-0.2-0.6C64.9,66.8,65,67,64.9,67.2z M65.9,46.5
		c-0.3,0.2-0.9,0.3-1.3,0.4c0-0.1,0-0.2,0-0.3c0-0.4,0-0.7,0.3-1c0.4-0.3,0.9-0.4,1.1,0C66.3,46.1,66.4,46.2,65.9,46.5z M66.2,59.1
		c-0.5,0.4-1.4-0.1-1.3-0.8c0,0,0,0,0-0.1c0.1-0.1,0.2-0.1,0.2,0C65.6,58.3,66.1,58.8,66.2,59.1z M65.3,63.5c-0.2,0-0.6-0.5-0.2-0.6
		C65.5,62.8,65.6,63.2,65.3,63.5C65.4,63.4,65.4,63.5,65.3,63.5z M65.7,67.1c-0.1-0.1-0.1-0.1-0.1-0.1c-0.2-0.4,0.2-0.9,0.7-0.6
		C66.9,66.8,66.2,67.2,65.7,67.1z M67.7,58.3C67.7,58.3,67.7,58.4,67.7,58.3c-0.2-0.1-0.3-0.2-0.4-0.3c-0.2,0.2-0.5,0.4-0.7,0.1
		c-0.2-0.5,0.6-0.7,0.8-0.2C68,57.1,68.4,58.1,67.7,58.3z M68,48.4c0.2-0.2,0.5,0.1,0.2,0.3C68.1,48.7,68,48.6,68,48.4z M67.6,66.8
		c-0.1-0.1,0-0.2,0.2-0.3C68,66.6,67.7,66.8,67.6,66.8z M67.5,49.9C66.7,49.4,68.4,49.2,67.5,49.9L67.5,49.9z M67.5,57.1
		c-0.3,0.3-0.7,0.1-0.8-0.2C67,56.6,67.4,56.9,67.5,57.1z M66.8,45.2c-0.8-0.1-0.3-0.6,0.1-0.8C67.2,44.2,67.3,45,66.8,45.2z
		 M66.6,59.2C66,58.7,67.6,58.7,66.6,59.2L66.6,59.2z M68.3,69.5c-0.2-0.1-0.5-0.1-0.3-0.4c0.2-0.5,0.7,0,0.4,0.3
		C68.4,69.4,68.4,69.4,68.3,69.5z M68.2,68.5c-0.3-0.3-1.2-0.9-1.1-1.5C67,67,67,67,67.3,66.7C67.8,67,69,67.7,68.2,68.5z
		 M70.4,72.4c-0.8,0.6-1-0.9-0.3-1C70.5,71.7,70.5,72.1,70.4,72.4z M70.9,46.4c-0.5,0.5-1.2,0.6-1.4-0.2c-0.2-0.9-0.3-1.3-1-1.9
		c0.3-0.2,0.2-0.7,0.5-1c0.3-0.4,0.8,0.9,0.9,1c0.3,0.6,0.3,0.5,0.8,0.8C71.3,45.5,71,45.8,70.9,46.4z M75.4,73.1
		c-0.2,0.2-0.3,0.3-0.5,0.2C74.7,72.8,75.3,72.6,75.4,73.1z M70.4,32.3c0.3-0.1,1-0.5,1.1,0.2c0,0.4-0.7,0.8-1,1.1
		C70.2,33.1,70.2,32.8,70.4,32.3z M67.5,35.7c0.1,0,0.2-0.1,0.4-0.1c0.1,0.6,0.1,0.5-0.5,0.7c0-0.2-0.1-0.4-0.1-0.5
		C67.4,35.7,67.4,35.7,67.5,35.7z M67.1,40.2c0.6-0.1,0.8-0.2,1.3-0.6c0.2-0.1,0.7-1,0.8-1c1.2,0.4,1.9,0.6,2.8,1.4
		c0.3-0.6,0.6-1,1.1-1.3c0.3,0.7,0.4,0.9,0,1.5c-0.3,0.6-0.6,0.8-1.2,1.2c-0.3-0.8-0.6,0-1.1-0.2c-0.3-0.1-0.7-1-0.8-1.3
		c-0.3,0.2-0.6,0.4-0.9,0.6c-0.3,0.2-0.4-0.4-0.7,0c-0.1,0.1-0.6,0.8-0.8,0.5C67.3,40.8,66.9,40.5,67.1,40.2z M65.1,43
		c-0.2-0.1-0.9-0.3-1-0.6c-0.1-0.3,0.3-0.7,0.5-0.8c0.3-0.3,0.4-0.4,0.9-0.4c0.2,0,0.3,0.7,0.4,0.9c0.2,0.5,0.9,1.1,1.2,1.5
		c-0.6,0.4-1.2,0.8-1.8,1.2c-0.5,0.3-1.1,0.3-1.7,0.3c0-0.7-0.1-1,0.4-1.5c0.3,0,0.7-0.1,1-0.1C65.3,43.5,65.3,43.1,65.1,43z
		 M61.1,41.4c0.8-0.5,1-0.9,1.5-1.7c0.2-0.3,1.3,0.8,1.3,1c0.1,0.5,0.1,0.5-0.4,0.7c-0.4,0.2-0.9,0.5-1.3,0.8
		C61.8,42.5,60.6,42.1,61.1,41.4z M59.6,40.3c0.3,0.2,1.1,0.5,0.6,0.8C59.9,41.3,59.1,40.7,59.6,40.3z M58.7,44.1
		c0.6,0.3,0.8,0.5,1.4,0.4c0.2,0,0.5,0.6,0.8,0.6c0.3,0,1.1-0.1,1.2,0.2c0.2,0.6,0.2,0.8,0.8,0.8c0.3,0,1-0.2,0.8,0.4
		c-0.2,0.4-0.5,0.7-0.8,1c-0.5,0.5-0.7,0.5-0.5,1.2c-0.8,0.1-1.3,0.1-1.8,0.6c-0.3-0.9-0.4-1.2-0.2-2.1c0.1-0.2-0.4-0.7-0.5-0.9
		c-0.2-0.2-0.2-0.7-0.2-1c-0.4,0.3-2.5,1.6-2.8,1c-0.3-0.6-0.5-1.1-0.6-1.7c0-0.1,0.5-0.3,0.7-0.3c0.2,0,0.5,0.3,0.7,0.4
		C57.9,44.6,58.6,44,58.7,44.1z M56.3,41.9c0.3-0.4,0.6-0.7,0.9-1.1c0.2-0.2,0.5-0.3,0.5,0.1c-0.2,1.1-0.2,1.6-0.9,2.4
		C56.5,42.9,55.7,42.1,56.3,41.9z M54.9,46.4c0.2,0.2,0.5,0.8,0.8,0.8c0.3,0,0.6-0.2,1-0.1c0.5,0,1,0.1,1.5,0.1c0,0,0.1,0.4,0,0.4
		c-0.1,0.1-0.5,0.2-0.6,0.3c-0.5,0.2-0.8,0.2-0.8,0.7c0,0.6-0.4,0.7-0.8,1c-0.2,0.1-0.4,0.3-0.6,0.4s-0.2-0.1-0.4-0.1
		c-0.6,0.1-0.8,0.2-1.2-0.2c0.3-0.2,1.1-1,1.3-0.6c0.2-0.7,0.3-0.8-0.2-1.4c-0.3-0.4-0.4-0.8-0.6-1.3C54.5,46.5,54.7,46.4,54.9,46.4
		z M53.9,40.8c0.6-0.1,0.6,0.1,0.7,0.6c0.1,0.5-0.1,0.7-0.4,1.1C53.8,41.9,53.8,41.5,53.9,40.8z M53.3,44.1c0.3,0.4,0.9,1.8,0.4,2.1
		c-0.1-0.9-0.8-1.4-1.4-2.1C52.7,44.2,53,44.2,53.3,44.1z M51.5,52.4c0.7-0.8,1.4-1.2,2.3-1.8c0.2,0.3,0.3,0.5,0.7,0.6
		c0.5,0.1,0.9,0,0.9,0.6c0,1.1-1.4-0.2-1.7-0.3c-0.2,0.4-0.7,2.4-1.1,2.5c-0.7,0.1-0.9,0.4-1.1-0.3C51.3,53.1,51.3,52.9,51.5,52.4z
		 M49.6,70.3c0.2,0.2,0.3,0.4,0.3,0.6C49.2,71.6,48.7,70.2,49.6,70.3z M50,66.6c-0.4-0.2-0.3-0.8,0.2-0.9C50.6,66,50.4,66.5,50,66.6
		z M50.8,65.6C50.8,65.6,50.8,65.6,50.8,65.6C50.7,65.7,50.7,65.7,50.8,65.6c-0.4,0-0.5-0.4-0.2-0.5C51.1,64.9,51,65.4,50.8,65.6z
		 M50.4,53.9c0.7-0.1,0.5,0,0.7,0.6c0.1,0.6,0,0.7-0.4,1.2c-0.3,0.4-0.5-0.4-0.6-0.7C50,54.7,50.3,54.2,50.4,53.9z M49.1,58.2
		c0.4-0.2,0.9-0.7,1.2-0.2c-0.3,0.3-0.6,0.6-0.9,0.9c-0.1,0.1-0.4,0-0.5-0.1C48.8,58.5,49,58.3,49.1,58.2z M49,65.8
		c0.1,0.1,0.2,0.3,0.2,0.4C48.8,66.7,48.4,65.9,49,65.8z M49.1,68.6C49,68.7,49,68.7,49,68.8C47.7,69.4,48.5,67.2,49.1,68.6z
		 M46,49.2c0.3,0.3-0.1,0.7-0.4,0.7C45,49.4,45.6,48.9,46,49.2z M45.7,65.1c0.4,0.4,0.4,0.8-0.1,1.1C45,66,44.9,65.1,45.7,65.1z
		 M45.5,64.4C45.5,64.4,45.6,64.4,45.5,64.4c0.2-0.1,0.3,0.1,0.1,0.3C45.6,64.6,45.5,64.5,45.5,64.4z M45.8,56.7
		c0,0.2-0.4,0.4-0.6,0.4C44.7,56.6,45.5,56,45.8,56.7z M42.4,77c-0.2,0-0.1-0.3-0.1-0.4C42.4,76.7,42.5,76.9,42.4,77z M42.2,74.8
		c0.1,0.2,0,0.4-0.1,0.6c-0.7-1-0.1-2.1,0.2-3c0.4,0.5-0.1,1.1,0.1,1.7c0.1,0.2,0.3,0.1,0.3,0.2C43,74.6,42.5,74.9,42.2,74.8z
		 M42.5,66.9c-0.4-0.2-0.5-0.4-0.2-0.8c0.1-0.2,0.3-0.3,0.6-0.3C43.1,66.2,42.7,66.6,42.5,66.9z M43,59.8
		C42.7,60.1,42.7,59.3,43,59.8L43,59.8z M42.8,56.4c-0.4-0.4-0.2-1.4,0.4-1.6C43.2,54.8,42.9,56.2,42.8,56.4z M43.3,66.9
		C43.3,66.9,43.3,66.9,43.3,66.9C42.6,66.1,44.2,66.6,43.3,66.9z M44.1,52.7C44.1,52.6,44.2,52.3,44.1,52.7
		c-0.2,0.5-0.3,0.9-0.6,1.4c0.1-0.2-0.1-0.6-0.1-0.8c0-0.4,0.2-0.8,0.3-1.2c0.3-0.6,0.7-1.3,1.4-1.6C45.1,51.5,44.3,52,44.1,52.7z
		 M45.1,66.8C45.1,66.8,45.1,66.8,45.1,66.8c0-0.5,0.4-0.4,0.5-0.2C45.6,66.9,45.3,67,45.1,66.8z M46.1,68.6
		c0.4,0.3,0.5,0.8,0.1,1.2C45.6,69.7,45.4,68.7,46.1,68.6z M46.5,72.8C46.3,72.8,46.4,72.8,46.5,72.8c-0.3-0.2-0.2-0.7,0.2-0.2
		C46.7,72.7,46.6,72.8,46.5,72.8z"/>
	<path class="st0" d="M43.2,66.9C43.3,66.9,43.3,66.9,43.2,66.9C43.4,66.9,43.2,66.9,43.2,66.9z"/>
	<path class="st0" d="M45.6,64.4C45.6,64.4,45.5,64.4,45.6,64.4C45.6,64.5,45.6,64.3,45.6,64.4z"/>
	<path class="st0" d="M43,59.8C43,59.8,43,59.8,43,59.8L43,59.8z"/>
	<path class="st0" d="M50.7,65.7C50.7,65.7,50.7,65.7,50.7,65.7C50.7,65.7,50.7,65.6,50.7,65.7C50.8,65.6,50.7,65.6,50.7,65.7z"/>
	<path class="st0" d="M55.4,65.3C55.4,65.2,55.4,65.2,55.4,65.3L55.4,65.3c-0.1-0.1-0.1-0.1-0.2-0.2C54.9,65.7,55.6,65.5,55.4,65.3z
		"/>
	<path class="st0" d="M88.2,59.3c0-0.1-0.1-0.2-0.1-0.3c0,0-0.1,0-0.1,0.1l0,0C87.7,59.3,88.2,59.5,88.2,59.3z"/>
	<path class="st0" d="M97.3,68.4C97.3,68.3,97.3,68.3,97.3,68.4c0.1,0,0.1-0.1,0.1-0.1C97.4,68.3,97.3,68.3,97.3,68.4z"/>
	<path class="st0" d="M98.4,55.7C98.6,55.6,98.3,55.6,98.4,55.7L98.4,55.7z"/>
	<path class="st0" d="M96.5,73.5c0.1,0.1,0.2,0.1,0.4,0.1c0.1-0.1,0.1-0.2,0.1-0.2C97.2,73,96.4,73.4,96.5,73.5z"/>
	<path class="st0" d="M98.5,67.5C98.5,67.5,98.6,67.5,98.5,67.5C98.6,67.4,98.4,67.5,98.5,67.5z"/>
	<path class="st0" d="M92.5,74.9C92.5,74.9,92.6,74.9,92.5,74.9C92.6,75,92.6,74.8,92.5,74.9z"/>
	<path class="st0" d="M87.4,58.9C87.4,58.8,87.5,58.8,87.4,58.9c0-0.1,0-0.1,0-0.1C87.2,58.6,87.3,59.1,87.4,58.9z"/>
	<path class="st0" d="M91.4,71.3C91.4,71.3,91.5,71.3,91.4,71.3L91.4,71.3z"/>
	<path class="st0" d="M95,56.3c0-0.1,0.1-0.1,0.1-0.2C95.1,56.1,94.9,56.3,95,56.3z"/>
	<path class="st0" d="M95.4,60.1C95.4,60.1,95.4,60.1,95.4,60.1C95.4,60.1,95.4,60.2,95.4,60.1C95.4,60.2,95.4,60.2,95.4,60.1z"/>
	<path class="st0" d="M90.8,64.5C90.7,64.5,90.7,64.5,90.8,64.5C90.6,64.5,90.8,64.6,90.8,64.5z"/>
	<path class="st0" d="M89.5,74.1c0,0,0.1,0,0.1-0.1C89.6,74,89.4,74,89.5,74.1z"/>
	<path class="st0" d="M91.3,50.6C91.3,50.5,91.3,50.5,91.3,50.6C91.2,50.6,91.4,50.6,91.3,50.6z"/>
	<path class="st0" d="M54.1,75c-0.1,0.1-0.3,0.4-0.2,0.4c0,0,0.1,0,0.1,0C54.1,75.3,54.1,75.1,54.1,75z"/>
	<path class="st0" d="M92.6,61.6C92.6,61.7,92.6,61.7,92.6,61.6C92.6,61.7,92.6,61.7,92.6,61.6z"/>
	<path class="st0" d="M96.9,66.1C96.8,66,96.8,66,96.9,66.1C96.7,66,96.8,66.1,96.9,66.1z"/>
	<path class="st0" d="M93.4,67.1C93.4,67.1,93.4,67.1,93.4,67.1c0.1-0.1,0.1-0.1,0.1-0.1C93.4,67,93.4,67.1,93.4,67.1z"/>
	<path class="st0" d="M52.1,61.3C52.1,61.2,52.1,61.2,52.1,61.3C52.2,61.1,52,61.2,52.1,61.3z"/>
	<path class="st0" d="M53.3,61.6C53.2,61.6,53.2,61.7,53.3,61.6C53.2,61.8,53.3,61.7,53.3,61.6z"/>
	<path class="st0" d="M93.1,64.2C93.1,64.3,93.1,64.3,93.1,64.2C93.2,64.4,93.2,64.2,93.1,64.2z"/>
	<path class="st0" d="M94.1,64.8C94.1,64.7,94.1,64.7,94.1,64.8C94.1,64.7,94,64.7,94.1,64.8C94,64.7,94.1,64.7,94.1,64.8z"/>
	<path class="st0" d="M98.3,58.8C97.9,59.1,98.4,59.1,98.3,58.8L98.3,58.8z"/>
	<path class="st0" d="M97.1,61.8C97.1,61.8,97.1,61.8,97.1,61.8C97.1,61.8,97.1,61.9,97.1,61.8z"/>
	<path class="st0" d="M82.5,75.6C82.5,75.5,82.6,75.5,82.5,75.6c0.1-0.1,0.1-0.1,0.1-0.2C82.6,75.4,82.5,75.5,82.5,75.6z"/>
	<path class="st0" d="M96.8,52C96.8,52,96.8,52.1,96.8,52C96.8,52.1,96.8,52,96.8,52z"/>
	<path class="st0" d="M86.5,61.4c-0.1,0-0.1,0-0.1,0C86.4,61.4,86.6,61.5,86.5,61.4z"/>
	<path class="st0" d="M102.1,73.4C102.1,73.4,102.1,73.5,102.1,73.4c0,0.1,0,0.1,0.1,0.2C102.2,73.6,102.1,73.4,102.1,73.4z"/>
	<path class="st0" d="M107,36.1c-0.1,0-0.1,0-0.2,0C106.8,36.2,107,36.2,107,36.1z"/>
	<path class="st0" d="M99.1,76.1c0.1,0,0.1-0.1,0.1-0.1C99.2,75.7,98.9,76.2,99.1,76.1z"/>
	<path class="st0" d="M103.5,73.7C103.5,73.7,103.5,73.7,103.5,73.7c0.1,0,0.1,0,0.1-0.1C103.6,73.7,103.4,73.7,103.5,73.7z"/>
	<path class="st0" d="M106.2,36.9C106.2,36.9,106.2,37,106.2,36.9C106.1,37.1,106.3,36.9,106.2,36.9z"/>
	<path class="st0" d="M101.4,57.5C101.4,57.5,101.4,57.5,101.4,57.5C101.4,57.6,101.4,57.6,101.4,57.5
		C101.5,57.6,101.4,57.5,101.4,57.5z"/>
	<path class="st0" d="M101.4,50.7C101.4,50.7,101.4,50.7,101.4,50.7C101.4,50.8,101.5,50.7,101.4,50.7z"/>
	<path class="st0" d="M106.9,71.4C106.9,71.4,106.9,71.4,106.9,71.4C107,71.4,106.8,71.4,106.9,71.4z"/>
	<path class="st0" d="M107.1,70.8c0.1,0,0.1-0.1,0.1-0.1C107.1,70.7,107,70.8,107.1,70.8z"/>
	<path class="st0" d="M106.7,66.4C106.7,66.4,106.7,66.4,106.7,66.4C106.5,66.1,106.5,66.6,106.7,66.4z"/>
	<path class="st0" d="M103.2,72.2c0,0.1,0.1,0.1,0.1,0.1C103.5,72.3,103.3,72.2,103.2,72.2z"/>
	<path class="st0" d="M106.1,72C106.3,71.8,105.2,71.4,106.1,72L106.1,72z"/>
	<path class="st0" d="M107.8,57.5C107.7,57.4,107.7,57.5,107.8,57.5L107.8,57.5z"/>
	<path class="st0" d="M99.2,64.5c0.1,0,0.1,0,0.1-0.1C99.3,64.3,99.2,64.4,99.2,64.5z"/>
	<path class="st0" d="M97.7,53.3c0,0.1,0,0.2,0,0.3c0,0,0.1,0,0.1,0C98.1,53.5,97.9,53.3,97.7,53.3z"/>
	<path class="st0" d="M92.9,53.8C92.8,53.9,93.1,53.9,92.9,53.8L92.9,53.8z"/>
	<path class="st0" d="M98.8,69.6C98.7,69.7,98.9,69.7,98.8,69.6L98.8,69.6z"/>
	<path class="st0" d="M93.5,59.3C93.5,59.2,93.5,59.2,93.5,59.3c-0.1-0.1-0.1,0-0.1,0C93.2,59.3,93.6,59.3,93.5,59.3z"/>
	<path class="st0" d="M100,48.8C100.2,48.8,99.9,48.7,100,48.8L100,48.8z"/>
	<path class="st0" d="M103.5,57.8c0.1,0,0.1-0.1,0.1-0.1C103.6,57.7,103.4,57.8,103.5,57.8z"/>
	<path class="st0" d="M104.6,54.2C104.5,54.2,104.5,54.2,104.6,54.2C104.4,54.3,104.6,54.2,104.6,54.2z"/>
	<path class="st0" d="M94,53.1c0-0.1-0.1-0.1-0.1-0.2c0,0-0.1,0-0.1,0C93.8,53,94,53.1,94,53.1z"/>
	<path class="st0" d="M93.4,58C93.3,57.9,93.1,58.2,93.4,58L93.4,58z"/>
	<path class="st0" d="M105.3,38.4c0,0-0.1,0-0.1,0C105.2,38.5,105.3,38.5,105.3,38.4z"/>
	<path class="st0" d="M87.8,72.8C87.9,72.8,87.8,72.8,87.8,72.8L87.8,72.8z"/>
	<path class="st0" d="M65.3,63.5C65.3,63.5,65.3,63.5,65.3,63.5C65.3,63.4,65.2,63.5,65.3,63.5z"/>
	<path class="st0" d="M112,40.9C112,41,112,40.9,112,40.9L112,40.9z"/>
	<path class="st0" d="M114.5,55.5c0.1-0.1,0.1-0.1,0.1-0.2C114.4,55.3,114.2,55.6,114.5,55.5z"/>
	<path class="st0" d="M65.2,58.3c-0.1,0-0.1,0-0.2,0c0,0,0,0,0,0.1C65,58.5,65.2,58.3,65.2,58.3z"/>
	<path class="st0" d="M65.7,67c0,0,0,0.1,0.1,0.1C65.9,67.2,65.7,67,65.7,67z"/>
	<path class="st0" d="M114.2,47.8C114.2,47.8,114.2,47.8,114.2,47.8C114.1,47.9,114.3,47.9,114.2,47.8z"/>
	<path class="st0" d="M62.5,59.3c0,0.1,0,0.1,0,0.1C62.6,59.4,62.6,59.2,62.5,59.3z"/>
	<path class="st0" d="M111.2,64.5C111.2,64.4,111.1,64.4,111.2,64.5c-0.1-0.1-0.1-0.1-0.2-0.1C111,64.4,111.2,64.6,111.2,64.5z"/>
	<path class="st0" d="M62,74.7c0,0.1,0.1,0.2,0.2,0.3C62.4,74.9,62.1,74.7,62,74.7z"/>
	<path class="st0" d="M60.2,68.2C60.7,67.9,59.2,67.2,60.2,68.2L60.2,68.2z"/>
	<path class="st0" d="M116.8,44.1C116.8,44.1,116.8,44,116.8,44.1S117,44.4,116.8,44.1z"/>
	<path class="st0" d="M111.9,64.5C111.9,64.5,111.9,64.5,111.9,64.5C111.9,64.6,111.9,64.5,111.9,64.5
		C111.9,64.5,111.9,64.5,111.9,64.5z"/>
	<path class="st0" d="M112,66.9C112,66.9,112.1,66.9,112,66.9c0.1-0.1,0.2-0.1,0.2-0.2C112.2,66.7,111.9,66.9,112,66.9z"/>
	<path class="st0" d="M66.6,59.2C66.7,59.2,66.5,59.1,66.6,59.2L66.6,59.2z"/>
	<path class="st0" d="M67.7,58.4C67.7,58.4,67.7,58.3,67.7,58.4C67.9,58.2,67.5,58.2,67.7,58.4z"/>
	<path class="st0" d="M68.3,69.5C68.3,69.5,68.3,69.5,68.3,69.5C68.3,69.4,68.2,69.5,68.3,69.5z"/>
	<path class="st0" d="M67.3,66.7c-0.1,0.1-0.1,0.2-0.2,0.3C67.2,67,67.5,66.9,67.3,66.7z"/>
	<path class="st0" d="M113.3,65.8C113.2,65.8,113.2,65.9,113.3,65.8L113.3,65.8z"/>
	<path class="st0" d="M123.5,67.1C123.5,67,123.5,67,123.5,67.1C123.4,67.1,123.4,67.1,123.5,67.1C123.4,67.5,123.6,67.2,123.5,67.1
		z"/>
	<path class="st0" d="M122.8,71.9C122.9,72.2,123.1,71.6,122.8,71.9L122.8,71.9z"/>
	<path class="st0" d="M122.7,57.2C122.7,57.2,122.7,57.1,122.7,57.2C122.6,57.2,122.8,57.2,122.7,57.2z"/>
	<path class="st0" d="M118.4,70.9C118.5,70.9,118.5,70.9,118.4,70.9C118.5,70.9,118.5,70.9,118.4,70.9
		C118.5,70.8,118.4,70.9,118.4,70.9z"/>
	<path class="st0" d="M67.5,49.9C67.6,49.8,67.3,49.8,67.5,49.9L67.5,49.9z"/>
	<path class="st0" d="M114.9,53.9C114.9,53.9,115,54,114.9,53.9C115,53.9,114.9,53.8,114.9,53.9z"/>
	<path class="st0" d="M113.1,58C113.3,58,113,57.9,113.1,58L113.1,58z"/>
	<path class="st0" d="M108.7,55.8C108.6,55.8,108.6,55.8,108.7,55.8C108.6,55.8,108.6,55.9,108.7,55.8z"/>
	<path class="st0" d="M106.8,40.3C106.8,40.3,106.8,40.3,106.8,40.3C106.7,40.3,106.8,40.4,106.8,40.3z"/>
	<path class="st0" d="M87.3,62c-0.1,0-0.1,0-0.1,0C87.2,62,87.4,62.1,87.3,62z"/>
	<path class="st0" d="M86.3,70C86.4,70,86.4,70,86.3,70C86.9,69.9,86.2,69.8,86.3,70z"/>
	<path class="st0" d="M86.9,63.1C86.8,63.2,87.2,63.3,86.9,63.1L86.9,63.1z"/>
	<path class="st0" d="M54.3,77.2c0.1,0,0.2,0,0.3,0C54.7,77,54.3,76.6,54.3,77.2z"/>
	<path class="st0" d="M92.5,71.7C92.5,71.7,92.5,71.7,92.5,71.7C92.5,71.8,92.5,71.8,92.5,71.7C92.5,71.8,92.5,71.7,92.5,71.7z"/>
	<path class="st0" d="M56.8,60.2c0,0,0.1-0.1,0.1-0.1C56.9,60,56.8,60.1,56.8,60.2z"/>
	<path class="st0" d="M87.1,75.5C87.2,75.4,86.9,75.4,87.1,75.5L87.1,75.5z"/>
	<path class="st0" d="M59.9,71.7C59.9,71.7,59.9,71.7,59.9,71.7C59.9,71.7,59.9,71.7,59.9,71.7C59.9,71.7,59.9,71.7,59.9,71.7z"/>
	<path class="st0" d="M74.5,18.2c0,0,0.1-0.1,0.1-0.2C74.5,18.1,74.5,18.1,74.5,18.2z"/>
	<path class="st0" d="M86.7,13.4C86.7,13.4,86.7,13.4,86.7,13.4C86.7,13.5,86.8,13.4,86.7,13.4z"/>
	<path class="st0" d="M72.2,21.7C72.2,21.7,72.2,21.6,72.2,21.7C72.4,21.8,72.2,21.7,72.2,21.7c0.9,0.6,2.2-0.2,3-0.2
		c0.9,0,1.9-0.4,2.9-0.4c0.7,0,1.4-0.3,2.1-0.2c0.8,0,1.3,0,1.9-0.3c0.3-0.2,0.9-0.1,1.2-0.1c0.4,0,1.3-0.1,1.6,0.2
		c0.3,0.3,0.6,0.1,0.9,0c0.2-0.1,0.4,0,0.6,0.1c0.3,0.1,0.5-0.2,0.9-0.1c0.4,0.1,2.4,0,2.5,0.3c0.1,0.2,0.6,0.2,0.7,0.2
		c0.2-0.1,0.3,0.1,0.5,0.2c0.3,0.2,0.6,0,0.9,0.2c0.5,0.2,1.5,0.1,1.1-0.7c-0.3-0.6-0.6-1.1-1-1.6c-0.5-0.5-1.1-0.8-1.5-1.5
		c-0.3-0.5-1.1-0.8-1.2-1.4c0-0.2-0.4-0.6-0.6-0.7c-0.3-0.2-0.2-0.5-0.3-0.8c-0.2-0.3-1-0.7-1-1.1c0-0.1-0.3-0.6-0.4-0.6
		c-0.3-0.2-0.6-0.7-0.6-0.9c0-0.3-0.5-1.4-0.7-1.6c-0.4-0.5-0.2-0.1-0.5-0.2c0-0.1,0-0.3,0-0.4c-0.4,0-0.5-1.2-0.6-1.5
		c-0.2-0.3-0.1-0.8-0.3-1.1c-0.1-0.2-0.3-0.8-0.3-1c0.1-0.5-1.4-3.5-0.8-3.7c0.1,0.2,0.2,0.4,0.3,0.7c0,0.2-0.1,0.5,0,0.8
		c0.1-0.1,0.1-0.7,0.1-0.8c0-0.4-0.2-0.9-0.2-1.2c0-0.1-0.5-1.8-0.6-1.8c-0.7-0.5-0.7,0.8-0.7,1.2C82.1,2.1,82,3,81.7,3.7
		c-0.2,0.6-0.3,1.2-0.5,1.7c-0.1,0.3-0.5,0.9-0.5,1.2c0.1,0.5-0.4,1.2-0.5,1.6C80.1,8.9,80,9.5,79.7,10c-0.2,0.2-0.5,1.5-0.8,1.6
		c-0.4,0.1-0.7,0.9-0.9,1.1c-0.5,0.3-0.4,1.2-0.7,1.7c-0.4,0.5-0.7,1-1.1,1.5c-0.2,0.3-0.4,0.6-0.6,0.9c-0.1,0.3-0.8,0.5-0.8,0.7
		c0,0.1-0.1,0.3-0.2,0.5c0.1-0.1,0.2-0.2,0.3-0.3c0.1-0.3,0.5-0.4,0.7-0.7c0.1-0.2,0.2-0.4,0.3-0.6c0.2-0.1,0.2-0.5,0.3-0.5
		c0.3-0.2,0.5-0.8,0.8-0.9c0.4-0.2,0.6-0.8,0.7-1.1c0.2-0.4,0.5-0.8,0.7-1.3c0.4-0.1-0.2,1-0.2,1c0,0.1-0.2,0.3-0.3,0.4
		c-0.2,0.1,0,0.3-0.2,0.5c-0.3,0.4-0.5,0.9-0.9,1.3c-0.2,0.3-0.3,0.7-0.6,1c-0.2,0.2-0.7,0.6-0.8,0.9c0,0.2-0.4,0.7-0.6,0.7
		c-0.1,0-0.8,0.7-1,0.8c-0.2,0.2-0.9,1.2-1.1,1.2c-0.1-0.2,0-0.2,0.1-0.4c0,0,0,0,0,0c0.2-0.3,1.6-1.3,1.5-1.8c0,0,0-0.1,0-0.1
		c-0.2,0.3-0.6,0.6-0.7,0.8C73.3,19.3,71.2,21,72.2,21.7z M86.7,13.4c0.1,0.1,1.1,1.3,1.1,1.4c0,0.2,0.8,1.3,0.8,1.3
		C88.1,16,86.6,14.1,86.7,13.4C86.7,13.5,86.7,13.4,86.7,13.4z M86.8,20.4c-0.1,0-0.6,0.1-0.7,0C86.2,20.2,86.8,20.1,86.8,20.4z
		 M85.3,10.4C85.4,10.4,85.4,10.4,85.3,10.4c0.2,0.2,0.3,0.7,0.2,0.7c-0.1,0-0.2-0.4-0.2-0.6C85.3,10.5,85.3,10.5,85.3,10.4z
		 M85.1,19.7c0.1,0,0.2,0,0.2,0c0.1,0,0.3,0,0.3,0.2c0,0,0,0.1,0,0.2c-0.1,0.2-0.1,0.2,0.2,0.3c0,0.2-0.7,0.1-0.7,0
		C85.2,20.2,84.9,20,85.1,19.7C85.1,19.7,85.1,19.7,85.1,19.7z M84.3,20.1C82.9,19.9,84.8,19,84.3,20.1L84.3,20.1z M73,21.2
		C72.9,21.2,72.9,21.2,73,21.2C73,21.1,73,21.2,73,21.2c0.6-0.1,1.2-0.4,1.8-0.4c0.6,0,1.8-0.1,2.3-0.4c0.6-0.3,1.8-0.4,2.5-0.3
		c0.6,0,1.7,0.2,2.3,0.1c0.1,0.8-3.2,0.6-3.5,0.6c-0.4,0.1-0.9,0.1-1.4,0.2c-0.6,0-1.1,0-1.6,0.1c-0.6,0-2.3,0.8-2.7,0.1
		C72.8,21.1,72.9,21.1,73,21.2z"/>
	<path class="st0" d="M85.3,10.5C85.4,10.5,85.4,10.4,85.3,10.5c0-0.1,0-0.1,0-0.1C85.3,10.4,85.3,10.4,85.3,10.5z"/>
	<path class="st0" d="M85.2,19.7c-0.1,0-0.1,0-0.2,0c0,0,0,0,0,0C85,19.8,85.2,19.7,85.2,19.7z"/>
	<path class="st0" d="M48.7,9.4C48.7,9.4,48.7,9.4,48.7,9.4C48.6,9.4,48.6,9.4,48.7,9.4z"/>
	<path class="st0" d="M58.9,26.9C58.8,26.9,58.9,26.8,58.9,26.9L58.9,26.9z"/>
	<path class="st0" d="M56.2,15.8L56.2,15.8C56.2,15.8,56.2,15.8,56.2,15.8z"/>
	<path class="st0" d="M63.8,23.9C63.6,23.9,63.9,23.8,63.8,23.9L63.8,23.9z"/>
	<path class="st0" d="M54.2,30.3C54.2,30.3,54.2,30.3,54.2,30.3C54.2,30.2,54.1,30.3,54.2,30.3z"/>
	<path class="st0" d="M50.5,12.5C50.4,12.5,50.5,12.7,50.5,12.5L50.5,12.5z"/>
	<path class="st0" d="M48.7,9.4c0.2,0.3,0.2,0.9,0.3,1.3c0.2,0.3,0.4,0.7,0.6,1.1c0.1,0.2,0.5,1.2,0.5,1.3c0.3,0.5-0.2,0.8,0.6,0.8
		c-0.1,0.4-0.3,0.5-0.2,0.9c0.1,0.3,0.2,0.4,0.2,0.8c0,0.2,0.2,0.3,0.2,0.5c-0.1,0.4,0.1,0.8,0.3,1.1c0.2,0.2,0.4,0.8,0.5,1.1
		c0,0.2,0.1,0.2,0.2,0.3c-0.1,0.2,0,0.2,0.3,0.2c0.1,0.3-0.2,0.4-0.1,0.6c0.3-0.1,0.4-0.3,0.7-0.2c0.3,0.3,0.4,0.8,0.5,1.2
		c0.5-0.2,1.1-0.4,1.6,0c0.5,0.3,0,1.4-0.4,1.1c-0.2-0.1-0.2-0.3-0.4-0.4c-0.2,0.1-0.5,0.2-0.7,0.3c-1,0.2-0.5-0.5-0.9-0.8
		c-0.1,0.2-0.1,0.9,0,1.2c0.1,0.4-0.1,1-0.1,1.4c0,0.2,0.2,1.2,0.1,1.2c-0.4,0.5-0.2,1.5-0.3,2.1c0,0.3,0.1,0.6,0,0.9
		c-0.1,0.3-0.3,0.5-0.2,0.9c0,0.4,0,0.8-0.1,1.2c-0.1,0.2-0.2,0.5-0.3,0.7c-0.2,0.6-0.1,1.3-0.5,1.8c-0.3,0.3,0.5,1.1,0.8,0.7
		c0.1-0.2,0.5-0.5,0.7-0.6c0.7-0.4,1.4-1,2.2-1.4c0.9-0.3,1.2-1.5,2.2-2c0.2-0.1,1.4-0.5,1.5-0.8c0-0.1,0.7-0.5,0.8-0.5
		c0.2-0.1,0.2,0,0.4-0.1c0.2-0.1,0.2-0.3,0.4-0.3c0.4-0.2,0.6-0.2,0.8-0.5c0.1-0.2,0.6-0.2,0.6-0.4c0.1-0.2,0.4-0.2,0.5-0.3
		c0.1-0.2,0.2-0.3,0.4-0.5c0.2-0.2,0.7-0.4,1-0.4c0.2,0,0.7,0,0.8-0.2c0.5-0.7,1.7-0.6,2.3-1.1c0.2-0.1,0.9-0.4,1.1-0.3
		c0.3,0,0.5-0.4,0.8-0.6c0.3-0.2,1.1-1,0.2-1c-0.3,0-0.5-0.3-0.8-0.3c-0.1,0-0.6-0.2-0.7-0.2c-0.2-0.2-1-0.5-1.2-0.5
		c-0.1,0-0.6-0.3-0.7-0.4c-0.2-0.2-0.7-0.2-1-0.3c-0.5-0.2-1.1-0.5-1.6-0.7c-0.6-0.2-1.8-0.4-2-1c-0.2-0.4-1.1,0-1-0.9
		c-0.3,0-0.6-0.4-0.8-0.7c-0.2-0.3-0.5-0.2-0.7-0.5c-0.3-0.6-0.9-0.7-1.4-1.2c-0.3-0.3-1.2-0.7-1.2-1.2c0-0.2-0.9-1.1-1.1-1.3
		c-0.4-0.3-1-1.1-1.5-1.3c-0.7-0.2-1.1-1.2-1.7-1.6c-0.3-0.2-0.6-0.9-1.1-0.9C49.1,8.7,48.1,8.7,48.7,9.4
		C48.7,9.6,48.7,9.5,48.7,9.4z M54.3,30.2C54.3,30.2,54.3,30.3,54.3,30.2c-1,0.1-0.3-1.1-0.1-1C54.4,29.4,54.4,30,54.3,30.2z
		 M63.8,23.9c1-0.4,2.2-1.2,3.3-1.2c0.1,0.4-1.3,0.8-1.6,0.9c-0.3,0.1-0.9,0.3-1.2,0.3c-0.3,0-0.6,0.3-0.9,0.3
		C63.4,23.9,63.7,23.9,63.8,23.9z M57.6,20c-0.3,0.2-0.6,0.1-0.6-0.3C57.1,19.5,57.7,19.6,57.6,20z M58.1,27.5
		c0-0.2,0.1-0.2,0.3-0.3C58.4,27.4,58.2,27.4,58.1,27.5z M58,25.9c-0.3-0.3-0.1-0.8,0.4-0.8C58.8,25.3,58.5,26,58,25.9z M58.9,26.9
		c0.4-0.3,1.1-1,1.6-1.2c0.5-0.2,1.1-1.1,1.7-1c0,0.2-1.4,1.2-1.6,1.3c-0.3,0.2-1.3,1.2-1.8,1C58.7,26.9,58.8,26.9,58.9,26.9z
		 M56.2,15.8C56.4,15.9,56.3,15.8,56.2,15.8c0.3,0.2,2.5,2.1,2.5,2.2c-0.2,0.2-2.8-1.9-2.8-2.3C56,15.7,56.1,15.7,56.2,15.8z
		 M52.4,15.8c0.6-0.1,0.8,0.4,0.7,0.8C52.6,16.9,52.1,16.2,52.4,15.8z M52.8,17c0.5-0.1,0.6,0.2,0.8,0.4C56,17.7,52.4,19,52.8,17z
		 M54.9,22c-0.2-0.2-0.2-0.3,0-0.5C55.5,21.3,55.5,22.1,54.9,22z M55.5,17.3c-0.4-0.1-0.7-0.5-1.1-0.7
		C54.7,15.6,56.5,16.8,55.5,17.3z M52.5,12.1c0.2,0.1,0.8,0.5,0.9,0.7c0.2,0.6,1,1.1,1.4,1.7c-0.5,0.1-1.3-1.4-1.7-1.7
		c-0.2-0.2-0.9-0.5-0.9-0.8C52.2,12,52.3,12.1,52.5,12.1z M50.5,12.5c0.3,1.8,1.4,3.6,1.4,5.5c-0.2-0.1-0.5-1.2-0.5-1.4
		c0-0.7-0.4-1.2-0.5-1.8c-0.1-0.3,0-1.2-0.3-1.4C50.4,13.2,50.3,12.5,50.5,12.5z M50.2,11.9c0.1,0,0.2,0.3,0.1,0.3
		C50.1,12.2,50.2,12,50.2,11.9z"/>
	<path class="st0" d="M114.1,17.1c0-0.1,0-0.1-0.1-0.2C114,17.1,114.1,17.2,114.1,17.1z"/>
	<path class="st0" d="M104.5,22.9C104.5,22.9,104.5,22.9,104.5,22.9C104.4,22.9,104.6,23,104.5,22.9z"/>
	<path class="st0" d="M112.5,15.6C112.5,15.8,112.7,15.6,112.5,15.6L112.5,15.6z"/>
	<path class="st0" d="M96.1,22.5C96.2,22.6,96.2,22.5,96.1,22.5c0.3,0.3,1.3,0.6,1.5,0.6c0.5-0.1,1,0.3,1.3,0.5
		c0.5,0.2,1,0.4,1.5,0.7c0.2,0.1,0.3,0.3,0.6,0.3c0.1,0,0.6,0.3,0.7,0.3c0.1,0.2,0.3,0.2,0.5,0.2c0.2,0,0.2,0.2,0.3,0.3
		c0.2,0.2,0.5,0.1,0.7,0.3c0.5,0.5,1.4,0.7,2,1c1,0.5,1.9,1.3,2.8,1.8c0.4,0.2,0.6,0.4,1,0.6c0.4,0.2,1,0.5,1.2,0.9
		c0.2,0.3,0.5,0.5,0.8,0.8c0.1,0.2,0.6,0.3,0.7,0.5c0,0.1,0.4,0.4,0.5,0.4c0.3,0.2,0.4,0.2,0.7,0.4c0.5,0.4,0.8,0.4,1.3,0.3
		c0.4-0.1,0.1-1.2,0.1-1.5c0.1-1.2-0.5-2.7-0.5-4c-0.3,0.4-0.6-0.7-0.1-0.4c-0.4-1.1,0-2.6,0.1-3.8c0.1-0.6,0-1.2,0-1.8
		c0-0.6,0.3-1.2,0.4-1.8c0-0.8,0.5-1.1,0.4-2c-0.2-0.9,0.3-1.8,0.2-2.6c-0.1-0.3,0.1-0.2,0.1-0.5c0.1-0.3,0-0.6,0-0.9
		c0.1-0.3,0.1-0.6,0.3-0.9c0.2-0.4,0.1-0.8,0.3-1.2c0-0.1,0.1-0.6,0.2-0.7c0.1,0,0.2-0.7,0.2-0.8c0.1-0.4,0.2-0.8-0.3-0.8
		c-1.4,0.1-1.7,1.5-2.4,2.4c-0.4,0.5-1.1,1.1-1.6,1.6c-0.4,0.4-0.8,1-1.2,1.5c-0.4,0.6-0.9,1-1.4,1.4c-0.3,0.2-0.6,0.3-0.9,0.5
		c-0.4,0.2-0.7,0.7-1.2,0.8c-0.7,0.2-1.2,0.7-1.9,1c-0.5,0.3-0.9,0.8-1.5,1c0.6,0,0.7,0.8,0.5,1.2c-0.2,0.6-1.1,0.5-0.6-0.2
		c-0.3,0-1.1,0.2-0.9-0.3c0.2-0.4,0.6-0.4,0.9-0.7c-0.6,0.1-1,0.5-1.5,0.6c-0.3,0.1-0.4,0.3-0.7,0.3c-0.1,0.3-0.9,0.5-1.1,0.5
		C99.6,20.7,94.9,20.8,96.1,22.5C96.1,22.5,96.1,22.5,96.1,22.5z M114,14.9C114,14.9,114,14.9,114,14.9c0-0.2,0.2-0.3,0.1-0.5
		c-0.2-0.3,0.2-0.5,0.1-0.8c0.1,0,0.1,0,0.1,0c-0.1,0.4-0.1,0.7-0.1,1.1c0,0.4-0.2,0.9-0.2,1.3C113.9,16.1,114,15.1,114,14.9z
		 M114,17c0.1,0.1,0.1,0.1,0.1,0.2c0,0.3-0.1,0.7-0.3,0.7C113.9,17.5,114,17.3,114,17z M113.7,18.1c0.2,0,0.2,0.3,0,0.4
		C113.5,18.4,113.7,18.1,113.7,18.1z M113.6,18.6c0.2,0.1,0,0.4,0,0.5C113.4,19,113.5,18.7,113.6,18.6z M113.5,19.1
		c0.2,0-0.1,2-0.1,2.1c0,0.3,0.1,0.6,0.1,0.9c0,0.4-0.4,0.9-0.4,1.3c-0.1,0.3,0.1,0.7,0.1,1c0,0.4-0.1,0.8,0,1.2
		c0.3,1.1,0.2,2.3,0.1,3.5c-0.4,0-0.6-3.5-0.7-3.8c0-1.5-0.4-3.5,0.3-4.9c0,0,0,0,0,0c0.1-0.2,0.1-0.8,0.2-0.8
		C113.3,19.6,113.5,19.2,113.5,19.1z M112.5,15.6C113.7,15.5,112.2,16.6,112.5,15.6L112.5,15.6z M112.3,17c0.3,0.4-0.8,1.1-1,0.5
		C111.3,17,112,16.5,112.3,17z M111.3,18c0.5,0.4,1.3,0.4,1.5,1.1c-0.4,0.2-0.9,0.1-1.3-0.2C111.2,18.5,111.2,18.3,111.3,18z
		 M108.5,23.4C108.1,22.3,109.6,23.2,108.5,23.4L108.5,23.4z M107,18.3c0.5-0.2,0.6,0.6,0.3,0.7C106.9,19.1,106.9,18.5,107,18.3z
		 M106.2,20.1c0.7-0.3,0.6,1-0.1,0.5C106.2,20.4,106.2,20.2,106.2,20.1z M104.9,22.8c-0.3,0-0.5,0-0.5-0.2
		C104.4,21.9,105.4,22.4,104.9,22.8z M104.5,22.9C104.5,22.9,104.5,22.9,104.5,22.9c0.2,0.2,0.2,0.5-0.1,0.5
		C103.9,23.4,104.1,22.9,104.5,22.9z"/>
	<path class="st0" d="M111.3,18C111.3,18,111.8,18.3,111.3,18L111.3,18z"/>
	<path class="st0" d="M114,14.9C114,14.9,114,14.9,114,14.9C114,15.1,114,14.9,114,14.9z"/>
	<path class="st0" d="M113.7,18.1C113.7,18.2,113.7,18.1,113.7,18.1L113.7,18.1z"/>
	<path class="st0" d="M117.5,36.5c0.3,0.3,0.3,0.7,0.7,0.9c0.3,0.2,0.6,0.3,0.8,0.6c0.3,0.4,0.4,0.7,0.5,1.1
		c0.1,0.2,0.4,0.3,0.5,0.5c0.1,0.1,0.2,0.3,0.3,0.4c0.2,0.1-0.1,0.4,0.2,0.5c0.1,0.1,0.3,0.5,0.4,0.5c0,0,0.2,0.3,0.3,0.3
		c0.1,0.1,0.2,0.5,0.2,0.6c0.2,0.4,0.6,1.1,1,1.3c0.2,0.2,0.4,0.7,0.5,0.9c0.2,0.3,0.3,0.7,0.5,1.1c0.1,0.3,0.2,0.7,0.4,1
		c0.1,0.2,0.1,0.7,0.3,0.8c0.3,0.3,0.2,0.8,0.4,1.1c0.3,0.4,0.4,1.1,0.5,1.6c0.3-0.1,0.6,0,0.9,0.1c-0.1-0.2-0.5-0.8-0.4-1
		c0.4,0.1,0.7,1.1,0.9,1.3c0.3,0.3-0.1,0.4,0,0.7c0.3,0.1,0.6,0.2,0.8,0.4c0.2,0.3,0.3,1.5-0.2,1.4c0.5,0.2,0.9,0.1,0.9-0.6
		c-0.7,0.3-0.4-1.2,0.2-0.5c0.2-0.2,0.1-0.9,0.3-1.2c0.1-0.3,0.3-0.6,0.4-0.9c0.2-0.7,0.6-1.1,0.7-1.8c0.1-0.4,0.4-0.7,0.6-1
		c0.1-0.2,0.4-0.7,0.4-0.9c0-0.2,0.2-0.1,0.3-0.2c0.1-0.1,0.2-0.5,0.2-0.6c0.1-0.3,0.3-0.9,0.6-1.1c0.2-0.1,0.6-1.2,0.6-1.3
		c0-0.6,0.4-0.2,0.5-0.6c0-0.3,0.2-0.3,0.4-0.7c0.3-0.6,1-0.9,1.4-1.5c0.1-0.1,0.2-0.5,0.4-0.4c0.1,0,0.5-0.7,0.7-0.8
		c0.4-0.5,1.2-0.7,1.6-1.2c0.2-0.3,0.6-0.5,0.8-0.8c0.2-0.2,0.6-0.6,0.8-0.8c0.6-0.5,3.3-2.4,1.8-3.1c-0.8-0.3-1.5,0.3-2.2,0.6
		c-0.4,0.1-0.8,0.5-1.2,0.5c-0.3,0-0.4,0.2-0.7,0.2c-0.4,0-0.5,0.2-0.9,0.3c-1.5,0.1-3,1.1-4.6,1.4c-1.6,0.4-3.5,0.5-5.2,0.3
		c-0.6-0.1-1.2-0.1-1.7-0.2c-0.4-0.1-1.3-0.2-1.8,0c-0.1,0.1-0.4-0.1-0.6-0.1c-0.4,0-0.8-0.2-1.2-0.2c-0.7-0.1-1-0.3-1.5-0.6
		c-0.6-0.3-2.4-1-2.1,0.5C116.7,35.7,117.4,36.3,117.5,36.5z M135.1,35.2c-0.2,0-0.2,0.1-0.4,0C134.8,35.1,135.1,34.9,135.1,35.2z
		 M134.2,38.4c0,0,0,0-0.1,0.1c0,0,0,0-0.1,0c-0.4,0-0.2-0.4-0.2-0.6C134.1,37.8,134.4,38.2,134.2,38.4z M132.7,35.7
		c0.4-0.2,1.4-0.7,1.8-0.5c-0.1,0.2-0.8,0.3-1.1,0.4c-0.3,0.1-0.7,0.1-1.1,0.2C132.4,35.6,132.6,35.8,132.7,35.7z M132.3,35.9
		C132.3,36,132.2,36,132.3,35.9c-0.2,0.1-0.6,0.2-0.7,0.1C131.7,35.8,132.1,35.9,132.3,35.9z M131.5,42.9c0,0.2-0.1,0.4-0.3,0.5
		C131.1,43.2,131.3,42.8,131.5,42.9z M129.4,46.6c0.1-0.3,0.3-0.7,0.4-0.9c0.2-0.3,0.3-0.7,0.6-1c0.1,0.1-0.8,2.1-1.1,2.1
		C129.4,46.7,129.4,46.7,129.4,46.6C129.4,46.6,129.4,46.6,129.4,46.6z M128,41c0.4-0.2,0.6,0,0.6,0.5c-0.3,0-0.5-0.1-0.6-0.3
		C128,41.2,128,41.1,128,41z M128.5,44.1C128.6,44.1,128.6,44.1,128.5,44.1c-0.1,0-0.1,0-0.1,0c-0.5,0-0.2-0.4-0.2-0.6
		C128.6,43.4,128.8,43.9,128.5,44.1z M128.6,36.4c0,0.2-0.6,0.2-0.7,0C128.2,36.4,128.4,36.4,128.6,36.4z M127.2,43.6
		c-0.3,0-0.3-0.2-0.3-0.4C127.1,43.1,127.4,43.3,127.2,43.6C127.3,43.5,127.3,43.5,127.2,43.6z M127.3,36.6c0,0.1-0.4,0.1-0.4,0
		C127,36.5,127.3,36.5,127.3,36.6z M127,38.2c0.2,0.3,0.3,0.7,0,1C126.2,39.4,126.2,38.1,127,38.2z M126.6,36.6
		c-0.1,0.2-0.4,0-0.6,0.1C126,36.5,126.4,36.5,126.6,36.6z M126.3,37.2C126.3,37.2,126.3,37.2,126.3,37.2c0.1,0.1,0.1,0.1,0.1,0.1
		c0.2,0.3,0,0.5-0.3,0.4C125.7,37.6,126,37.1,126.3,37.2z M125.2,47.1c-0.1-0.1-0.3-0.2-0.3-0.5C125.2,46.6,125.1,46.9,125.2,47.1z
		 M123.7,36.4c0,0.1-0.5,0.1-0.5,0C123.3,36.3,123.6,36.4,123.7,36.4z M122.9,41.3c0.1-0.3,0.3-0.5,0.4-0.8c0.6-0.2,0.1,0.6,0.1,0.7
		c0,0.5,1.1,0.3,1.3,1.1c0.2,1-1,0-1.1-0.4C123.3,41.5,122.8,41.8,122.9,41.3z M120.7,36.1C120.7,36.1,120.6,36.1,120.7,36.1
		C120.7,36.1,120.7,36.1,120.7,36.1c0.1,0,0.2,0,0.2,0.1c-0.1,0-0.5,0.1-0.5-0.2C120.5,36,120.6,36,120.7,36.1z M120.1,38.8
		c0.1,0.1,0.3,0.2,0.2,0.3c-0.1,0-0.4-0.5-0.4-0.6C120,38.5,120.1,38.6,120.1,38.8z"/>
	<path class="st0" d="M128.4,44.1C128.5,44.1,128.5,44.1,128.4,44.1C128.4,44.1,128.4,44.1,128.4,44.1
		C128.4,44.1,128.4,44.1,128.4,44.1z"/>
	<path class="st0" d="M132.2,36C132.3,36,132.3,35.9,132.2,36C132.2,35.9,132.2,36,132.2,36z"/>
	<path class="st0" d="M126.4,37.3C126.4,37.3,126.4,37.2,126.4,37.3c-0.1-0.1-0.1-0.1-0.1-0.1C126.3,37.2,126.4,37.3,126.4,37.3z"/>
	<path class="st0" d="M116.7,35.4C116.7,35.4,116.7,35.4,116.7,35.4L116.7,35.4z"/>
	<path class="st0" d="M128,41c0,0.1,0,0.1,0,0.2C128,41.1,128,41,128,41z"/>
	<path class="st0" d="M134,38.4C134,38.4,134.1,38.4,134,38.4c0.1,0,0.1,0,0.2-0.1C134.1,38.4,134,38.4,134,38.4z"/>
	<path class="st0" d="M120.1,38.8C120,38.7,120.2,38.9,120.1,38.8L120.1,38.8z"/>
	<path class="st0" d="M132.7,35.7C132.6,35.8,132.8,35.7,132.7,35.7L132.7,35.7z"/>
	<path class="st0" d="M129.4,46.6L129.4,46.6C129.4,46.6,129.4,46.5,129.4,46.6z"/>
	<path class="st0" d="M127.2,43.6C127.2,43.5,127.3,43.5,127.2,43.6C127.3,43.5,127.1,43.6,127.2,43.6z"/>
	<path class="st0" d="M123.3,40.5C123.2,40.9,123.5,40.4,123.3,40.5L123.3,40.5z"/>
	<path class="st0" d="M125.8,51.8c0.1,0.3,0.5,0.7,0.9,0.9C126.4,52.4,126.4,51.8,125.8,51.8z"/>
	<path class="st0" d="M126.8,52.8c0.1,0,0.1,0,0.1,0c-0.1,0-0.2-0.1-0.3-0.2C126.7,52.7,126.8,52.8,126.8,52.8z"/>
	<path class="st0" d="M125.3,50.7c0.1,0.3,0.3,0.5,0.4,0.8c0,0.1,0,0.1,0.1,0.2C125.7,51.4,125.7,50.4,125.3,50.7z"/>
	<path class="st0" d="M46.9,36.5C46.7,36.8,47,36.4,46.9,36.5L46.9,36.5z"/>
	<path class="st0" d="M25,34.7C25,34.7,25,34.7,25,34.7c0.5,0.4,1.2,0.5,1.7,0.9c0.3,0.2,0.6,0.6,0.9,0.9c0.3,0.3,0.6,0.7,0.9,0.9
		c0.5,0.3,1,1,1.5,1.3c0.5,0.2,0.5,0.8,0.9,1.1c0.1,0.1,0.3,0.1,0.3,0.1c0.2,0.3,0.4,0.7,0.6,1c0.2,0.2,0.5,0.7,0.7,0.9
		c0.3,0.3,0.4,0.6,0.7,0.9c0.5,0.6,0.7,1.3,0.9,1.9c0.3,0.8,0.9,1.3,1.2,2c0-0.2,0.1-0.2,0.3-0.2c-0.1-0.2-0.3-0.5-0.3-0.8
		c-0.1,0.1-0.4,0-0.4-0.2c-0.1-0.4,0.5-0.6,0.6-0.2c0.1,0.6,0.7,1.4,0.6,2.1c-0.2,0-0.3-0.6-0.4-0.7c-0.1,0.2-0.2,0.3-0.3,0.2
		c0.1,0.4,0.4,0.8,0.6,1.2c0.1,0.3,0.1,1,0.5,0.9c0.4,0.5,0.2,1.1,0.4,1.6c0.2,0.4,0.3,0.6,0.4,1c0.2,0.6-0.1,1.2,0.6,1.4
		c0.3,0.1,0.7-0.1,0.8-0.4c0.1-0.3,0.4-0.5,0.5-0.7c0.2-0.6,0.3-1.3,0.5-1.8c0.1-0.2,0.4-0.4,0.4-0.7c0-0.3,0.3-1,0.6-1.2
		c0.3-0.2,0.3-0.6,0.4-0.9c0.2-0.5,0.4-0.9,0.7-1.4c0.3-0.5,0.8-1.2,0.9-1.7c-0.2,0.3-0.8,0-0.7,0.4c0.1,0.3-0.3,0.4-0.3,0.7
		c0,0.2-0.3,0.3-0.4,0.4c-0.1,0.2-0.1,0.6-0.2,0.8c-0.1,0.2-1,2.4-1.3,2.3c0.1-0.1,0.1-0.6,0.2-0.7c0.1-0.2,0.2-0.4,0.2-0.6
		c0-0.2,0.4-0.7,0.3-0.9c0-0.2,0.6-1.2,0.8-1.3c0.1-0.1,0.3-0.6,0.4-0.8c0.3-0.6,0.1-0.7,0-1.3c0-0.2-0.1-0.6,0.2-0.6
		c0.5-0.1,0.3-0.2,0.2-0.6c-0.1-0.6,0.3-1,0.8-1.2c1-0.5,0.2,1,0.2,1.3c0.2-0.3,0.5-0.6,0.7-1c0.3-0.1-0.2,0.9-0.2,1
		c-0.1,0.2-0.2,0.5-0.3,0.6c-0.1,0.1-0.3,0.3-0.3,0.4c-0.3,0.5,0.4,0.3,0.1,0.9c0.2-0.1,0.6-0.8,0.7-1c0.1-0.3,0.3-0.9,0.5-1.2
		c0.2-0.3,0.3-0.7,0.5-1c0.2-0.2,0.3-0.3,0.5-0.6c0.1-0.2,0.5-0.7,0.7-0.9c0.2-0.2,0.3-0.5,0.5-0.7c0.1-0.1,0.3-0.2,0.4-0.3
		c0.2-0.3,0.6-0.6,0.8-1c0.5-0.6,0.7-1.4,1-2.3c0.1-0.2-2.6-0.1-2.7,0.5c0,0-1.3,0.4-1.5,0.4c-0.4,0-1,0-1.4,0
		c-0.2,0-0.1,0.3-0.4,0.2c-0.3-0.1-0.8-0.1-1.1-0.1c-0.1,0-0.6,0.1-0.7,0.2c-0.2,0.2-0.3,0.1-0.7,0c-0.3-0.1-0.6,0.1-0.9-0.1
		c-0.1-0.1-0.2-0.1-0.2,0c-0.2,0.1-0.2-0.1-0.3-0.2c-0.1-0.1-0.7,0-0.8,0c-0.3,0-0.6-0.2-0.8-0.2c0.2,0.4,0,0.8,0.5,1.1
		c0.4,0.2,0.6,0.6-0.1,0.6c-0.5,0-1-0.2-1.4-0.6c-0.6-0.5-0.5-0.6,0.2-0.8c-0.2-0.2-0.8-0.2-0.7-0.6c-0.7,0.2-1.4-0.2-2.1-0.5
		c-0.2-0.1-0.5-0.1-0.7-0.2c0,0-0.8-0.4-0.8-0.4c0.3,0.1,0,0.6,0.3,0.7c0.2,0.1,0.5,0.4,0.8,0.3c-0.3-1,1.1,0.2,1.2,0.3
		c0,0-0.2,0.6-0.3,0.7c-0.3,0.5-0.8,0.3-0.6-0.3c0.1-0.6-1.2-0.2-1.6-0.5c-0.7-0.1-1.3-0.5-1.9-0.7c-0.3,0-2.2-0.6-2.2-0.8
		c0.1-0.1,0.9,0,1,0.1c0.4,0.3,1.2,0.1,1.7,0.3c0.2,0,0.3,0.2,0.5,0.3c0.6,0.1,0.4-0.4,0.9-0.5c-0.3-0.2-0.7,0.1-1.1,0
		c-0.1-0.1-0.2-0.2-0.3-0.3c-0.1-0.1-0.3,0-0.4-0.1c-0.5-0.3-1.5-0.1-2-0.1c-0.9,0-1.5-0.3-2.3-0.5C24.1,33.1,24.5,34.2,25,34.7
		C24.9,34.6,24.9,34.6,25,34.7z M46.9,36.5c0.2,0-0.4,1-0.6,1C46.4,37.1,46.7,36.8,46.9,36.5z M36.2,47.4
		C36.2,47.4,36.2,47.4,36.2,47.4C36.2,47.5,36.2,47.5,36.2,47.4c0.1,0.1,0.2,0.2,0.2,0.3c-0.1-0.1-0.2-0.2-0.3-0.3
		C36.1,47.4,36.2,47.4,36.2,47.4z M35,35.9c0,0.2-0.4,0.2-0.4,0C34.6,35.8,34.9,35.9,35,35.9z M32.5,36.7c0.5,0.2,0.3,1.1-0.2,1
		C31.8,37.4,32.1,36.8,32.5,36.7z M32,40.3C34.2,39.6,33.6,42.4,32,40.3L32,40.3z"/>
	<path class="st0" d="M131.9,59.6c0,0,0,0.1,0,0.1C131.9,59.7,131.9,59.6,131.9,59.6z"/>
	<path class="st0" d="M134.6,72c0-0.1,0.1-0.1,0.1-0.2C134.7,71.9,134.6,72,134.6,72z"/>
	<path class="st0" d="M132,71.7C132,71.7,132,71.7,132,71.7c0.1,0,0.1,0,0.1,0C132.1,71.6,132,71.6,132,71.7z"/>
	<path class="st0" d="M133.2,72.7c0-0.1,0.1-0.1,0.1-0.2C133.3,72.5,133.2,72.6,133.2,72.7z"/>
	<path class="st0" d="M135.1,69.4C135.3,69.4,135.1,69.4,135.1,69.4L135.1,69.4z"/>
	<path class="st0" d="M137.1,66.1c0.1,0,0.1-0.1,0.1-0.1C137.2,66,137.1,66,137.1,66.1z"/>
	<path class="st0" d="M140.3,64c-0.5-0.2-1.1-0.4-1.6-0.5c-0.6-0.1-1.4-1.1-2-1c-0.1,0-1.1-0.5-1.1-0.6c-0.1-0.4-1.1-0.6-1.4-1.1
		c-0.2-0.3-0.8-0.9-1.1-1.1c-0.5-0.3-1-0.9-1.5-1.3c-1.2-1-1.5-2.7-3.2-2.8c-1.2-0.1-0.4,3.2-0.2,3.8c0.1,1.1,0.7,2.2,0.5,3.3
		c-0.2,1.1-0.3,2.2-0.4,3.3c-0.1,1.1-0.4,2-0.1,3.2c0.1,0.6,0.1,1.4,0,2c-0.1,0.5,0.1,1.1-0.2,1.5c-0.5,1-1,6.2,1.3,4.5
		c-0.6,0.3-0.8-0.4-0.4-0.8c0.3-0.2,1.1-1,1.4-0.9c0.3,0.2,0.2,0.3,0.6,0.2c0.3-0.2,0.4-0.4,0.7-0.6c0.4-0.2,0.6-0.5,0.9-0.8
		c-0.5-0.6,0.5-0.4,0.3-0.2c0.6-0.3,1-1.2,1.7-1.3c-0.3-0.2,0.1-0.8,0.4-0.2c0.2-0.2,0.7-0.6,0.9-0.6c0.4-0.1,0.7-0.5,1.1-0.6
		c0.1,0,0.4-0.1,0.5-0.2c0.1-0.1,0.1-0.4,0.3-0.5c0.2-0.1,0.4,0,0.6-0.2c0.1-0.1,0.2-0.3,0.3-0.3c0.6-0.6,1.7-0.4,2.4-0.8
		c0.4-0.2,1-0.4,1.4-0.4c0.4,0,0.8-0.3,1.2-0.3c0.3,0,0.7-0.1,1-0.2c0.5-0.3,1.3-0.1,1.9-0.4c0.4-0.2,1.1-0.3,1.5-0.4
		c0.3-0.1,1.2-0.2,1.5-0.4c0.4-0.4,0.1-0.8-0.2-1c-0.9-0.6-1.9-0.6-2.9-0.6c-0.3,0-0.5,0-0.9-0.2c-0.3-0.1-1.1,0.2-1-0.1
		c-0.3,0-0.6-0.1-0.9-0.1c-0.3-0.1-0.7-0.4-1-0.4c-0.3,0-0.6-0.2-0.8-0.3C141.3,64.2,140.8,64.3,140.3,64
		C140.3,64,140.3,64,140.3,64z M129.5,57.1c0,0.4-0.6,0.1-0.6-0.2C129,56.7,129.5,57,129.5,57.1z M128.4,68.5
		C128,67.7,129.3,68.2,128.4,68.5L128.4,68.5z M129.1,73.3c0,0.2-0.2,1.3-0.5,1.4c-0.3-0.5,0.3-1.3,0.3-1.8c0-1.2,0.1-2.3,0-3.5
		c-0.1-0.8,0.1-1.6,0.2-2.3c0-0.1,0-0.3,0-0.4c0-0.1,0.2-0.1,0.2-0.3s0.1-0.3,0.1-0.4c0-0.3-0.1-0.6,0-0.9c0.3,0,0.1,2.3,0.1,2.7
		c0,0.4-0.1,0.8-0.1,1.2c0,0.3,0.1,0.6,0.1,1c0,0.4,0,0.6,0.1,1c0.1,0.4-0.2,0.6-0.2,0.9c0,0.3-0.1,0.7-0.1,1.1
		C129.5,72.7,129.6,73.5,129.1,73.3z M129.5,72.3c-0.5-0.6,0.8-0.9,0.8-0.3C130.2,72.3,129.7,72.5,129.5,72.3z M130,69.8
		c0.2-0.2,0.5,0,0.5,0.3C130.3,70.4,130,70.1,130,69.8z M131.3,59.3c-0.4-0.2-0.6-0.6-0.7-1c0.5,0.3,0.8,0.8,1.2,1.1
		C131.8,59.4,131.3,59.3,131.3,59.3z M131.9,70.3c0.3,0.1,0.4,0.5,0,0.7C131.5,71,131.4,70.3,131.9,70.3z M132.1,71.6
		C132.1,71.6,132.1,71.7,132.1,71.6c-0.1,0.1-0.1,0-0.1,0c-0.2-0.1-0.3-0.3-0.1-0.5C132.2,71,132.3,71.4,132.1,71.6z M131.9,59.7
		c0,0,0,0,0-0.1c0.1,0,0.4,0.3,0.5,0.5C132.2,60,132,59.9,131.9,59.7z M133.2,60.8c-0.2,0-0.2-0.1-0.2-0.2
		C133.1,60.6,133.2,60.6,133.2,60.8z M133.4,73.3C133,74.1,132.7,72.5,133.4,73.3L133.4,73.3z M133.3,72.5c0,0,0,0-0.1,0.2
		c-0.3-0.1-0.5-0.4-0.4-0.8C133.2,71.2,133.6,72,133.3,72.5z M134.6,72c-0.1-0.1-0.3,0-0.4-0.2c-0.1-0.2-0.3-0.5-0.2-0.8
		c0.1-0.4,0.4-0.4,0.5-0.1c0.1,0.3,0.3,0.6,0.2,0.9C134.8,71.8,134.8,71.8,134.6,72z M135.1,71.3c-0.5-0.4,0.1-1.1,0.5-0.9
		C135.9,70.8,135.4,71.3,135.1,71.3z M135.1,69.4c-0.3-0.3,0.2-0.7,0.5-0.4C135.9,69.3,135.3,69.4,135.1,69.4z M136.9,68.8
		C135.9,68.5,137.8,68,136.9,68.8L136.9,68.8z M137.2,66c0,0,0,0-0.1,0.1c-0.1-0.1-0.5,0-0.4-0.4C136.9,65.1,137.5,65.6,137.2,66z
		 M146,67.5c-0.2,0.1-0.3,0-0.6,0C145.5,67.4,145.9,67.2,146,67.5z"/>
	<path class="st0" d="M136.9,68.8C137,68.7,136.8,68.7,136.9,68.8L136.9,68.8z"/>
	<path class="st0" d="M30.7,67C30.7,67,30.7,67,30.7,67c-0.1-0.1-0.1-0.1-0.1,0C30.6,67,30.7,67.1,30.7,67z"/>
	<path class="st0" d="M36.6,59.2L36.6,59.2L36.6,59.2z"/>
	<path class="st0" d="M35.6,68.2C35.6,68.2,35.6,68.2,35.6,68.2C35.6,68.2,35.6,68.1,35.6,68.2z"/>
	<path class="st0" d="M32.1,72.6C32.1,72.6,32.1,72.6,32.1,72.6C32,72.5,32.1,72.6,32.1,72.6z"/>
	<path class="st0" d="M15.8,67.2C15.8,67.2,15.7,67.1,15.8,67.2c0.1,0.1,0.5,0.1,0.6,0.1c0.2,0,0.8,0.2,1,0.2c0.3,0,0.3,0.3,0.5,0.3
		c0.4,0,0.7,0.1,1,0.3c0.4,0.2,1.6-0.2,1.9,0.4c0.1,0.1,0.7,0.4,0.9,0.4c0.4,0,0.7,0.1,1,0.2c0.2,0,0.4,0.2,0.6,0.2
		c0.1,0,0.4-0.1,0.5,0c0.1,0,1.4,0.4,1.3,0.6c0.1-0.1,0.8,0.1,0.9,0.1c0.1,0,0.3,0.3,0.4,0.3c0.2,0,0.9,0.3,1.1,0.4
		c0.2,0.1,0.3,0,0.4,0.3c0.2,0.3,0.5,0.1,0.7,0.3c0.3,0.3,0.8,0.3,1.1,0.7c0.4,0.5,1.1,0.8,1.6,1.2c0.3,0.4,0.7,0.5,1.1,0.9
		c0.2,0.2,0.6,0.5,0.6,0.8c0,0.2,0.8,0.7,1,0.8c0.4,0.3,0.8,0.8,1.1,1.2c0.2,0.2,0.4,0.5,0.7,0.7c0.4,0.3,0.6,0.1,1,0
		c0.9-0.1,0.3-1.4,0.2-1.9c0-0.4-0.2-0.8-0.1-1.2c0.1-0.6,0.3-1.6,0.1-2.2c-0.4,0.3-0.7-0.9,0-0.8C37,71.2,37,71,37,70.9
		c-0.6,0.3,0-1,0-1.1c0-0.5-0.1-0.9-0.1-1.4c-0.1-0.4,0-0.8,0-1.2c0-0.3,0.1-0.4,0.1-0.6c0-0.3-0.1-0.8-0.2-1.1
		c0-0.5-0.2-0.9-0.1-1.4c0-0.6,0.2-1,0.2-1.6c0.1-0.6,0.2-0.9,0.1-1.5c-0.1-0.4,0.1-1,0.3-1.4c0.2-0.7,0.7-2,0.1-2.6
		c-0.1-0.1-0.2-0.6-0.3-0.6c-0.3-0.1-0.7,0.2-0.8,0.3c-0.9,1-1.5,2-2.5,2.7c-0.4,0.3-0.9,0.8-1.4,0.9c-0.3,0.1-0.6,0.3-0.9,0.5
		c-0.2,0.1-0.4,0.2-0.6,0.2c-0.2,0-0.1,0.3-0.3,0.4c-0.7,0.3-1.3,0.7-2,1.2c-0.3,0.2-1,0.8-1.3,0.8c-0.2,0-0.4,0-0.5,0.2
		c-0.2,0.3-0.6-0.1-0.8,0.2c-0.6,0.3-1.1,0.6-1.7,0.7c-0.6,0-1.4,0.7-2,0.7c-0.2,0-0.7,0.2-1,0.2c-0.6,0-1,0.2-1.6,0.3
		c-0.4,0-0.9,0.1-1.3,0.2c-0.3,0.1-1-0.1-1.2,0.1C16.9,66,14.8,66.6,15.8,67.2z M36.6,59.2C36.6,59.1,36.6,59.1,36.6,59.2
		c0.1-0.2,0.3-0.2,0.2-0.4c-0.1-0.2,0-0.9,0.1-1.1c0.5,0,0.1,2-0.1,2.3C36.5,60,36.5,59.3,36.6,59.2C36.6,59.2,36.5,59.2,36.6,59.2z
		 M36.4,61.3c0.2,0,0.2,0.4,0,0.3C36.4,61.5,36.4,61.4,36.4,61.3z M35.6,68.2c0.1-0.7,0-1.5,0-2.2c0-0.4,0.2-1.6,0.5-1.9
		c0.2,0.4-0.1,0.8-0.1,1.1c0,0.3,0.1,1.1,0.2,1.3c0.2,0.4,0.1,1,0,1.4c0,0.5,0.1,1,0,1.4c-0.1,0.8,0.2,1.6,0.2,2.4
		c0,0.8-0.2,1.5-0.2,2.3c-0.3-0.1-0.1-0.9-0.1-1.1c0-0.5,0-0.9-0.2-1.4C35.7,70.5,35.6,69.2,35.6,68.2
		C35.6,68.2,35.6,68.3,35.6,68.2z M32.1,72.6C32.1,72.6,32.1,72.6,32.1,72.6c1,0.8,1.7,1.6,2.5,2.5c0.2,0.2,0.7,0.4,1.1,0.7
		c0.1,0.1,0.7,0.7,0.7,0.9c-0.5,0.2-2.1-1.7-2.4-2.1c-0.2-0.2-0.4-0.5-0.7-0.6c-0.2-0.1-0.3-0.5-0.5-0.6c-0.2-0.2-1.1-0.8-1.1-1.1
		C31.8,72.3,31.9,72.4,32.1,72.6z M30.6,67C30.6,67,30.6,67,30.6,67c0.1,0,0.1,0,0.1,0c0.1,0.2,0.1,0.4-0.1,0.4
		C30.3,67.4,30.3,67,30.6,67z M29.2,70.7c0.1,0,0.1,0.1,0.1,0.1c0,0-0.1,0,0,0c0,0,0,0,0,0c0.1,0,0.2,0.1,0.3,0.2
		C29.6,71,28.9,70.7,29.2,70.7z M20.3,66c-0.1,0.2-0.3,0.2-0.5,0.2C19.7,66,20,66.1,20.3,66z"/>
	<path class="st0" d="M52.2,83.6C52.8,83.6,47.2,83.4,52.2,83.6L52.2,83.6z"/>
	<path class="st0" d="M92.6,84.5c0,0-0.1,0-0.1,0C92.5,84.5,92.6,84.5,92.6,84.5z"/>
	<path class="st0" d="M32.9,83.8c-1.2-0.1-2.4,0.1-3.7,0.2c-2.6,0.3-5.2,0.8-7.8,0.9c0.1,0,0.5,0.4,0.7,0.5c0.6,0.3,1.3,0.2,1.9,0.3
		c1.7,0.1,3.5,0,5.2,0c1.6-0.1,3.1-0.4,4.6-0.4c1.8,0.1,3.6,0.3,5.4,0.5c3.2,0.3,6.4,0.4,9.6,0.2c1.3-0.1,2.7-0.2,4.1-0.1
		c1.4,0.2,2.7,0.6,4.2,0.5c3.5-0.2,6.9-0.6,10.4-0.7c3.4-0.1,7-0.5,10.4-0.1c3.4,0.3,6.7,0.8,10.1,0.8c3.1-0.1,6.4-0.4,9.4-1
		c0.4-0.1,0.9-0.2,1.3-0.3c-0.5-1-2.9-0.8-3.9-0.8c-2.2-0.1-4.5,0-6.7-0.3c-1.9-0.2-3.9-0.1-5.9-0.1c-2.2,0-4.3-0.4-6.5-0.5
		c-2-0.1-4,0.2-6,0.4c-2.2,0.2-4.4,0.4-6.6,0.4c-1.1,0-2.2,0-3.3-0.1c-0.2,0.3-0.5,0.5-0.8,0.2c-0.2-0.3-0.6,0-0.8,0.2
		c-0.3,0.2-0.6,0.4-0.9,0.4c-0.2,0.2-0.1,0.5-0.3,0.7c-0.5,0.7-0.4-1.3-0.3-1.6c-0.7,0-1.4-0.1-2.1-0.1c0.5,1.3-1.3,1.3-0.5,0
		c-0.7,0-1.3-0.1-2-0.1c-2.5-0.1-5.1-0.1-7.6,0c-2.7,0.1-5.3,0.5-8,0.4C35.3,84,34.1,83.8,32.9,83.8z M92.5,84.5c0.1,0,0.1,0,0.1,0
		c0.2,0.1,0.3,0.3,0.2,0.4C92.5,85.2,92.3,84.8,92.5,84.5z"/>
	<path class="st0" d="M107.1,84.7c0.1,0,0.1,0.1,0.1,0.1C107.2,84.8,107.1,84.7,107.1,84.7z"/>
	<path class="st0" d="M120.2,84.6c0.1-0.3,0.2-0.6,0.4-0.8c-1.7-0.2-3.4-0.4-5.1-0.4c-0.4,0-0.8,0-1.2,0c-0.4,0-0.5,0.4-0.9,0.3
		c-0.5-0.1,0-0.3-0.7-0.2c-0.5,0-1.1,0.1-1.6,0.2c-1.9,0.2-3.8,0.5-5.7,0.7c-0.6,0.1-1.1,0.1-1.8,0.1c-0.4,0-1.3,0-1.5,0.5
		c1.4,0.3,2.9,0.3,4.3,0.3c1.6,0,3.2,0.2,4.9,0.2c1.5,0.1,3.1,0,4.6,0.1c0.4,0,0.8,0.1,1.2,0.1c0.6,0.1,0.3-0.2,0.5-0.6
		c0.3-0.7,0.6-0.9,0.9-0.2c0.2-0.3,0-0.6,0.3-0.8C119.4,84.2,119.8,84.4,120.2,84.6z M107.2,84.8c0,0,0,0-0.1-0.1
		c0.1-0.4,0.4-0.5,0.8-0.1C107.7,84.8,107.5,84.9,107.2,84.8z"/>
	<path class="st0" d="M126.4,86.1c2.5-0.1,4.9-0.4,7.3-0.6c4.4-0.4,8.9,0,13.3-0.7c-0.7-0.7-2.1-0.4-2.9-0.4c-1.1,0-2.1-0.1-3.2-0.2
		c-2.3-0.1-4.6,0.4-6.9,0.2c-1.1-0.1-2.2-0.2-3.4-0.3c-0.6-0.1-1.2-0.1-1.8-0.2c-0.3,0-0.5,0-0.8-0.1c-0.6,0-0.2,0-0.5,0.3
		c-0.4,0-0.4-0.3-0.9-0.4c-0.6,0-1.3,0-1.9,0c-0.6,0-1.2,0-1.8,0c-0.2-0.1-0.3,0-0.4,0.2c-0.3,0-0.3-0.2-0.7-0.2
		c0.1,0.7-0.3,0.3-0.7,0.5c-0.1,0.3-0.2,0.7-0.5,1c-0.2,0.3-0.5,0.3-0.7,0c-0.3-0.4-0.9,0.3-1.2,0.5
		C121.3,86.1,123.9,86.2,126.4,86.1z"/>
	<path class="st0" d="M163.6,91.3C163.7,91.3,163.7,91.3,163.6,91.3C162.6,91.1,163.4,91.3,163.6,91.3c-2.8-0.7-5.7,0-8.5,0
		c-1.6,0-3.1-0.3-4.6-0.5c-1.7-0.2-3.4-0.3-5-0.3c-3.2-0.1-6.5-0.2-9.7,0.1c-3.1,0.2-6.4,0.5-9.5,0.3c-3.4-0.2-6.8-0.1-10.1-0.4
		c-3.3-0.3-6.5,0.2-9.8,0.2c-1.5,0-3.1,0-4.6-0.1c-0.5,0-0.3,0.3-0.7,0.3c-0.4-0.3,0.1-0.3-0.5-0.3c-0.8-0.1-1.7-0.1-2.5-0.1
		c-3.2-0.2-6.3-0.1-9.4,0.3c-3.4,0.4-6.8,0.6-10.2,0.4c1,0.4-0.9,0.8-0.1,0c-1.1,0-2.2-0.1-3.2-0.2c-0.5,0-1.1-0.2-1.4,0.1
		c-0.3-0.4-1-0.3-1.5-0.3c-0.6,0-1.1-0.1-1.7-0.1c-0.2,0-1,0.2-1.1,0.1c-0.7-0.4-2.5,0-3.4,0.1c-2.3,0.1-4.7,0.2-6.9-0.3
		c-1.1-0.2-2.2-0.6-3.4-0.7c-0.5-0.1-1-0.1-1.5-0.1c-0.3,0-0.9,0.4-1,0c-2.4-0.1-4.8-0.2-7.1-0.3c-2.3,0-4.7,0.2-7,0.3
		c-2.3,0.1-4.6,0.2-7,0.2c-1.1,0-2.2,0-3.3-0.1c-0.4,0-0.4,0.3-0.9,0.4c-0.2,0-0.4,0.1-0.6,0.2c-0.2-0.2-0.2-0.5,0-0.7
		c-2.4-0.1-4.8,0.2-7.2,0.6c-2.3,0.4-4.6,0.4-7,0.4c-2.1,0-4.2,0.1-6.3,0.2C4.4,91,2.1,90.9,0,91.6c1.9,0.6,4,0.2,5.9,0.3
		c2.1,0.1,4.2,0.4,6.3,0.5c4.3,0.1,8.6-0.1,12.8,0.2c2,0.1,4.1,0.5,6.1,0.4c2-0.1,4-0.6,6.1-0.7c4.2-0.2,8.5-0.3,12.8,0.2
		c-0.3-0.8,1.8-0.8,1,0.1c2.2,0.3,4.4,0.7,6.7,0.8c1.1,0.1,2.2,0.1,3.2,0.1c0.7,0,2.8,0.4,3.2-0.2c0.3,0.2,0.3,0.2,0.7,0.2
		c-0.1-0.3,0.2-0.4,0.4-0.2c0.6,0.4,1.5,0.2,2.3,0.2c1.8,0,3.6,0,5.4,0c3.5-0.1,7.1-0.3,10.6-0.3c1.7,0,3.4,0,5,0.1
		c1.7,0.1,3.4,0.3,5,0c1.6-0.2,3-0.6,4.6-0.7c1.7-0.1,3.4,0.1,5.1,0.3c6.6,0.8,13.1,0.2,19.7-0.1c3.5-0.2,6.9-0.2,10.4-0.4
		c1.6-0.1,3.2,0,4.9,0.1c1.7,0.1,3.3-0.4,5-0.6c1.9-0.2,3.8,0.1,5.7,0.1c1.8,0,3.5,0,5.3,0.1c3.3,0.1,6.8,0.3,10-0.5
		C164.1,91.5,163.9,91.4,163.6,91.3z M19.7,91.9C20.6,90.4,20.9,93.2,19.7,91.9L19.7,91.9z M21.2,91.9
		C21.2,91.9,21.2,91.9,21.2,91.9c0-0.1-0.2-0.4,0.1-0.4C21.7,91.5,21.5,92,21.2,91.9z M26.2,91.9c0.2-0.4,0.5-0.3,0.8-0.3
		C28.9,89.9,27.6,93.5,26.2,91.9z M31,90.5c-0.1-0.3,0.3-0.7,0.6-0.3C31.6,90.5,31.3,90.7,31,90.5z M63.8,93c-0.3,0-0.2-0.3,0-0.4
		C64,92.7,63.9,92.8,63.8,93z M65.3,92.3c-0.2,0.3-0.2,0.2-0.2,0.1c-0.4,0.2-1.2,0-1.3-0.3c-0.2-0.7,1-1,0.8-0.1
		c0.3,0,0.7-0.1,0.7,0.2C65.3,92.2,65.3,92.3,65.3,92.3z M99.1,91C99.2,89.8,100.1,91.3,99.1,91L99.1,91z M113.3,92.5
		c-0.3,0.2-0.6,0-0.9,0c-0.1,0-0.3,0-0.4,0.1c-0.4,0.2-0.3,0.1-0.7-0.2c-0.8-0.4-0.4,0.1-0.8,0.4c-0.4,0-0.8-0.2-0.7-0.7
		c0.2-0.6,1.3-1.2,1.6-0.5c0.1,0.3,0.7-0.2,1.1-0.2c0.6,0.1,0.7,0.7,1,1C113.1,92.7,113.2,92.6,113.3,92.5z M115.7,92.5
		c-0.2,0-0.2-0.1-0.1-0.1c-0.3-0.2-0.9-0.8-0.5-0.9c0.2-0.1,0.4,0.1,0.5,0.2C116,92.1,116,92.2,115.7,92.5z M116.5,91.2
		c0.4-0.1,1.2-0.1,1.2,0.5C117.4,92.1,116.2,91.8,116.5,91.2z M139.7,91C140.8,89.9,140.3,92.4,139.7,91L139.7,91z"/>
	<path class="st0" d="M113.3,92.5c0.1,0,0.1-0.1,0.1-0.1C113.4,92.3,113.3,92.4,113.3,92.5z"/>
	<path class="st0" d="M115.6,92.5c0.1,0,0.1,0.1,0.1,0.1C115.8,92.5,115.6,92.5,115.6,92.5z"/>
	<path class="st0" d="M65.1,92.5c0.1,0,0.1-0.1,0.2-0.1c0,0,0-0.1,0-0.1C65.2,92.2,65.1,92.4,65.1,92.5z"/>
	<path class="st0" d="M21.1,91.9C21.1,91.9,21.2,91.9,21.1,91.9C21.2,91.9,21.1,91.8,21.1,91.9z"/>
</g>
</svg>
