<?xml version="1.0" encoding="utf-8"?>
<!-- Generator: Adobe Illustrator 23.0.3, SVG Export Plug-In . SVG Version: 6.00 Build 0)  -->
<svg version="1.1" id="Ebene_1" xmlns="http://www.w3.org/2000/svg" xmlns:xlink="http://www.w3.org/1999/xlink" x="0px" y="0px"
	 viewBox="0 0 16 16" style="enable-background:new 0 0 16 16;" xml:space="preserve">
<style type="text/css">
	.st0{fill:#7F7674;}
</style>
<path class="st0" d="M15.6,12.2l-2.1-2.1C13,9.7,12.2,9.6,11.7,10l-1.3,0.9c-0.3-0.1-1.1-0.6-2.9-2.4c-0.9-0.9-1.5-1.6-2-2.2
	C5.4,6.2,5.3,6,5.2,5.9C5.1,5.7,5.1,5.6,5,5.6l0.9-1.3C6.3,3.7,6.3,3,5.8,2.5L3.7,0.4C3.2-0.1,2.5-0.1,1.9,0.3L1,1
	C0.9,1.1,0.8,1.2,0.7,1.3c-2.4,3.3,1.9,8.2,3.9,10.1c3,3,5.8,4.5,7.9,4.5c0.9,0,1.6-0.2,2.2-0.7c0.1-0.1,0.2-0.2,0.3-0.3l0.7-0.9
	C16.1,13.5,16.1,12.7,15.6,12.2z M14.9,13.4l-0.7,0.9c0,0-0.1,0.1-0.1,0.1c-2.1,1.6-6-0.8-8.9-3.7C3.9,9.4-0.5,4.7,1.5,1.9
	c0,0,0.1-0.1,0.1-0.1l0.9-0.7C2.6,1,2.7,1,2.7,1C2.8,1,2.9,1,3,1.1l2.1,2.1c0.1,0.1,0.2,0.4,0,0.5l-1,1.5l0,0.1
	C3.9,5.5,4,5.9,4.4,6.4c0.1,0.1,0.2,0.3,0.3,0.5c0.5,0.6,1.2,1.4,2.1,2.3c3.1,3,3.7,2.8,3.9,2.7l1.6-1.1c0.2-0.1,0.4-0.1,0.5,0
	l2.1,2.1C15,13.1,15,13.3,14.9,13.4z M8.6,3.8l-0.5,0l0-1l0.5,0c1.8,0,3.3,1,4.1,2.6c0.3,0.6,0.5,1.3,0.5,2V8h-1V7.5
	c0-0.5-0.1-1.1-0.4-1.6C11.2,4.6,9.9,3.8,8.6,3.8z M8.6,1.4H8.1l0-1h0.5c2.7,0,5.1,1.5,6.2,4c0.5,1,0.7,2,0.7,3.1V8h-1V7.5
	c0-0.9-0.2-1.8-0.6-2.6C12.9,2.8,10.9,1.5,8.6,1.4z"/>
</svg>
