<?xml version="1.0" encoding="utf-8"?>
<!-- Generator: Adobe Illustrator 23.0.3, SVG Export Plug-In . SVG Version: 6.00 Build 0)  -->
<svg version="1.1" id="Ebene_1" xmlns="http://www.w3.org/2000/svg" xmlns:xlink="http://www.w3.org/1999/xlink" x="0px" y="0px"
	 viewBox="0 0 1920 42" style="enable-background:new 0 0 1920 42;" xml:space="preserve">
<style type="text/css">
	.st0{fill:#F1DDD5;}
</style>
<g>
	<path class="st0" d="M1899.7,17.5c0.6,2,8.2,4.3,20.3,0.4v-7.2C1911.7,13.8,1899.1,15.5,1899.7,17.5z"/>
	<path class="st0" d="M1920,18c-10.5,5.1-23.6,8.3-37.7,8.4c-15.5,0-25-5.5-35.7-11.1c-6.2-3.2-17.7-11.2-22.6-11.1
		c-3.3,0.1-6.7,3.9-11.6,6.8c-12.2,7.3-27.1,13.3-43.6,14.4c-22,1.5-38-4.8-50.9-11.7c-4-2.2-9.6-8.1-13.1-8
		c-2.8,0.1-9.3,5.7-14.5,8.7c-5.3,3.1-11.3,6.3-16,7.5c-21,5.1-45.7,1.4-60.4-6.7c-6.6-3.7-9.1-10-15.3-9.9
		c-3.9,0.1-12.2,6.6-16,8.7c-5,2.9-11.8,6.7-16.7,8.1c-32.5,9.2-61.7-2.5-80.7-14.1c-3.8-2.3-9.3-7.8-12.4-8
		c-5-0.4-16.1,6.4-21.8,9.3c-7.8,4-23.9,5.9-23.3,8.1c0.4,1.4,4.3,3,10.7,2.4c-9.7,4-21.2,6.4-33.4,6.4c-15.5,0-25-5.5-35.7-11.1
		c-6.2-3.2-17.7-11.2-22.6-11.1c-3.3,0.1-6.7,3.9-11.6,6.8c-12.2,7.3-27.1,13.3-43.6,14.4c-22,1.5-38-4.8-50.9-11.7
		c-4-2.2-9.6-8.1-13.1-8c-2.8,0.1-9.3,5.7-14.5,8.7c-5.3,3.1-11.3,6.3-16,7.5c-21,5.1-45.7,1.4-60.4-6.7c-6.6-3.7-9.1-10-15.3-9.9
		c-3.9,0.1-12.2,6.6-16,8.7c-5,2.9-11.8,6.7-16.7,8.1c-32.5,9.2-61.7-2.5-80.7-14.1c-3.8-2.3-9.3-7.8-12.4-8
		c-5-0.4-16.1,6.4-21.8,9.3c-4,2-6.9,4.8-15.1,4.8c-8.9,0-17.9-10.9-27.5-10.9c-3.1,0-6.1,4.8-9.4,7.5
		c-11.3,9.1-29.5,15.6-49.4,15.6c-15.5,0-25-5.5-35.7-11.1c-6.2-3.2-17.7-11.2-22.6-11.1c-3.3,0.1-6.7,3.9-11.6,6.8
		c-12.2,7.3-27.1,13.3-43.6,14.4c-22,1.5-38-4.8-50.9-11.7c-4-2.2-9.6-8.1-13.1-8c-2.8,0.1-9.3,5.7-14.5,8.7
		c-5.3,3.1-11.3,6.3-16,7.5c-21,5.1-45.7,1.4-60.4-6.7c-6.6-3.7-9.1-10-15.3-9.9c-3.9,0.1-12.2,6.6-16,8.7c-5,2.9-11.8,6.7-16.7,8.1
		c-32.5,9.2-61.7-2.5-80.7-14.1c-3.8-2.3-9.3-7.8-12.4-8c-4.4-0.3-13.6,5-19.6,8.2c-5.4-2.5-11.4-5.2-14.3-4.9
		c-3.1,0.3-6.1,4.8-9.4,7.5c-11.3,9.1-29.5,15.6-49.4,15.6c-15.5,0-25-5.5-35.7-11.1c-6.2-3.2-17.7-11.2-22.6-11.1
		c-3.3,0.1-6.7,3.9-11.6,6.8c-12.2,7.3-27.1,13.3-43.6,14.4c-22,1.5-38-4.8-50.9-11.7c-4-2.2-9.6-8.1-13.1-8
		c-2.8,0.1-9.3,5.7-14.5,8.7c-5.3,3.1-11.3,6.3-16,7.5c-21,5.1-45.7,1.4-60.4-6.7c-6.6-3.7-9.1-10-15.3-9.9
		c-3.9,0.1-12.2,6.6-16,8.7c-5,2.9-11.8,6.7-16.7,8.1C34.4,27.7,15.8,25.5,0,20.4V42h1920V18z M1029.6,26.2c2.1,0.8,4.2,1.5,6.4,2.2
		C1033.8,27.7,1031.6,27,1029.6,26.2z M1120.9,14c-1.4-0.1-3.2,0.6-5.2,1.5C1117.7,14.6,1119.4,13.9,1120.9,14
		c0.8,0,1.5,0.2,2.2,0.5C1122.4,14.2,1121.6,14,1120.9,14z M1130.5,19.6c0.6,0.4,1.2,0.8,1.8,1.2C1131.6,20.4,1131,20,1130.5,19.6z
		 M1133.2,21.4c3.1,1.7,6.7,3.2,10.6,4.5C1139.9,24.6,1136.4,23.1,1133.2,21.4z M1162.5,30.1c1.7,0.2,3.4,0.4,5.2,0.6
		C1165.9,30.6,1164.2,30.4,1162.5,30.1z M1314.7,28c3.8-1.4,7.5-2.9,11.2-4.6C1322.2,25,1318.5,26.6,1314.7,28z M1328.2,22.3
		c3.9-2.1,8.6-5.2,12.5-7.2C1336.8,17.2,1332.1,20.2,1328.2,22.3z M1598,14c-1.4-0.1-3.2,0.6-5.2,1.5
		C1594.8,14.6,1596.6,13.9,1598,14c0.8,0,1.5,0.2,2.2,0.5C1599.5,14.2,1598.8,14,1598,14z M1607.6,19.6c0.6,0.4,1.2,0.8,1.8,1.2
		C1608.8,20.4,1608.2,20,1607.6,19.6z M1610.4,21.4c3.1,1.7,6.7,3.2,10.6,4.5C1617.1,24.6,1613.5,23.1,1610.4,21.4z M1639.7,30.1
		c1.7,0.2,3.4,0.4,5.2,0.6C1643.1,30.6,1641.4,30.4,1639.7,30.1z M1791.8,28c3.8-1.4,7.5-2.9,11.2-4.6
		C1799.4,25,1795.7,26.6,1791.8,28z M1805.4,22.3c3.9-2.1,8.6-5.2,12.5-7.2C1813.9,17.2,1809.3,20.2,1805.4,22.3z"/>
</g>
</svg>
